<?xml version="1.0" encoding="utf-8" standalone="no"?>
<!DOCTYPE svg PUBLIC "-//W3C//DTD SVG 1.1//EN"
  "http://www.w3.org/Graphics/SVG/1.1/DTD/svg11.dtd">
<!-- Created with matplotlib (https://matplotlib.org/) -->
<svg height="294.24625pt" version="1.1" viewBox="0 0 737.549375 294.24625" width="737.549375pt" xmlns="http://www.w3.org/2000/svg" xmlns:xlink="http://www.w3.org/1999/xlink">
 <defs>
  <style type="text/css">
*{stroke-linecap:butt;stroke-linejoin:round;}
  </style>
 </defs>
 <g id="figure_1">
  <g id="patch_1">
   <path d="M 0 294.24625 
L 737.549375 294.24625 
L 737.549375 0 
L 0 0 
z
" style="fill:#ffffff;"/>
  </g>
  <g id="axes_1">
   <g id="patch_2">
    <path d="M 60.749375 245.52125 
L 730.349375 245.52125 
L 730.349375 28.08125 
L 60.749375 28.08125 
z
" style="fill:#ffffff;"/>
   </g>
   <g id="matplotlib.axis_1">
    <g id="xtick_1">
     <g id="line2d_1">
      <path clip-path="url(#pb66fc21f5e)" d="M 91.185739 245.52125 
L 91.185739 28.08125 
" style="fill:none;stroke:#b0b0b0;stroke-linecap:square;stroke-opacity:0.3;stroke-width:0.8;"/>
     </g>
     <g id="line2d_2">
      <defs>
       <path d="M 0 0 
L 0 3.5 
" id="m08ad16d79a" style="stroke:#000000;stroke-width:0.8;"/>
      </defs>
      <g>
       <use style="stroke:#000000;stroke-width:0.8;" x="91.185739" xlink:href="#m08ad16d79a" y="245.52125"/>
      </g>
     </g>
     <g id="text_1">
      <!-- 0.00 -->
      <defs>
       <path d="M 27.796875 68.296875 
Q 33.203125 68.296875 37.546875 66 
Q 41.90625 63.703125 45 59.25 
Q 48.09375 54.796875 49.796875 48.34375 
Q 51.5 41.90625 51.5 33.59375 
Q 51.5 25.296875 49.796875 18.84375 
Q 48.09375 12.40625 45 7.953125 
Q 41.90625 3.5 37.546875 1.140625 
Q 33.203125 -1.203125 27.796875 -1.203125 
Q 22.40625 -1.203125 18.046875 1.140625 
Q 13.703125 3.5 10.59375 7.953125 
Q 7.5 12.40625 5.796875 18.84375 
Q 4.09375 25.296875 4.09375 33.59375 
Q 4.09375 41.90625 5.796875 48.34375 
Q 7.5 54.796875 10.59375 59.25 
Q 13.703125 63.703125 18.046875 66 
Q 22.40625 68.296875 27.796875 68.296875 
z
M 27.796875 63.59375 
Q 20.90625 63.59375 17.203125 56.046875 
Q 13.5 48.5 13.5 33.5 
Q 13.5 18.59375 17.203125 11.09375 
Q 20.90625 3.59375 27.796875 3.59375 
Q 34.703125 3.59375 38.34375 11.140625 
Q 42 18.703125 42 33.59375 
Q 42 48.5 38.34375 56.046875 
Q 34.703125 63.59375 27.796875 63.59375 
z
" id="Charter-48"/>
       <path d="M 13.90625 11.796875 
Q 16.5 11.796875 18.34375 9.9375 
Q 20.203125 8.09375 20.203125 5.40625 
Q 20.203125 2.796875 18.34375 0.9375 
Q 16.5 -0.90625 13.90625 -0.90625 
Q 11.296875 -0.90625 9.390625 0.890625 
Q 7.5 2.703125 7.5 5.40625 
Q 7.5 8.09375 9.390625 9.9375 
Q 11.296875 11.796875 13.90625 11.796875 
z
" id="Charter-46"/>
      </defs>
      <g transform="translate(79.511051 261.3525)scale(0.12 -0.12)">
       <use xlink:href="#Charter-48"/>
       <use x="55.599991" xlink:href="#Charter-46"/>
       <use x="83.399979" xlink:href="#Charter-48"/>
       <use x="138.999969" xlink:href="#Charter-48"/>
      </g>
     </g>
    </g>
    <g id="xtick_2">
     <g id="line2d_3">
      <path clip-path="url(#pb66fc21f5e)" d="M 212.931193 245.52125 
L 212.931193 28.08125 
" style="fill:none;stroke:#b0b0b0;stroke-linecap:square;stroke-opacity:0.3;stroke-width:0.8;"/>
     </g>
     <g id="line2d_4">
      <g>
       <use style="stroke:#000000;stroke-width:0.8;" x="212.931193" xlink:href="#m08ad16d79a" y="245.52125"/>
      </g>
     </g>
     <g id="text_2">
      <!-- 0.02 -->
      <defs>
       <path d="M 44.203125 7.90625 
L 46 16.40625 
L 50.5 16.40625 
L 50.5 0 
L 4.203125 0 
L 4.203125 6.296875 
Q 12.40625 13 18.796875 18.5 
Q 25.203125 24 29.59375 28.953125 
Q 34 33.90625 36.296875 38.546875 
Q 38.59375 43.203125 38.59375 48.09375 
Q 38.59375 55.296875 35.09375 59.25 
Q 31.59375 63.203125 25.296875 63.203125 
Q 23 63.203125 20.84375 62.640625 
Q 18.703125 62.09375 16.40625 60.796875 
L 16.40625 50.09375 
Q 14.296875 48.59375 11.90625 48.59375 
Q 9.296875 48.59375 7.796875 50.09375 
Q 6.296875 51.59375 6.296875 54.203125 
Q 6.296875 56.796875 7.84375 59.34375 
Q 9.40625 61.90625 12.25 63.90625 
Q 15.09375 65.90625 18.9375 67.09375 
Q 22.796875 68.296875 27.5 68.296875 
Q 32.296875 68.296875 36.140625 66.9375 
Q 40 65.59375 42.703125 63.09375 
Q 45.40625 60.59375 46.84375 57.09375 
Q 48.296875 53.59375 48.296875 49.40625 
Q 48.296875 44.703125 46.046875 40.09375 
Q 43.796875 35.5 39.4375 30.546875 
Q 35.09375 25.59375 28.75 20.046875 
Q 22.40625 14.5 14.09375 7.90625 
z
" id="Charter-50"/>
      </defs>
      <g transform="translate(201.256506 261.3525)scale(0.12 -0.12)">
       <use xlink:href="#Charter-48"/>
       <use x="55.599991" xlink:href="#Charter-46"/>
       <use x="83.399979" xlink:href="#Charter-48"/>
       <use x="138.999969" xlink:href="#Charter-50"/>
      </g>
     </g>
    </g>
    <g id="xtick_3">
     <g id="line2d_5">
      <path clip-path="url(#pb66fc21f5e)" d="M 334.676648 245.52125 
L 334.676648 28.08125 
" style="fill:none;stroke:#b0b0b0;stroke-linecap:square;stroke-opacity:0.3;stroke-width:0.8;"/>
     </g>
     <g id="line2d_6">
      <g>
       <use style="stroke:#000000;stroke-width:0.8;" x="334.676648" xlink:href="#m08ad16d79a" y="245.52125"/>
      </g>
     </g>
     <g id="text_3">
      <!-- 0.04 -->
      <defs>
       <path d="M 42.59375 67.703125 
L 42.59375 25.90625 
L 53.90625 25.90625 
L 53.90625 19.40625 
L 42.59375 19.40625 
L 42.59375 -3.703125 
L 34.90625 -3.703125 
L 34.90625 19.40625 
L 2.703125 19.40625 
L 2.703125 25.90625 
L 36.796875 67.703125 
z
M 10.203125 25.90625 
L 34.90625 25.90625 
L 34.90625 56.796875 
z
" id="Charter-52"/>
      </defs>
      <g transform="translate(323.00196 261.3525)scale(0.12 -0.12)">
       <use xlink:href="#Charter-48"/>
       <use x="55.599991" xlink:href="#Charter-46"/>
       <use x="83.399979" xlink:href="#Charter-48"/>
       <use x="138.999969" xlink:href="#Charter-52"/>
      </g>
     </g>
    </g>
    <g id="xtick_4">
     <g id="line2d_7">
      <path clip-path="url(#pb66fc21f5e)" d="M 456.422102 245.52125 
L 456.422102 28.08125 
" style="fill:none;stroke:#b0b0b0;stroke-linecap:square;stroke-opacity:0.3;stroke-width:0.8;"/>
     </g>
     <g id="line2d_8">
      <g>
       <use style="stroke:#000000;stroke-width:0.8;" x="456.422102" xlink:href="#m08ad16d79a" y="245.52125"/>
      </g>
     </g>
     <g id="text_4">
      <!-- 0.06 -->
      <defs>
       <path d="M 44.296875 65.59375 
L 44 65.59375 
Q 31.90625 65.59375 24.453125 58.6875 
Q 17 51.796875 14.703125 38.40625 
Q 22.59375 44.5 31.703125 44.5 
Q 36.203125 44.5 40 42.890625 
Q 43.796875 41.296875 46.546875 38.390625 
Q 49.296875 35.5 50.890625 31.5 
Q 52.5 27.5 52.5 22.703125 
Q 52.5 17.59375 50.640625 13.25 
Q 48.796875 8.90625 45.546875 5.703125 
Q 42.296875 2.5 37.84375 0.640625 
Q 33.40625 -1.203125 28.296875 -1.203125 
Q 23.203125 -1.203125 18.953125 0.796875 
Q 14.703125 2.796875 11.59375 6.5 
Q 8.5 10.203125 6.75 15.546875 
Q 5 20.90625 5 27.703125 
Q 5 37.296875 7.703125 45.09375 
Q 10.40625 52.90625 15.453125 58.546875 
Q 20.5 64.203125 27.796875 67.5 
Q 35.09375 70.796875 44.296875 71.40625 
z
M 14.5 34 
Q 14.296875 32.40625 14.296875 30.84375 
Q 14.296875 29.296875 14.296875 27.90625 
Q 14.296875 15.90625 18.140625 9.75 
Q 22 3.59375 29.09375 3.59375 
Q 32.203125 3.59375 34.84375 4.9375 
Q 37.5 6.296875 39.390625 8.6875 
Q 41.296875 11.09375 42.34375 14.4375 
Q 43.40625 17.796875 43.40625 21.796875 
Q 43.40625 29.59375 39.40625 34.046875 
Q 35.40625 38.5 29 38.5 
Q 20.59375 38.5 14.5 34 
z
" id="Charter-54"/>
      </defs>
      <g transform="translate(444.747415 261.3525)scale(0.12 -0.12)">
       <use xlink:href="#Charter-48"/>
       <use x="55.599991" xlink:href="#Charter-46"/>
       <use x="83.399979" xlink:href="#Charter-48"/>
       <use x="138.999969" xlink:href="#Charter-54"/>
      </g>
     </g>
    </g>
    <g id="xtick_5">
     <g id="line2d_9">
      <path clip-path="url(#pb66fc21f5e)" d="M 578.167557 245.52125 
L 578.167557 28.08125 
" style="fill:none;stroke:#b0b0b0;stroke-linecap:square;stroke-opacity:0.3;stroke-width:0.8;"/>
     </g>
     <g id="line2d_10">
      <g>
       <use style="stroke:#000000;stroke-width:0.8;" x="578.167557" xlink:href="#m08ad16d79a" y="245.52125"/>
      </g>
     </g>
     <g id="text_5">
      <!-- 0.08 -->
      <defs>
       <path d="M 32.09375 36.90625 
Q 36 39.5 38.046875 43.09375 
Q 40.09375 46.703125 40.09375 50.703125 
Q 40.09375 56.703125 36.796875 60.203125 
Q 33.5 63.703125 28 63.703125 
Q 25.40625 63.703125 23.203125 62.796875 
Q 21 61.90625 19.34375 60.296875 
Q 17.703125 58.703125 16.796875 56.546875 
Q 15.90625 54.40625 15.90625 51.90625 
Q 15.90625 46.90625 19.90625 43.34375 
Q 23.90625 39.796875 32.09375 36.90625 
z
M 36.296875 35.09375 
Q 43.40625 32.59375 47 28.1875 
Q 50.59375 23.796875 50.59375 17.90625 
Q 50.59375 13.90625 48.9375 10.34375 
Q 47.296875 6.796875 44.25 4.140625 
Q 41.203125 1.5 36.953125 -0.046875 
Q 32.703125 -1.59375 27.5 -1.59375 
Q 22.09375 -1.59375 17.796875 -0.140625 
Q 13.5 1.296875 10.546875 3.84375 
Q 7.59375 6.40625 6 9.953125 
Q 4.40625 13.5 4.40625 17.703125 
Q 4.40625 29.703125 18.09375 35 
Q 7.59375 39.40625 7.59375 50.40625 
Q 7.59375 54.40625 9.09375 57.703125 
Q 10.59375 61 13.296875 63.390625 
Q 16 65.796875 19.796875 67.140625 
Q 23.59375 68.5 28.296875 68.5 
Q 32.796875 68.5 36.390625 67.25 
Q 40 66 42.546875 63.75 
Q 45.09375 61.5 46.4375 58.390625 
Q 47.796875 55.296875 47.796875 51.703125 
Q 47.796875 46.703125 44.84375 42.34375 
Q 41.90625 38 36.296875 35.09375 
z
M 21.90625 32.90625 
Q 16.796875 30.203125 14.4375 26.796875 
Q 12.09375 23.40625 12.09375 18.296875 
Q 12.09375 11.703125 16.34375 7.640625 
Q 20.59375 3.59375 27.796875 3.59375 
Q 34.296875 3.59375 38.140625 7.25 
Q 42 10.90625 42 16.90625 
Q 42 19.90625 40.75 22.046875 
Q 39.5 24.203125 37 26 
Q 34.5 27.796875 30.703125 29.390625 
Q 26.90625 31 21.90625 32.90625 
z
" id="Charter-56"/>
      </defs>
      <g transform="translate(566.492869 261.3525)scale(0.12 -0.12)">
       <use xlink:href="#Charter-48"/>
       <use x="55.599991" xlink:href="#Charter-46"/>
       <use x="83.399979" xlink:href="#Charter-48"/>
       <use x="138.999969" xlink:href="#Charter-56"/>
      </g>
     </g>
    </g>
    <g id="xtick_6">
     <g id="line2d_11">
      <path clip-path="url(#pb66fc21f5e)" d="M 699.913011 245.52125 
L 699.913011 28.08125 
" style="fill:none;stroke:#b0b0b0;stroke-linecap:square;stroke-opacity:0.3;stroke-width:0.8;"/>
     </g>
     <g id="line2d_12">
      <g>
       <use style="stroke:#000000;stroke-width:0.8;" x="699.913011" xlink:href="#m08ad16d79a" y="245.52125"/>
      </g>
     </g>
     <g id="text_6">
      <!-- 0.10 -->
      <defs>
       <path d="M 33.90625 68.296875 
L 33.90625 6.203125 
L 35.09375 4.703125 
L 45.90625 4.203125 
L 45.90625 0 
L 12.40625 0 
L 12.40625 4.296875 
L 23.90625 4.90625 
L 25.09375 6.59375 
L 25.09375 60.40625 
L 9.40625 57.59375 
L 9.40625 61.796875 
L 31.09375 68.296875 
z
" id="Charter-49"/>
      </defs>
      <g transform="translate(688.238324 261.3525)scale(0.12 -0.12)">
       <use xlink:href="#Charter-48"/>
       <use x="55.599991" xlink:href="#Charter-46"/>
       <use x="83.399979" xlink:href="#Charter-49"/>
       <use x="138.999969" xlink:href="#Charter-48"/>
      </g>
     </g>
    </g>
    <g id="text_7">
     <!-- $r$ [$m$] -->
     <defs>
      <path d="M 17.703125 48.203125 
L 2.90625 44.90625 
L 2.90625 42.40625 
L 11.09375 40.90625 
L 2.796875 0 
L 11.203125 0 
L 15.296875 23.5 
C 16.90625 32.703125 20.09375 38.09375 29.90625 41.90625 
L 32.5 36.5 
C 32.703125 36.5 32.90625 36.5 33.203125 36.5 
C 37.296875 36.5 39.90625 39.203125 39.90625 43 
C 39.90625 46 37.703125 48.203125 34.296875 48.203125 
C 29.296875 48.203125 22.90625 43.59375 16.5 34.5 
L 19.703125 48.203125 
z
" id="Charter-Italic-114"/>
      <path id="Charter-32"/>
      <path d="M 37.59375 70.796875 
L 37.59375 66.5 
L 21.796875 66.5 
L 21.796875 -9 
L 37.59375 -9 
L 37.59375 -13.203125 
L 13.90625 -13.203125 
L 13.90625 70.796875 
z
" id="Charter-91"/>
      <path d="M 18.09375 48.203125 
L 3.296875 45 
L 3.296875 42.40625 
L 11.5 40.796875 
L 3.203125 0 
L 11.59375 0 
L 17.90625 33.90625 
C 24.203125 39.59375 29.5 42.09375 32.09375 42.09375 
C 35.59375 42.09375 37.59375 39.90625 37.59375 36.203125 
C 37.59375 34.796875 37.296875 32.5 36.703125 29.296875 
L 30.703125 0 
L 39 0 
L 45.5 34 
C 50.09375 39.40625 55.296875 42.09375 59.09375 42.09375 
C 62.40625 42.09375 64 39.90625 64 35.703125 
C 64 34.296875 63.796875 32.203125 63.09375 29.296875 
L 58.796875 10.796875 
C 58.296875 8.5 58 6.59375 58 5.40625 
C 58 1.296875 60.296875 -0.59375 65.296875 -0.59375 
C 68 -0.59375 72 0.5 77.296875 2.5 
L 77.296875 5.203125 
C 75 4.59375 73.09375 4.296875 71.703125 4.296875 
C 68.5 4.296875 66.59375 6.09375 66.59375 9.296875 
C 66.59375 10.90625 67.09375 13.09375 67.703125 15.796875 
L 71.09375 31.296875 
C 71.90625 34.703125 72.296875 37.5 72.296875 39.703125 
C 72.296875 45 68.90625 48.203125 64.09375 48.203125 
C 59.296875 48.203125 53.09375 45.203125 45.796875 39.09375 
C 45.703125 45 42.703125 48.203125 37.703125 48.203125 
C 33 48.203125 26.59375 45.09375 18.796875 38.703125 
L 20.59375 48.203125 
z
" id="Charter-Italic-109"/>
      <path d="M 28.203125 70.796875 
L 28.203125 -13.296875 
L 4.59375 -13.296875 
L 4.59375 -9 
L 20.40625 -9 
L 20.40625 66.5 
L 4.59375 66.5 
L 4.59375 70.796875 
z
" id="Charter-93"/>
     </defs>
     <g transform="translate(372.149375 282.686875)scale(0.2 -0.2)">
      <use transform="translate(0 0.203125)" xlink:href="#Charter-Italic-114"/>
      <use transform="translate(39.799988 0.203125)" xlink:href="#Charter-32"/>
      <use transform="translate(67.599976 0.203125)" xlink:href="#Charter-91"/>
      <use transform="translate(109.699966 0.203125)" xlink:href="#Charter-Italic-109"/>
      <use transform="translate(191.199951 0.203125)" xlink:href="#Charter-93"/>
     </g>
    </g>
   </g>
   <g id="matplotlib.axis_2">
    <g id="ytick_1">
     <g id="line2d_13">
      <path clip-path="url(#pb66fc21f5e)" d="M 60.749375 245.52125 
L 730.349375 245.52125 
" style="fill:none;stroke:#b0b0b0;stroke-linecap:square;stroke-opacity:0.3;stroke-width:0.8;"/>
     </g>
     <g id="line2d_14">
      <defs>
       <path d="M 0 0 
L -3.5 0 
" id="m4057fb1b0c" style="stroke:#000000;stroke-width:0.8;"/>
      </defs>
      <g>
       <use style="stroke:#000000;stroke-width:0.8;" x="60.749375" xlink:href="#m4057fb1b0c" y="245.52125"/>
      </g>
     </g>
     <g id="text_8">
      <!-- 0.00 -->
      <g transform="translate(30.4 249.936875)scale(0.12 -0.12)">
       <use xlink:href="#Charter-48"/>
       <use x="55.599991" xlink:href="#Charter-46"/>
       <use x="83.399979" xlink:href="#Charter-48"/>
       <use x="138.999969" xlink:href="#Charter-48"/>
      </g>
     </g>
    </g>
    <g id="ytick_2">
     <g id="line2d_15">
      <path clip-path="url(#pb66fc21f5e)" d="M 60.749375 202.03325 
L 730.349375 202.03325 
" style="fill:none;stroke:#b0b0b0;stroke-linecap:square;stroke-opacity:0.3;stroke-width:0.8;"/>
     </g>
     <g id="line2d_16">
      <g>
       <use style="stroke:#000000;stroke-width:0.8;" x="60.749375" xlink:href="#m4057fb1b0c" y="202.03325"/>
      </g>
     </g>
     <g id="text_9">
      <!-- 0.05 -->
      <defs>
       <path d="M 45.90625 67.09375 
L 45.90625 59.296875 
L 16.296875 59.296875 
L 16.296875 39.296875 
Q 22 40.90625 27 40.90625 
Q 32 40.90625 36.046875 39.5 
Q 40.09375 38.09375 42.9375 35.546875 
Q 45.796875 33 47.34375 29.5 
Q 48.90625 26 48.90625 21.703125 
Q 48.90625 16.90625 47.046875 12.75 
Q 45.203125 8.59375 41.703125 5.546875 
Q 38.203125 2.5 33.25 0.796875 
Q 28.296875 -0.90625 22.203125 -0.90625 
Q 18.296875 -0.90625 15.140625 -0.09375 
Q 12 0.703125 9.75 2 
Q 7.5 3.296875 6.25 5 
Q 5 6.703125 5 8.5 
Q 5 10.796875 6.59375 12.296875 
Q 8.203125 13.796875 10.796875 13.796875 
Q 11.703125 13.796875 13.203125 13.5 
L 17.203125 4.90625 
Q 20.5 3.703125 23.90625 3.703125 
Q 27.40625 3.703125 30.296875 4.890625 
Q 33.203125 6.09375 35.296875 8.1875 
Q 37.40625 10.296875 38.546875 13.25 
Q 39.703125 16.203125 39.703125 19.703125 
Q 39.703125 27.5 34.546875 31.09375 
Q 29.40625 34.703125 18.90625 34.703125 
Q 13.40625 34.703125 10.09375 34.09375 
L 10.09375 67.09375 
z
" id="Charter-53"/>
      </defs>
      <g transform="translate(30.4 206.448875)scale(0.12 -0.12)">
       <use xlink:href="#Charter-48"/>
       <use x="55.599991" xlink:href="#Charter-46"/>
       <use x="83.399979" xlink:href="#Charter-48"/>
       <use x="138.999969" xlink:href="#Charter-53"/>
      </g>
     </g>
    </g>
    <g id="ytick_3">
     <g id="line2d_17">
      <path clip-path="url(#pb66fc21f5e)" d="M 60.749375 158.54525 
L 730.349375 158.54525 
" style="fill:none;stroke:#b0b0b0;stroke-linecap:square;stroke-opacity:0.3;stroke-width:0.8;"/>
     </g>
     <g id="line2d_18">
      <g>
       <use style="stroke:#000000;stroke-width:0.8;" x="60.749375" xlink:href="#m4057fb1b0c" y="158.54525"/>
      </g>
     </g>
     <g id="text_10">
      <!-- 0.10 -->
      <g transform="translate(30.4 162.960875)scale(0.12 -0.12)">
       <use xlink:href="#Charter-48"/>
       <use x="55.599991" xlink:href="#Charter-46"/>
       <use x="83.399979" xlink:href="#Charter-49"/>
       <use x="138.999969" xlink:href="#Charter-48"/>
      </g>
     </g>
    </g>
    <g id="ytick_4">
     <g id="line2d_19">
      <path clip-path="url(#pb66fc21f5e)" d="M 60.749375 115.05725 
L 730.349375 115.05725 
" style="fill:none;stroke:#b0b0b0;stroke-linecap:square;stroke-opacity:0.3;stroke-width:0.8;"/>
     </g>
     <g id="line2d_20">
      <g>
       <use style="stroke:#000000;stroke-width:0.8;" x="60.749375" xlink:href="#m4057fb1b0c" y="115.05725"/>
      </g>
     </g>
     <g id="text_11">
      <!-- 0.15 -->
      <g transform="translate(30.4 119.472875)scale(0.12 -0.12)">
       <use xlink:href="#Charter-48"/>
       <use x="55.599991" xlink:href="#Charter-46"/>
       <use x="83.399979" xlink:href="#Charter-49"/>
       <use x="138.999969" xlink:href="#Charter-53"/>
      </g>
     </g>
    </g>
    <g id="ytick_5">
     <g id="line2d_21">
      <path clip-path="url(#pb66fc21f5e)" d="M 60.749375 71.56925 
L 730.349375 71.56925 
" style="fill:none;stroke:#b0b0b0;stroke-linecap:square;stroke-opacity:0.3;stroke-width:0.8;"/>
     </g>
     <g id="line2d_22">
      <g>
       <use style="stroke:#000000;stroke-width:0.8;" x="60.749375" xlink:href="#m4057fb1b0c" y="71.56925"/>
      </g>
     </g>
     <g id="text_12">
      <!-- 0.20 -->
      <g transform="translate(30.4 75.984875)scale(0.12 -0.12)">
       <use xlink:href="#Charter-48"/>
       <use x="55.599991" xlink:href="#Charter-46"/>
       <use x="83.399979" xlink:href="#Charter-50"/>
       <use x="138.999969" xlink:href="#Charter-48"/>
      </g>
     </g>
    </g>
    <g id="ytick_6">
     <g id="line2d_23">
      <path clip-path="url(#pb66fc21f5e)" d="M 60.749375 28.08125 
L 730.349375 28.08125 
" style="fill:none;stroke:#b0b0b0;stroke-linecap:square;stroke-opacity:0.3;stroke-width:0.8;"/>
     </g>
     <g id="line2d_24">
      <g>
       <use style="stroke:#000000;stroke-width:0.8;" x="60.749375" xlink:href="#m4057fb1b0c" y="28.08125"/>
      </g>
     </g>
     <g id="text_13">
      <!-- 0.25 -->
      <g transform="translate(30.4 32.496875)scale(0.12 -0.12)">
       <use xlink:href="#Charter-48"/>
       <use x="55.599991" xlink:href="#Charter-46"/>
       <use x="83.399979" xlink:href="#Charter-50"/>
       <use x="138.999969" xlink:href="#Charter-53"/>
      </g>
     </g>
    </g>
    <g id="text_14">
     <!-- $X_{O_2}$ [$-$] -->
     <defs>
      <path d="M 5.40625 67.09375 
L 5.40625 63.296875 
L 11.796875 62.796875 
L 12.796875 61.296875 
L 24.796875 34 
L -0.09375 5.796875 
L -1.796875 4.40625 
L -8.296875 3.796875 
L -8.296875 0 
L 14.40625 0 
L 14.40625 3.796875 
L 7.90625 4.40625 
L 6.90625 5.796875 
L 27.5 28.796875 
L 37.296875 5.796875 
L 35.703125 4.40625 
L 29.203125 3.796875 
L 29.203125 0 
L 53.40625 0 
L 53.40625 3.796875 
L 47 4.40625 
L 46 5.796875 
L 32.796875 36 
L 56.203125 62.796875 
L 63.203125 63.296875 
L 63.203125 67.09375 
L 42.40625 67.09375 
L 42.40625 63.296875 
L 48.09375 62.796875 
L 48.703125 61.296875 
L 30.5 40.59375 
L 21.59375 61.296875 
L 23.09375 62.796875 
L 29.703125 63.296875 
L 29.703125 67.09375 
z
" id="Charter-Italic-88"/>
      <path d="M 40.5 68.203125 
C 30.296875 68.203125 20.296875 63.09375 13.5 54.09375 
C 7.40625 46.09375 4.09375 36.296875 4.09375 25.90625 
C 4.09375 10 15 -1.203125 30.5 -1.203125 
C 40.90625 -1.203125 50.796875 3.90625 57.703125 12.90625 
C 63.59375 20.59375 66.90625 30.796875 66.90625 42 
C 66.90625 50.796875 63 58.59375 56.203125 63.59375 
C 52.203125 66.5 46.796875 68.203125 40.5 68.203125 
z
M 57.09375 41.90625 
C 57.09375 32 54 22 49.203125 14.90625 
C 44.09375 7.40625 37.90625 3.59375 31 3.59375 
C 20.703125 3.59375 13.703125 11.90625 13.703125 25.296875 
C 13.703125 35.09375 16.703125 45.09375 21.59375 52.296875 
C 26.703125 59.796875 33 63.59375 39.796875 63.59375 
C 50.203125 63.59375 57.09375 55.5 57.09375 41.90625 
z
" id="Charter-Italic-79"/>
      <path d="M 70.90625 32.703125 
L 70.90625 26.90625 
L 12.40625 26.90625 
L 12.40625 32.703125 
z
" id="Charter-8722"/>
     </defs>
     <g transform="translate(21.4 170.20125)rotate(-90)scale(0.2 -0.2)">
      <use transform="translate(0 0.203125)" xlink:href="#Charter-Italic-88"/>
      <use transform="translate(56.899994 -14.375)scale(0.7)" xlink:href="#Charter-Italic-79"/>
      <use transform="translate(106.459985 -24.579688)scale(0.49)" xlink:href="#Charter-50"/>
      <use transform="translate(137.83445 0.203125)" xlink:href="#Charter-32"/>
      <use transform="translate(165.634437 0.203125)" xlink:href="#Charter-91"/>
      <use transform="translate(207.734428 0.203125)" xlink:href="#Charter-8722"/>
      <use transform="translate(291.034416 0.203125)" xlink:href="#Charter-93"/>
     </g>
    </g>
   </g>
   <g id="line2d_25">
    <path clip-path="url(#pb66fc21f5e)" d="M 60.749375 62.87165 
L 730.349375 62.87165 
" style="fill:none;stroke:#000000;stroke-dasharray:7.4,3.2;stroke-dashoffset:0;stroke-width:2;"/>
   </g>
   <g id="line2d_26">
    <path clip-path="url(#pb66fc21f5e)" d="M 91.185739 62.878105 
L 97.334499 62.878104 
L 103.483259 62.8781 
L 109.63202 62.878093 
L 115.78078 62.878084 
L 121.92954 62.878072 
L 128.078301 62.878057 
L 134.227061 62.87804 
L 140.375821 62.878021 
L 146.524582 62.877998 
L 152.673342 62.877973 
L 158.822102 62.877946 
L 164.970863 62.877915 
L 171.119623 62.877882 
L 177.268383 62.877847 
L 183.417144 62.877809 
L 189.565904 62.877768 
L 195.714664 62.877724 
L 201.863425 62.877678 
L 208.012185 62.877629 
L 214.160945 62.877578 
L 220.309706 62.877524 
L 226.458466 62.877468 
L 232.607226 62.877408 
L 238.755987 62.877346 
L 244.904747 62.877282 
L 251.053507 62.877215 
L 257.202268 62.877145 
L 263.351028 62.877072 
L 269.499788 62.876997 
L 275.648549 62.87692 
L 281.797309 62.876839 
L 287.946069 62.876756 
L 294.09483 62.876671 
L 300.24359 62.876583 
L 306.39235 62.876492 
L 312.541111 62.876398 
L 318.689871 62.876302 
L 324.838631 62.876203 
L 330.987392 62.876102 
L 337.136152 62.875998 
L 343.284912 62.875891 
L 349.433673 62.875782 
L 355.582433 62.87567 
L 361.731193 62.875555 
L 367.879954 62.875438 
L 374.028714 62.875318 
L 380.177474 62.875196 
L 386.326235 62.875071 
L 392.474995 62.874943 
L 398.623755 62.874813 
L 404.772515 62.87468 
L 410.921276 62.874544 
L 417.070036 62.874406 
L 423.218796 62.874265 
L 429.367557 62.874121 
L 435.516317 62.873975 
L 441.665077 62.873826 
L 447.813838 62.873675 
L 453.962598 62.873521 
L 460.111358 62.873364 
L 466.260119 62.873205 
L 472.408879 62.873043 
L 478.557639 62.872878 
L 484.7064 62.872711 
L 490.85516 62.872541 
L 497.00392 62.872368 
L 503.152681 62.872193 
L 509.301441 62.872015 
L 515.450201 62.871835 
L 521.598962 62.871652 
L 527.747722 62.871466 
L 533.896482 62.871278 
L 540.045243 62.871087 
L 546.194003 62.870893 
L 552.342763 62.870697 
L 558.491524 62.870498 
L 564.640284 62.870297 
L 570.789044 62.870093 
L 576.937805 62.869886 
L 583.086565 62.869676 
L 589.235325 62.869464 
L 595.384086 62.86925 
L 601.532846 62.869032 
L 607.681606 62.868812 
L 613.830367 62.86859 
L 619.979127 62.868365 
L 626.127887 62.868137 
L 632.276648 62.867906 
L 638.425408 62.867673 
L 644.574168 62.867438 
L 650.722929 62.867199 
L 656.871689 62.866958 
L 663.020449 62.866715 
L 669.16921 62.866468 
L 675.31797 62.866219 
L 681.46673 62.865968 
L 687.615491 62.865714 
L 693.764251 62.865457 
L 699.913011 62.865197 
" style="fill:none;stroke:#c7254e;stroke-linecap:square;"/>
    <defs>
     <path d="M 0 2.5 
C 0.663008 2.5 1.29895 2.236584 1.767767 1.767767 
C 2.236584 1.29895 2.5 0.663008 2.5 0 
C 2.5 -0.663008 2.236584 -1.29895 1.767767 -1.767767 
C 1.29895 -2.236584 0.663008 -2.5 0 -2.5 
C -0.663008 -2.5 -1.29895 -2.236584 -1.767767 -1.767767 
C -2.236584 -1.29895 -2.5 -0.663008 -2.5 0 
C -2.5 0.663008 -2.236584 1.29895 -1.767767 1.767767 
C -1.29895 2.236584 -0.663008 2.5 0 2.5 
z
" id="m37cf13679f" style="stroke:#c7254e;"/>
    </defs>
    <g clip-path="url(#pb66fc21f5e)">
     <use style="fill:#c7254e;stroke:#c7254e;" x="91.185739" xlink:href="#m37cf13679f" y="62.878105"/>
     <use style="fill:#c7254e;stroke:#c7254e;" x="152.673342" xlink:href="#m37cf13679f" y="62.877973"/>
     <use style="fill:#c7254e;stroke:#c7254e;" x="214.160945" xlink:href="#m37cf13679f" y="62.877578"/>
     <use style="fill:#c7254e;stroke:#c7254e;" x="275.648549" xlink:href="#m37cf13679f" y="62.87692"/>
     <use style="fill:#c7254e;stroke:#c7254e;" x="337.136152" xlink:href="#m37cf13679f" y="62.875998"/>
     <use style="fill:#c7254e;stroke:#c7254e;" x="398.623755" xlink:href="#m37cf13679f" y="62.874813"/>
     <use style="fill:#c7254e;stroke:#c7254e;" x="460.111358" xlink:href="#m37cf13679f" y="62.873364"/>
     <use style="fill:#c7254e;stroke:#c7254e;" x="521.598962" xlink:href="#m37cf13679f" y="62.871652"/>
     <use style="fill:#c7254e;stroke:#c7254e;" x="583.086565" xlink:href="#m37cf13679f" y="62.869676"/>
     <use style="fill:#c7254e;stroke:#c7254e;" x="644.574168" xlink:href="#m37cf13679f" y="62.867438"/>
    </g>
   </g>
   <g id="line2d_27">
    <path clip-path="url(#pb66fc21f5e)" d="M 91.185739 82.504282 
L 97.334499 82.50126 
L 103.483259 82.492192 
L 109.63202 82.477078 
L 115.78078 82.455917 
L 121.92954 82.428707 
L 128.078301 82.395446 
L 134.227061 82.35613 
L 140.375821 82.310756 
L 146.524582 82.259321 
L 152.673342 82.20182 
L 158.822102 82.138249 
L 164.970863 82.068601 
L 171.119623 81.99287 
L 177.268383 81.911051 
L 183.417144 81.823137 
L 189.565904 81.729119 
L 195.714664 81.62899 
L 201.863425 81.522741 
L 208.012185 81.410363 
L 214.160945 81.291847 
L 220.309706 81.167182 
L 226.458466 81.036358 
L 232.607226 80.899364 
L 238.755987 80.756188 
L 244.904747 80.606817 
L 251.053507 80.45124 
L 257.202268 80.289443 
L 263.351028 80.121411 
L 269.499788 79.947132 
L 275.648549 79.766589 
L 281.797309 79.579768 
L 287.946069 79.386654 
L 294.09483 79.187228 
L 300.24359 78.981475 
L 306.39235 78.769378 
L 312.541111 78.550917 
L 318.689871 78.326075 
L 324.838631 78.094833 
L 330.987392 77.857172 
L 337.136152 77.61307 
L 343.284912 77.362508 
L 349.433673 77.105465 
L 355.582433 76.841918 
L 361.731193 76.571846 
L 367.879954 76.295226 
L 374.028714 76.012035 
L 380.177474 75.722249 
L 386.326235 75.425843 
L 392.474995 75.122794 
L 398.623755 74.813075 
L 404.772515 74.496662 
L 410.921276 74.173526 
L 417.070036 73.843642 
L 423.218796 73.506982 
L 429.367557 73.163518 
L 435.516317 72.813222 
L 441.665077 72.456064 
L 447.813838 72.092015 
L 453.962598 71.721045 
L 460.111358 71.343124 
L 466.260119 70.958219 
L 472.408879 70.5663 
L 478.557639 70.167334 
L 484.7064 69.761288 
L 490.85516 69.34813 
L 497.00392 68.927825 
L 503.152681 68.50034 
L 509.301441 68.065638 
L 515.450201 67.623686 
L 521.598962 67.174446 
L 527.747722 66.717883 
L 533.896482 66.25396 
L 540.045243 65.782639 
L 546.194003 65.303882 
L 552.342763 64.817651 
L 558.491524 64.323907 
L 564.640284 63.82261 
L 570.789044 63.313719 
L 576.937805 62.797196 
L 583.086565 62.272998 
L 589.235325 61.741084 
L 595.384086 61.201411 
L 601.532846 60.653938 
L 607.681606 60.098621 
L 613.830367 59.535416 
L 619.979127 58.964279 
L 626.127887 58.385167 
L 632.276648 57.798033 
L 638.425408 57.202831 
L 644.574168 56.599517 
L 650.722929 55.988043 
L 656.871689 55.368363 
L 663.020449 54.740428 
L 669.16921 54.104191 
L 675.31797 53.459603 
L 681.46673 52.806615 
L 687.615491 52.145178 
L 693.764251 51.475242 
L 699.913011 50.796756 
" style="fill:none;stroke:#c7254e;stroke-linecap:square;stroke-width:2;"/>
    <defs>
     <path d="M -3 -0 
L 3 3 
L 3 -3 
z
" id="mef80b512ca" style="stroke:#c7254e;stroke-linejoin:miter;"/>
    </defs>
    <g clip-path="url(#pb66fc21f5e)">
     <use style="fill:#c7254e;stroke:#c7254e;stroke-linejoin:miter;" x="91.185739" xlink:href="#mef80b512ca" y="82.504282"/>
     <use style="fill:#c7254e;stroke:#c7254e;stroke-linejoin:miter;" x="152.673342" xlink:href="#mef80b512ca" y="82.20182"/>
     <use style="fill:#c7254e;stroke:#c7254e;stroke-linejoin:miter;" x="214.160945" xlink:href="#mef80b512ca" y="81.291847"/>
     <use style="fill:#c7254e;stroke:#c7254e;stroke-linejoin:miter;" x="275.648549" xlink:href="#mef80b512ca" y="79.766589"/>
     <use style="fill:#c7254e;stroke:#c7254e;stroke-linejoin:miter;" x="337.136152" xlink:href="#mef80b512ca" y="77.61307"/>
     <use style="fill:#c7254e;stroke:#c7254e;stroke-linejoin:miter;" x="398.623755" xlink:href="#mef80b512ca" y="74.813075"/>
     <use style="fill:#c7254e;stroke:#c7254e;stroke-linejoin:miter;" x="460.111358" xlink:href="#mef80b512ca" y="71.343124"/>
     <use style="fill:#c7254e;stroke:#c7254e;stroke-linejoin:miter;" x="521.598962" xlink:href="#mef80b512ca" y="67.174446"/>
     <use style="fill:#c7254e;stroke:#c7254e;stroke-linejoin:miter;" x="583.086565" xlink:href="#mef80b512ca" y="62.272998"/>
     <use style="fill:#c7254e;stroke:#c7254e;stroke-linejoin:miter;" x="644.574168" xlink:href="#mef80b512ca" y="56.599517"/>
    </g>
   </g>
   <g id="line2d_28">
    <path clip-path="url(#pb66fc21f5e)" d="M 91.185739 149.633787 
L 97.334499 149.626 
L 103.483259 149.602635 
L 109.63202 149.563683 
L 115.78078 149.509128 
L 121.92954 149.438944 
L 128.078301 149.353104 
L 134.227061 149.251569 
L 140.375821 149.134297 
L 146.524582 149.001238 
L 152.673342 148.852335 
L 158.822102 148.687523 
L 164.970863 148.506734 
L 171.119623 148.309889 
L 177.268383 148.096904 
L 183.417144 147.867688 
L 189.565904 147.622144 
L 195.714664 147.360166 
L 201.863425 147.081642 
L 208.012185 146.786453 
L 214.160945 146.474472 
L 220.309706 146.145567 
L 226.458466 145.799596 
L 232.607226 145.43641 
L 238.755987 145.055855 
L 244.904747 144.657768 
L 251.053507 144.241977 
L 257.202268 143.808305 
L 263.351028 143.356565 
L 269.499788 142.886564 
L 275.648549 142.398101 
L 281.797309 141.890965 
L 287.946069 141.364939 
L 294.09483 140.819798 
L 300.24359 140.255307 
L 306.39235 139.671225 
L 312.541111 139.067301 
L 318.689871 138.443275 
L 324.838631 137.798881 
L 330.987392 137.133841 
L 337.136152 136.447872 
L 343.284912 135.740678 
L 349.433673 135.011957 
L 355.582433 134.261396 
L 361.731193 133.488675 
L 367.879954 132.693463 
L 374.028714 131.87542 
L 380.177474 131.034197 
L 386.326235 130.169434 
L 392.474995 129.280762 
L 398.623755 128.367805 
L 404.772515 127.430172 
L 410.921276 126.467465 
L 417.070036 125.479277 
L 423.218796 124.465188 
L 429.367557 123.42477 
L 435.516317 122.357584 
L 441.665077 121.263179 
L 447.813838 120.141097 
L 453.962598 118.990866 
L 460.111358 117.812005 
L 466.260119 116.604022 
L 472.408879 115.366416 
L 478.557639 114.098672 
L 484.7064 112.800267 
L 490.85516 111.470666 
L 497.00392 110.109324 
L 503.152681 108.715683 
L 509.301441 107.289178 
L 515.450201 105.829231 
L 521.598962 104.335252 
L 527.747722 102.806643 
L 533.896482 101.242795 
L 540.045243 99.643088 
L 546.194003 98.00689 
L 552.342763 96.333562 
L 558.491524 94.622453 
L 564.640284 92.872903 
L 570.789044 91.084242 
L 576.937805 89.25579 
L 583.086565 87.386859 
L 589.235325 85.476751 
L 595.384086 83.524761 
L 601.532846 81.530175 
L 607.681606 79.49227 
L 613.830367 77.410317 
L 619.979127 75.283581 
L 626.127887 73.111318 
L 632.276648 70.89278 
L 638.425408 68.627214 
L 644.574168 66.31386 
L 650.722929 63.951958 
L 656.871689 61.54074 
L 663.020449 59.079438 
L 669.16921 56.567284 
L 675.31797 54.003506 
L 681.46673 51.387334 
L 687.615491 48.717999 
L 693.764251 45.994734 
L 699.913011 43.216774 
" style="fill:none;stroke:#c7254e;stroke-linecap:square;stroke-width:3;"/>
    <defs>
     <path d="M -3.5 3.5 
L 3.5 3.5 
L 3.5 -3.5 
L -3.5 -3.5 
z
" id="m202a90068b" style="stroke:#c7254e;stroke-linejoin:miter;"/>
    </defs>
    <g clip-path="url(#pb66fc21f5e)">
     <use style="fill:#c7254e;stroke:#c7254e;stroke-linejoin:miter;" x="91.185739" xlink:href="#m202a90068b" y="149.633787"/>
     <use style="fill:#c7254e;stroke:#c7254e;stroke-linejoin:miter;" x="152.673342" xlink:href="#m202a90068b" y="148.852335"/>
     <use style="fill:#c7254e;stroke:#c7254e;stroke-linejoin:miter;" x="214.160945" xlink:href="#m202a90068b" y="146.474472"/>
     <use style="fill:#c7254e;stroke:#c7254e;stroke-linejoin:miter;" x="275.648549" xlink:href="#m202a90068b" y="142.398101"/>
     <use style="fill:#c7254e;stroke:#c7254e;stroke-linejoin:miter;" x="337.136152" xlink:href="#m202a90068b" y="136.447872"/>
     <use style="fill:#c7254e;stroke:#c7254e;stroke-linejoin:miter;" x="398.623755" xlink:href="#m202a90068b" y="128.367805"/>
     <use style="fill:#c7254e;stroke:#c7254e;stroke-linejoin:miter;" x="460.111358" xlink:href="#m202a90068b" y="117.812005"/>
     <use style="fill:#c7254e;stroke:#c7254e;stroke-linejoin:miter;" x="521.598962" xlink:href="#m202a90068b" y="104.335252"/>
     <use style="fill:#c7254e;stroke:#c7254e;stroke-linejoin:miter;" x="583.086565" xlink:href="#m202a90068b" y="87.386859"/>
     <use style="fill:#c7254e;stroke:#c7254e;stroke-linejoin:miter;" x="644.574168" xlink:href="#m202a90068b" y="66.31386"/>
    </g>
   </g>
   <g id="line2d_29">
    <path clip-path="url(#pb66fc21f5e)" d="M 91.185739 211.684269 
L 97.334499 211.67759 
L 103.483259 211.657545 
L 109.63202 211.624113 
L 115.78078 211.577254 
L 121.92954 211.516915 
L 128.078301 211.443028 
L 134.227061 211.355509 
L 140.375821 211.254257 
L 146.524582 211.139157 
L 152.673342 211.010077 
L 158.822102 210.866869 
L 164.970863 210.709369 
L 171.119623 210.537396 
L 177.268383 210.35075 
L 183.417144 210.149216 
L 189.565904 209.932561 
L 195.714664 209.700532 
L 201.863425 209.452859 
L 208.012185 209.189253 
L 214.160945 208.909403 
L 220.309706 208.61298 
L 226.458466 208.299633 
L 232.607226 207.968992 
L 238.755987 207.620663 
L 244.904747 207.254228 
L 251.053507 206.869248 
L 257.202268 206.46526 
L 263.351028 206.041774 
L 269.499788 205.598275 
L 275.648549 205.134222 
L 281.797309 204.649046 
L 287.946069 204.142149 
L 294.09483 203.612902 
L 300.24359 203.060649 
L 306.39235 202.484699 
L 312.541111 201.884328 
L 318.689871 201.258779 
L 324.838631 200.607259 
L 330.987392 199.928939 
L 337.136152 199.222948 
L 343.284912 198.48838 
L 349.433673 197.724285 
L 355.582433 196.929671 
L 361.731193 196.1035 
L 367.879954 195.24469 
L 374.028714 194.35211 
L 380.177474 193.424579 
L 386.326235 192.460865 
L 392.474995 191.459682 
L 398.623755 190.419689 
L 404.772515 189.339486 
L 410.921276 188.217615 
L 417.070036 187.052556 
L 423.218796 185.842723 
L 429.367557 184.586468 
L 435.516317 183.282069 
L 441.665077 181.927738 
L 447.813838 180.521611 
L 453.962598 179.06175 
L 460.111358 177.546137 
L 466.260119 175.972676 
L 472.408879 174.339187 
L 478.557639 172.643406 
L 484.7064 170.882981 
L 490.85516 169.055471 
L 497.00392 167.158342 
L 503.152681 165.188969 
L 509.301441 163.14463 
L 515.450201 161.022503 
L 521.598962 158.819671 
L 527.747722 156.533113 
L 533.896482 154.15971 
L 540.045243 151.696237 
L 546.194003 149.139368 
L 552.342763 146.485672 
L 558.491524 143.731617 
L 564.640284 140.873567 
L 570.789044 137.907786 
L 576.937805 134.830438 
L 583.086565 131.637592 
L 589.235325 128.325221 
L 595.384086 124.88921 
L 601.532846 121.325362 
L 607.681606 117.629398 
L 613.830367 113.79697 
L 619.979127 109.823667 
L 626.127887 105.705024 
L 632.276648 101.436536 
L 638.425408 97.013664 
L 644.574168 92.431856 
L 650.722929 87.686559 
L 656.871689 82.773235 
L 663.020449 77.687383 
L 669.16921 72.42456 
L 675.31797 66.980403 
L 681.46673 61.350652 
L 687.615491 55.531182 
L 693.764251 49.518028 
L 699.913011 43.307419 
" style="fill:none;stroke:#c7254e;stroke-linecap:square;stroke-width:4;"/>
    <defs>
     <path d="M -0 5.656854 
L 3.394113 0 
L 0 -5.656854 
L -3.394113 -0 
z
" id="m1bceabc5d9" style="stroke:#c7254e;stroke-linejoin:miter;"/>
    </defs>
    <g clip-path="url(#pb66fc21f5e)">
     <use style="fill:#c7254e;stroke:#c7254e;stroke-linejoin:miter;" x="91.185739" xlink:href="#m1bceabc5d9" y="211.684269"/>
     <use style="fill:#c7254e;stroke:#c7254e;stroke-linejoin:miter;" x="152.673342" xlink:href="#m1bceabc5d9" y="211.010077"/>
     <use style="fill:#c7254e;stroke:#c7254e;stroke-linejoin:miter;" x="214.160945" xlink:href="#m1bceabc5d9" y="208.909403"/>
     <use style="fill:#c7254e;stroke:#c7254e;stroke-linejoin:miter;" x="275.648549" xlink:href="#m1bceabc5d9" y="205.134222"/>
     <use style="fill:#c7254e;stroke:#c7254e;stroke-linejoin:miter;" x="337.136152" xlink:href="#m1bceabc5d9" y="199.222948"/>
     <use style="fill:#c7254e;stroke:#c7254e;stroke-linejoin:miter;" x="398.623755" xlink:href="#m1bceabc5d9" y="190.419689"/>
     <use style="fill:#c7254e;stroke:#c7254e;stroke-linejoin:miter;" x="460.111358" xlink:href="#m1bceabc5d9" y="177.546137"/>
     <use style="fill:#c7254e;stroke:#c7254e;stroke-linejoin:miter;" x="521.598962" xlink:href="#m1bceabc5d9" y="158.819671"/>
     <use style="fill:#c7254e;stroke:#c7254e;stroke-linejoin:miter;" x="583.086565" xlink:href="#m1bceabc5d9" y="131.637592"/>
     <use style="fill:#c7254e;stroke:#c7254e;stroke-linejoin:miter;" x="644.574168" xlink:href="#m1bceabc5d9" y="92.431856"/>
    </g>
   </g>
   <g id="patch_3">
    <path d="M 60.749375 245.52125 
L 60.749375 28.08125 
" style="fill:none;stroke:#000000;stroke-linecap:square;stroke-linejoin:miter;stroke-width:0.8;"/>
   </g>
   <g id="patch_4">
    <path d="M 730.349375 245.52125 
L 730.349375 28.08125 
" style="fill:none;stroke:#000000;stroke-linecap:square;stroke-linejoin:miter;stroke-width:0.8;"/>
   </g>
   <g id="patch_5">
    <path d="M 60.749375 245.52125 
L 730.349375 245.52125 
" style="fill:none;stroke:#000000;stroke-linecap:square;stroke-linejoin:miter;stroke-width:0.8;"/>
   </g>
   <g id="patch_6">
    <path d="M 60.749375 28.08125 
L 730.349375 28.08125 
" style="fill:none;stroke:#000000;stroke-linecap:square;stroke-linejoin:miter;stroke-width:0.8;"/>
   </g>
   <g id="text_15">
    <!-- Oxygen mole fraction profile -->
    <defs>
     <path d="M 36.59375 68.796875 
Q 49.5 68.796875 58.59375 60 
Q 63.703125 55.09375 66.296875 48.4375 
Q 68.90625 41.796875 68.90625 33.59375 
Q 68.90625 22.5 63.796875 13.796875 
Q 59.59375 6.59375 52.5 2.5 
Q 45.40625 -1.59375 36.59375 -1.59375 
Q 30.203125 -1.59375 24.59375 0.59375 
Q 19 2.796875 14.59375 7 
Q 4.296875 17 4.296875 33.59375 
Q 4.296875 50.09375 14.5 60 
Q 23.59375 68.796875 36.59375 68.796875 
z
M 36.59375 63.40625 
Q 31.703125 63.40625 27.703125 61.40625 
Q 23.703125 59.40625 20.796875 55.546875 
Q 17.90625 51.703125 16.296875 46.140625 
Q 14.703125 40.59375 14.703125 33.59375 
Q 14.703125 26.59375 16.296875 21.046875 
Q 17.90625 15.5 20.796875 11.640625 
Q 23.703125 7.796875 27.703125 5.75 
Q 31.703125 3.703125 36.59375 3.703125 
Q 41.40625 3.703125 45.453125 5.75 
Q 49.5 7.796875 52.34375 11.640625 
Q 55.203125 15.5 56.796875 21.046875 
Q 58.40625 26.59375 58.40625 33.59375 
Q 58.40625 40.59375 56.796875 46.09375 
Q 55.203125 51.59375 52.34375 55.4375 
Q 49.5 59.296875 45.453125 61.34375 
Q 41.40625 63.40625 36.59375 63.40625 
z
" id="Charter-79"/>
     <path d="M 23.296875 48.09375 
L 23.296875 44.40625 
L 18.703125 43.796875 
L 18.203125 42.796875 
L 26.59375 29.703125 
L 35.703125 42.5 
L 34.90625 43.796875 
L 30.09375 44.40625 
L 30.09375 48.09375 
L 48.09375 48.09375 
L 48.09375 44.40625 
L 42.5 43.40625 
L 29.296875 25.90625 
L 44 4.5 
L 50 3.703125 
L 50 0 
L 28.703125 0 
L 28.703125 3.703125 
L 32.90625 4.40625 
L 33.40625 5.203125 
L 24.09375 20.09375 
L 13.90625 5.59375 
L 14.40625 4.40625 
L 20.09375 3.703125 
L 20.09375 0 
L 1.203125 0 
L 1.203125 3.703125 
L 6.90625 4.5 
L 21.296875 23.796875 
L 7.90625 43.296875 
L 1.796875 44.40625 
L 1.796875 48.09375 
z
" id="Charter-120"/>
     <path d="M 21.59375 48.09375 
L 21.59375 44.40625 
L 16.296875 44 
L 15.09375 42.40625 
L 27.09375 11.296875 
L 39.59375 42.40625 
L 38.796875 44 
L 33.40625 44.40625 
L 33.40625 48.09375 
L 51.203125 48.09375 
L 51.203125 44.40625 
L 45.40625 43.59375 
L 25.40625 -5 
Q 21.90625 -13.5 18.09375 -17.640625 
Q 14.296875 -21.796875 9.40625 -21.796875 
Q 6.203125 -21.796875 4.34375 -20.25 
Q 2.5 -18.703125 2.5 -16.203125 
Q 2.5 -13.203125 5.09375 -10.796875 
L 14.703125 -14.59375 
Q 16.703125 -12.40625 18.796875 -8.703125 
Q 20.90625 -5 22.796875 0.40625 
L 6 43.796875 
L -0.09375 44.40625 
L -0.09375 48.09375 
z
" id="Charter-121"/>
     <path d="M 51.203125 46.296875 
L 51.203125 41.59375 
L 40.203125 41.59375 
Q 43 37.296875 43 32.296875 
Q 43 29 41.640625 26.140625 
Q 40.296875 23.296875 37.796875 21.1875 
Q 35.296875 19.09375 31.75 17.890625 
Q 28.203125 16.703125 23.90625 16.703125 
L 22.203125 16.703125 
Q 21.09375 14.5 21.09375 12.203125 
Q 21.09375 11.796875 21.140625 11.1875 
Q 21.203125 10.59375 21.296875 9.796875 
L 30.90625 8.296875 
Q 35.296875 7.59375 38.5 6.640625 
Q 41.703125 5.703125 43.796875 4.25 
Q 45.90625 2.796875 46.90625 0.796875 
Q 47.90625 -1.203125 47.90625 -4 
Q 47.90625 -6.796875 46.34375 -9.796875 
Q 44.796875 -12.796875 41.90625 -15.203125 
Q 37.90625 -18.40625 32.84375 -20.09375 
Q 27.796875 -21.796875 22.09375 -21.796875 
Q 13.40625 -21.796875 8.703125 -18.34375 
Q 4 -14.90625 4 -8.90625 
Q 4 -4.09375 6.84375 -0.75 
Q 9.703125 2.59375 14.796875 3.5 
Q 13.796875 5.796875 13.796875 8 
Q 13.796875 11.796875 18.59375 17.5 
Q 12.796875 18.796875 9.5 22.84375 
Q 6.203125 26.90625 6.203125 32.59375 
Q 6.203125 36.203125 7.546875 39.25 
Q 8.90625 42.296875 11.453125 44.5 
Q 14 46.703125 17.59375 47.890625 
Q 21.203125 49.09375 25.59375 49.09375 
Q 31.296875 49.09375 36.90625 46.296875 
z
M 24.59375 45.203125 
Q 20.203125 45.203125 17.5 41.953125 
Q 14.796875 38.703125 14.796875 32.90625 
Q 14.796875 27.203125 17.5 23.890625 
Q 20.203125 20.59375 24.59375 20.59375 
Q 29 20.59375 31.703125 23.890625 
Q 34.40625 27.203125 34.40625 32.90625 
Q 34.40625 38.59375 31.703125 41.890625 
Q 29 45.203125 24.59375 45.203125 
z
M 20.59375 3 
Q 16.40625 1.703125 14.203125 -0.890625 
Q 12 -3.5 12 -6.796875 
Q 12 -11.203125 15.703125 -14.203125 
Q 19.40625 -17.203125 25.59375 -17.203125 
Q 28.90625 -17.203125 31.65625 -16.34375 
Q 34.40625 -15.5 36.34375 -14 
Q 38.296875 -12.5 39.390625 -10.59375 
Q 40.5 -8.703125 40.5 -6.59375 
Q 40.5 -4.59375 39.890625 -3.296875 
Q 39.296875 -2 38.046875 -1.140625 
Q 36.796875 -0.296875 34.84375 0.203125 
Q 32.90625 0.703125 30.296875 1.203125 
z
" id="Charter-103"/>
     <path d="M 44.796875 5.09375 
Q 40.296875 2.09375 35.546875 0.59375 
Q 30.796875 -0.90625 26 -0.90625 
Q 21 -0.90625 16.890625 0.890625 
Q 12.796875 2.703125 9.890625 5.890625 
Q 7 9.09375 5.34375 13.640625 
Q 3.703125 18.203125 3.703125 23.703125 
Q 3.703125 29.40625 5.390625 34.046875 
Q 7.09375 38.703125 10.1875 42.046875 
Q 13.296875 45.40625 17.546875 47.25 
Q 21.796875 49.09375 26.796875 49.09375 
Q 35 49.09375 39.890625 43.890625 
Q 44.796875 38.703125 44.796875 29.40625 
Q 44.796875 28.59375 44.796875 27.84375 
Q 44.796875 27.09375 44.703125 26.296875 
L 12.296875 26.296875 
L 12.296875 25.203125 
Q 12.296875 15.5 16.890625 10.140625 
Q 21.5 4.796875 29.09375 4.796875 
Q 32.90625 4.796875 36.703125 6.25 
Q 40.5 7.703125 44.796875 10.59375 
z
M 35.90625 32.09375 
Q 35.90625 38.203125 33.25 41.390625 
Q 30.59375 44.59375 25.5 44.59375 
Q 23.09375 44.59375 20.890625 43.59375 
Q 18.703125 42.59375 16.953125 40.75 
Q 15.203125 38.90625 14.09375 36.296875 
Q 13 33.703125 12.796875 30.5 
L 35.90625 30.5 
z
" id="Charter-101"/>
     <path d="M 3 3.59375 
L 8.40625 4.09375 
L 10.09375 5.703125 
L 10.09375 41.90625 
L 3 41.90625 
L 3 45 
L 14.59375 48.59375 
L 18.40625 48.59375 
L 18.40625 43.09375 
Q 23.5 45.90625 27.390625 47.5 
Q 31.296875 49.09375 34.5 49.09375 
Q 41.09375 49.09375 44.546875 45.25 
Q 48 41.40625 48 33.90625 
L 48 5.703125 
L 49.703125 4.09375 
L 55.09375 3.59375 
L 55.09375 0 
L 33.203125 0 
L 33.203125 3.59375 
L 38 4.09375 
L 39.703125 5.703125 
L 39.703125 32.203125 
Q 39.703125 37.703125 37.453125 40.09375 
Q 35.203125 42.5 29.59375 42.5 
Q 24.796875 42.5 18.40625 39.203125 
L 18.40625 5.703125 
L 20.09375 4.09375 
L 24.90625 3.59375 
L 24.90625 0 
L 3 0 
z
" id="Charter-110"/>
     <path d="M 45.40625 42.40625 
Q 56.796875 49.09375 62.59375 49.09375 
Q 68.59375 49.09375 72.046875 45.25 
Q 75.5 41.40625 75.5 33.90625 
L 75.5 5.703125 
L 77.203125 4.09375 
L 82.5 3.59375 
L 82.5 0 
L 60.703125 0 
L 60.703125 3.59375 
L 65.40625 4.09375 
L 67.203125 5.703125 
L 67.203125 32.203125 
Q 67.203125 37.5 65.046875 40 
Q 62.90625 42.5 58.203125 42.5 
Q 55.796875 42.5 52.9375 41.640625 
Q 50.09375 40.796875 46.90625 39.203125 
L 46.90625 5.703125 
L 48.703125 4.09375 
L 53.40625 3.59375 
L 53.40625 0 
L 32.09375 0 
L 32.09375 3.59375 
L 36.90625 4.09375 
L 38.59375 5.703125 
L 38.59375 32.203125 
Q 38.59375 42.5 29.796875 42.5 
Q 25 42.5 18.40625 39.203125 
L 18.40625 5.703125 
L 20.09375 4.09375 
L 24.90625 3.59375 
L 24.90625 0 
L 3 0 
L 3 3.59375 
L 8.40625 4.09375 
L 10.09375 5.703125 
L 10.09375 41.90625 
L 3 41.90625 
L 3 45 
L 14.59375 48.59375 
L 18.40625 48.59375 
L 18.40625 43.09375 
Q 23.40625 46 27.296875 47.546875 
Q 31.203125 49.09375 34.40625 49.09375 
Q 41.90625 49.09375 45.40625 42.40625 
z
" id="Charter-109"/>
     <path d="M 26.90625 49.09375 
Q 32 49.09375 36.25 47.25 
Q 40.5 45.40625 43.59375 42.09375 
Q 46.703125 38.796875 48.453125 34.1875 
Q 50.203125 29.59375 50.203125 24.09375 
Q 50.203125 18.5 48.453125 13.890625 
Q 46.703125 9.296875 43.59375 6 
Q 40.5 2.703125 36.203125 0.890625 
Q 31.90625 -0.90625 26.90625 -0.90625 
Q 21.90625 -0.90625 17.65625 0.890625 
Q 13.40625 2.703125 10.296875 6 
Q 7.203125 9.296875 5.453125 13.890625 
Q 3.703125 18.5 3.703125 24.09375 
Q 3.703125 29.703125 5.453125 34.296875 
Q 7.203125 38.90625 10.25 42.203125 
Q 13.296875 45.5 17.546875 47.296875 
Q 21.796875 49.09375 26.90625 49.09375 
z
M 26.90625 44.796875 
Q 20.796875 44.796875 16.9375 39.34375 
Q 13.09375 33.90625 13.09375 24.09375 
Q 13.09375 19.296875 14.140625 15.4375 
Q 15.203125 11.59375 17 8.890625 
Q 18.796875 6.203125 21.34375 4.796875 
Q 23.90625 3.40625 26.90625 3.40625 
Q 33 3.40625 36.890625 8.84375 
Q 40.796875 14.296875 40.796875 24.09375 
Q 40.796875 33.796875 36.890625 39.296875 
Q 33 44.796875 26.90625 44.796875 
z
" id="Charter-111"/>
     <path d="M 2.796875 3.59375 
L 8.703125 4.09375 
L 10.40625 5.703125 
L 10.40625 66.90625 
L 2.703125 66.90625 
L 2.703125 70 
L 14.90625 73.59375 
L 18.703125 73.59375 
L 18.703125 5.703125 
L 20.5 4.09375 
L 26.203125 3.59375 
L 26.203125 0 
L 2.796875 0 
z
" id="Charter-108"/>
     <path d="M 2.90625 3.59375 
L 8.203125 4.09375 
L 10 5.703125 
L 10 42.09375 
L 3.59375 42.09375 
L 3.59375 45.296875 
L 10 46.796875 
L 10 47.90625 
Q 10 54.09375 11.5 59.046875 
Q 13 64 15.703125 67.390625 
Q 18.40625 70.796875 22.15625 72.59375 
Q 25.90625 74.40625 30.296875 74.40625 
Q 33.796875 74.40625 35.9375 72.75 
Q 38.09375 71.09375 38.09375 68.703125 
Q 38.09375 66.90625 37.046875 65.546875 
Q 36 64.203125 34 63.703125 
L 24.90625 69.703125 
Q 18.40625 66.703125 18.40625 54.09375 
L 18.40625 46.796875 
L 32.296875 46.796875 
L 32.296875 42.09375 
L 18.296875 42.09375 
L 18.296875 5.703125 
L 20 4.09375 
L 26.203125 3.59375 
L 26.203125 0 
L 2.90625 0 
z
" id="Charter-102"/>
     <path d="M 3 3.59375 
L 8.296875 4.09375 
L 10.09375 5.703125 
L 10.09375 41.90625 
L 3 41.90625 
L 3 45 
L 14.59375 48.59375 
L 18.40625 48.59375 
L 18.40625 39.203125 
Q 21 41.90625 23.703125 44.296875 
Q 26.40625 46.703125 29.09375 48.90625 
Q 29.703125 49.09375 30.34375 49.09375 
Q 31 49.09375 31.59375 49.09375 
Q 34.59375 49.09375 37.59375 47.796875 
L 37.59375 39.203125 
L 34.40625 39.203125 
Q 32.40625 41.59375 29.296875 41.59375 
Q 24.59375 41.59375 18.40625 34.296875 
L 18.40625 5.703125 
L 20.09375 4.09375 
L 27.09375 3.59375 
L 27.09375 0 
L 3 0 
z
" id="Charter-114"/>
     <path d="M 33.40625 5.796875 
Q 28.59375 2.59375 24.59375 0.9375 
Q 20.59375 -0.703125 17 -0.703125 
Q 11 -0.703125 7.59375 2.84375 
Q 4.203125 6.40625 4.203125 12.09375 
Q 4.203125 16 5.953125 18.640625 
Q 7.703125 21.296875 11.296875 23.296875 
Q 14.90625 25.296875 20.40625 26.890625 
Q 25.90625 28.5 33.40625 30.296875 
L 33.40625 33.5 
Q 33.40625 39.5 31.5 42.09375 
Q 29.59375 44.703125 24.203125 44.703125 
Q 20.5 44.703125 16.59375 43.09375 
L 16.59375 34.703125 
L 9.703125 34.703125 
Q 8 34.703125 7.296875 35.34375 
Q 6.59375 36 6.59375 37.796875 
Q 6.59375 40.09375 8 42.140625 
Q 9.40625 44.203125 12 45.75 
Q 14.59375 47.296875 18.34375 48.1875 
Q 22.09375 49.09375 26.796875 49.09375 
Q 34.703125 49.09375 38.203125 45.6875 
Q 41.703125 42.296875 41.703125 34.703125 
L 41.703125 5.703125 
L 43.5 4.09375 
L 48.796875 3.59375 
L 48.796875 0 
L 34.703125 0 
z
M 33.40625 26.796875 
Q 28.09375 25.296875 24.25 24 
Q 20.40625 22.703125 17.90625 21.140625 
Q 15.40625 19.59375 14.203125 17.59375 
Q 13 15.59375 13 12.90625 
Q 13 9.203125 15.09375 6.953125 
Q 17.203125 4.703125 21 4.703125 
Q 23.5 4.703125 26.546875 5.84375 
Q 29.59375 7 33.40625 9.203125 
z
" id="Charter-97"/>
     <path d="M 42.5 4.203125 
Q 34.09375 -0.703125 26.203125 -0.703125 
Q 21.09375 -0.703125 16.9375 1.09375 
Q 12.796875 2.90625 9.84375 6.15625 
Q 6.90625 9.40625 5.296875 13.953125 
Q 3.703125 18.5 3.703125 24.09375 
Q 3.703125 29.703125 5.453125 34.296875 
Q 7.203125 38.90625 10.296875 42.203125 
Q 13.40625 45.5 17.75 47.296875 
Q 22.09375 49.09375 27.40625 49.09375 
Q 34.59375 49.09375 38.5 46.390625 
Q 42.40625 43.703125 42.40625 39.296875 
Q 42.40625 36.90625 40.90625 35.453125 
Q 39.40625 34 36.796875 34 
Q 34.5 34 32.296875 35.5 
L 32.296875 43.703125 
Q 30 45.09375 27.5 45.09375 
Q 21 45.09375 16.890625 39.6875 
Q 12.796875 34.296875 12.796875 24.796875 
Q 12.796875 15.5 17.390625 10.34375 
Q 22 5.203125 29.796875 5.203125 
Q 36.203125 5.203125 42.5 9.40625 
L 42.5 4.203125 
z
" id="Charter-99"/>
     <path d="M 2.5 42.09375 
L 2.5 45.203125 
L 9.09375 48.09375 
L 13.40625 57.40625 
L 17.09375 57.40625 
L 17.09375 46.796875 
L 32.296875 46.796875 
L 32.296875 42.09375 
L 17.09375 42.09375 
L 17.09375 15.703125 
Q 17.09375 12.796875 17.390625 10.75 
Q 17.703125 8.703125 18.59375 7.390625 
Q 19.5 6.09375 21.140625 5.4375 
Q 22.796875 4.796875 25.40625 4.796875 
Q 28.59375 4.796875 32.296875 5.59375 
L 32.296875 1.90625 
Q 28.796875 0.796875 25.4375 0.25 
Q 22.09375 -0.296875 19.203125 -0.296875 
Q 13 -0.296875 10.890625 2.09375 
Q 8.796875 4.5 8.796875 9.796875 
L 8.796875 42.09375 
z
" id="Charter-116"/>
     <path d="M 15.40625 70.796875 
Q 17.796875 70.796875 19.5 69.09375 
Q 21.203125 67.40625 21.203125 65 
Q 21.203125 62.59375 19.5 60.9375 
Q 17.796875 59.296875 15.40625 59.296875 
Q 13 59.296875 11.296875 60.9375 
Q 9.59375 62.59375 9.59375 65 
Q 9.59375 67.5 11.296875 69.140625 
Q 13 70.796875 15.40625 70.796875 
z
M 18.796875 48.59375 
L 18.796875 5.703125 
L 20.59375 4.09375 
L 26 3.59375 
L 26 0 
L 3.5 0 
L 3.5 3.59375 
L 8.796875 4.09375 
L 10.5 5.703125 
L 10.5 41.90625 
L 3.5 41.90625 
L 3.5 45 
L 15 48.59375 
z
" id="Charter-105"/>
     <path d="M 2.296875 -18.203125 
L 7.703125 -17.703125 
L 9.40625 -16.09375 
L 9.40625 41.90625 
L 2.296875 41.90625 
L 2.296875 45 
L 13.90625 48.59375 
L 17.703125 48.59375 
L 17.703125 43.09375 
Q 25.59375 49.09375 32.40625 49.09375 
Q 36.5 49.09375 40.046875 47.390625 
Q 43.59375 45.703125 46.140625 42.640625 
Q 48.703125 39.59375 50.140625 35.25 
Q 51.59375 30.90625 51.59375 25.703125 
Q 51.59375 19.796875 49.84375 15 
Q 48.09375 10.203125 44.84375 6.796875 
Q 41.59375 3.40625 37.046875 1.546875 
Q 32.5 -0.296875 27 -0.296875 
Q 23.203125 -0.296875 17.703125 0.59375 
L 17.703125 -16.09375 
L 19.40625 -17.703125 
L 25.796875 -18.203125 
L 25.796875 -21.796875 
L 2.296875 -21.796875 
z
M 17.703125 5.796875 
Q 22.5 4.203125 26.203125 4.203125 
Q 29.90625 4.203125 32.953125 5.640625 
Q 36 7.09375 38.203125 9.6875 
Q 40.40625 12.296875 41.59375 16.046875 
Q 42.796875 19.796875 42.796875 24.40625 
Q 42.796875 33.09375 38.796875 37.9375 
Q 34.796875 42.796875 28.203125 42.796875 
Q 25.59375 42.796875 23.09375 41.9375 
Q 20.59375 41.09375 17.703125 39.40625 
z
" id="Charter-112"/>
    </defs>
    <g transform="translate(270.322812 22.08125)scale(0.2 -0.2)">
     <use xlink:href="#Charter-79"/>
     <use x="73.099991" xlink:href="#Charter-120"/>
     <use x="123.399979" xlink:href="#Charter-121"/>
     <use x="172.899963" xlink:href="#Charter-103"/>
     <use x="225.199951" xlink:href="#Charter-101"/>
     <use x="274.299942" xlink:href="#Charter-110"/>
     <use x="331.09993" xlink:href="#Charter-32"/>
     <use x="358.899918" xlink:href="#Charter-109"/>
     <use x="443.199905" xlink:href="#Charter-111"/>
     <use x="497.099899" xlink:href="#Charter-108"/>
     <use x="525.299896" xlink:href="#Charter-101"/>
     <use x="574.399887" xlink:href="#Charter-32"/>
     <use x="602.199875" xlink:href="#Charter-102"/>
     <use x="634.299866" xlink:href="#Charter-114"/>
     <use x="672.499863" xlink:href="#Charter-97"/>
     <use x="723.19986" xlink:href="#Charter-99"/>
     <use x="767.79985" xlink:href="#Charter-116"/>
     <use x="801.199844" xlink:href="#Charter-105"/>
     <use x="829.199829" xlink:href="#Charter-111"/>
     <use x="883.099823" xlink:href="#Charter-110"/>
     <use x="939.899811" xlink:href="#Charter-32"/>
     <use x="967.699799" xlink:href="#Charter-112"/>
     <use x="1022.799789" xlink:href="#Charter-114"/>
     <use x="1060.999786" xlink:href="#Charter-111"/>
     <use x="1114.89978" xlink:href="#Charter-102"/>
     <use x="1146.999771" xlink:href="#Charter-105"/>
     <use x="1174.999756" xlink:href="#Charter-108"/>
     <use x="1203.199753" xlink:href="#Charter-101"/>
    </g>
   </g>
   <g id="legend_1">
    <g id="patch_7">
     <path d="M 568.134375 237.52125 
L 719.149375 237.52125 
Q 722.349375 237.52125 722.349375 234.32125 
L 722.349375 119.60875 
Q 722.349375 116.40875 719.149375 116.40875 
L 568.134375 116.40875 
Q 564.934375 116.40875 564.934375 119.60875 
L 564.934375 234.32125 
Q 564.934375 237.52125 568.134375 237.52125 
z
" style="fill:#ffffff;opacity:0.8;stroke:#cccccc;stroke-linejoin:miter;"/>
    </g>
    <g id="line2d_30">
     <path d="M 571.334375 128.98375 
L 603.334375 128.98375 
" style="fill:none;stroke:#000000;stroke-dasharray:7.4,3.2;stroke-dashoffset:0;stroke-width:2;"/>
    </g>
    <g id="line2d_31"/>
    <g id="text_16">
     <!-- Pure stream -->
     <defs>
      <path d="M 3.296875 4.09375 
L 9 4.59375 
L 10.703125 6 
L 10.703125 61.09375 
L 9 62.5 
L 2.5 63.09375 
L 2.5 67.09375 
L 25.296875 67.09375 
Q 32.5 67.09375 37.75 66.046875 
Q 43 65 46.390625 62.59375 
Q 49.796875 60.203125 51.4375 56.296875 
Q 53.09375 52.40625 53.09375 46.703125 
Q 53.09375 41.90625 51.296875 37.953125 
Q 49.5 34 46.140625 31.140625 
Q 42.796875 28.296875 38 26.75 
Q 33.203125 25.203125 27.203125 25.203125 
Q 25.796875 25.203125 23.890625 25.34375 
Q 22 25.5 19.703125 25.703125 
L 19.703125 6 
L 21.40625 4.59375 
L 28.5 4.09375 
L 28.5 0 
L 3.296875 0 
z
M 19.703125 30.5 
Q 21.90625 30.296875 23.546875 30.140625 
Q 25.203125 30 26.296875 30 
Q 34.90625 30 39.34375 34.296875 
Q 43.796875 38.59375 43.796875 46.90625 
Q 43.796875 55 39.1875 58.75 
Q 34.59375 62.5 24.90625 62.5 
Q 23.703125 62.5 22.390625 62.5 
Q 21.09375 62.5 19.703125 62.296875 
z
" id="Charter-80"/>
      <path d="M 18 49.09375 
L 18 16 
Q 18 10.59375 20.296875 8 
Q 22.59375 5.40625 27.703125 5.40625 
Q 33.09375 5.40625 39.296875 8.40625 
L 39.296875 42.296875 
L 32.203125 42.296875 
L 32.203125 45.40625 
L 43.796875 49.09375 
L 47.59375 49.09375 
L 47.59375 5.703125 
L 49.40625 4.09375 
L 54.09375 3.59375 
L 54.09375 0 
L 39.296875 0 
L 39.296875 5.59375 
Q 34.796875 2.40625 30.796875 0.703125 
Q 26.796875 -1 23.09375 -1 
Q 16.59375 -1 13.140625 2.890625 
Q 9.703125 6.796875 9.703125 14.296875 
L 9.703125 42.296875 
L 2.59375 42.296875 
L 2.59375 45.40625 
L 14.203125 49.09375 
z
" id="Charter-117"/>
      <path d="M 34.40625 35.59375 
L 29.5 35.59375 
L 28.703125 42.703125 
Q 24.796875 44.796875 21.296875 44.796875 
Q 17.296875 44.796875 15.140625 42.890625 
Q 13 41 13 37.59375 
Q 13 34.40625 15.140625 32.453125 
Q 17.296875 30.5 21.5 28.5 
Q 24.09375 27.203125 26.84375 25.953125 
Q 29.59375 24.703125 32.09375 22.703125 
Q 35.90625 19.703125 35.90625 14.09375 
Q 35.90625 7.09375 31 3.09375 
Q 26.09375 -0.90625 17.203125 -0.90625 
Q 13.40625 -0.90625 10.09375 -0.34375 
Q 6.796875 0.203125 4.203125 1.203125 
L 4.203125 14.203125 
L 9 14.203125 
L 10.203125 5.703125 
Q 14.40625 3.296875 18.703125 3.296875 
Q 23.09375 3.296875 25.59375 5.59375 
Q 28.09375 7.90625 28.09375 11.40625 
Q 28.09375 13.296875 27.4375 14.6875 
Q 26.796875 16.09375 25.5 17.1875 
Q 24.203125 18.296875 22.296875 19.296875 
Q 20.40625 20.296875 17.90625 21.40625 
Q 11.5 24.203125 8.25 27.140625 
Q 5 30.09375 5 35.09375 
Q 5 41.703125 9.546875 45.390625 
Q 14.09375 49.09375 22.703125 49.09375 
Q 29.40625 49.09375 34.40625 46.90625 
z
" id="Charter-115"/>
     </defs>
     <g transform="translate(616.134375 134.58375)scale(0.16 -0.16)">
      <use xlink:href="#Charter-80"/>
      <use x="55.799988" xlink:href="#Charter-117"/>
      <use x="112.699982" xlink:href="#Charter-114"/>
      <use x="150.899979" xlink:href="#Charter-101"/>
      <use x="199.999969" xlink:href="#Charter-32"/>
      <use x="227.799957" xlink:href="#Charter-115"/>
      <use x="267.799942" xlink:href="#Charter-116"/>
      <use x="301.199936" xlink:href="#Charter-114"/>
      <use x="339.399933" xlink:href="#Charter-101"/>
      <use x="388.499924" xlink:href="#Charter-97"/>
      <use x="439.199921" xlink:href="#Charter-109"/>
     </g>
    </g>
    <g id="line2d_32">
     <path d="M 571.334375 152.24625 
L 603.334375 152.24625 
" style="fill:none;stroke:#c7254e;stroke-linecap:square;"/>
    </g>
    <g id="line2d_33">
     <g>
      <use style="fill:#c7254e;stroke:#c7254e;" x="587.334375" xlink:href="#m37cf13679f" y="152.24625"/>
     </g>
    </g>
    <g id="text_17">
     <!-- RPM=1000 -->
     <defs>
      <path d="M 28.796875 67.09375 
Q 41 67.09375 46.953125 62.75 
Q 52.90625 58.40625 52.90625 49.09375 
Q 52.90625 36.09375 36.703125 32.5 
Q 44.09375 30.5 47 25.796875 
Q 48 24.09375 48.640625 22.1875 
Q 49.296875 20.296875 49.75 18.390625 
Q 50.203125 16.5 50.59375 14.640625 
Q 51 12.796875 51.703125 11 
Q 52.5 8.796875 53.59375 7.390625 
Q 54.703125 6 56.203125 5.25 
Q 57.703125 4.5 59.75 4.203125 
Q 61.796875 3.90625 64.703125 3.90625 
L 65.59375 3.90625 
L 65.59375 0.09375 
Q 61.09375 -0.796875 57.796875 -0.796875 
Q 51 -0.796875 47.703125 2.09375 
Q 45.90625 3.703125 44.84375 5.640625 
Q 43.796875 7.59375 43.046875 9.796875 
Q 42.296875 12 41.75 14.390625 
Q 41.203125 16.796875 40.40625 19.203125 
Q 39.40625 22.296875 38.09375 24.34375 
Q 36.796875 26.40625 34.9375 27.65625 
Q 33.09375 28.90625 30.59375 29.453125 
Q 28.09375 30 24.703125 30 
Q 23.59375 30 22.34375 29.953125 
Q 21.09375 29.90625 19.703125 29.796875 
L 19.703125 6 
L 21.40625 4.59375 
L 27.09375 4.09375 
L 27.09375 0 
L 3.296875 0 
L 3.296875 4.09375 
L 9 4.59375 
L 10.703125 6 
L 10.703125 61.09375 
L 9 62.5 
L 3.296875 63.09375 
L 3.296875 67.09375 
z
M 19.703125 34.59375 
Q 22 34.5 23.34375 34.5 
Q 24.703125 34.5 25.203125 34.5 
Q 34.296875 34.5 38.59375 37.640625 
Q 42.90625 40.796875 42.90625 48.296875 
Q 42.90625 56.09375 38.40625 59.296875 
Q 33.90625 62.5 24.5 62.5 
L 19.703125 62.5 
z
" id="Charter-82"/>
      <path d="M 3.09375 4.09375 
L 9.09375 4.90625 
L 10.90625 6.796875 
L 10.90625 61.09375 
L 9.59375 62.5 
L 3 63.09375 
L 3 67.09375 
L 24.203125 67.09375 
L 24.203125 64.40625 
L 43 14.203125 
L 62 64 
L 62 67.09375 
L 83.40625 67.09375 
L 83.40625 63.09375 
L 77.09375 62.5 
L 75.90625 61.09375 
L 75.90625 6 
L 77.09375 4.59375 
L 83.40625 4.09375 
L 83.40625 0 
L 59.5 0 
L 59.5 4.09375 
L 66.09375 4.59375 
L 67.09375 6 
L 67.09375 62.40625 
L 43.40625 0 
L 39.09375 0 
L 16.296875 61.40625 
L 16.296875 6.796875 
L 18.09375 4.90625 
L 24.203125 4.09375 
L 24.203125 0 
L 3.09375 0 
z
" id="Charter-77"/>
      <path d="M 70.90625 42 
L 70.90625 36.296875 
L 12.40625 36.296875 
L 12.40625 42 
z
M 70.90625 23.296875 
L 70.90625 17.59375 
L 12.40625 17.59375 
L 12.40625 23.296875 
z
" id="Charter-61"/>
     </defs>
     <g transform="translate(616.134375 157.84625)scale(0.16 -0.16)">
      <use xlink:href="#Charter-82"/>
      <use x="64.599991" xlink:href="#Charter-80"/>
      <use x="120.399979" xlink:href="#Charter-77"/>
      <use x="206.999969" xlink:href="#Charter-61"/>
      <use x="290.299957" xlink:href="#Charter-49"/>
      <use x="345.899948" xlink:href="#Charter-48"/>
      <use x="401.499939" xlink:href="#Charter-48"/>
      <use x="457.09993" xlink:href="#Charter-48"/>
     </g>
    </g>
    <g id="line2d_34">
     <path d="M 571.334375 175.50875 
L 603.334375 175.50875 
" style="fill:none;stroke:#c7254e;stroke-linecap:square;stroke-width:2;"/>
    </g>
    <g id="line2d_35">
     <g>
      <use style="fill:#c7254e;stroke:#c7254e;stroke-linejoin:miter;" x="587.334375" xlink:href="#mef80b512ca" y="175.50875"/>
     </g>
    </g>
    <g id="text_18">
     <!-- RPM=50000 -->
     <g transform="translate(616.134375 181.10875)scale(0.16 -0.16)">
      <use xlink:href="#Charter-82"/>
      <use x="64.599991" xlink:href="#Charter-80"/>
      <use x="120.399979" xlink:href="#Charter-77"/>
      <use x="206.999969" xlink:href="#Charter-61"/>
      <use x="290.299957" xlink:href="#Charter-53"/>
      <use x="345.899948" xlink:href="#Charter-48"/>
      <use x="401.499939" xlink:href="#Charter-48"/>
      <use x="457.09993" xlink:href="#Charter-48"/>
      <use x="512.699921" xlink:href="#Charter-48"/>
     </g>
    </g>
    <g id="line2d_36">
     <path d="M 571.334375 198.77125 
L 603.334375 198.77125 
" style="fill:none;stroke:#c7254e;stroke-linecap:square;stroke-width:3;"/>
    </g>
    <g id="line2d_37">
     <g>
      <use style="fill:#c7254e;stroke:#c7254e;stroke-linejoin:miter;" x="587.334375" xlink:href="#m202a90068b" y="198.77125"/>
     </g>
    </g>
    <g id="text_19">
     <!-- RPM=100000 -->
     <g transform="translate(616.134375 204.37125)scale(0.16 -0.16)">
      <use xlink:href="#Charter-82"/>
      <use x="64.599991" xlink:href="#Charter-80"/>
      <use x="120.399979" xlink:href="#Charter-77"/>
      <use x="206.999969" xlink:href="#Charter-61"/>
      <use x="290.299957" xlink:href="#Charter-49"/>
      <use x="345.899948" xlink:href="#Charter-48"/>
      <use x="401.499939" xlink:href="#Charter-48"/>
      <use x="457.09993" xlink:href="#Charter-48"/>
      <use x="512.699921" xlink:href="#Charter-48"/>
      <use x="568.299911" xlink:href="#Charter-48"/>
     </g>
    </g>
    <g id="line2d_38">
     <path d="M 571.334375 222.03375 
L 603.334375 222.03375 
" style="fill:none;stroke:#c7254e;stroke-linecap:square;stroke-width:4;"/>
    </g>
    <g id="line2d_39">
     <g>
      <use style="fill:#c7254e;stroke:#c7254e;stroke-linejoin:miter;" x="587.334375" xlink:href="#m1bceabc5d9" y="222.03375"/>
     </g>
    </g>
    <g id="text_20">
     <!-- RPM=150000 -->
     <g transform="translate(616.134375 227.63375)scale(0.16 -0.16)">
      <use xlink:href="#Charter-82"/>
      <use x="64.599991" xlink:href="#Charter-80"/>
      <use x="120.399979" xlink:href="#Charter-77"/>
      <use x="206.999969" xlink:href="#Charter-61"/>
      <use x="290.299957" xlink:href="#Charter-49"/>
      <use x="345.899948" xlink:href="#Charter-53"/>
      <use x="401.499939" xlink:href="#Charter-48"/>
      <use x="457.09993" xlink:href="#Charter-48"/>
      <use x="512.699921" xlink:href="#Charter-48"/>
      <use x="568.299911" xlink:href="#Charter-48"/>
     </g>
    </g>
   </g>
  </g>
 </g>
 <defs>
  <clipPath id="pb66fc21f5e">
   <rect height="217.44" width="669.6" x="60.749375" y="28.08125"/>
  </clipPath>
 </defs>
</svg>
