<?xml version="1.0" encoding="utf-8" standalone="no"?>
<!DOCTYPE svg PUBLIC "-//W3C//DTD SVG 1.1//EN"
  "http://www.w3.org/Graphics/SVG/1.1/DTD/svg11.dtd">
<!-- Created with matplotlib (https://matplotlib.org/) -->
<svg height="294.24625pt" version="1.1" viewBox="0 0 737.549375 294.24625" width="737.549375pt" xmlns="http://www.w3.org/2000/svg" xmlns:xlink="http://www.w3.org/1999/xlink">
 <defs>
  <style type="text/css">
*{stroke-linecap:butt;stroke-linejoin:round;}
  </style>
 </defs>
 <g id="figure_1">
  <g id="patch_1">
   <path d="M 0 294.24625 
L 737.549375 294.24625 
L 737.549375 0 
L 0 0 
z
" style="fill:#ffffff;"/>
  </g>
  <g id="axes_1">
   <g id="patch_2">
    <path d="M 60.749375 245.52125 
L 730.349375 245.52125 
L 730.349375 28.08125 
L 60.749375 28.08125 
z
" style="fill:#ffffff;"/>
   </g>
   <g id="matplotlib.axis_1">
    <g id="xtick_1">
     <g id="line2d_1">
      <path clip-path="url(#p275e3853a9)" d="M 91.185739 245.52125 
L 91.185739 28.08125 
" style="fill:none;stroke:#b0b0b0;stroke-linecap:square;stroke-opacity:0.3;stroke-width:0.8;"/>
     </g>
     <g id="line2d_2">
      <defs>
       <path d="M 0 0 
L 0 3.5 
" id="ma525d6d9e8" style="stroke:#000000;stroke-width:0.8;"/>
      </defs>
      <g>
       <use style="stroke:#000000;stroke-width:0.8;" x="91.185739" xlink:href="#ma525d6d9e8" y="245.52125"/>
      </g>
     </g>
     <g id="text_1">
      <!-- 0.00 -->
      <defs>
       <path d="M 27.796875 68.296875 
Q 33.203125 68.296875 37.546875 66 
Q 41.90625 63.703125 45 59.25 
Q 48.09375 54.796875 49.796875 48.34375 
Q 51.5 41.90625 51.5 33.59375 
Q 51.5 25.296875 49.796875 18.84375 
Q 48.09375 12.40625 45 7.953125 
Q 41.90625 3.5 37.546875 1.140625 
Q 33.203125 -1.203125 27.796875 -1.203125 
Q 22.40625 -1.203125 18.046875 1.140625 
Q 13.703125 3.5 10.59375 7.953125 
Q 7.5 12.40625 5.796875 18.84375 
Q 4.09375 25.296875 4.09375 33.59375 
Q 4.09375 41.90625 5.796875 48.34375 
Q 7.5 54.796875 10.59375 59.25 
Q 13.703125 63.703125 18.046875 66 
Q 22.40625 68.296875 27.796875 68.296875 
z
M 27.796875 63.59375 
Q 20.90625 63.59375 17.203125 56.046875 
Q 13.5 48.5 13.5 33.5 
Q 13.5 18.59375 17.203125 11.09375 
Q 20.90625 3.59375 27.796875 3.59375 
Q 34.703125 3.59375 38.34375 11.140625 
Q 42 18.703125 42 33.59375 
Q 42 48.5 38.34375 56.046875 
Q 34.703125 63.59375 27.796875 63.59375 
z
" id="Charter-48"/>
       <path d="M 13.90625 11.796875 
Q 16.5 11.796875 18.34375 9.9375 
Q 20.203125 8.09375 20.203125 5.40625 
Q 20.203125 2.796875 18.34375 0.9375 
Q 16.5 -0.90625 13.90625 -0.90625 
Q 11.296875 -0.90625 9.390625 0.890625 
Q 7.5 2.703125 7.5 5.40625 
Q 7.5 8.09375 9.390625 9.9375 
Q 11.296875 11.796875 13.90625 11.796875 
z
" id="Charter-46"/>
      </defs>
      <g transform="translate(79.511051 261.3525)scale(0.12 -0.12)">
       <use xlink:href="#Charter-48"/>
       <use x="55.599991" xlink:href="#Charter-46"/>
       <use x="83.399979" xlink:href="#Charter-48"/>
       <use x="138.999969" xlink:href="#Charter-48"/>
      </g>
     </g>
    </g>
    <g id="xtick_2">
     <g id="line2d_3">
      <path clip-path="url(#p275e3853a9)" d="M 212.931193 245.52125 
L 212.931193 28.08125 
" style="fill:none;stroke:#b0b0b0;stroke-linecap:square;stroke-opacity:0.3;stroke-width:0.8;"/>
     </g>
     <g id="line2d_4">
      <g>
       <use style="stroke:#000000;stroke-width:0.8;" x="212.931193" xlink:href="#ma525d6d9e8" y="245.52125"/>
      </g>
     </g>
     <g id="text_2">
      <!-- 0.02 -->
      <defs>
       <path d="M 44.203125 7.90625 
L 46 16.40625 
L 50.5 16.40625 
L 50.5 0 
L 4.203125 0 
L 4.203125 6.296875 
Q 12.40625 13 18.796875 18.5 
Q 25.203125 24 29.59375 28.953125 
Q 34 33.90625 36.296875 38.546875 
Q 38.59375 43.203125 38.59375 48.09375 
Q 38.59375 55.296875 35.09375 59.25 
Q 31.59375 63.203125 25.296875 63.203125 
Q 23 63.203125 20.84375 62.640625 
Q 18.703125 62.09375 16.40625 60.796875 
L 16.40625 50.09375 
Q 14.296875 48.59375 11.90625 48.59375 
Q 9.296875 48.59375 7.796875 50.09375 
Q 6.296875 51.59375 6.296875 54.203125 
Q 6.296875 56.796875 7.84375 59.34375 
Q 9.40625 61.90625 12.25 63.90625 
Q 15.09375 65.90625 18.9375 67.09375 
Q 22.796875 68.296875 27.5 68.296875 
Q 32.296875 68.296875 36.140625 66.9375 
Q 40 65.59375 42.703125 63.09375 
Q 45.40625 60.59375 46.84375 57.09375 
Q 48.296875 53.59375 48.296875 49.40625 
Q 48.296875 44.703125 46.046875 40.09375 
Q 43.796875 35.5 39.4375 30.546875 
Q 35.09375 25.59375 28.75 20.046875 
Q 22.40625 14.5 14.09375 7.90625 
z
" id="Charter-50"/>
      </defs>
      <g transform="translate(201.256506 261.3525)scale(0.12 -0.12)">
       <use xlink:href="#Charter-48"/>
       <use x="55.599991" xlink:href="#Charter-46"/>
       <use x="83.399979" xlink:href="#Charter-48"/>
       <use x="138.999969" xlink:href="#Charter-50"/>
      </g>
     </g>
    </g>
    <g id="xtick_3">
     <g id="line2d_5">
      <path clip-path="url(#p275e3853a9)" d="M 334.676648 245.52125 
L 334.676648 28.08125 
" style="fill:none;stroke:#b0b0b0;stroke-linecap:square;stroke-opacity:0.3;stroke-width:0.8;"/>
     </g>
     <g id="line2d_6">
      <g>
       <use style="stroke:#000000;stroke-width:0.8;" x="334.676648" xlink:href="#ma525d6d9e8" y="245.52125"/>
      </g>
     </g>
     <g id="text_3">
      <!-- 0.04 -->
      <defs>
       <path d="M 42.59375 67.703125 
L 42.59375 25.90625 
L 53.90625 25.90625 
L 53.90625 19.40625 
L 42.59375 19.40625 
L 42.59375 -3.703125 
L 34.90625 -3.703125 
L 34.90625 19.40625 
L 2.703125 19.40625 
L 2.703125 25.90625 
L 36.796875 67.703125 
z
M 10.203125 25.90625 
L 34.90625 25.90625 
L 34.90625 56.796875 
z
" id="Charter-52"/>
      </defs>
      <g transform="translate(323.00196 261.3525)scale(0.12 -0.12)">
       <use xlink:href="#Charter-48"/>
       <use x="55.599991" xlink:href="#Charter-46"/>
       <use x="83.399979" xlink:href="#Charter-48"/>
       <use x="138.999969" xlink:href="#Charter-52"/>
      </g>
     </g>
    </g>
    <g id="xtick_4">
     <g id="line2d_7">
      <path clip-path="url(#p275e3853a9)" d="M 456.422102 245.52125 
L 456.422102 28.08125 
" style="fill:none;stroke:#b0b0b0;stroke-linecap:square;stroke-opacity:0.3;stroke-width:0.8;"/>
     </g>
     <g id="line2d_8">
      <g>
       <use style="stroke:#000000;stroke-width:0.8;" x="456.422102" xlink:href="#ma525d6d9e8" y="245.52125"/>
      </g>
     </g>
     <g id="text_4">
      <!-- 0.06 -->
      <defs>
       <path d="M 44.296875 65.59375 
L 44 65.59375 
Q 31.90625 65.59375 24.453125 58.6875 
Q 17 51.796875 14.703125 38.40625 
Q 22.59375 44.5 31.703125 44.5 
Q 36.203125 44.5 40 42.890625 
Q 43.796875 41.296875 46.546875 38.390625 
Q 49.296875 35.5 50.890625 31.5 
Q 52.5 27.5 52.5 22.703125 
Q 52.5 17.59375 50.640625 13.25 
Q 48.796875 8.90625 45.546875 5.703125 
Q 42.296875 2.5 37.84375 0.640625 
Q 33.40625 -1.203125 28.296875 -1.203125 
Q 23.203125 -1.203125 18.953125 0.796875 
Q 14.703125 2.796875 11.59375 6.5 
Q 8.5 10.203125 6.75 15.546875 
Q 5 20.90625 5 27.703125 
Q 5 37.296875 7.703125 45.09375 
Q 10.40625 52.90625 15.453125 58.546875 
Q 20.5 64.203125 27.796875 67.5 
Q 35.09375 70.796875 44.296875 71.40625 
z
M 14.5 34 
Q 14.296875 32.40625 14.296875 30.84375 
Q 14.296875 29.296875 14.296875 27.90625 
Q 14.296875 15.90625 18.140625 9.75 
Q 22 3.59375 29.09375 3.59375 
Q 32.203125 3.59375 34.84375 4.9375 
Q 37.5 6.296875 39.390625 8.6875 
Q 41.296875 11.09375 42.34375 14.4375 
Q 43.40625 17.796875 43.40625 21.796875 
Q 43.40625 29.59375 39.40625 34.046875 
Q 35.40625 38.5 29 38.5 
Q 20.59375 38.5 14.5 34 
z
" id="Charter-54"/>
      </defs>
      <g transform="translate(444.747415 261.3525)scale(0.12 -0.12)">
       <use xlink:href="#Charter-48"/>
       <use x="55.599991" xlink:href="#Charter-46"/>
       <use x="83.399979" xlink:href="#Charter-48"/>
       <use x="138.999969" xlink:href="#Charter-54"/>
      </g>
     </g>
    </g>
    <g id="xtick_5">
     <g id="line2d_9">
      <path clip-path="url(#p275e3853a9)" d="M 578.167557 245.52125 
L 578.167557 28.08125 
" style="fill:none;stroke:#b0b0b0;stroke-linecap:square;stroke-opacity:0.3;stroke-width:0.8;"/>
     </g>
     <g id="line2d_10">
      <g>
       <use style="stroke:#000000;stroke-width:0.8;" x="578.167557" xlink:href="#ma525d6d9e8" y="245.52125"/>
      </g>
     </g>
     <g id="text_5">
      <!-- 0.08 -->
      <defs>
       <path d="M 32.09375 36.90625 
Q 36 39.5 38.046875 43.09375 
Q 40.09375 46.703125 40.09375 50.703125 
Q 40.09375 56.703125 36.796875 60.203125 
Q 33.5 63.703125 28 63.703125 
Q 25.40625 63.703125 23.203125 62.796875 
Q 21 61.90625 19.34375 60.296875 
Q 17.703125 58.703125 16.796875 56.546875 
Q 15.90625 54.40625 15.90625 51.90625 
Q 15.90625 46.90625 19.90625 43.34375 
Q 23.90625 39.796875 32.09375 36.90625 
z
M 36.296875 35.09375 
Q 43.40625 32.59375 47 28.1875 
Q 50.59375 23.796875 50.59375 17.90625 
Q 50.59375 13.90625 48.9375 10.34375 
Q 47.296875 6.796875 44.25 4.140625 
Q 41.203125 1.5 36.953125 -0.046875 
Q 32.703125 -1.59375 27.5 -1.59375 
Q 22.09375 -1.59375 17.796875 -0.140625 
Q 13.5 1.296875 10.546875 3.84375 
Q 7.59375 6.40625 6 9.953125 
Q 4.40625 13.5 4.40625 17.703125 
Q 4.40625 29.703125 18.09375 35 
Q 7.59375 39.40625 7.59375 50.40625 
Q 7.59375 54.40625 9.09375 57.703125 
Q 10.59375 61 13.296875 63.390625 
Q 16 65.796875 19.796875 67.140625 
Q 23.59375 68.5 28.296875 68.5 
Q 32.796875 68.5 36.390625 67.25 
Q 40 66 42.546875 63.75 
Q 45.09375 61.5 46.4375 58.390625 
Q 47.796875 55.296875 47.796875 51.703125 
Q 47.796875 46.703125 44.84375 42.34375 
Q 41.90625 38 36.296875 35.09375 
z
M 21.90625 32.90625 
Q 16.796875 30.203125 14.4375 26.796875 
Q 12.09375 23.40625 12.09375 18.296875 
Q 12.09375 11.703125 16.34375 7.640625 
Q 20.59375 3.59375 27.796875 3.59375 
Q 34.296875 3.59375 38.140625 7.25 
Q 42 10.90625 42 16.90625 
Q 42 19.90625 40.75 22.046875 
Q 39.5 24.203125 37 26 
Q 34.5 27.796875 30.703125 29.390625 
Q 26.90625 31 21.90625 32.90625 
z
" id="Charter-56"/>
      </defs>
      <g transform="translate(566.492869 261.3525)scale(0.12 -0.12)">
       <use xlink:href="#Charter-48"/>
       <use x="55.599991" xlink:href="#Charter-46"/>
       <use x="83.399979" xlink:href="#Charter-48"/>
       <use x="138.999969" xlink:href="#Charter-56"/>
      </g>
     </g>
    </g>
    <g id="xtick_6">
     <g id="line2d_11">
      <path clip-path="url(#p275e3853a9)" d="M 699.913011 245.52125 
L 699.913011 28.08125 
" style="fill:none;stroke:#b0b0b0;stroke-linecap:square;stroke-opacity:0.3;stroke-width:0.8;"/>
     </g>
     <g id="line2d_12">
      <g>
       <use style="stroke:#000000;stroke-width:0.8;" x="699.913011" xlink:href="#ma525d6d9e8" y="245.52125"/>
      </g>
     </g>
     <g id="text_6">
      <!-- 0.10 -->
      <defs>
       <path d="M 33.90625 68.296875 
L 33.90625 6.203125 
L 35.09375 4.703125 
L 45.90625 4.203125 
L 45.90625 0 
L 12.40625 0 
L 12.40625 4.296875 
L 23.90625 4.90625 
L 25.09375 6.59375 
L 25.09375 60.40625 
L 9.40625 57.59375 
L 9.40625 61.796875 
L 31.09375 68.296875 
z
" id="Charter-49"/>
      </defs>
      <g transform="translate(688.238324 261.3525)scale(0.12 -0.12)">
       <use xlink:href="#Charter-48"/>
       <use x="55.599991" xlink:href="#Charter-46"/>
       <use x="83.399979" xlink:href="#Charter-49"/>
       <use x="138.999969" xlink:href="#Charter-48"/>
      </g>
     </g>
    </g>
    <g id="text_7">
     <!-- $r$ [$m$] -->
     <defs>
      <path d="M 17.703125 48.203125 
L 2.90625 44.90625 
L 2.90625 42.40625 
L 11.09375 40.90625 
L 2.796875 0 
L 11.203125 0 
L 15.296875 23.5 
C 16.90625 32.703125 20.09375 38.09375 29.90625 41.90625 
L 32.5 36.5 
C 32.703125 36.5 32.90625 36.5 33.203125 36.5 
C 37.296875 36.5 39.90625 39.203125 39.90625 43 
C 39.90625 46 37.703125 48.203125 34.296875 48.203125 
C 29.296875 48.203125 22.90625 43.59375 16.5 34.5 
L 19.703125 48.203125 
z
" id="Charter-Italic-114"/>
      <path id="Charter-32"/>
      <path d="M 37.59375 70.796875 
L 37.59375 66.5 
L 21.796875 66.5 
L 21.796875 -9 
L 37.59375 -9 
L 37.59375 -13.203125 
L 13.90625 -13.203125 
L 13.90625 70.796875 
z
" id="Charter-91"/>
      <path d="M 18.09375 48.203125 
L 3.296875 45 
L 3.296875 42.40625 
L 11.5 40.796875 
L 3.203125 0 
L 11.59375 0 
L 17.90625 33.90625 
C 24.203125 39.59375 29.5 42.09375 32.09375 42.09375 
C 35.59375 42.09375 37.59375 39.90625 37.59375 36.203125 
C 37.59375 34.796875 37.296875 32.5 36.703125 29.296875 
L 30.703125 0 
L 39 0 
L 45.5 34 
C 50.09375 39.40625 55.296875 42.09375 59.09375 42.09375 
C 62.40625 42.09375 64 39.90625 64 35.703125 
C 64 34.296875 63.796875 32.203125 63.09375 29.296875 
L 58.796875 10.796875 
C 58.296875 8.5 58 6.59375 58 5.40625 
C 58 1.296875 60.296875 -0.59375 65.296875 -0.59375 
C 68 -0.59375 72 0.5 77.296875 2.5 
L 77.296875 5.203125 
C 75 4.59375 73.09375 4.296875 71.703125 4.296875 
C 68.5 4.296875 66.59375 6.09375 66.59375 9.296875 
C 66.59375 10.90625 67.09375 13.09375 67.703125 15.796875 
L 71.09375 31.296875 
C 71.90625 34.703125 72.296875 37.5 72.296875 39.703125 
C 72.296875 45 68.90625 48.203125 64.09375 48.203125 
C 59.296875 48.203125 53.09375 45.203125 45.796875 39.09375 
C 45.703125 45 42.703125 48.203125 37.703125 48.203125 
C 33 48.203125 26.59375 45.09375 18.796875 38.703125 
L 20.59375 48.203125 
z
" id="Charter-Italic-109"/>
      <path d="M 28.203125 70.796875 
L 28.203125 -13.296875 
L 4.59375 -13.296875 
L 4.59375 -9 
L 20.40625 -9 
L 20.40625 66.5 
L 4.59375 66.5 
L 4.59375 70.796875 
z
" id="Charter-93"/>
     </defs>
     <g transform="translate(372.149375 282.686875)scale(0.2 -0.2)">
      <use transform="translate(0 0.203125)" xlink:href="#Charter-Italic-114"/>
      <use transform="translate(39.799988 0.203125)" xlink:href="#Charter-32"/>
      <use transform="translate(67.599976 0.203125)" xlink:href="#Charter-91"/>
      <use transform="translate(109.699966 0.203125)" xlink:href="#Charter-Italic-109"/>
      <use transform="translate(191.199951 0.203125)" xlink:href="#Charter-93"/>
     </g>
    </g>
   </g>
   <g id="matplotlib.axis_2">
    <g id="ytick_1">
     <g id="line2d_13">
      <path clip-path="url(#p275e3853a9)" d="M 60.749375 245.52125 
L 730.349375 245.52125 
" style="fill:none;stroke:#b0b0b0;stroke-linecap:square;stroke-opacity:0.3;stroke-width:0.8;"/>
     </g>
     <g id="line2d_14">
      <defs>
       <path d="M 0 0 
L -3.5 0 
" id="m641d87a274" style="stroke:#000000;stroke-width:0.8;"/>
      </defs>
      <g>
       <use style="stroke:#000000;stroke-width:0.8;" x="60.749375" xlink:href="#m641d87a274" y="245.52125"/>
      </g>
     </g>
     <g id="text_8">
      <!-- 0.75 -->
      <defs>
       <path d="M 53.09375 67.09375 
L 53.09375 63.09375 
L 19.90625 -1.5 
L 19.90625 -3.703125 
L 11.59375 -3.703125 
L 44.203125 59.5 
L 13.40625 59.5 
L 11.796875 50.40625 
L 7.09375 50.40625 
L 7.09375 67.09375 
z
" id="Charter-55"/>
       <path d="M 45.90625 67.09375 
L 45.90625 59.296875 
L 16.296875 59.296875 
L 16.296875 39.296875 
Q 22 40.90625 27 40.90625 
Q 32 40.90625 36.046875 39.5 
Q 40.09375 38.09375 42.9375 35.546875 
Q 45.796875 33 47.34375 29.5 
Q 48.90625 26 48.90625 21.703125 
Q 48.90625 16.90625 47.046875 12.75 
Q 45.203125 8.59375 41.703125 5.546875 
Q 38.203125 2.5 33.25 0.796875 
Q 28.296875 -0.90625 22.203125 -0.90625 
Q 18.296875 -0.90625 15.140625 -0.09375 
Q 12 0.703125 9.75 2 
Q 7.5 3.296875 6.25 5 
Q 5 6.703125 5 8.5 
Q 5 10.796875 6.59375 12.296875 
Q 8.203125 13.796875 10.796875 13.796875 
Q 11.703125 13.796875 13.203125 13.5 
L 17.203125 4.90625 
Q 20.5 3.703125 23.90625 3.703125 
Q 27.40625 3.703125 30.296875 4.890625 
Q 33.203125 6.09375 35.296875 8.1875 
Q 37.40625 10.296875 38.546875 13.25 
Q 39.703125 16.203125 39.703125 19.703125 
Q 39.703125 27.5 34.546875 31.09375 
Q 29.40625 34.703125 18.90625 34.703125 
Q 13.40625 34.703125 10.09375 34.09375 
L 10.09375 67.09375 
z
" id="Charter-53"/>
      </defs>
      <g transform="translate(30.4 249.936875)scale(0.12 -0.12)">
       <use xlink:href="#Charter-48"/>
       <use x="55.599991" xlink:href="#Charter-46"/>
       <use x="83.399979" xlink:href="#Charter-55"/>
       <use x="138.999969" xlink:href="#Charter-53"/>
      </g>
     </g>
    </g>
    <g id="ytick_2">
     <g id="line2d_15">
      <path clip-path="url(#p275e3853a9)" d="M 60.749375 202.03325 
L 730.349375 202.03325 
" style="fill:none;stroke:#b0b0b0;stroke-linecap:square;stroke-opacity:0.3;stroke-width:0.8;"/>
     </g>
     <g id="line2d_16">
      <g>
       <use style="stroke:#000000;stroke-width:0.8;" x="60.749375" xlink:href="#m641d87a274" y="202.03325"/>
      </g>
     </g>
     <g id="text_9">
      <!-- 0.80 -->
      <g transform="translate(30.4 206.448875)scale(0.12 -0.12)">
       <use xlink:href="#Charter-48"/>
       <use x="55.599991" xlink:href="#Charter-46"/>
       <use x="83.399979" xlink:href="#Charter-56"/>
       <use x="138.999969" xlink:href="#Charter-48"/>
      </g>
     </g>
    </g>
    <g id="ytick_3">
     <g id="line2d_17">
      <path clip-path="url(#p275e3853a9)" d="M 60.749375 158.54525 
L 730.349375 158.54525 
" style="fill:none;stroke:#b0b0b0;stroke-linecap:square;stroke-opacity:0.3;stroke-width:0.8;"/>
     </g>
     <g id="line2d_18">
      <g>
       <use style="stroke:#000000;stroke-width:0.8;" x="60.749375" xlink:href="#m641d87a274" y="158.54525"/>
      </g>
     </g>
     <g id="text_10">
      <!-- 0.85 -->
      <g transform="translate(30.4 162.960875)scale(0.12 -0.12)">
       <use xlink:href="#Charter-48"/>
       <use x="55.599991" xlink:href="#Charter-46"/>
       <use x="83.399979" xlink:href="#Charter-56"/>
       <use x="138.999969" xlink:href="#Charter-53"/>
      </g>
     </g>
    </g>
    <g id="ytick_4">
     <g id="line2d_19">
      <path clip-path="url(#p275e3853a9)" d="M 60.749375 115.05725 
L 730.349375 115.05725 
" style="fill:none;stroke:#b0b0b0;stroke-linecap:square;stroke-opacity:0.3;stroke-width:0.8;"/>
     </g>
     <g id="line2d_20">
      <g>
       <use style="stroke:#000000;stroke-width:0.8;" x="60.749375" xlink:href="#m641d87a274" y="115.05725"/>
      </g>
     </g>
     <g id="text_11">
      <!-- 0.90 -->
      <defs>
       <path d="M 41.09375 31.90625 
Q 42.296875 37.09375 42.296875 42 
Q 42.296875 52.59375 38.5 58 
Q 34.703125 63.40625 27.796875 63.40625 
Q 21.59375 63.40625 17.640625 58.65625 
Q 13.703125 53.90625 13.703125 45.59375 
Q 13.703125 37.203125 17.5 32.796875 
Q 21.296875 28.40625 28.5 28.40625 
Q 34.296875 28.40625 41.09375 31.90625 
z
M 10.296875 -0.59375 
Q 21.90625 4.796875 29.203125 11.5 
Q 36.5 18.203125 39.796875 26.90625 
Q 31.40625 23 24.796875 23 
Q 20.296875 23 16.5 24.546875 
Q 12.703125 26.09375 10 28.890625 
Q 7.296875 31.703125 5.796875 35.640625 
Q 4.296875 39.59375 4.296875 44.5 
Q 4.296875 49.703125 6.09375 54 
Q 7.90625 58.296875 11.09375 61.4375 
Q 14.296875 64.59375 18.796875 66.34375 
Q 23.296875 68.09375 28.703125 68.09375 
Q 39.296875 68.09375 45.25 61.34375 
Q 51.203125 54.59375 51.203125 42.5 
Q 51.203125 35.09375 48.640625 28.046875 
Q 46.09375 21 41.140625 14.796875 
Q 36.203125 8.59375 29.046875 3.4375 
Q 21.90625 -1.703125 12.59375 -5.203125 
z
" id="Charter-57"/>
      </defs>
      <g transform="translate(30.4 119.472875)scale(0.12 -0.12)">
       <use xlink:href="#Charter-48"/>
       <use x="55.599991" xlink:href="#Charter-46"/>
       <use x="83.399979" xlink:href="#Charter-57"/>
       <use x="138.999969" xlink:href="#Charter-48"/>
      </g>
     </g>
    </g>
    <g id="ytick_5">
     <g id="line2d_21">
      <path clip-path="url(#p275e3853a9)" d="M 60.749375 71.56925 
L 730.349375 71.56925 
" style="fill:none;stroke:#b0b0b0;stroke-linecap:square;stroke-opacity:0.3;stroke-width:0.8;"/>
     </g>
     <g id="line2d_22">
      <g>
       <use style="stroke:#000000;stroke-width:0.8;" x="60.749375" xlink:href="#m641d87a274" y="71.56925"/>
      </g>
     </g>
     <g id="text_12">
      <!-- 0.95 -->
      <g transform="translate(30.4 75.984875)scale(0.12 -0.12)">
       <use xlink:href="#Charter-48"/>
       <use x="55.599991" xlink:href="#Charter-46"/>
       <use x="83.399979" xlink:href="#Charter-57"/>
       <use x="138.999969" xlink:href="#Charter-53"/>
      </g>
     </g>
    </g>
    <g id="ytick_6">
     <g id="line2d_23">
      <path clip-path="url(#p275e3853a9)" d="M 60.749375 28.08125 
L 730.349375 28.08125 
" style="fill:none;stroke:#b0b0b0;stroke-linecap:square;stroke-opacity:0.3;stroke-width:0.8;"/>
     </g>
     <g id="line2d_24">
      <g>
       <use style="stroke:#000000;stroke-width:0.8;" x="60.749375" xlink:href="#m641d87a274" y="28.08125"/>
      </g>
     </g>
     <g id="text_13">
      <!-- 1.00 -->
      <g transform="translate(30.4 32.496875)scale(0.12 -0.12)">
       <use xlink:href="#Charter-49"/>
       <use x="55.599991" xlink:href="#Charter-46"/>
       <use x="83.399979" xlink:href="#Charter-48"/>
       <use x="138.999969" xlink:href="#Charter-48"/>
      </g>
     </g>
    </g>
    <g id="text_14">
     <!-- $X_{N_2}$ [$-$] -->
     <defs>
      <path d="M 5.40625 67.09375 
L 5.40625 63.296875 
L 11.796875 62.796875 
L 12.796875 61.296875 
L 24.796875 34 
L -0.09375 5.796875 
L -1.796875 4.40625 
L -8.296875 3.796875 
L -8.296875 0 
L 14.40625 0 
L 14.40625 3.796875 
L 7.90625 4.40625 
L 6.90625 5.796875 
L 27.5 28.796875 
L 37.296875 5.796875 
L 35.703125 4.40625 
L 29.203125 3.796875 
L 29.203125 0 
L 53.40625 0 
L 53.40625 3.796875 
L 47 4.40625 
L 46 5.796875 
L 32.796875 36 
L 56.203125 62.796875 
L 63.203125 63.296875 
L 63.203125 67.09375 
L 42.40625 67.09375 
L 42.40625 63.296875 
L 48.09375 62.796875 
L 48.703125 61.296875 
L 30.5 40.59375 
L 21.59375 61.296875 
L 23.09375 62.796875 
L 29.703125 63.296875 
L 29.703125 67.09375 
z
" id="Charter-Italic-88"/>
      <path d="M 8.09375 67.09375 
L 8.09375 63.296875 
L 14.59375 62.796875 
L 15.59375 61.296875 
L 4.90625 5.796875 
L 3.296875 4.40625 
L -3.09375 3.796875 
L -3.09375 0 
L 18 0 
L 18 3.796875 
L 11.59375 4.40625 
L 10.5 5.796875 
L 20.203125 55.59375 
L 46.5 0 
L 52.296875 0 
L 64 61.296875 
L 65.59375 62.796875 
L 72 63.296875 
L 72 67.09375 
L 51 67.09375 
L 51 63.296875 
L 57.40625 62.796875 
L 58.40625 61.296875 
L 49.203125 13.90625 
L 25.296875 64.59375 
L 25.296875 67.09375 
z
" id="Charter-Italic-78"/>
      <path d="M 70.90625 32.703125 
L 70.90625 26.90625 
L 12.40625 26.90625 
L 12.40625 32.703125 
z
" id="Charter-8722"/>
     </defs>
     <g transform="translate(21.4 170.00125)rotate(-90)scale(0.2 -0.2)">
      <use transform="translate(0 0.203125)" xlink:href="#Charter-Italic-88"/>
      <use transform="translate(56.899994 -14.375)scale(0.7)" xlink:href="#Charter-Italic-78"/>
      <use transform="translate(104.709985 -24.579688)scale(0.49)" xlink:href="#Charter-50"/>
      <use transform="translate(136.08445 0.203125)" xlink:href="#Charter-32"/>
      <use transform="translate(163.884437 0.203125)" xlink:href="#Charter-91"/>
      <use transform="translate(205.984428 0.203125)" xlink:href="#Charter-8722"/>
      <use transform="translate(289.284416 0.203125)" xlink:href="#Charter-93"/>
     </g>
    </g>
   </g>
   <g id="line2d_25">
    <path clip-path="url(#p275e3853a9)" d="M 60.749375 210.73085 
L 730.349375 210.73085 
" style="fill:none;stroke:#000000;stroke-dasharray:7.4,3.2;stroke-dashoffset:0;stroke-width:2;"/>
   </g>
   <g id="line2d_26">
    <path clip-path="url(#p275e3853a9)" d="M 91.185739 210.724395 
L 97.334499 210.724396 
L 103.483259 210.7244 
L 109.63202 210.724407 
L 115.78078 210.724416 
L 121.92954 210.724428 
L 128.078301 210.724443 
L 134.227061 210.72446 
L 140.375821 210.724479 
L 146.524582 210.724502 
L 152.673342 210.724527 
L 158.822102 210.724554 
L 164.970863 210.724585 
L 171.119623 210.724618 
L 177.268383 210.724653 
L 183.417144 210.724691 
L 189.565904 210.724732 
L 195.714664 210.724776 
L 201.863425 210.724822 
L 208.012185 210.724871 
L 214.160945 210.724922 
L 220.309706 210.724976 
L 226.458466 210.725032 
L 232.607226 210.725092 
L 238.755987 210.725154 
L 244.904747 210.725218 
L 251.053507 210.725285 
L 257.202268 210.725355 
L 263.351028 210.725428 
L 269.499788 210.725503 
L 275.648549 210.72558 
L 281.797309 210.725661 
L 287.946069 210.725744 
L 294.09483 210.725829 
L 300.24359 210.725917 
L 306.39235 210.726008 
L 312.541111 210.726102 
L 318.689871 210.726198 
L 324.838631 210.726297 
L 330.987392 210.726398 
L 337.136152 210.726502 
L 343.284912 210.726609 
L 349.433673 210.726718 
L 355.582433 210.72683 
L 361.731193 210.726945 
L 367.879954 210.727062 
L 374.028714 210.727182 
L 380.177474 210.727304 
L 386.326235 210.727429 
L 392.474995 210.727557 
L 398.623755 210.727687 
L 404.772515 210.72782 
L 410.921276 210.727956 
L 417.070036 210.728094 
L 423.218796 210.728235 
L 429.367557 210.728379 
L 435.516317 210.728525 
L 441.665077 210.728674 
L 447.813838 210.728825 
L 453.962598 210.728979 
L 460.111358 210.729136 
L 466.260119 210.729295 
L 472.408879 210.729457 
L 478.557639 210.729622 
L 484.7064 210.729789 
L 490.85516 210.729959 
L 497.00392 210.730132 
L 503.152681 210.730307 
L 509.301441 210.730485 
L 515.450201 210.730665 
L 521.598962 210.730848 
L 527.747722 210.731034 
L 533.896482 210.731222 
L 540.045243 210.731413 
L 546.194003 210.731607 
L 552.342763 210.731803 
L 558.491524 210.732002 
L 564.640284 210.732203 
L 570.789044 210.732407 
L 576.937805 210.732614 
L 583.086565 210.732824 
L 589.235325 210.733036 
L 595.384086 210.73325 
L 601.532846 210.733468 
L 607.681606 210.733688 
L 613.830367 210.73391 
L 619.979127 210.734135 
L 626.127887 210.734363 
L 632.276648 210.734594 
L 638.425408 210.734827 
L 644.574168 210.735062 
L 650.722929 210.735301 
L 656.871689 210.735542 
L 663.020449 210.735785 
L 669.16921 210.736032 
L 675.31797 210.736281 
L 681.46673 210.736532 
L 687.615491 210.736786 
L 693.764251 210.737043 
L 699.913011 210.737303 
" style="fill:none;stroke:#bbbbbb;stroke-linecap:square;"/>
    <defs>
     <path d="M 0 2.5 
C 0.663008 2.5 1.29895 2.236584 1.767767 1.767767 
C 2.236584 1.29895 2.5 0.663008 2.5 0 
C 2.5 -0.663008 2.236584 -1.29895 1.767767 -1.767767 
C 1.29895 -2.236584 0.663008 -2.5 0 -2.5 
C -0.663008 -2.5 -1.29895 -2.236584 -1.767767 -1.767767 
C -2.236584 -1.29895 -2.5 -0.663008 -2.5 0 
C -2.5 0.663008 -2.236584 1.29895 -1.767767 1.767767 
C -1.29895 2.236584 -0.663008 2.5 0 2.5 
z
" id="me9b697c247" style="stroke:#bbbbbb;"/>
    </defs>
    <g clip-path="url(#p275e3853a9)">
     <use style="fill:#bbbbbb;stroke:#bbbbbb;" x="91.185739" xlink:href="#me9b697c247" y="210.724395"/>
     <use style="fill:#bbbbbb;stroke:#bbbbbb;" x="152.673342" xlink:href="#me9b697c247" y="210.724527"/>
     <use style="fill:#bbbbbb;stroke:#bbbbbb;" x="214.160945" xlink:href="#me9b697c247" y="210.724922"/>
     <use style="fill:#bbbbbb;stroke:#bbbbbb;" x="275.648549" xlink:href="#me9b697c247" y="210.72558"/>
     <use style="fill:#bbbbbb;stroke:#bbbbbb;" x="337.136152" xlink:href="#me9b697c247" y="210.726502"/>
     <use style="fill:#bbbbbb;stroke:#bbbbbb;" x="398.623755" xlink:href="#me9b697c247" y="210.727687"/>
     <use style="fill:#bbbbbb;stroke:#bbbbbb;" x="460.111358" xlink:href="#me9b697c247" y="210.729136"/>
     <use style="fill:#bbbbbb;stroke:#bbbbbb;" x="521.598962" xlink:href="#me9b697c247" y="210.730848"/>
     <use style="fill:#bbbbbb;stroke:#bbbbbb;" x="583.086565" xlink:href="#me9b697c247" y="210.732824"/>
     <use style="fill:#bbbbbb;stroke:#bbbbbb;" x="644.574168" xlink:href="#me9b697c247" y="210.735062"/>
    </g>
   </g>
   <g id="line2d_27">
    <path clip-path="url(#p275e3853a9)" d="M 91.185739 191.098218 
L 97.334499 191.10124 
L 103.483259 191.110308 
L 109.63202 191.125422 
L 115.78078 191.146583 
L 121.92954 191.173793 
L 128.078301 191.207054 
L 134.227061 191.24637 
L 140.375821 191.291744 
L 146.524582 191.343179 
L 152.673342 191.40068 
L 158.822102 191.464251 
L 164.970863 191.533899 
L 171.119623 191.60963 
L 177.268383 191.691449 
L 183.417144 191.779363 
L 189.565904 191.873381 
L 195.714664 191.97351 
L 201.863425 192.079759 
L 208.012185 192.192137 
L 214.160945 192.310653 
L 220.309706 192.435318 
L 226.458466 192.566142 
L 232.607226 192.703136 
L 238.755987 192.846312 
L 244.904747 192.995683 
L 251.053507 193.15126 
L 257.202268 193.313057 
L 263.351028 193.481089 
L 269.499788 193.655368 
L 275.648549 193.835911 
L 281.797309 194.022732 
L 287.946069 194.215846 
L 294.09483 194.415272 
L 300.24359 194.621025 
L 306.39235 194.833122 
L 312.541111 195.051583 
L 318.689871 195.276425 
L 324.838631 195.507667 
L 330.987392 195.745328 
L 337.136152 195.98943 
L 343.284912 196.239992 
L 349.433673 196.497035 
L 355.582433 196.760582 
L 361.731193 197.030654 
L 367.879954 197.307274 
L 374.028714 197.590465 
L 380.177474 197.880251 
L 386.326235 198.176657 
L 392.474995 198.479706 
L 398.623755 198.789425 
L 404.772515 199.105838 
L 410.921276 199.428974 
L 417.070036 199.758858 
L 423.218796 200.095518 
L 429.367557 200.438982 
L 435.516317 200.789278 
L 441.665077 201.146436 
L 447.813838 201.510485 
L 453.962598 201.881455 
L 460.111358 202.259376 
L 466.260119 202.644281 
L 472.408879 203.0362 
L 478.557639 203.435166 
L 484.7064 203.841212 
L 490.85516 204.25437 
L 497.00392 204.674675 
L 503.152681 205.10216 
L 509.301441 205.536862 
L 515.450201 205.978814 
L 521.598962 206.428054 
L 527.747722 206.884617 
L 533.896482 207.34854 
L 540.045243 207.819861 
L 546.194003 208.298618 
L 552.342763 208.784849 
L 558.491524 209.278593 
L 564.640284 209.77989 
L 570.789044 210.288781 
L 576.937805 210.805304 
L 583.086565 211.329502 
L 589.235325 211.861416 
L 595.384086 212.401089 
L 601.532846 212.948562 
L 607.681606 213.503879 
L 613.830367 214.067084 
L 619.979127 214.638221 
L 626.127887 215.217333 
L 632.276648 215.804467 
L 638.425408 216.399669 
L 644.574168 217.002983 
L 650.722929 217.614457 
L 656.871689 218.234137 
L 663.020449 218.862072 
L 669.16921 219.498309 
L 675.31797 220.142897 
L 681.46673 220.795885 
L 687.615491 221.457322 
L 693.764251 222.127258 
L 699.913011 222.805744 
" style="fill:none;stroke:#bbbbbb;stroke-linecap:square;stroke-width:2;"/>
    <defs>
     <path d="M -3 -0 
L 3 3 
L 3 -3 
z
" id="m1f91e6c172" style="stroke:#bbbbbb;stroke-linejoin:miter;"/>
    </defs>
    <g clip-path="url(#p275e3853a9)">
     <use style="fill:#bbbbbb;stroke:#bbbbbb;stroke-linejoin:miter;" x="91.185739" xlink:href="#m1f91e6c172" y="191.098218"/>
     <use style="fill:#bbbbbb;stroke:#bbbbbb;stroke-linejoin:miter;" x="152.673342" xlink:href="#m1f91e6c172" y="191.40068"/>
     <use style="fill:#bbbbbb;stroke:#bbbbbb;stroke-linejoin:miter;" x="214.160945" xlink:href="#m1f91e6c172" y="192.310653"/>
     <use style="fill:#bbbbbb;stroke:#bbbbbb;stroke-linejoin:miter;" x="275.648549" xlink:href="#m1f91e6c172" y="193.835911"/>
     <use style="fill:#bbbbbb;stroke:#bbbbbb;stroke-linejoin:miter;" x="337.136152" xlink:href="#m1f91e6c172" y="195.98943"/>
     <use style="fill:#bbbbbb;stroke:#bbbbbb;stroke-linejoin:miter;" x="398.623755" xlink:href="#m1f91e6c172" y="198.789425"/>
     <use style="fill:#bbbbbb;stroke:#bbbbbb;stroke-linejoin:miter;" x="460.111358" xlink:href="#m1f91e6c172" y="202.259376"/>
     <use style="fill:#bbbbbb;stroke:#bbbbbb;stroke-linejoin:miter;" x="521.598962" xlink:href="#m1f91e6c172" y="206.428054"/>
     <use style="fill:#bbbbbb;stroke:#bbbbbb;stroke-linejoin:miter;" x="583.086565" xlink:href="#m1f91e6c172" y="211.329502"/>
     <use style="fill:#bbbbbb;stroke:#bbbbbb;stroke-linejoin:miter;" x="644.574168" xlink:href="#m1f91e6c172" y="217.002983"/>
    </g>
   </g>
   <g id="line2d_28">
    <path clip-path="url(#p275e3853a9)" d="M 91.185739 123.968713 
L 97.334499 123.9765 
L 103.483259 123.999865 
L 109.63202 124.038817 
L 115.78078 124.093372 
L 121.92954 124.163556 
L 128.078301 124.249396 
L 134.227061 124.350931 
L 140.375821 124.468203 
L 146.524582 124.601262 
L 152.673342 124.750165 
L 158.822102 124.914977 
L 164.970863 125.095766 
L 171.119623 125.292611 
L 177.268383 125.505596 
L 183.417144 125.734812 
L 189.565904 125.980356 
L 195.714664 126.242334 
L 201.863425 126.520858 
L 208.012185 126.816047 
L 214.160945 127.128028 
L 220.309706 127.456933 
L 226.458466 127.802904 
L 232.607226 128.16609 
L 238.755987 128.546645 
L 244.904747 128.944732 
L 251.053507 129.360523 
L 257.202268 129.794195 
L 263.351028 130.245935 
L 269.499788 130.715936 
L 275.648549 131.204399 
L 281.797309 131.711535 
L 287.946069 132.237561 
L 294.09483 132.782702 
L 300.24359 133.347193 
L 306.39235 133.931275 
L 312.541111 134.535199 
L 318.689871 135.159225 
L 324.838631 135.803619 
L 330.987392 136.468659 
L 337.136152 137.154628 
L 343.284912 137.861822 
L 349.433673 138.590543 
L 355.582433 139.341104 
L 361.731193 140.113825 
L 367.879954 140.909037 
L 374.028714 141.72708 
L 380.177474 142.568303 
L 386.326235 143.433066 
L 392.474995 144.321738 
L 398.623755 145.234695 
L 404.772515 146.172328 
L 410.921276 147.135035 
L 417.070036 148.123223 
L 423.218796 149.137312 
L 429.367557 150.17773 
L 435.516317 151.244916 
L 441.665077 152.339321 
L 447.813838 153.461403 
L 453.962598 154.611634 
L 460.111358 155.790495 
L 466.260119 156.998478 
L 472.408879 158.236084 
L 478.557639 159.503828 
L 484.7064 160.802233 
L 490.85516 162.131834 
L 497.00392 163.493176 
L 503.152681 164.886817 
L 509.301441 166.313322 
L 515.450201 167.773269 
L 521.598962 169.267248 
L 527.747722 170.795857 
L 533.896482 172.359705 
L 540.045243 173.959412 
L 546.194003 175.59561 
L 552.342763 177.268938 
L 558.491524 178.980047 
L 564.640284 180.729597 
L 570.789044 182.518258 
L 576.937805 184.34671 
L 583.086565 186.215641 
L 589.235325 188.125749 
L 595.384086 190.077739 
L 601.532846 192.072325 
L 607.681606 194.11023 
L 613.830367 196.192183 
L 619.979127 198.318919 
L 626.127887 200.491182 
L 632.276648 202.70972 
L 638.425408 204.975286 
L 644.574168 207.28864 
L 650.722929 209.650542 
L 656.871689 212.06176 
L 663.020449 214.523062 
L 669.16921 217.035216 
L 675.31797 219.598994 
L 681.46673 222.215166 
L 687.615491 224.884501 
L 693.764251 227.607766 
L 699.913011 230.385726 
" style="fill:none;stroke:#bbbbbb;stroke-linecap:square;stroke-width:3;"/>
    <defs>
     <path d="M -3.5 3.5 
L 3.5 3.5 
L 3.5 -3.5 
L -3.5 -3.5 
z
" id="meb51803b50" style="stroke:#bbbbbb;stroke-linejoin:miter;"/>
    </defs>
    <g clip-path="url(#p275e3853a9)">
     <use style="fill:#bbbbbb;stroke:#bbbbbb;stroke-linejoin:miter;" x="91.185739" xlink:href="#meb51803b50" y="123.968713"/>
     <use style="fill:#bbbbbb;stroke:#bbbbbb;stroke-linejoin:miter;" x="152.673342" xlink:href="#meb51803b50" y="124.750165"/>
     <use style="fill:#bbbbbb;stroke:#bbbbbb;stroke-linejoin:miter;" x="214.160945" xlink:href="#meb51803b50" y="127.128028"/>
     <use style="fill:#bbbbbb;stroke:#bbbbbb;stroke-linejoin:miter;" x="275.648549" xlink:href="#meb51803b50" y="131.204399"/>
     <use style="fill:#bbbbbb;stroke:#bbbbbb;stroke-linejoin:miter;" x="337.136152" xlink:href="#meb51803b50" y="137.154628"/>
     <use style="fill:#bbbbbb;stroke:#bbbbbb;stroke-linejoin:miter;" x="398.623755" xlink:href="#meb51803b50" y="145.234695"/>
     <use style="fill:#bbbbbb;stroke:#bbbbbb;stroke-linejoin:miter;" x="460.111358" xlink:href="#meb51803b50" y="155.790495"/>
     <use style="fill:#bbbbbb;stroke:#bbbbbb;stroke-linejoin:miter;" x="521.598962" xlink:href="#meb51803b50" y="169.267248"/>
     <use style="fill:#bbbbbb;stroke:#bbbbbb;stroke-linejoin:miter;" x="583.086565" xlink:href="#meb51803b50" y="186.215641"/>
     <use style="fill:#bbbbbb;stroke:#bbbbbb;stroke-linejoin:miter;" x="644.574168" xlink:href="#meb51803b50" y="207.28864"/>
    </g>
   </g>
   <g id="line2d_29">
    <path clip-path="url(#p275e3853a9)" d="M 91.185739 61.918231 
L 97.334499 61.92491 
L 103.483259 61.944955 
L 109.63202 61.978387 
L 115.78078 62.025246 
L 121.92954 62.085585 
L 128.078301 62.159472 
L 134.227061 62.246991 
L 140.375821 62.348243 
L 146.524582 62.463343 
L 152.673342 62.592423 
L 158.822102 62.735631 
L 164.970863 62.893131 
L 171.119623 63.065104 
L 177.268383 63.25175 
L 183.417144 63.453284 
L 189.565904 63.669939 
L 195.714664 63.901968 
L 201.863425 64.149641 
L 208.012185 64.413247 
L 214.160945 64.693097 
L 220.309706 64.98952 
L 226.458466 65.302867 
L 232.607226 65.633508 
L 238.755987 65.981837 
L 244.904747 66.348272 
L 251.053507 66.733252 
L 257.202268 67.13724 
L 263.351028 67.560726 
L 269.499788 68.004225 
L 275.648549 68.468278 
L 281.797309 68.953454 
L 287.946069 69.460351 
L 294.09483 69.989598 
L 300.24359 70.541851 
L 306.39235 71.117801 
L 312.541111 71.718172 
L 318.689871 72.343721 
L 324.838631 72.995241 
L 330.987392 73.673561 
L 337.136152 74.379552 
L 343.284912 75.11412 
L 349.433673 75.878215 
L 355.582433 76.672829 
L 361.731193 77.499 
L 367.879954 78.35781 
L 374.028714 79.25039 
L 380.177474 80.177921 
L 386.326235 81.141635 
L 392.474995 82.142818 
L 398.623755 83.182811 
L 404.772515 84.263014 
L 410.921276 85.384885 
L 417.070036 86.549944 
L 423.218796 87.759777 
L 429.367557 89.016032 
L 435.516317 90.320431 
L 441.665077 91.674762 
L 447.813838 93.080889 
L 453.962598 94.54075 
L 460.111358 96.056363 
L 466.260119 97.629824 
L 472.408879 99.263313 
L 478.557639 100.959094 
L 484.7064 102.719519 
L 490.85516 104.547029 
L 497.00392 106.444158 
L 503.152681 108.413531 
L 509.301441 110.45787 
L 515.450201 112.579997 
L 521.598962 114.782829 
L 527.747722 117.069387 
L 533.896482 119.44279 
L 540.045243 121.906263 
L 546.194003 124.463132 
L 552.342763 127.116828 
L 558.491524 129.870883 
L 564.640284 132.728933 
L 570.789044 135.694714 
L 576.937805 138.772062 
L 583.086565 141.964908 
L 589.235325 145.277279 
L 595.384086 148.71329 
L 601.532846 152.277138 
L 607.681606 155.973102 
L 613.830367 159.80553 
L 619.979127 163.778833 
L 626.127887 167.897476 
L 632.276648 172.165964 
L 638.425408 176.588836 
L 644.574168 181.170644 
L 650.722929 185.915941 
L 656.871689 190.829265 
L 663.020449 195.915117 
L 669.16921 201.17794 
L 675.31797 206.622097 
L 681.46673 212.251848 
L 687.615491 218.071318 
L 693.764251 224.084472 
L 699.913011 230.295081 
" style="fill:none;stroke:#bbbbbb;stroke-linecap:square;stroke-width:4;"/>
    <defs>
     <path d="M -0 5.656854 
L 3.394113 0 
L 0 -5.656854 
L -3.394113 -0 
z
" id="m9fa737dcd6" style="stroke:#bbbbbb;stroke-linejoin:miter;"/>
    </defs>
    <g clip-path="url(#p275e3853a9)">
     <use style="fill:#bbbbbb;stroke:#bbbbbb;stroke-linejoin:miter;" x="91.185739" xlink:href="#m9fa737dcd6" y="61.918231"/>
     <use style="fill:#bbbbbb;stroke:#bbbbbb;stroke-linejoin:miter;" x="152.673342" xlink:href="#m9fa737dcd6" y="62.592423"/>
     <use style="fill:#bbbbbb;stroke:#bbbbbb;stroke-linejoin:miter;" x="214.160945" xlink:href="#m9fa737dcd6" y="64.693097"/>
     <use style="fill:#bbbbbb;stroke:#bbbbbb;stroke-linejoin:miter;" x="275.648549" xlink:href="#m9fa737dcd6" y="68.468278"/>
     <use style="fill:#bbbbbb;stroke:#bbbbbb;stroke-linejoin:miter;" x="337.136152" xlink:href="#m9fa737dcd6" y="74.379552"/>
     <use style="fill:#bbbbbb;stroke:#bbbbbb;stroke-linejoin:miter;" x="398.623755" xlink:href="#m9fa737dcd6" y="83.182811"/>
     <use style="fill:#bbbbbb;stroke:#bbbbbb;stroke-linejoin:miter;" x="460.111358" xlink:href="#m9fa737dcd6" y="96.056363"/>
     <use style="fill:#bbbbbb;stroke:#bbbbbb;stroke-linejoin:miter;" x="521.598962" xlink:href="#m9fa737dcd6" y="114.782829"/>
     <use style="fill:#bbbbbb;stroke:#bbbbbb;stroke-linejoin:miter;" x="583.086565" xlink:href="#m9fa737dcd6" y="141.964908"/>
     <use style="fill:#bbbbbb;stroke:#bbbbbb;stroke-linejoin:miter;" x="644.574168" xlink:href="#m9fa737dcd6" y="181.170644"/>
    </g>
   </g>
   <g id="patch_3">
    <path d="M 60.749375 245.52125 
L 60.749375 28.08125 
" style="fill:none;stroke:#000000;stroke-linecap:square;stroke-linejoin:miter;stroke-width:0.8;"/>
   </g>
   <g id="patch_4">
    <path d="M 730.349375 245.52125 
L 730.349375 28.08125 
" style="fill:none;stroke:#000000;stroke-linecap:square;stroke-linejoin:miter;stroke-width:0.8;"/>
   </g>
   <g id="patch_5">
    <path d="M 60.749375 245.52125 
L 730.349375 245.52125 
" style="fill:none;stroke:#000000;stroke-linecap:square;stroke-linejoin:miter;stroke-width:0.8;"/>
   </g>
   <g id="patch_6">
    <path d="M 60.749375 28.08125 
L 730.349375 28.08125 
" style="fill:none;stroke:#000000;stroke-linecap:square;stroke-linejoin:miter;stroke-width:0.8;"/>
   </g>
   <g id="text_15">
    <!-- Nitrogen mole fraction profile -->
    <defs>
     <path d="M 2.90625 4.09375 
L 9 4.90625 
L 10.796875 6.796875 
L 10.796875 61.09375 
L 9 62.5 
L 2.59375 63.09375 
L 2.59375 67.09375 
L 21.40625 67.09375 
L 21.40625 64.59375 
L 55.5 13.40625 
L 55.5 60.40625 
L 53.703125 62.203125 
L 47.703125 63.09375 
L 47.703125 67.09375 
L 68.703125 67.09375 
L 68.703125 63.09375 
L 62.703125 62.203125 
L 60.90625 60.40625 
L 60.90625 0 
L 54.296875 0 
L 16.203125 56.796875 
L 16.203125 6.796875 
L 18 4.90625 
L 24 4.09375 
L 24 0 
L 2.90625 0 
z
" id="Charter-78"/>
     <path d="M 15.40625 70.796875 
Q 17.796875 70.796875 19.5 69.09375 
Q 21.203125 67.40625 21.203125 65 
Q 21.203125 62.59375 19.5 60.9375 
Q 17.796875 59.296875 15.40625 59.296875 
Q 13 59.296875 11.296875 60.9375 
Q 9.59375 62.59375 9.59375 65 
Q 9.59375 67.5 11.296875 69.140625 
Q 13 70.796875 15.40625 70.796875 
z
M 18.796875 48.59375 
L 18.796875 5.703125 
L 20.59375 4.09375 
L 26 3.59375 
L 26 0 
L 3.5 0 
L 3.5 3.59375 
L 8.796875 4.09375 
L 10.5 5.703125 
L 10.5 41.90625 
L 3.5 41.90625 
L 3.5 45 
L 15 48.59375 
z
" id="Charter-105"/>
     <path d="M 2.5 42.09375 
L 2.5 45.203125 
L 9.09375 48.09375 
L 13.40625 57.40625 
L 17.09375 57.40625 
L 17.09375 46.796875 
L 32.296875 46.796875 
L 32.296875 42.09375 
L 17.09375 42.09375 
L 17.09375 15.703125 
Q 17.09375 12.796875 17.390625 10.75 
Q 17.703125 8.703125 18.59375 7.390625 
Q 19.5 6.09375 21.140625 5.4375 
Q 22.796875 4.796875 25.40625 4.796875 
Q 28.59375 4.796875 32.296875 5.59375 
L 32.296875 1.90625 
Q 28.796875 0.796875 25.4375 0.25 
Q 22.09375 -0.296875 19.203125 -0.296875 
Q 13 -0.296875 10.890625 2.09375 
Q 8.796875 4.5 8.796875 9.796875 
L 8.796875 42.09375 
z
" id="Charter-116"/>
     <path d="M 3 3.59375 
L 8.296875 4.09375 
L 10.09375 5.703125 
L 10.09375 41.90625 
L 3 41.90625 
L 3 45 
L 14.59375 48.59375 
L 18.40625 48.59375 
L 18.40625 39.203125 
Q 21 41.90625 23.703125 44.296875 
Q 26.40625 46.703125 29.09375 48.90625 
Q 29.703125 49.09375 30.34375 49.09375 
Q 31 49.09375 31.59375 49.09375 
Q 34.59375 49.09375 37.59375 47.796875 
L 37.59375 39.203125 
L 34.40625 39.203125 
Q 32.40625 41.59375 29.296875 41.59375 
Q 24.59375 41.59375 18.40625 34.296875 
L 18.40625 5.703125 
L 20.09375 4.09375 
L 27.09375 3.59375 
L 27.09375 0 
L 3 0 
z
" id="Charter-114"/>
     <path d="M 26.90625 49.09375 
Q 32 49.09375 36.25 47.25 
Q 40.5 45.40625 43.59375 42.09375 
Q 46.703125 38.796875 48.453125 34.1875 
Q 50.203125 29.59375 50.203125 24.09375 
Q 50.203125 18.5 48.453125 13.890625 
Q 46.703125 9.296875 43.59375 6 
Q 40.5 2.703125 36.203125 0.890625 
Q 31.90625 -0.90625 26.90625 -0.90625 
Q 21.90625 -0.90625 17.65625 0.890625 
Q 13.40625 2.703125 10.296875 6 
Q 7.203125 9.296875 5.453125 13.890625 
Q 3.703125 18.5 3.703125 24.09375 
Q 3.703125 29.703125 5.453125 34.296875 
Q 7.203125 38.90625 10.25 42.203125 
Q 13.296875 45.5 17.546875 47.296875 
Q 21.796875 49.09375 26.90625 49.09375 
z
M 26.90625 44.796875 
Q 20.796875 44.796875 16.9375 39.34375 
Q 13.09375 33.90625 13.09375 24.09375 
Q 13.09375 19.296875 14.140625 15.4375 
Q 15.203125 11.59375 17 8.890625 
Q 18.796875 6.203125 21.34375 4.796875 
Q 23.90625 3.40625 26.90625 3.40625 
Q 33 3.40625 36.890625 8.84375 
Q 40.796875 14.296875 40.796875 24.09375 
Q 40.796875 33.796875 36.890625 39.296875 
Q 33 44.796875 26.90625 44.796875 
z
" id="Charter-111"/>
     <path d="M 51.203125 46.296875 
L 51.203125 41.59375 
L 40.203125 41.59375 
Q 43 37.296875 43 32.296875 
Q 43 29 41.640625 26.140625 
Q 40.296875 23.296875 37.796875 21.1875 
Q 35.296875 19.09375 31.75 17.890625 
Q 28.203125 16.703125 23.90625 16.703125 
L 22.203125 16.703125 
Q 21.09375 14.5 21.09375 12.203125 
Q 21.09375 11.796875 21.140625 11.1875 
Q 21.203125 10.59375 21.296875 9.796875 
L 30.90625 8.296875 
Q 35.296875 7.59375 38.5 6.640625 
Q 41.703125 5.703125 43.796875 4.25 
Q 45.90625 2.796875 46.90625 0.796875 
Q 47.90625 -1.203125 47.90625 -4 
Q 47.90625 -6.796875 46.34375 -9.796875 
Q 44.796875 -12.796875 41.90625 -15.203125 
Q 37.90625 -18.40625 32.84375 -20.09375 
Q 27.796875 -21.796875 22.09375 -21.796875 
Q 13.40625 -21.796875 8.703125 -18.34375 
Q 4 -14.90625 4 -8.90625 
Q 4 -4.09375 6.84375 -0.75 
Q 9.703125 2.59375 14.796875 3.5 
Q 13.796875 5.796875 13.796875 8 
Q 13.796875 11.796875 18.59375 17.5 
Q 12.796875 18.796875 9.5 22.84375 
Q 6.203125 26.90625 6.203125 32.59375 
Q 6.203125 36.203125 7.546875 39.25 
Q 8.90625 42.296875 11.453125 44.5 
Q 14 46.703125 17.59375 47.890625 
Q 21.203125 49.09375 25.59375 49.09375 
Q 31.296875 49.09375 36.90625 46.296875 
z
M 24.59375 45.203125 
Q 20.203125 45.203125 17.5 41.953125 
Q 14.796875 38.703125 14.796875 32.90625 
Q 14.796875 27.203125 17.5 23.890625 
Q 20.203125 20.59375 24.59375 20.59375 
Q 29 20.59375 31.703125 23.890625 
Q 34.40625 27.203125 34.40625 32.90625 
Q 34.40625 38.59375 31.703125 41.890625 
Q 29 45.203125 24.59375 45.203125 
z
M 20.59375 3 
Q 16.40625 1.703125 14.203125 -0.890625 
Q 12 -3.5 12 -6.796875 
Q 12 -11.203125 15.703125 -14.203125 
Q 19.40625 -17.203125 25.59375 -17.203125 
Q 28.90625 -17.203125 31.65625 -16.34375 
Q 34.40625 -15.5 36.34375 -14 
Q 38.296875 -12.5 39.390625 -10.59375 
Q 40.5 -8.703125 40.5 -6.59375 
Q 40.5 -4.59375 39.890625 -3.296875 
Q 39.296875 -2 38.046875 -1.140625 
Q 36.796875 -0.296875 34.84375 0.203125 
Q 32.90625 0.703125 30.296875 1.203125 
z
" id="Charter-103"/>
     <path d="M 44.796875 5.09375 
Q 40.296875 2.09375 35.546875 0.59375 
Q 30.796875 -0.90625 26 -0.90625 
Q 21 -0.90625 16.890625 0.890625 
Q 12.796875 2.703125 9.890625 5.890625 
Q 7 9.09375 5.34375 13.640625 
Q 3.703125 18.203125 3.703125 23.703125 
Q 3.703125 29.40625 5.390625 34.046875 
Q 7.09375 38.703125 10.1875 42.046875 
Q 13.296875 45.40625 17.546875 47.25 
Q 21.796875 49.09375 26.796875 49.09375 
Q 35 49.09375 39.890625 43.890625 
Q 44.796875 38.703125 44.796875 29.40625 
Q 44.796875 28.59375 44.796875 27.84375 
Q 44.796875 27.09375 44.703125 26.296875 
L 12.296875 26.296875 
L 12.296875 25.203125 
Q 12.296875 15.5 16.890625 10.140625 
Q 21.5 4.796875 29.09375 4.796875 
Q 32.90625 4.796875 36.703125 6.25 
Q 40.5 7.703125 44.796875 10.59375 
z
M 35.90625 32.09375 
Q 35.90625 38.203125 33.25 41.390625 
Q 30.59375 44.59375 25.5 44.59375 
Q 23.09375 44.59375 20.890625 43.59375 
Q 18.703125 42.59375 16.953125 40.75 
Q 15.203125 38.90625 14.09375 36.296875 
Q 13 33.703125 12.796875 30.5 
L 35.90625 30.5 
z
" id="Charter-101"/>
     <path d="M 3 3.59375 
L 8.40625 4.09375 
L 10.09375 5.703125 
L 10.09375 41.90625 
L 3 41.90625 
L 3 45 
L 14.59375 48.59375 
L 18.40625 48.59375 
L 18.40625 43.09375 
Q 23.5 45.90625 27.390625 47.5 
Q 31.296875 49.09375 34.5 49.09375 
Q 41.09375 49.09375 44.546875 45.25 
Q 48 41.40625 48 33.90625 
L 48 5.703125 
L 49.703125 4.09375 
L 55.09375 3.59375 
L 55.09375 0 
L 33.203125 0 
L 33.203125 3.59375 
L 38 4.09375 
L 39.703125 5.703125 
L 39.703125 32.203125 
Q 39.703125 37.703125 37.453125 40.09375 
Q 35.203125 42.5 29.59375 42.5 
Q 24.796875 42.5 18.40625 39.203125 
L 18.40625 5.703125 
L 20.09375 4.09375 
L 24.90625 3.59375 
L 24.90625 0 
L 3 0 
z
" id="Charter-110"/>
     <path d="M 45.40625 42.40625 
Q 56.796875 49.09375 62.59375 49.09375 
Q 68.59375 49.09375 72.046875 45.25 
Q 75.5 41.40625 75.5 33.90625 
L 75.5 5.703125 
L 77.203125 4.09375 
L 82.5 3.59375 
L 82.5 0 
L 60.703125 0 
L 60.703125 3.59375 
L 65.40625 4.09375 
L 67.203125 5.703125 
L 67.203125 32.203125 
Q 67.203125 37.5 65.046875 40 
Q 62.90625 42.5 58.203125 42.5 
Q 55.796875 42.5 52.9375 41.640625 
Q 50.09375 40.796875 46.90625 39.203125 
L 46.90625 5.703125 
L 48.703125 4.09375 
L 53.40625 3.59375 
L 53.40625 0 
L 32.09375 0 
L 32.09375 3.59375 
L 36.90625 4.09375 
L 38.59375 5.703125 
L 38.59375 32.203125 
Q 38.59375 42.5 29.796875 42.5 
Q 25 42.5 18.40625 39.203125 
L 18.40625 5.703125 
L 20.09375 4.09375 
L 24.90625 3.59375 
L 24.90625 0 
L 3 0 
L 3 3.59375 
L 8.40625 4.09375 
L 10.09375 5.703125 
L 10.09375 41.90625 
L 3 41.90625 
L 3 45 
L 14.59375 48.59375 
L 18.40625 48.59375 
L 18.40625 43.09375 
Q 23.40625 46 27.296875 47.546875 
Q 31.203125 49.09375 34.40625 49.09375 
Q 41.90625 49.09375 45.40625 42.40625 
z
" id="Charter-109"/>
     <path d="M 2.796875 3.59375 
L 8.703125 4.09375 
L 10.40625 5.703125 
L 10.40625 66.90625 
L 2.703125 66.90625 
L 2.703125 70 
L 14.90625 73.59375 
L 18.703125 73.59375 
L 18.703125 5.703125 
L 20.5 4.09375 
L 26.203125 3.59375 
L 26.203125 0 
L 2.796875 0 
z
" id="Charter-108"/>
     <path d="M 2.90625 3.59375 
L 8.203125 4.09375 
L 10 5.703125 
L 10 42.09375 
L 3.59375 42.09375 
L 3.59375 45.296875 
L 10 46.796875 
L 10 47.90625 
Q 10 54.09375 11.5 59.046875 
Q 13 64 15.703125 67.390625 
Q 18.40625 70.796875 22.15625 72.59375 
Q 25.90625 74.40625 30.296875 74.40625 
Q 33.796875 74.40625 35.9375 72.75 
Q 38.09375 71.09375 38.09375 68.703125 
Q 38.09375 66.90625 37.046875 65.546875 
Q 36 64.203125 34 63.703125 
L 24.90625 69.703125 
Q 18.40625 66.703125 18.40625 54.09375 
L 18.40625 46.796875 
L 32.296875 46.796875 
L 32.296875 42.09375 
L 18.296875 42.09375 
L 18.296875 5.703125 
L 20 4.09375 
L 26.203125 3.59375 
L 26.203125 0 
L 2.90625 0 
z
" id="Charter-102"/>
     <path d="M 33.40625 5.796875 
Q 28.59375 2.59375 24.59375 0.9375 
Q 20.59375 -0.703125 17 -0.703125 
Q 11 -0.703125 7.59375 2.84375 
Q 4.203125 6.40625 4.203125 12.09375 
Q 4.203125 16 5.953125 18.640625 
Q 7.703125 21.296875 11.296875 23.296875 
Q 14.90625 25.296875 20.40625 26.890625 
Q 25.90625 28.5 33.40625 30.296875 
L 33.40625 33.5 
Q 33.40625 39.5 31.5 42.09375 
Q 29.59375 44.703125 24.203125 44.703125 
Q 20.5 44.703125 16.59375 43.09375 
L 16.59375 34.703125 
L 9.703125 34.703125 
Q 8 34.703125 7.296875 35.34375 
Q 6.59375 36 6.59375 37.796875 
Q 6.59375 40.09375 8 42.140625 
Q 9.40625 44.203125 12 45.75 
Q 14.59375 47.296875 18.34375 48.1875 
Q 22.09375 49.09375 26.796875 49.09375 
Q 34.703125 49.09375 38.203125 45.6875 
Q 41.703125 42.296875 41.703125 34.703125 
L 41.703125 5.703125 
L 43.5 4.09375 
L 48.796875 3.59375 
L 48.796875 0 
L 34.703125 0 
z
M 33.40625 26.796875 
Q 28.09375 25.296875 24.25 24 
Q 20.40625 22.703125 17.90625 21.140625 
Q 15.40625 19.59375 14.203125 17.59375 
Q 13 15.59375 13 12.90625 
Q 13 9.203125 15.09375 6.953125 
Q 17.203125 4.703125 21 4.703125 
Q 23.5 4.703125 26.546875 5.84375 
Q 29.59375 7 33.40625 9.203125 
z
" id="Charter-97"/>
     <path d="M 42.5 4.203125 
Q 34.09375 -0.703125 26.203125 -0.703125 
Q 21.09375 -0.703125 16.9375 1.09375 
Q 12.796875 2.90625 9.84375 6.15625 
Q 6.90625 9.40625 5.296875 13.953125 
Q 3.703125 18.5 3.703125 24.09375 
Q 3.703125 29.703125 5.453125 34.296875 
Q 7.203125 38.90625 10.296875 42.203125 
Q 13.40625 45.5 17.75 47.296875 
Q 22.09375 49.09375 27.40625 49.09375 
Q 34.59375 49.09375 38.5 46.390625 
Q 42.40625 43.703125 42.40625 39.296875 
Q 42.40625 36.90625 40.90625 35.453125 
Q 39.40625 34 36.796875 34 
Q 34.5 34 32.296875 35.5 
L 32.296875 43.703125 
Q 30 45.09375 27.5 45.09375 
Q 21 45.09375 16.890625 39.6875 
Q 12.796875 34.296875 12.796875 24.796875 
Q 12.796875 15.5 17.390625 10.34375 
Q 22 5.203125 29.796875 5.203125 
Q 36.203125 5.203125 42.5 9.40625 
L 42.5 4.203125 
z
" id="Charter-99"/>
     <path d="M 2.296875 -18.203125 
L 7.703125 -17.703125 
L 9.40625 -16.09375 
L 9.40625 41.90625 
L 2.296875 41.90625 
L 2.296875 45 
L 13.90625 48.59375 
L 17.703125 48.59375 
L 17.703125 43.09375 
Q 25.59375 49.09375 32.40625 49.09375 
Q 36.5 49.09375 40.046875 47.390625 
Q 43.59375 45.703125 46.140625 42.640625 
Q 48.703125 39.59375 50.140625 35.25 
Q 51.59375 30.90625 51.59375 25.703125 
Q 51.59375 19.796875 49.84375 15 
Q 48.09375 10.203125 44.84375 6.796875 
Q 41.59375 3.40625 37.046875 1.546875 
Q 32.5 -0.296875 27 -0.296875 
Q 23.203125 -0.296875 17.703125 0.59375 
L 17.703125 -16.09375 
L 19.40625 -17.703125 
L 25.796875 -18.203125 
L 25.796875 -21.796875 
L 2.296875 -21.796875 
z
M 17.703125 5.796875 
Q 22.5 4.203125 26.203125 4.203125 
Q 29.90625 4.203125 32.953125 5.640625 
Q 36 7.09375 38.203125 9.6875 
Q 40.40625 12.296875 41.59375 16.046875 
Q 42.796875 19.796875 42.796875 24.40625 
Q 42.796875 33.09375 38.796875 37.9375 
Q 34.796875 42.796875 28.203125 42.796875 
Q 25.59375 42.796875 23.09375 41.9375 
Q 20.59375 41.09375 17.703125 39.40625 
z
" id="Charter-112"/>
    </defs>
    <g transform="translate(265.130625 22.08125)scale(0.2 -0.2)">
     <use xlink:href="#Charter-78"/>
     <use x="71.299988" xlink:href="#Charter-105"/>
     <use x="99.299973" xlink:href="#Charter-116"/>
     <use x="132.699966" xlink:href="#Charter-114"/>
     <use x="170.899963" xlink:href="#Charter-111"/>
     <use x="224.799957" xlink:href="#Charter-103"/>
     <use x="277.099945" xlink:href="#Charter-101"/>
     <use x="326.199936" xlink:href="#Charter-110"/>
     <use x="382.999924" xlink:href="#Charter-32"/>
     <use x="410.799911" xlink:href="#Charter-109"/>
     <use x="495.099899" xlink:href="#Charter-111"/>
     <use x="548.999893" xlink:href="#Charter-108"/>
     <use x="577.19989" xlink:href="#Charter-101"/>
     <use x="626.299881" xlink:href="#Charter-32"/>
     <use x="654.099869" xlink:href="#Charter-102"/>
     <use x="686.19986" xlink:href="#Charter-114"/>
     <use x="724.399857" xlink:href="#Charter-97"/>
     <use x="775.099854" xlink:href="#Charter-99"/>
     <use x="819.699844" xlink:href="#Charter-116"/>
     <use x="853.099838" xlink:href="#Charter-105"/>
     <use x="881.099823" xlink:href="#Charter-111"/>
     <use x="934.999817" xlink:href="#Charter-110"/>
     <use x="991.799805" xlink:href="#Charter-32"/>
     <use x="1019.599792" xlink:href="#Charter-112"/>
     <use x="1074.699783" xlink:href="#Charter-114"/>
     <use x="1112.89978" xlink:href="#Charter-111"/>
     <use x="1166.799774" xlink:href="#Charter-102"/>
     <use x="1198.899765" xlink:href="#Charter-105"/>
     <use x="1226.89975" xlink:href="#Charter-108"/>
     <use x="1255.099747" xlink:href="#Charter-101"/>
    </g>
   </g>
   <g id="legend_1">
    <g id="patch_7">
     <path d="M 568.134375 157.19375 
L 719.149375 157.19375 
Q 722.349375 157.19375 722.349375 153.99375 
L 722.349375 39.28125 
Q 722.349375 36.08125 719.149375 36.08125 
L 568.134375 36.08125 
Q 564.934375 36.08125 564.934375 39.28125 
L 564.934375 153.99375 
Q 564.934375 157.19375 568.134375 157.19375 
z
" style="fill:#ffffff;opacity:0.8;stroke:#cccccc;stroke-linejoin:miter;"/>
    </g>
    <g id="line2d_30">
     <path d="M 571.334375 48.65625 
L 603.334375 48.65625 
" style="fill:none;stroke:#000000;stroke-dasharray:7.4,3.2;stroke-dashoffset:0;stroke-width:2;"/>
    </g>
    <g id="line2d_31"/>
    <g id="text_16">
     <!-- Pure stream -->
     <defs>
      <path d="M 3.296875 4.09375 
L 9 4.59375 
L 10.703125 6 
L 10.703125 61.09375 
L 9 62.5 
L 2.5 63.09375 
L 2.5 67.09375 
L 25.296875 67.09375 
Q 32.5 67.09375 37.75 66.046875 
Q 43 65 46.390625 62.59375 
Q 49.796875 60.203125 51.4375 56.296875 
Q 53.09375 52.40625 53.09375 46.703125 
Q 53.09375 41.90625 51.296875 37.953125 
Q 49.5 34 46.140625 31.140625 
Q 42.796875 28.296875 38 26.75 
Q 33.203125 25.203125 27.203125 25.203125 
Q 25.796875 25.203125 23.890625 25.34375 
Q 22 25.5 19.703125 25.703125 
L 19.703125 6 
L 21.40625 4.59375 
L 28.5 4.09375 
L 28.5 0 
L 3.296875 0 
z
M 19.703125 30.5 
Q 21.90625 30.296875 23.546875 30.140625 
Q 25.203125 30 26.296875 30 
Q 34.90625 30 39.34375 34.296875 
Q 43.796875 38.59375 43.796875 46.90625 
Q 43.796875 55 39.1875 58.75 
Q 34.59375 62.5 24.90625 62.5 
Q 23.703125 62.5 22.390625 62.5 
Q 21.09375 62.5 19.703125 62.296875 
z
" id="Charter-80"/>
      <path d="M 18 49.09375 
L 18 16 
Q 18 10.59375 20.296875 8 
Q 22.59375 5.40625 27.703125 5.40625 
Q 33.09375 5.40625 39.296875 8.40625 
L 39.296875 42.296875 
L 32.203125 42.296875 
L 32.203125 45.40625 
L 43.796875 49.09375 
L 47.59375 49.09375 
L 47.59375 5.703125 
L 49.40625 4.09375 
L 54.09375 3.59375 
L 54.09375 0 
L 39.296875 0 
L 39.296875 5.59375 
Q 34.796875 2.40625 30.796875 0.703125 
Q 26.796875 -1 23.09375 -1 
Q 16.59375 -1 13.140625 2.890625 
Q 9.703125 6.796875 9.703125 14.296875 
L 9.703125 42.296875 
L 2.59375 42.296875 
L 2.59375 45.40625 
L 14.203125 49.09375 
z
" id="Charter-117"/>
      <path d="M 34.40625 35.59375 
L 29.5 35.59375 
L 28.703125 42.703125 
Q 24.796875 44.796875 21.296875 44.796875 
Q 17.296875 44.796875 15.140625 42.890625 
Q 13 41 13 37.59375 
Q 13 34.40625 15.140625 32.453125 
Q 17.296875 30.5 21.5 28.5 
Q 24.09375 27.203125 26.84375 25.953125 
Q 29.59375 24.703125 32.09375 22.703125 
Q 35.90625 19.703125 35.90625 14.09375 
Q 35.90625 7.09375 31 3.09375 
Q 26.09375 -0.90625 17.203125 -0.90625 
Q 13.40625 -0.90625 10.09375 -0.34375 
Q 6.796875 0.203125 4.203125 1.203125 
L 4.203125 14.203125 
L 9 14.203125 
L 10.203125 5.703125 
Q 14.40625 3.296875 18.703125 3.296875 
Q 23.09375 3.296875 25.59375 5.59375 
Q 28.09375 7.90625 28.09375 11.40625 
Q 28.09375 13.296875 27.4375 14.6875 
Q 26.796875 16.09375 25.5 17.1875 
Q 24.203125 18.296875 22.296875 19.296875 
Q 20.40625 20.296875 17.90625 21.40625 
Q 11.5 24.203125 8.25 27.140625 
Q 5 30.09375 5 35.09375 
Q 5 41.703125 9.546875 45.390625 
Q 14.09375 49.09375 22.703125 49.09375 
Q 29.40625 49.09375 34.40625 46.90625 
z
" id="Charter-115"/>
     </defs>
     <g transform="translate(616.134375 54.25625)scale(0.16 -0.16)">
      <use xlink:href="#Charter-80"/>
      <use x="55.799988" xlink:href="#Charter-117"/>
      <use x="112.699982" xlink:href="#Charter-114"/>
      <use x="150.899979" xlink:href="#Charter-101"/>
      <use x="199.999969" xlink:href="#Charter-32"/>
      <use x="227.799957" xlink:href="#Charter-115"/>
      <use x="267.799942" xlink:href="#Charter-116"/>
      <use x="301.199936" xlink:href="#Charter-114"/>
      <use x="339.399933" xlink:href="#Charter-101"/>
      <use x="388.499924" xlink:href="#Charter-97"/>
      <use x="439.199921" xlink:href="#Charter-109"/>
     </g>
    </g>
    <g id="line2d_32">
     <path d="M 571.334375 71.91875 
L 603.334375 71.91875 
" style="fill:none;stroke:#bbbbbb;stroke-linecap:square;"/>
    </g>
    <g id="line2d_33">
     <g>
      <use style="fill:#bbbbbb;stroke:#bbbbbb;" x="587.334375" xlink:href="#me9b697c247" y="71.91875"/>
     </g>
    </g>
    <g id="text_17">
     <!-- RPM=1000 -->
     <defs>
      <path d="M 28.796875 67.09375 
Q 41 67.09375 46.953125 62.75 
Q 52.90625 58.40625 52.90625 49.09375 
Q 52.90625 36.09375 36.703125 32.5 
Q 44.09375 30.5 47 25.796875 
Q 48 24.09375 48.640625 22.1875 
Q 49.296875 20.296875 49.75 18.390625 
Q 50.203125 16.5 50.59375 14.640625 
Q 51 12.796875 51.703125 11 
Q 52.5 8.796875 53.59375 7.390625 
Q 54.703125 6 56.203125 5.25 
Q 57.703125 4.5 59.75 4.203125 
Q 61.796875 3.90625 64.703125 3.90625 
L 65.59375 3.90625 
L 65.59375 0.09375 
Q 61.09375 -0.796875 57.796875 -0.796875 
Q 51 -0.796875 47.703125 2.09375 
Q 45.90625 3.703125 44.84375 5.640625 
Q 43.796875 7.59375 43.046875 9.796875 
Q 42.296875 12 41.75 14.390625 
Q 41.203125 16.796875 40.40625 19.203125 
Q 39.40625 22.296875 38.09375 24.34375 
Q 36.796875 26.40625 34.9375 27.65625 
Q 33.09375 28.90625 30.59375 29.453125 
Q 28.09375 30 24.703125 30 
Q 23.59375 30 22.34375 29.953125 
Q 21.09375 29.90625 19.703125 29.796875 
L 19.703125 6 
L 21.40625 4.59375 
L 27.09375 4.09375 
L 27.09375 0 
L 3.296875 0 
L 3.296875 4.09375 
L 9 4.59375 
L 10.703125 6 
L 10.703125 61.09375 
L 9 62.5 
L 3.296875 63.09375 
L 3.296875 67.09375 
z
M 19.703125 34.59375 
Q 22 34.5 23.34375 34.5 
Q 24.703125 34.5 25.203125 34.5 
Q 34.296875 34.5 38.59375 37.640625 
Q 42.90625 40.796875 42.90625 48.296875 
Q 42.90625 56.09375 38.40625 59.296875 
Q 33.90625 62.5 24.5 62.5 
L 19.703125 62.5 
z
" id="Charter-82"/>
      <path d="M 3.09375 4.09375 
L 9.09375 4.90625 
L 10.90625 6.796875 
L 10.90625 61.09375 
L 9.59375 62.5 
L 3 63.09375 
L 3 67.09375 
L 24.203125 67.09375 
L 24.203125 64.40625 
L 43 14.203125 
L 62 64 
L 62 67.09375 
L 83.40625 67.09375 
L 83.40625 63.09375 
L 77.09375 62.5 
L 75.90625 61.09375 
L 75.90625 6 
L 77.09375 4.59375 
L 83.40625 4.09375 
L 83.40625 0 
L 59.5 0 
L 59.5 4.09375 
L 66.09375 4.59375 
L 67.09375 6 
L 67.09375 62.40625 
L 43.40625 0 
L 39.09375 0 
L 16.296875 61.40625 
L 16.296875 6.796875 
L 18.09375 4.90625 
L 24.203125 4.09375 
L 24.203125 0 
L 3.09375 0 
z
" id="Charter-77"/>
      <path d="M 70.90625 42 
L 70.90625 36.296875 
L 12.40625 36.296875 
L 12.40625 42 
z
M 70.90625 23.296875 
L 70.90625 17.59375 
L 12.40625 17.59375 
L 12.40625 23.296875 
z
" id="Charter-61"/>
     </defs>
     <g transform="translate(616.134375 77.51875)scale(0.16 -0.16)">
      <use xlink:href="#Charter-82"/>
      <use x="64.599991" xlink:href="#Charter-80"/>
      <use x="120.399979" xlink:href="#Charter-77"/>
      <use x="206.999969" xlink:href="#Charter-61"/>
      <use x="290.299957" xlink:href="#Charter-49"/>
      <use x="345.899948" xlink:href="#Charter-48"/>
      <use x="401.499939" xlink:href="#Charter-48"/>
      <use x="457.09993" xlink:href="#Charter-48"/>
     </g>
    </g>
    <g id="line2d_34">
     <path d="M 571.334375 95.18125 
L 603.334375 95.18125 
" style="fill:none;stroke:#bbbbbb;stroke-linecap:square;stroke-width:2;"/>
    </g>
    <g id="line2d_35">
     <g>
      <use style="fill:#bbbbbb;stroke:#bbbbbb;stroke-linejoin:miter;" x="587.334375" xlink:href="#m1f91e6c172" y="95.18125"/>
     </g>
    </g>
    <g id="text_18">
     <!-- RPM=50000 -->
     <g transform="translate(616.134375 100.78125)scale(0.16 -0.16)">
      <use xlink:href="#Charter-82"/>
      <use x="64.599991" xlink:href="#Charter-80"/>
      <use x="120.399979" xlink:href="#Charter-77"/>
      <use x="206.999969" xlink:href="#Charter-61"/>
      <use x="290.299957" xlink:href="#Charter-53"/>
      <use x="345.899948" xlink:href="#Charter-48"/>
      <use x="401.499939" xlink:href="#Charter-48"/>
      <use x="457.09993" xlink:href="#Charter-48"/>
      <use x="512.699921" xlink:href="#Charter-48"/>
     </g>
    </g>
    <g id="line2d_36">
     <path d="M 571.334375 118.44375 
L 603.334375 118.44375 
" style="fill:none;stroke:#bbbbbb;stroke-linecap:square;stroke-width:3;"/>
    </g>
    <g id="line2d_37">
     <g>
      <use style="fill:#bbbbbb;stroke:#bbbbbb;stroke-linejoin:miter;" x="587.334375" xlink:href="#meb51803b50" y="118.44375"/>
     </g>
    </g>
    <g id="text_19">
     <!-- RPM=100000 -->
     <g transform="translate(616.134375 124.04375)scale(0.16 -0.16)">
      <use xlink:href="#Charter-82"/>
      <use x="64.599991" xlink:href="#Charter-80"/>
      <use x="120.399979" xlink:href="#Charter-77"/>
      <use x="206.999969" xlink:href="#Charter-61"/>
      <use x="290.299957" xlink:href="#Charter-49"/>
      <use x="345.899948" xlink:href="#Charter-48"/>
      <use x="401.499939" xlink:href="#Charter-48"/>
      <use x="457.09993" xlink:href="#Charter-48"/>
      <use x="512.699921" xlink:href="#Charter-48"/>
      <use x="568.299911" xlink:href="#Charter-48"/>
     </g>
    </g>
    <g id="line2d_38">
     <path d="M 571.334375 141.70625 
L 603.334375 141.70625 
" style="fill:none;stroke:#bbbbbb;stroke-linecap:square;stroke-width:4;"/>
    </g>
    <g id="line2d_39">
     <g>
      <use style="fill:#bbbbbb;stroke:#bbbbbb;stroke-linejoin:miter;" x="587.334375" xlink:href="#m9fa737dcd6" y="141.70625"/>
     </g>
    </g>
    <g id="text_20">
     <!-- RPM=150000 -->
     <g transform="translate(616.134375 147.30625)scale(0.16 -0.16)">
      <use xlink:href="#Charter-82"/>
      <use x="64.599991" xlink:href="#Charter-80"/>
      <use x="120.399979" xlink:href="#Charter-77"/>
      <use x="206.999969" xlink:href="#Charter-61"/>
      <use x="290.299957" xlink:href="#Charter-49"/>
      <use x="345.899948" xlink:href="#Charter-53"/>
      <use x="401.499939" xlink:href="#Charter-48"/>
      <use x="457.09993" xlink:href="#Charter-48"/>
      <use x="512.699921" xlink:href="#Charter-48"/>
      <use x="568.299911" xlink:href="#Charter-48"/>
     </g>
    </g>
   </g>
  </g>
 </g>
 <defs>
  <clipPath id="p275e3853a9">
   <rect height="217.44" width="669.6" x="60.749375" y="28.08125"/>
  </clipPath>
 </defs>
</svg>
