<?xml version="1.0" encoding="utf-8" standalone="no"?>
<!DOCTYPE svg PUBLIC "-//W3C//DTD SVG 1.1//EN"
  "http://www.w3.org/Graphics/SVG/1.1/DTD/svg11.dtd">
<!-- Created with matplotlib (https://matplotlib.org/) -->
<svg height="294.24625pt" version="1.1" viewBox="0 0 739.518125 294.24625" width="739.518125pt" xmlns="http://www.w3.org/2000/svg" xmlns:xlink="http://www.w3.org/1999/xlink">
 <defs>
  <style type="text/css">
*{stroke-linecap:butt;stroke-linejoin:round;}
  </style>
 </defs>
 <g id="figure_1">
  <g id="patch_1">
   <path d="M 0 294.24625 
L 739.518125 294.24625 
L 739.518125 0 
L 0 0 
z
" style="fill:#ffffff;"/>
  </g>
  <g id="axes_1">
   <g id="patch_2">
    <path d="M 62.718125 245.52125 
L 732.318125 245.52125 
L 732.318125 28.08125 
L 62.718125 28.08125 
z
" style="fill:#ffffff;"/>
   </g>
   <g id="matplotlib.axis_1">
    <g id="xtick_1">
     <g id="line2d_1">
      <path clip-path="url(#pa715728b12)" d="M 93.154489 245.52125 
L 93.154489 28.08125 
" style="fill:none;stroke:#b0b0b0;stroke-linecap:square;stroke-opacity:0.3;stroke-width:0.8;"/>
     </g>
     <g id="line2d_2">
      <defs>
       <path d="M 0 0 
L 0 3.5 
" id="mf538383294" style="stroke:#000000;stroke-width:0.8;"/>
      </defs>
      <g>
       <use style="stroke:#000000;stroke-width:0.8;" x="93.154489" xlink:href="#mf538383294" y="245.52125"/>
      </g>
     </g>
     <g id="text_1">
      <!-- 0.00 -->
      <defs>
       <path d="M 27.796875 68.296875 
Q 33.203125 68.296875 37.546875 66 
Q 41.90625 63.703125 45 59.25 
Q 48.09375 54.796875 49.796875 48.34375 
Q 51.5 41.90625 51.5 33.59375 
Q 51.5 25.296875 49.796875 18.84375 
Q 48.09375 12.40625 45 7.953125 
Q 41.90625 3.5 37.546875 1.140625 
Q 33.203125 -1.203125 27.796875 -1.203125 
Q 22.40625 -1.203125 18.046875 1.140625 
Q 13.703125 3.5 10.59375 7.953125 
Q 7.5 12.40625 5.796875 18.84375 
Q 4.09375 25.296875 4.09375 33.59375 
Q 4.09375 41.90625 5.796875 48.34375 
Q 7.5 54.796875 10.59375 59.25 
Q 13.703125 63.703125 18.046875 66 
Q 22.40625 68.296875 27.796875 68.296875 
z
M 27.796875 63.59375 
Q 20.90625 63.59375 17.203125 56.046875 
Q 13.5 48.5 13.5 33.5 
Q 13.5 18.59375 17.203125 11.09375 
Q 20.90625 3.59375 27.796875 3.59375 
Q 34.703125 3.59375 38.34375 11.140625 
Q 42 18.703125 42 33.59375 
Q 42 48.5 38.34375 56.046875 
Q 34.703125 63.59375 27.796875 63.59375 
z
" id="Charter-48"/>
       <path d="M 13.90625 11.796875 
Q 16.5 11.796875 18.34375 9.9375 
Q 20.203125 8.09375 20.203125 5.40625 
Q 20.203125 2.796875 18.34375 0.9375 
Q 16.5 -0.90625 13.90625 -0.90625 
Q 11.296875 -0.90625 9.390625 0.890625 
Q 7.5 2.703125 7.5 5.40625 
Q 7.5 8.09375 9.390625 9.9375 
Q 11.296875 11.796875 13.90625 11.796875 
z
" id="Charter-46"/>
      </defs>
      <g transform="translate(81.479801 261.3525)scale(0.12 -0.12)">
       <use xlink:href="#Charter-48"/>
       <use x="55.599991" xlink:href="#Charter-46"/>
       <use x="83.399979" xlink:href="#Charter-48"/>
       <use x="138.999969" xlink:href="#Charter-48"/>
      </g>
     </g>
    </g>
    <g id="xtick_2">
     <g id="line2d_3">
      <path clip-path="url(#pa715728b12)" d="M 214.899943 245.52125 
L 214.899943 28.08125 
" style="fill:none;stroke:#b0b0b0;stroke-linecap:square;stroke-opacity:0.3;stroke-width:0.8;"/>
     </g>
     <g id="line2d_4">
      <g>
       <use style="stroke:#000000;stroke-width:0.8;" x="214.899943" xlink:href="#mf538383294" y="245.52125"/>
      </g>
     </g>
     <g id="text_2">
      <!-- 0.02 -->
      <defs>
       <path d="M 44.203125 7.90625 
L 46 16.40625 
L 50.5 16.40625 
L 50.5 0 
L 4.203125 0 
L 4.203125 6.296875 
Q 12.40625 13 18.796875 18.5 
Q 25.203125 24 29.59375 28.953125 
Q 34 33.90625 36.296875 38.546875 
Q 38.59375 43.203125 38.59375 48.09375 
Q 38.59375 55.296875 35.09375 59.25 
Q 31.59375 63.203125 25.296875 63.203125 
Q 23 63.203125 20.84375 62.640625 
Q 18.703125 62.09375 16.40625 60.796875 
L 16.40625 50.09375 
Q 14.296875 48.59375 11.90625 48.59375 
Q 9.296875 48.59375 7.796875 50.09375 
Q 6.296875 51.59375 6.296875 54.203125 
Q 6.296875 56.796875 7.84375 59.34375 
Q 9.40625 61.90625 12.25 63.90625 
Q 15.09375 65.90625 18.9375 67.09375 
Q 22.796875 68.296875 27.5 68.296875 
Q 32.296875 68.296875 36.140625 66.9375 
Q 40 65.59375 42.703125 63.09375 
Q 45.40625 60.59375 46.84375 57.09375 
Q 48.296875 53.59375 48.296875 49.40625 
Q 48.296875 44.703125 46.046875 40.09375 
Q 43.796875 35.5 39.4375 30.546875 
Q 35.09375 25.59375 28.75 20.046875 
Q 22.40625 14.5 14.09375 7.90625 
z
" id="Charter-50"/>
      </defs>
      <g transform="translate(203.225256 261.3525)scale(0.12 -0.12)">
       <use xlink:href="#Charter-48"/>
       <use x="55.599991" xlink:href="#Charter-46"/>
       <use x="83.399979" xlink:href="#Charter-48"/>
       <use x="138.999969" xlink:href="#Charter-50"/>
      </g>
     </g>
    </g>
    <g id="xtick_3">
     <g id="line2d_5">
      <path clip-path="url(#pa715728b12)" d="M 336.645398 245.52125 
L 336.645398 28.08125 
" style="fill:none;stroke:#b0b0b0;stroke-linecap:square;stroke-opacity:0.3;stroke-width:0.8;"/>
     </g>
     <g id="line2d_6">
      <g>
       <use style="stroke:#000000;stroke-width:0.8;" x="336.645398" xlink:href="#mf538383294" y="245.52125"/>
      </g>
     </g>
     <g id="text_3">
      <!-- 0.04 -->
      <defs>
       <path d="M 42.59375 67.703125 
L 42.59375 25.90625 
L 53.90625 25.90625 
L 53.90625 19.40625 
L 42.59375 19.40625 
L 42.59375 -3.703125 
L 34.90625 -3.703125 
L 34.90625 19.40625 
L 2.703125 19.40625 
L 2.703125 25.90625 
L 36.796875 67.703125 
z
M 10.203125 25.90625 
L 34.90625 25.90625 
L 34.90625 56.796875 
z
" id="Charter-52"/>
      </defs>
      <g transform="translate(324.97071 261.3525)scale(0.12 -0.12)">
       <use xlink:href="#Charter-48"/>
       <use x="55.599991" xlink:href="#Charter-46"/>
       <use x="83.399979" xlink:href="#Charter-48"/>
       <use x="138.999969" xlink:href="#Charter-52"/>
      </g>
     </g>
    </g>
    <g id="xtick_4">
     <g id="line2d_7">
      <path clip-path="url(#pa715728b12)" d="M 458.390852 245.52125 
L 458.390852 28.08125 
" style="fill:none;stroke:#b0b0b0;stroke-linecap:square;stroke-opacity:0.3;stroke-width:0.8;"/>
     </g>
     <g id="line2d_8">
      <g>
       <use style="stroke:#000000;stroke-width:0.8;" x="458.390852" xlink:href="#mf538383294" y="245.52125"/>
      </g>
     </g>
     <g id="text_4">
      <!-- 0.06 -->
      <defs>
       <path d="M 44.296875 65.59375 
L 44 65.59375 
Q 31.90625 65.59375 24.453125 58.6875 
Q 17 51.796875 14.703125 38.40625 
Q 22.59375 44.5 31.703125 44.5 
Q 36.203125 44.5 40 42.890625 
Q 43.796875 41.296875 46.546875 38.390625 
Q 49.296875 35.5 50.890625 31.5 
Q 52.5 27.5 52.5 22.703125 
Q 52.5 17.59375 50.640625 13.25 
Q 48.796875 8.90625 45.546875 5.703125 
Q 42.296875 2.5 37.84375 0.640625 
Q 33.40625 -1.203125 28.296875 -1.203125 
Q 23.203125 -1.203125 18.953125 0.796875 
Q 14.703125 2.796875 11.59375 6.5 
Q 8.5 10.203125 6.75 15.546875 
Q 5 20.90625 5 27.703125 
Q 5 37.296875 7.703125 45.09375 
Q 10.40625 52.90625 15.453125 58.546875 
Q 20.5 64.203125 27.796875 67.5 
Q 35.09375 70.796875 44.296875 71.40625 
z
M 14.5 34 
Q 14.296875 32.40625 14.296875 30.84375 
Q 14.296875 29.296875 14.296875 27.90625 
Q 14.296875 15.90625 18.140625 9.75 
Q 22 3.59375 29.09375 3.59375 
Q 32.203125 3.59375 34.84375 4.9375 
Q 37.5 6.296875 39.390625 8.6875 
Q 41.296875 11.09375 42.34375 14.4375 
Q 43.40625 17.796875 43.40625 21.796875 
Q 43.40625 29.59375 39.40625 34.046875 
Q 35.40625 38.5 29 38.5 
Q 20.59375 38.5 14.5 34 
z
" id="Charter-54"/>
      </defs>
      <g transform="translate(446.716165 261.3525)scale(0.12 -0.12)">
       <use xlink:href="#Charter-48"/>
       <use x="55.599991" xlink:href="#Charter-46"/>
       <use x="83.399979" xlink:href="#Charter-48"/>
       <use x="138.999969" xlink:href="#Charter-54"/>
      </g>
     </g>
    </g>
    <g id="xtick_5">
     <g id="line2d_9">
      <path clip-path="url(#pa715728b12)" d="M 580.136307 245.52125 
L 580.136307 28.08125 
" style="fill:none;stroke:#b0b0b0;stroke-linecap:square;stroke-opacity:0.3;stroke-width:0.8;"/>
     </g>
     <g id="line2d_10">
      <g>
       <use style="stroke:#000000;stroke-width:0.8;" x="580.136307" xlink:href="#mf538383294" y="245.52125"/>
      </g>
     </g>
     <g id="text_5">
      <!-- 0.08 -->
      <defs>
       <path d="M 32.09375 36.90625 
Q 36 39.5 38.046875 43.09375 
Q 40.09375 46.703125 40.09375 50.703125 
Q 40.09375 56.703125 36.796875 60.203125 
Q 33.5 63.703125 28 63.703125 
Q 25.40625 63.703125 23.203125 62.796875 
Q 21 61.90625 19.34375 60.296875 
Q 17.703125 58.703125 16.796875 56.546875 
Q 15.90625 54.40625 15.90625 51.90625 
Q 15.90625 46.90625 19.90625 43.34375 
Q 23.90625 39.796875 32.09375 36.90625 
z
M 36.296875 35.09375 
Q 43.40625 32.59375 47 28.1875 
Q 50.59375 23.796875 50.59375 17.90625 
Q 50.59375 13.90625 48.9375 10.34375 
Q 47.296875 6.796875 44.25 4.140625 
Q 41.203125 1.5 36.953125 -0.046875 
Q 32.703125 -1.59375 27.5 -1.59375 
Q 22.09375 -1.59375 17.796875 -0.140625 
Q 13.5 1.296875 10.546875 3.84375 
Q 7.59375 6.40625 6 9.953125 
Q 4.40625 13.5 4.40625 17.703125 
Q 4.40625 29.703125 18.09375 35 
Q 7.59375 39.40625 7.59375 50.40625 
Q 7.59375 54.40625 9.09375 57.703125 
Q 10.59375 61 13.296875 63.390625 
Q 16 65.796875 19.796875 67.140625 
Q 23.59375 68.5 28.296875 68.5 
Q 32.796875 68.5 36.390625 67.25 
Q 40 66 42.546875 63.75 
Q 45.09375 61.5 46.4375 58.390625 
Q 47.796875 55.296875 47.796875 51.703125 
Q 47.796875 46.703125 44.84375 42.34375 
Q 41.90625 38 36.296875 35.09375 
z
M 21.90625 32.90625 
Q 16.796875 30.203125 14.4375 26.796875 
Q 12.09375 23.40625 12.09375 18.296875 
Q 12.09375 11.703125 16.34375 7.640625 
Q 20.59375 3.59375 27.796875 3.59375 
Q 34.296875 3.59375 38.140625 7.25 
Q 42 10.90625 42 16.90625 
Q 42 19.90625 40.75 22.046875 
Q 39.5 24.203125 37 26 
Q 34.5 27.796875 30.703125 29.390625 
Q 26.90625 31 21.90625 32.90625 
z
" id="Charter-56"/>
      </defs>
      <g transform="translate(568.461619 261.3525)scale(0.12 -0.12)">
       <use xlink:href="#Charter-48"/>
       <use x="55.599991" xlink:href="#Charter-46"/>
       <use x="83.399979" xlink:href="#Charter-48"/>
       <use x="138.999969" xlink:href="#Charter-56"/>
      </g>
     </g>
    </g>
    <g id="xtick_6">
     <g id="line2d_11">
      <path clip-path="url(#pa715728b12)" d="M 701.881761 245.52125 
L 701.881761 28.08125 
" style="fill:none;stroke:#b0b0b0;stroke-linecap:square;stroke-opacity:0.3;stroke-width:0.8;"/>
     </g>
     <g id="line2d_12">
      <g>
       <use style="stroke:#000000;stroke-width:0.8;" x="701.881761" xlink:href="#mf538383294" y="245.52125"/>
      </g>
     </g>
     <g id="text_6">
      <!-- 0.10 -->
      <defs>
       <path d="M 33.90625 68.296875 
L 33.90625 6.203125 
L 35.09375 4.703125 
L 45.90625 4.203125 
L 45.90625 0 
L 12.40625 0 
L 12.40625 4.296875 
L 23.90625 4.90625 
L 25.09375 6.59375 
L 25.09375 60.40625 
L 9.40625 57.59375 
L 9.40625 61.796875 
L 31.09375 68.296875 
z
" id="Charter-49"/>
      </defs>
      <g transform="translate(690.207074 261.3525)scale(0.12 -0.12)">
       <use xlink:href="#Charter-48"/>
       <use x="55.599991" xlink:href="#Charter-46"/>
       <use x="83.399979" xlink:href="#Charter-49"/>
       <use x="138.999969" xlink:href="#Charter-48"/>
      </g>
     </g>
    </g>
    <g id="text_7">
     <!-- $r$ [$m$] -->
     <defs>
      <path d="M 17.703125 48.203125 
L 2.90625 44.90625 
L 2.90625 42.40625 
L 11.09375 40.90625 
L 2.796875 0 
L 11.203125 0 
L 15.296875 23.5 
C 16.90625 32.703125 20.09375 38.09375 29.90625 41.90625 
L 32.5 36.5 
C 32.703125 36.5 32.90625 36.5 33.203125 36.5 
C 37.296875 36.5 39.90625 39.203125 39.90625 43 
C 39.90625 46 37.703125 48.203125 34.296875 48.203125 
C 29.296875 48.203125 22.90625 43.59375 16.5 34.5 
L 19.703125 48.203125 
z
" id="Charter-Italic-114"/>
      <path id="Charter-32"/>
      <path d="M 37.59375 70.796875 
L 37.59375 66.5 
L 21.796875 66.5 
L 21.796875 -9 
L 37.59375 -9 
L 37.59375 -13.203125 
L 13.90625 -13.203125 
L 13.90625 70.796875 
z
" id="Charter-91"/>
      <path d="M 18.09375 48.203125 
L 3.296875 45 
L 3.296875 42.40625 
L 11.5 40.796875 
L 3.203125 0 
L 11.59375 0 
L 17.90625 33.90625 
C 24.203125 39.59375 29.5 42.09375 32.09375 42.09375 
C 35.59375 42.09375 37.59375 39.90625 37.59375 36.203125 
C 37.59375 34.796875 37.296875 32.5 36.703125 29.296875 
L 30.703125 0 
L 39 0 
L 45.5 34 
C 50.09375 39.40625 55.296875 42.09375 59.09375 42.09375 
C 62.40625 42.09375 64 39.90625 64 35.703125 
C 64 34.296875 63.796875 32.203125 63.09375 29.296875 
L 58.796875 10.796875 
C 58.296875 8.5 58 6.59375 58 5.40625 
C 58 1.296875 60.296875 -0.59375 65.296875 -0.59375 
C 68 -0.59375 72 0.5 77.296875 2.5 
L 77.296875 5.203125 
C 75 4.59375 73.09375 4.296875 71.703125 4.296875 
C 68.5 4.296875 66.59375 6.09375 66.59375 9.296875 
C 66.59375 10.90625 67.09375 13.09375 67.703125 15.796875 
L 71.09375 31.296875 
C 71.90625 34.703125 72.296875 37.5 72.296875 39.703125 
C 72.296875 45 68.90625 48.203125 64.09375 48.203125 
C 59.296875 48.203125 53.09375 45.203125 45.796875 39.09375 
C 45.703125 45 42.703125 48.203125 37.703125 48.203125 
C 33 48.203125 26.59375 45.09375 18.796875 38.703125 
L 20.59375 48.203125 
z
" id="Charter-Italic-109"/>
      <path d="M 28.203125 70.796875 
L 28.203125 -13.296875 
L 4.59375 -13.296875 
L 4.59375 -9 
L 20.40625 -9 
L 20.40625 66.5 
L 4.59375 66.5 
L 4.59375 70.796875 
z
" id="Charter-93"/>
     </defs>
     <g transform="translate(374.118125 282.686875)scale(0.2 -0.2)">
      <use transform="translate(0 0.203125)" xlink:href="#Charter-Italic-114"/>
      <use transform="translate(39.799988 0.203125)" xlink:href="#Charter-32"/>
      <use transform="translate(67.599976 0.203125)" xlink:href="#Charter-91"/>
      <use transform="translate(109.699966 0.203125)" xlink:href="#Charter-Italic-109"/>
      <use transform="translate(191.199951 0.203125)" xlink:href="#Charter-93"/>
     </g>
    </g>
   </g>
   <g id="matplotlib.axis_2">
    <g id="ytick_1">
     <g id="line2d_13">
      <path clip-path="url(#pa715728b12)" d="M 62.718125 245.52125 
L 732.318125 245.52125 
" style="fill:none;stroke:#b0b0b0;stroke-linecap:square;stroke-opacity:0.3;stroke-width:0.8;"/>
     </g>
     <g id="line2d_14">
      <defs>
       <path d="M 0 0 
L -3.5 0 
" id="m18bb14d367" style="stroke:#000000;stroke-width:0.8;"/>
      </defs>
      <g>
       <use style="stroke:#000000;stroke-width:0.8;" x="62.718125" xlink:href="#m18bb14d367" y="245.52125"/>
      </g>
     </g>
     <g id="text_8">
      <!-- $\mathdefault{10^{-1}}$ -->
      <defs>
       <path d="M 70.90625 32.703125 
L 70.90625 26.90625 
L 12.40625 26.90625 
L 12.40625 32.703125 
z
" id="Charter-8722"/>
      </defs>
      <g transform="translate(30.278125 249.936875)scale(0.12 -0.12)">
       <use transform="translate(0 0.526563)" xlink:href="#Charter-49"/>
       <use transform="translate(55.599991 0.526563)" xlink:href="#Charter-48"/>
       <use transform="translate(112.041622 34.192188)scale(0.7)" xlink:href="#Charter-8722"/>
       <use transform="translate(170.351614 34.192188)scale(0.7)" xlink:href="#Charter-49"/>
      </g>
     </g>
    </g>
    <g id="ytick_2">
     <g id="line2d_15">
      <path clip-path="url(#pa715728b12)" d="M 62.718125 218.34125 
L 732.318125 218.34125 
" style="fill:none;stroke:#b0b0b0;stroke-linecap:square;stroke-opacity:0.3;stroke-width:0.8;"/>
     </g>
     <g id="line2d_16">
      <g>
       <use style="stroke:#000000;stroke-width:0.8;" x="62.718125" xlink:href="#m18bb14d367" y="218.34125"/>
      </g>
     </g>
     <g id="text_9">
      <!-- $\mathdefault{10^{0}}$ -->
      <g transform="translate(37.238125 222.756875)scale(0.12 -0.12)">
       <use transform="translate(0 0.526563)" xlink:href="#Charter-49"/>
       <use transform="translate(55.599991 0.526563)" xlink:href="#Charter-48"/>
       <use transform="translate(112.041622 34.192188)scale(0.7)" xlink:href="#Charter-48"/>
      </g>
     </g>
    </g>
    <g id="ytick_3">
     <g id="line2d_17">
      <path clip-path="url(#pa715728b12)" d="M 62.718125 191.16125 
L 732.318125 191.16125 
" style="fill:none;stroke:#b0b0b0;stroke-linecap:square;stroke-opacity:0.3;stroke-width:0.8;"/>
     </g>
     <g id="line2d_18">
      <g>
       <use style="stroke:#000000;stroke-width:0.8;" x="62.718125" xlink:href="#m18bb14d367" y="191.16125"/>
      </g>
     </g>
     <g id="text_10">
      <!-- $\mathdefault{10^{1}}$ -->
      <g transform="translate(37.238125 195.576875)scale(0.12 -0.12)">
       <use transform="translate(0 0.526563)" xlink:href="#Charter-49"/>
       <use transform="translate(55.599991 0.526563)" xlink:href="#Charter-48"/>
       <use transform="translate(112.041622 34.192188)scale(0.7)" xlink:href="#Charter-49"/>
      </g>
     </g>
    </g>
    <g id="ytick_4">
     <g id="line2d_19">
      <path clip-path="url(#pa715728b12)" d="M 62.718125 163.98125 
L 732.318125 163.98125 
" style="fill:none;stroke:#b0b0b0;stroke-linecap:square;stroke-opacity:0.3;stroke-width:0.8;"/>
     </g>
     <g id="line2d_20">
      <g>
       <use style="stroke:#000000;stroke-width:0.8;" x="62.718125" xlink:href="#m18bb14d367" y="163.98125"/>
      </g>
     </g>
     <g id="text_11">
      <!-- $\mathdefault{10^{2}}$ -->
      <g transform="translate(37.238125 168.396875)scale(0.12 -0.12)">
       <use transform="translate(0 0.526563)" xlink:href="#Charter-49"/>
       <use transform="translate(55.599991 0.526563)" xlink:href="#Charter-48"/>
       <use transform="translate(112.041622 34.192188)scale(0.7)" xlink:href="#Charter-50"/>
      </g>
     </g>
    </g>
    <g id="ytick_5">
     <g id="line2d_21">
      <path clip-path="url(#pa715728b12)" d="M 62.718125 136.80125 
L 732.318125 136.80125 
" style="fill:none;stroke:#b0b0b0;stroke-linecap:square;stroke-opacity:0.3;stroke-width:0.8;"/>
     </g>
     <g id="line2d_22">
      <g>
       <use style="stroke:#000000;stroke-width:0.8;" x="62.718125" xlink:href="#m18bb14d367" y="136.80125"/>
      </g>
     </g>
     <g id="text_12">
      <!-- $\mathdefault{10^{3}}$ -->
      <defs>
       <path d="M 31.703125 35.296875 
Q 40.09375 34.703125 44.640625 30.390625 
Q 49.203125 26.09375 49.203125 19.203125 
Q 49.203125 15 47.390625 11.296875 
Q 45.59375 7.59375 42.296875 4.84375 
Q 39 2.09375 34.34375 0.5 
Q 29.703125 -1.09375 23.90625 -1.09375 
Q 19.40625 -1.09375 15.75 -0.09375 
Q 12.09375 0.90625 9.5 2.5 
Q 6.90625 4.09375 5.5 6.046875 
Q 4.09375 8 4.09375 9.90625 
Q 4.09375 12.09375 5.6875 13.546875 
Q 7.296875 15 9.703125 15 
Q 11.296875 15 12.703125 14.5 
L 15.796875 6 
Q 19.796875 3.59375 24.296875 3.59375 
Q 27.703125 3.59375 30.59375 4.796875 
Q 33.5 6 35.59375 8.140625 
Q 37.703125 10.296875 38.84375 13.1875 
Q 40 16.09375 40 19.40625 
Q 40 25.40625 36.203125 28.65625 
Q 32.40625 31.90625 25.203125 31.90625 
Q 24 31.90625 22.640625 31.796875 
Q 21.296875 31.703125 19.90625 31.5 
L 19.90625 37.40625 
Q 20.40625 37.40625 20.953125 37.34375 
Q 21.5 37.296875 22 37.296875 
Q 29.59375 37.296875 33.546875 40.6875 
Q 37.5 44.09375 37.5 50.203125 
Q 37.5 56.203125 34.046875 59.703125 
Q 30.59375 63.203125 24.796875 63.203125 
Q 19.5 63.203125 15.296875 60.296875 
L 15.296875 50.90625 
Q 13.59375 49.59375 11.203125 49.59375 
Q 8.796875 49.59375 7.296875 51.09375 
Q 5.796875 52.59375 5.796875 55 
Q 5.796875 57.5 7.34375 59.84375 
Q 8.90625 62.203125 11.65625 64.09375 
Q 14.40625 66 18.296875 67.140625 
Q 22.203125 68.296875 26.90625 68.296875 
Q 31.40625 68.296875 35.046875 67.09375 
Q 38.703125 65.90625 41.25 63.703125 
Q 43.796875 61.5 45.1875 58.390625 
Q 46.59375 55.296875 46.59375 51.5 
Q 46.59375 45.703125 42.84375 41.546875 
Q 39.09375 37.40625 31.703125 35.296875 
z
" id="Charter-51"/>
      </defs>
      <g transform="translate(37.238125 141.216875)scale(0.12 -0.12)">
       <use transform="translate(0 0.526563)" xlink:href="#Charter-49"/>
       <use transform="translate(55.599991 0.526563)" xlink:href="#Charter-48"/>
       <use transform="translate(112.041622 34.192188)scale(0.7)" xlink:href="#Charter-51"/>
      </g>
     </g>
    </g>
    <g id="ytick_6">
     <g id="line2d_23">
      <path clip-path="url(#pa715728b12)" d="M 62.718125 109.62125 
L 732.318125 109.62125 
" style="fill:none;stroke:#b0b0b0;stroke-linecap:square;stroke-opacity:0.3;stroke-width:0.8;"/>
     </g>
     <g id="line2d_24">
      <g>
       <use style="stroke:#000000;stroke-width:0.8;" x="62.718125" xlink:href="#m18bb14d367" y="109.62125"/>
      </g>
     </g>
     <g id="text_13">
      <!-- $\mathdefault{10^{4}}$ -->
      <g transform="translate(37.238125 114.036875)scale(0.12 -0.12)">
       <use transform="translate(0 0.942188)" xlink:href="#Charter-49"/>
       <use transform="translate(55.599991 0.942188)" xlink:href="#Charter-48"/>
       <use transform="translate(112.041622 34.607813)scale(0.7)" xlink:href="#Charter-52"/>
      </g>
     </g>
    </g>
    <g id="ytick_7">
     <g id="line2d_25">
      <path clip-path="url(#pa715728b12)" d="M 62.718125 82.44125 
L 732.318125 82.44125 
" style="fill:none;stroke:#b0b0b0;stroke-linecap:square;stroke-opacity:0.3;stroke-width:0.8;"/>
     </g>
     <g id="line2d_26">
      <g>
       <use style="stroke:#000000;stroke-width:0.8;" x="62.718125" xlink:href="#m18bb14d367" y="82.44125"/>
      </g>
     </g>
     <g id="text_14">
      <!-- $\mathdefault{10^{5}}$ -->
      <defs>
       <path d="M 45.90625 67.09375 
L 45.90625 59.296875 
L 16.296875 59.296875 
L 16.296875 39.296875 
Q 22 40.90625 27 40.90625 
Q 32 40.90625 36.046875 39.5 
Q 40.09375 38.09375 42.9375 35.546875 
Q 45.796875 33 47.34375 29.5 
Q 48.90625 26 48.90625 21.703125 
Q 48.90625 16.90625 47.046875 12.75 
Q 45.203125 8.59375 41.703125 5.546875 
Q 38.203125 2.5 33.25 0.796875 
Q 28.296875 -0.90625 22.203125 -0.90625 
Q 18.296875 -0.90625 15.140625 -0.09375 
Q 12 0.703125 9.75 2 
Q 7.5 3.296875 6.25 5 
Q 5 6.703125 5 8.5 
Q 5 10.796875 6.59375 12.296875 
Q 8.203125 13.796875 10.796875 13.796875 
Q 11.703125 13.796875 13.203125 13.5 
L 17.203125 4.90625 
Q 20.5 3.703125 23.90625 3.703125 
Q 27.40625 3.703125 30.296875 4.890625 
Q 33.203125 6.09375 35.296875 8.1875 
Q 37.40625 10.296875 38.546875 13.25 
Q 39.703125 16.203125 39.703125 19.703125 
Q 39.703125 27.5 34.546875 31.09375 
Q 29.40625 34.703125 18.90625 34.703125 
Q 13.40625 34.703125 10.09375 34.09375 
L 10.09375 67.09375 
z
" id="Charter-53"/>
      </defs>
      <g transform="translate(37.238125 86.856875)scale(0.12 -0.12)">
       <use transform="translate(0 0.36875)" xlink:href="#Charter-49"/>
       <use transform="translate(55.599991 0.36875)" xlink:href="#Charter-48"/>
       <use transform="translate(112.041622 34.034375)scale(0.7)" xlink:href="#Charter-53"/>
      </g>
     </g>
    </g>
    <g id="ytick_8">
     <g id="line2d_27">
      <path clip-path="url(#pa715728b12)" d="M 62.718125 55.26125 
L 732.318125 55.26125 
" style="fill:none;stroke:#b0b0b0;stroke-linecap:square;stroke-opacity:0.3;stroke-width:0.8;"/>
     </g>
     <g id="line2d_28">
      <g>
       <use style="stroke:#000000;stroke-width:0.8;" x="62.718125" xlink:href="#m18bb14d367" y="55.26125"/>
      </g>
     </g>
     <g id="text_15">
      <!-- $\mathdefault{10^{6}}$ -->
      <g transform="translate(37.238125 59.676875)scale(0.12 -0.12)">
       <use transform="translate(0 0.35)" xlink:href="#Charter-49"/>
       <use transform="translate(55.599991 0.35)" xlink:href="#Charter-48"/>
       <use transform="translate(112.041622 34.015625)scale(0.7)" xlink:href="#Charter-54"/>
      </g>
     </g>
    </g>
    <g id="ytick_9">
     <g id="line2d_29">
      <path clip-path="url(#pa715728b12)" d="M 62.718125 28.08125 
L 732.318125 28.08125 
" style="fill:none;stroke:#b0b0b0;stroke-linecap:square;stroke-opacity:0.3;stroke-width:0.8;"/>
     </g>
     <g id="line2d_30">
      <g>
       <use style="stroke:#000000;stroke-width:0.8;" x="62.718125" xlink:href="#m18bb14d367" y="28.08125"/>
      </g>
     </g>
     <g id="text_16">
      <!-- $\mathdefault{10^{7}}$ -->
      <defs>
       <path d="M 53.09375 67.09375 
L 53.09375 63.09375 
L 19.90625 -1.5 
L 19.90625 -3.703125 
L 11.59375 -3.703125 
L 44.203125 59.5 
L 13.40625 59.5 
L 11.796875 50.40625 
L 7.09375 50.40625 
L 7.09375 67.09375 
z
" id="Charter-55"/>
      </defs>
      <g transform="translate(37.238125 32.496875)scale(0.12 -0.12)">
       <use transform="translate(0 0.36875)" xlink:href="#Charter-49"/>
       <use transform="translate(55.599991 0.36875)" xlink:href="#Charter-48"/>
       <use transform="translate(112.041622 34.034375)scale(0.7)" xlink:href="#Charter-55"/>
      </g>
     </g>
    </g>
    <g id="ytick_10">
     <g id="line2d_31">
      <defs>
       <path d="M 0 0 
L -2 0 
" id="m5d17efa287" style="stroke:#000000;stroke-width:0.6;"/>
      </defs>
      <g>
       <use style="stroke:#000000;stroke-width:0.6;" x="62.718125" xlink:href="#m5d17efa287" y="237.339255"/>
      </g>
     </g>
    </g>
    <g id="ytick_11">
     <g id="line2d_32">
      <g>
       <use style="stroke:#000000;stroke-width:0.6;" x="62.718125" xlink:href="#m5d17efa287" y="232.553094"/>
      </g>
     </g>
    </g>
    <g id="ytick_12">
     <g id="line2d_33">
      <g>
       <use style="stroke:#000000;stroke-width:0.6;" x="62.718125" xlink:href="#m5d17efa287" y="229.157259"/>
      </g>
     </g>
    </g>
    <g id="ytick_13">
     <g id="line2d_34">
      <g>
       <use style="stroke:#000000;stroke-width:0.6;" x="62.718125" xlink:href="#m5d17efa287" y="226.523245"/>
      </g>
     </g>
    </g>
    <g id="ytick_14">
     <g id="line2d_35">
      <g>
       <use style="stroke:#000000;stroke-width:0.6;" x="62.718125" xlink:href="#m5d17efa287" y="224.371099"/>
      </g>
     </g>
    </g>
    <g id="ytick_15">
     <g id="line2d_36">
      <g>
       <use style="stroke:#000000;stroke-width:0.6;" x="62.718125" xlink:href="#m5d17efa287" y="222.551485"/>
      </g>
     </g>
    </g>
    <g id="ytick_16">
     <g id="line2d_37">
      <g>
       <use style="stroke:#000000;stroke-width:0.6;" x="62.718125" xlink:href="#m5d17efa287" y="220.975264"/>
      </g>
     </g>
    </g>
    <g id="ytick_17">
     <g id="line2d_38">
      <g>
       <use style="stroke:#000000;stroke-width:0.6;" x="62.718125" xlink:href="#m5d17efa287" y="219.584939"/>
      </g>
     </g>
    </g>
    <g id="ytick_18">
     <g id="line2d_39">
      <g>
       <use style="stroke:#000000;stroke-width:0.6;" x="62.718125" xlink:href="#m5d17efa287" y="210.159255"/>
      </g>
     </g>
    </g>
    <g id="ytick_19">
     <g id="line2d_40">
      <g>
       <use style="stroke:#000000;stroke-width:0.6;" x="62.718125" xlink:href="#m5d17efa287" y="205.373094"/>
      </g>
     </g>
    </g>
    <g id="ytick_20">
     <g id="line2d_41">
      <g>
       <use style="stroke:#000000;stroke-width:0.6;" x="62.718125" xlink:href="#m5d17efa287" y="201.977259"/>
      </g>
     </g>
    </g>
    <g id="ytick_21">
     <g id="line2d_42">
      <g>
       <use style="stroke:#000000;stroke-width:0.6;" x="62.718125" xlink:href="#m5d17efa287" y="199.343245"/>
      </g>
     </g>
    </g>
    <g id="ytick_22">
     <g id="line2d_43">
      <g>
       <use style="stroke:#000000;stroke-width:0.6;" x="62.718125" xlink:href="#m5d17efa287" y="197.191099"/>
      </g>
     </g>
    </g>
    <g id="ytick_23">
     <g id="line2d_44">
      <g>
       <use style="stroke:#000000;stroke-width:0.6;" x="62.718125" xlink:href="#m5d17efa287" y="195.371485"/>
      </g>
     </g>
    </g>
    <g id="ytick_24">
     <g id="line2d_45">
      <g>
       <use style="stroke:#000000;stroke-width:0.6;" x="62.718125" xlink:href="#m5d17efa287" y="193.795264"/>
      </g>
     </g>
    </g>
    <g id="ytick_25">
     <g id="line2d_46">
      <g>
       <use style="stroke:#000000;stroke-width:0.6;" x="62.718125" xlink:href="#m5d17efa287" y="192.404939"/>
      </g>
     </g>
    </g>
    <g id="ytick_26">
     <g id="line2d_47">
      <g>
       <use style="stroke:#000000;stroke-width:0.6;" x="62.718125" xlink:href="#m5d17efa287" y="182.979255"/>
      </g>
     </g>
    </g>
    <g id="ytick_27">
     <g id="line2d_48">
      <g>
       <use style="stroke:#000000;stroke-width:0.6;" x="62.718125" xlink:href="#m5d17efa287" y="178.193094"/>
      </g>
     </g>
    </g>
    <g id="ytick_28">
     <g id="line2d_49">
      <g>
       <use style="stroke:#000000;stroke-width:0.6;" x="62.718125" xlink:href="#m5d17efa287" y="174.797259"/>
      </g>
     </g>
    </g>
    <g id="ytick_29">
     <g id="line2d_50">
      <g>
       <use style="stroke:#000000;stroke-width:0.6;" x="62.718125" xlink:href="#m5d17efa287" y="172.163245"/>
      </g>
     </g>
    </g>
    <g id="ytick_30">
     <g id="line2d_51">
      <g>
       <use style="stroke:#000000;stroke-width:0.6;" x="62.718125" xlink:href="#m5d17efa287" y="170.011099"/>
      </g>
     </g>
    </g>
    <g id="ytick_31">
     <g id="line2d_52">
      <g>
       <use style="stroke:#000000;stroke-width:0.6;" x="62.718125" xlink:href="#m5d17efa287" y="168.191485"/>
      </g>
     </g>
    </g>
    <g id="ytick_32">
     <g id="line2d_53">
      <g>
       <use style="stroke:#000000;stroke-width:0.6;" x="62.718125" xlink:href="#m5d17efa287" y="166.615264"/>
      </g>
     </g>
    </g>
    <g id="ytick_33">
     <g id="line2d_54">
      <g>
       <use style="stroke:#000000;stroke-width:0.6;" x="62.718125" xlink:href="#m5d17efa287" y="165.224939"/>
      </g>
     </g>
    </g>
    <g id="ytick_34">
     <g id="line2d_55">
      <g>
       <use style="stroke:#000000;stroke-width:0.6;" x="62.718125" xlink:href="#m5d17efa287" y="155.799255"/>
      </g>
     </g>
    </g>
    <g id="ytick_35">
     <g id="line2d_56">
      <g>
       <use style="stroke:#000000;stroke-width:0.6;" x="62.718125" xlink:href="#m5d17efa287" y="151.013094"/>
      </g>
     </g>
    </g>
    <g id="ytick_36">
     <g id="line2d_57">
      <g>
       <use style="stroke:#000000;stroke-width:0.6;" x="62.718125" xlink:href="#m5d17efa287" y="147.617259"/>
      </g>
     </g>
    </g>
    <g id="ytick_37">
     <g id="line2d_58">
      <g>
       <use style="stroke:#000000;stroke-width:0.6;" x="62.718125" xlink:href="#m5d17efa287" y="144.983245"/>
      </g>
     </g>
    </g>
    <g id="ytick_38">
     <g id="line2d_59">
      <g>
       <use style="stroke:#000000;stroke-width:0.6;" x="62.718125" xlink:href="#m5d17efa287" y="142.831099"/>
      </g>
     </g>
    </g>
    <g id="ytick_39">
     <g id="line2d_60">
      <g>
       <use style="stroke:#000000;stroke-width:0.6;" x="62.718125" xlink:href="#m5d17efa287" y="141.011485"/>
      </g>
     </g>
    </g>
    <g id="ytick_40">
     <g id="line2d_61">
      <g>
       <use style="stroke:#000000;stroke-width:0.6;" x="62.718125" xlink:href="#m5d17efa287" y="139.435264"/>
      </g>
     </g>
    </g>
    <g id="ytick_41">
     <g id="line2d_62">
      <g>
       <use style="stroke:#000000;stroke-width:0.6;" x="62.718125" xlink:href="#m5d17efa287" y="138.044939"/>
      </g>
     </g>
    </g>
    <g id="ytick_42">
     <g id="line2d_63">
      <g>
       <use style="stroke:#000000;stroke-width:0.6;" x="62.718125" xlink:href="#m5d17efa287" y="128.619255"/>
      </g>
     </g>
    </g>
    <g id="ytick_43">
     <g id="line2d_64">
      <g>
       <use style="stroke:#000000;stroke-width:0.6;" x="62.718125" xlink:href="#m5d17efa287" y="123.833094"/>
      </g>
     </g>
    </g>
    <g id="ytick_44">
     <g id="line2d_65">
      <g>
       <use style="stroke:#000000;stroke-width:0.6;" x="62.718125" xlink:href="#m5d17efa287" y="120.437259"/>
      </g>
     </g>
    </g>
    <g id="ytick_45">
     <g id="line2d_66">
      <g>
       <use style="stroke:#000000;stroke-width:0.6;" x="62.718125" xlink:href="#m5d17efa287" y="117.803245"/>
      </g>
     </g>
    </g>
    <g id="ytick_46">
     <g id="line2d_67">
      <g>
       <use style="stroke:#000000;stroke-width:0.6;" x="62.718125" xlink:href="#m5d17efa287" y="115.651099"/>
      </g>
     </g>
    </g>
    <g id="ytick_47">
     <g id="line2d_68">
      <g>
       <use style="stroke:#000000;stroke-width:0.6;" x="62.718125" xlink:href="#m5d17efa287" y="113.831485"/>
      </g>
     </g>
    </g>
    <g id="ytick_48">
     <g id="line2d_69">
      <g>
       <use style="stroke:#000000;stroke-width:0.6;" x="62.718125" xlink:href="#m5d17efa287" y="112.255264"/>
      </g>
     </g>
    </g>
    <g id="ytick_49">
     <g id="line2d_70">
      <g>
       <use style="stroke:#000000;stroke-width:0.6;" x="62.718125" xlink:href="#m5d17efa287" y="110.864939"/>
      </g>
     </g>
    </g>
    <g id="ytick_50">
     <g id="line2d_71">
      <g>
       <use style="stroke:#000000;stroke-width:0.6;" x="62.718125" xlink:href="#m5d17efa287" y="101.439255"/>
      </g>
     </g>
    </g>
    <g id="ytick_51">
     <g id="line2d_72">
      <g>
       <use style="stroke:#000000;stroke-width:0.6;" x="62.718125" xlink:href="#m5d17efa287" y="96.653094"/>
      </g>
     </g>
    </g>
    <g id="ytick_52">
     <g id="line2d_73">
      <g>
       <use style="stroke:#000000;stroke-width:0.6;" x="62.718125" xlink:href="#m5d17efa287" y="93.257259"/>
      </g>
     </g>
    </g>
    <g id="ytick_53">
     <g id="line2d_74">
      <g>
       <use style="stroke:#000000;stroke-width:0.6;" x="62.718125" xlink:href="#m5d17efa287" y="90.623245"/>
      </g>
     </g>
    </g>
    <g id="ytick_54">
     <g id="line2d_75">
      <g>
       <use style="stroke:#000000;stroke-width:0.6;" x="62.718125" xlink:href="#m5d17efa287" y="88.471099"/>
      </g>
     </g>
    </g>
    <g id="ytick_55">
     <g id="line2d_76">
      <g>
       <use style="stroke:#000000;stroke-width:0.6;" x="62.718125" xlink:href="#m5d17efa287" y="86.651485"/>
      </g>
     </g>
    </g>
    <g id="ytick_56">
     <g id="line2d_77">
      <g>
       <use style="stroke:#000000;stroke-width:0.6;" x="62.718125" xlink:href="#m5d17efa287" y="85.075264"/>
      </g>
     </g>
    </g>
    <g id="ytick_57">
     <g id="line2d_78">
      <g>
       <use style="stroke:#000000;stroke-width:0.6;" x="62.718125" xlink:href="#m5d17efa287" y="83.684939"/>
      </g>
     </g>
    </g>
    <g id="ytick_58">
     <g id="line2d_79">
      <g>
       <use style="stroke:#000000;stroke-width:0.6;" x="62.718125" xlink:href="#m5d17efa287" y="74.259255"/>
      </g>
     </g>
    </g>
    <g id="ytick_59">
     <g id="line2d_80">
      <g>
       <use style="stroke:#000000;stroke-width:0.6;" x="62.718125" xlink:href="#m5d17efa287" y="69.473094"/>
      </g>
     </g>
    </g>
    <g id="ytick_60">
     <g id="line2d_81">
      <g>
       <use style="stroke:#000000;stroke-width:0.6;" x="62.718125" xlink:href="#m5d17efa287" y="66.077259"/>
      </g>
     </g>
    </g>
    <g id="ytick_61">
     <g id="line2d_82">
      <g>
       <use style="stroke:#000000;stroke-width:0.6;" x="62.718125" xlink:href="#m5d17efa287" y="63.443245"/>
      </g>
     </g>
    </g>
    <g id="ytick_62">
     <g id="line2d_83">
      <g>
       <use style="stroke:#000000;stroke-width:0.6;" x="62.718125" xlink:href="#m5d17efa287" y="61.291099"/>
      </g>
     </g>
    </g>
    <g id="ytick_63">
     <g id="line2d_84">
      <g>
       <use style="stroke:#000000;stroke-width:0.6;" x="62.718125" xlink:href="#m5d17efa287" y="59.471485"/>
      </g>
     </g>
    </g>
    <g id="ytick_64">
     <g id="line2d_85">
      <g>
       <use style="stroke:#000000;stroke-width:0.6;" x="62.718125" xlink:href="#m5d17efa287" y="57.895264"/>
      </g>
     </g>
    </g>
    <g id="ytick_65">
     <g id="line2d_86">
      <g>
       <use style="stroke:#000000;stroke-width:0.6;" x="62.718125" xlink:href="#m5d17efa287" y="56.504939"/>
      </g>
     </g>
    </g>
    <g id="ytick_66">
     <g id="line2d_87">
      <g>
       <use style="stroke:#000000;stroke-width:0.6;" x="62.718125" xlink:href="#m5d17efa287" y="47.079255"/>
      </g>
     </g>
    </g>
    <g id="ytick_67">
     <g id="line2d_88">
      <g>
       <use style="stroke:#000000;stroke-width:0.6;" x="62.718125" xlink:href="#m5d17efa287" y="42.293094"/>
      </g>
     </g>
    </g>
    <g id="ytick_68">
     <g id="line2d_89">
      <g>
       <use style="stroke:#000000;stroke-width:0.6;" x="62.718125" xlink:href="#m5d17efa287" y="38.897259"/>
      </g>
     </g>
    </g>
    <g id="ytick_69">
     <g id="line2d_90">
      <g>
       <use style="stroke:#000000;stroke-width:0.6;" x="62.718125" xlink:href="#m5d17efa287" y="36.263245"/>
      </g>
     </g>
    </g>
    <g id="ytick_70">
     <g id="line2d_91">
      <g>
       <use style="stroke:#000000;stroke-width:0.6;" x="62.718125" xlink:href="#m5d17efa287" y="34.111099"/>
      </g>
     </g>
    </g>
    <g id="ytick_71">
     <g id="line2d_92">
      <g>
       <use style="stroke:#000000;stroke-width:0.6;" x="62.718125" xlink:href="#m5d17efa287" y="32.291485"/>
      </g>
     </g>
    </g>
    <g id="ytick_72">
     <g id="line2d_93">
      <g>
       <use style="stroke:#000000;stroke-width:0.6;" x="62.718125" xlink:href="#m5d17efa287" y="30.715264"/>
      </g>
     </g>
    </g>
    <g id="ytick_73">
     <g id="line2d_94">
      <g>
       <use style="stroke:#000000;stroke-width:0.6;" x="62.718125" xlink:href="#m5d17efa287" y="29.324939"/>
      </g>
     </g>
    </g>
    <g id="text_17">
     <!-- $p$ [$Pa$] -->
     <defs>
      <path d="M 16.90625 48.203125 
L 2.703125 45.203125 
L 2.703125 42.703125 
L 10.5 41.703125 
L 0 -16.5 
L -1 -17.59375 
L -6.90625 -18.796875 
L -6.90625 -21.796875 
L 17.09375 -21.796875 
L 17.09375 -18.796875 
L 7.59375 -17.09375 
L 10.90625 1.5 
C 13.40625 0.296875 16 -0.40625 18.59375 -0.40625 
C 25.40625 -0.40625 32.5 2.90625 37.59375 8.5 
C 43.296875 14.796875 46.09375 22.09375 46.09375 30.796875 
C 46.09375 42.09375 41.296875 48.203125 33.40625 48.203125 
C 29.09375 48.203125 24.09375 46.203125 18.296875 42.09375 
L 19.5 48.203125 
z
M 11.90625 6.703125 
L 17.59375 37.703125 
C 22.09375 41.203125 25.796875 43 28.796875 43 
C 34.203125 43 37.796875 38.5 37.796875 30.59375 
C 37.796875 22.59375 35 14.5 31.703125 10.09375 
C 28.59375 6 24.90625 4 20.5 4 
C 17.703125 4 14.90625 4.90625 11.90625 6.703125 
z
" id="Charter-Italic-112"/>
      <path d="M 8.40625 67.09375 
L 8.40625 63.296875 
L 14.796875 62.796875 
L 15.90625 61.296875 
L 5.203125 5.796875 
L 3.59375 4.40625 
L -2.796875 3.796875 
L -2.796875 0 
L 20.90625 0 
L 20.90625 3.796875 
L 14.5 4.40625 
L 13.796875 5.796875 
L 17.59375 25.40625 
C 20.296875 25.296875 22.296875 25.203125 23.796875 25.203125 
C 42.59375 25.203125 54.296875 36.09375 54.296875 51.296875 
C 54.296875 57.703125 50.5 63.203125 44.703125 65.296875 
C 40 67 35.09375 67.09375 29.703125 67.09375 
z
M 24.796875 62.59375 
C 26.203125 62.703125 27.59375 62.796875 28.90625 62.796875 
C 39.90625 62.796875 45 58.796875 45 49.703125 
C 45 37.296875 36.90625 29.90625 22.59375 29.90625 
C 21.296875 29.90625 19.90625 30 18.5 30.09375 
z
" id="Charter-Italic-80"/>
      <path d="M 41 48.203125 
L 39 46 
C 35.90625 47.5 32.796875 48.203125 30 48.203125 
C 20.09375 48.203125 12 43.5 6.90625 35.09375 
C 3.5 29.5 1.703125 23.296875 1.703125 16.59375 
C 1.703125 5.59375 7 -0.90625 15.5 -0.90625 
C 20.296875 -0.90625 25.09375 1.90625 30.40625 7.5 
C 30.40625 7.203125 30.40625 7 30.40625 6.703125 
C 30.40625 1.59375 32.296875 -0.90625 36.5 -0.90625 
C 39.203125 -0.90625 43.296875 0.296875 48.796875 2.59375 
L 48.796875 5.59375 
C 46.09375 5 44.296875 4.59375 43.203125 4.59375 
C 39.5 4.59375 37.796875 6 37.796875 9.203125 
C 37.796875 10.59375 38.09375 12.90625 38.796875 16.203125 
L 42.40625 33.90625 
C 43.90625 41.296875 45.203125 46.09375 46.203125 48.203125 
z
M 31.703125 44.296875 
L 35.703125 38.203125 
L 30.5 11.796875 
C 26.40625 7.40625 22.5 5.203125 18.703125 5.203125 
C 12.90625 5.203125 10 9.203125 10 17.203125 
C 10 33.09375 18.59375 44.296875 30.296875 44.296875 
C 30.796875 44.296875 31.203125 44.296875 31.703125 44.296875 
z
" id="Charter-Italic-97"/>
     </defs>
     <g transform="translate(21.878125 163.90125)rotate(-90)scale(0.2 -0.2)">
      <use transform="translate(0 0.203125)" xlink:href="#Charter-Italic-112"/>
      <use transform="translate(51.599991 0.203125)" xlink:href="#Charter-32"/>
      <use transform="translate(79.399979 0.203125)" xlink:href="#Charter-91"/>
      <use transform="translate(121.499969 0.203125)" xlink:href="#Charter-Italic-80"/>
      <use transform="translate(175.699966 0.203125)" xlink:href="#Charter-Italic-97"/>
      <use transform="translate(228.199951 0.203125)" xlink:href="#Charter-93"/>
     </g>
    </g>
   </g>
   <g id="line2d_95">
    <path clip-path="url(#pa715728b12)" d="M 62.718125 82.285872 
L 732.318125 82.285872 
" style="fill:none;stroke:#000000;stroke-dasharray:7.4,3.2;stroke-dashoffset:0;stroke-width:2;"/>
   </g>
   <g id="line2d_96">
    <path clip-path="url(#pa715728b12)" d="M 93.154489 82.289703 
L 99.303249 82.289703 
L 105.452009 82.2897 
L 111.60077 82.289696 
L 117.74953 82.289691 
L 123.89829 82.289684 
L 130.047051 82.289675 
L 136.195811 82.289665 
L 142.344571 82.289653 
L 148.493332 82.28964 
L 154.642092 82.289625 
L 160.790852 82.289609 
L 166.939613 82.289591 
L 173.088373 82.289571 
L 179.237133 82.28955 
L 185.385894 82.289528 
L 191.534654 82.289503 
L 197.683414 82.289478 
L 203.832175 82.28945 
L 209.980935 82.289421 
L 216.129695 82.289391 
L 222.278456 82.289359 
L 228.427216 82.289325 
L 234.575976 82.28929 
L 240.724737 82.289253 
L 246.873497 82.289215 
L 253.022257 82.289175 
L 259.171018 82.289134 
L 265.319778 82.289091 
L 271.468538 82.289046 
L 277.617299 82.289 
L 283.766059 82.288952 
L 289.914819 82.288903 
L 296.06358 82.288852 
L 302.21234 82.2888 
L 308.3611 82.288746 
L 314.509861 82.288691 
L 320.658621 82.288633 
L 326.807381 82.288575 
L 332.956142 82.288515 
L 339.104902 82.288453 
L 345.253662 82.28839 
L 351.402423 82.288325 
L 357.551183 82.288258 
L 363.699943 82.28819 
L 369.848704 82.288121 
L 375.997464 82.28805 
L 382.146224 82.287977 
L 388.294985 82.287903 
L 394.443745 82.287827 
L 400.592505 82.287749 
L 406.741265 82.28767 
L 412.890026 82.28759 
L 419.038786 82.287508 
L 425.187546 82.287424 
L 431.336307 82.287339 
L 437.485067 82.287252 
L 443.633827 82.287164 
L 449.782588 82.287074 
L 455.931348 82.286983 
L 462.080108 82.28689 
L 468.228869 82.286795 
L 474.377629 82.286699 
L 480.526389 82.286601 
L 486.67515 82.286502 
L 492.82391 82.286401 
L 498.97267 82.286299 
L 505.121431 82.286195 
L 511.270191 82.286089 
L 517.418951 82.285982 
L 523.567712 82.285873 
L 529.716472 82.285763 
L 535.865232 82.285651 
L 542.013993 82.285538 
L 548.162753 82.285423 
L 554.311513 82.285307 
L 560.460274 82.285189 
L 566.609034 82.285069 
L 572.757794 82.284948 
L 578.906555 82.284825 
L 585.055315 82.284701 
L 591.204075 82.284575 
L 597.352836 82.284448 
L 603.501596 82.284319 
L 609.650356 82.284188 
L 615.799117 82.284056 
L 621.947877 82.283922 
L 628.096637 82.283787 
L 634.245398 82.28365 
L 640.394158 82.283512 
L 646.542918 82.283372 
L 652.691679 82.283231 
L 658.840439 82.283088 
L 664.989199 82.282943 
L 671.13796 82.282797 
L 677.28672 82.282649 
L 683.43548 82.2825 
L 689.584241 82.282349 
L 695.733001 82.282197 
L 701.881761 82.282043 
" style="fill:none;stroke:#e1e1e1;stroke-linecap:square;"/>
    <defs>
     <path d="M 0 2.5 
C 0.663008 2.5 1.29895 2.236584 1.767767 1.767767 
C 2.236584 1.29895 2.5 0.663008 2.5 0 
C 2.5 -0.663008 2.236584 -1.29895 1.767767 -1.767767 
C 1.29895 -2.236584 0.663008 -2.5 0 -2.5 
C -0.663008 -2.5 -1.29895 -2.236584 -1.767767 -1.767767 
C -2.236584 -1.29895 -2.5 -0.663008 -2.5 0 
C -2.5 0.663008 -2.236584 1.29895 -1.767767 1.767767 
C -1.29895 2.236584 -0.663008 2.5 0 2.5 
z
" id="mb18bac1357" style="stroke:#e1e1e1;"/>
    </defs>
    <g clip-path="url(#pa715728b12)">
     <use style="fill:#e1e1e1;stroke:#e1e1e1;" x="93.154489" xlink:href="#mb18bac1357" y="82.289703"/>
     <use style="fill:#e1e1e1;stroke:#e1e1e1;" x="154.642092" xlink:href="#mb18bac1357" y="82.289625"/>
     <use style="fill:#e1e1e1;stroke:#e1e1e1;" x="216.129695" xlink:href="#mb18bac1357" y="82.289391"/>
     <use style="fill:#e1e1e1;stroke:#e1e1e1;" x="277.617299" xlink:href="#mb18bac1357" y="82.289"/>
     <use style="fill:#e1e1e1;stroke:#e1e1e1;" x="339.104902" xlink:href="#mb18bac1357" y="82.288453"/>
     <use style="fill:#e1e1e1;stroke:#e1e1e1;" x="400.592505" xlink:href="#mb18bac1357" y="82.287749"/>
     <use style="fill:#e1e1e1;stroke:#e1e1e1;" x="462.080108" xlink:href="#mb18bac1357" y="82.28689"/>
     <use style="fill:#e1e1e1;stroke:#e1e1e1;" x="523.567712" xlink:href="#mb18bac1357" y="82.285873"/>
     <use style="fill:#e1e1e1;stroke:#e1e1e1;" x="585.055315" xlink:href="#mb18bac1357" y="82.284701"/>
     <use style="fill:#e1e1e1;stroke:#e1e1e1;" x="646.542918" xlink:href="#mb18bac1357" y="82.283372"/>
    </g>
   </g>
   <g id="line2d_97">
    <path clip-path="url(#pa715728b12)" d="M 93.154489 93.11498 
L 99.303249 93.113032 
L 105.452009 93.107188 
L 111.60077 93.097448 
L 117.74953 93.083812 
L 123.89829 93.066281 
L 130.047051 93.044853 
L 136.195811 93.019529 
L 142.344571 92.990309 
L 148.493332 92.957193 
L 154.642092 92.920181 
L 160.790852 92.879272 
L 166.939613 92.834466 
L 173.088373 92.785764 
L 179.237133 92.733165 
L 185.385894 92.676669 
L 191.534654 92.616276 
L 197.683414 92.551985 
L 203.832175 92.483797 
L 209.980935 92.411712 
L 216.129695 92.335728 
L 222.278456 92.255846 
L 228.427216 92.172066 
L 234.575976 92.084387 
L 240.724737 91.99281 
L 246.873497 91.897333 
L 253.022257 91.797957 
L 259.171018 91.694681 
L 265.319778 91.587505 
L 271.468538 91.476429 
L 277.617299 91.361452 
L 283.766059 91.242574 
L 289.914819 91.119795 
L 296.06358 90.993114 
L 302.21234 90.862531 
L 308.3611 90.728046 
L 314.509861 90.589657 
L 320.658621 90.447366 
L 326.807381 90.301171 
L 332.956142 90.151071 
L 339.104902 89.997067 
L 345.253662 89.839158 
L 351.402423 89.677344 
L 357.551183 89.511623 
L 363.699943 89.341996 
L 369.848704 89.168462 
L 375.997464 88.991021 
L 382.146224 88.809671 
L 388.294985 88.624413 
L 394.443745 88.435245 
L 400.592505 88.242168 
L 406.741265 88.045181 
L 412.890026 87.844282 
L 419.038786 87.639472 
L 425.187546 87.43075 
L 431.336307 87.218115 
L 437.485067 87.001566 
L 443.633827 86.781104 
L 449.782588 86.556726 
L 455.931348 86.328433 
L 462.080108 86.096224 
L 468.228869 85.860098 
L 474.377629 85.620054 
L 480.526389 85.376091 
L 486.67515 85.12821 
L 492.82391 84.876408 
L 498.97267 84.620686 
L 505.121431 84.361042 
L 511.270191 84.097475 
L 517.418951 83.829985 
L 523.567712 83.558571 
L 529.716472 83.283232 
L 535.865232 83.003968 
L 542.013993 82.720776 
L 548.162753 82.433657 
L 554.311513 82.142608 
L 560.460274 81.847631 
L 566.609034 81.548723 
L 572.757794 81.245883 
L 578.906555 80.939111 
L 585.055315 80.628405 
L 591.204075 80.313764 
L 597.352836 79.995188 
L 603.501596 79.672676 
L 609.650356 79.346225 
L 615.799117 79.015836 
L 621.947877 78.681507 
L 628.096637 78.343237 
L 634.245398 78.001024 
L 640.394158 77.654868 
L 646.542918 77.304767 
L 652.691679 76.950721 
L 658.840439 76.592728 
L 664.989199 76.230786 
L 671.13796 75.864895 
L 677.28672 75.495053 
L 683.43548 75.121259 
L 689.584241 74.743512 
L 695.733001 74.36181 
L 701.881761 73.976152 
" style="fill:none;stroke:#c9c9c9;stroke-linecap:square;stroke-width:2;"/>
    <defs>
     <path d="M -3 -0 
L 3 3 
L 3 -3 
z
" id="ma4db1778f3" style="stroke:#c9c9c9;stroke-linejoin:miter;"/>
    </defs>
    <g clip-path="url(#pa715728b12)">
     <use style="fill:#c9c9c9;stroke:#c9c9c9;stroke-linejoin:miter;" x="93.154489" xlink:href="#ma4db1778f3" y="93.11498"/>
     <use style="fill:#c9c9c9;stroke:#c9c9c9;stroke-linejoin:miter;" x="154.642092" xlink:href="#ma4db1778f3" y="92.920181"/>
     <use style="fill:#c9c9c9;stroke:#c9c9c9;stroke-linejoin:miter;" x="216.129695" xlink:href="#ma4db1778f3" y="92.335728"/>
     <use style="fill:#c9c9c9;stroke:#c9c9c9;stroke-linejoin:miter;" x="277.617299" xlink:href="#ma4db1778f3" y="91.361452"/>
     <use style="fill:#c9c9c9;stroke:#c9c9c9;stroke-linejoin:miter;" x="339.104902" xlink:href="#ma4db1778f3" y="89.997067"/>
     <use style="fill:#c9c9c9;stroke:#c9c9c9;stroke-linejoin:miter;" x="400.592505" xlink:href="#ma4db1778f3" y="88.242168"/>
     <use style="fill:#c9c9c9;stroke:#c9c9c9;stroke-linejoin:miter;" x="462.080108" xlink:href="#ma4db1778f3" y="86.096224"/>
     <use style="fill:#c9c9c9;stroke:#c9c9c9;stroke-linejoin:miter;" x="523.567712" xlink:href="#ma4db1778f3" y="83.558571"/>
     <use style="fill:#c9c9c9;stroke:#c9c9c9;stroke-linejoin:miter;" x="585.055315" xlink:href="#ma4db1778f3" y="80.628405"/>
     <use style="fill:#c9c9c9;stroke:#c9c9c9;stroke-linejoin:miter;" x="646.542918" xlink:href="#ma4db1778f3" y="77.304767"/>
    </g>
   </g>
   <g id="line2d_98">
    <path clip-path="url(#pa715728b12)" d="M 93.154489 136.343506 
L 99.303249 136.335797 
L 105.452009 136.312671 
L 111.60077 136.274127 
L 117.74953 136.220166 
L 123.89829 136.150787 
L 130.047051 136.065989 
L 136.195811 135.965772 
L 142.344571 135.850134 
L 148.493332 135.719076 
L 154.642092 135.572596 
L 160.790852 135.410693 
L 166.939613 135.233365 
L 173.088373 135.040612 
L 179.237133 134.832432 
L 185.385894 134.608822 
L 191.534654 134.369783 
L 197.683414 134.115311 
L 203.832175 133.845405 
L 209.980935 133.560063 
L 216.129695 133.259282 
L 222.278456 132.94306 
L 228.427216 132.611395 
L 234.575976 132.264284 
L 240.724737 131.901724 
L 246.873497 131.523712 
L 253.022257 131.130245 
L 259.171018 130.721321 
L 265.319778 130.296935 
L 271.468538 129.857084 
L 277.617299 129.401765 
L 283.766059 128.930974 
L 289.914819 128.444707 
L 296.06358 127.94296 
L 302.21234 127.425728 
L 308.3611 126.893007 
L 314.509861 126.344793 
L 320.658621 125.781081 
L 326.807381 125.201866 
L 332.956142 124.607142 
L 339.104902 123.996905 
L 345.253662 123.371149 
L 351.402423 122.729869 
L 357.551183 122.073058 
L 363.699943 121.400711 
L 369.848704 120.712821 
L 375.997464 120.009382 
L 382.146224 119.290387 
L 388.294985 118.555829 
L 394.443745 117.805702 
L 400.592505 117.039998 
L 406.741265 116.258709 
L 412.890026 115.461828 
L 419.038786 114.649347 
L 425.187546 113.821257 
L 431.336307 112.97755 
L 437.485067 112.118218 
L 443.633827 111.24325 
L 449.782588 110.352639 
L 455.931348 109.446374 
L 462.080108 108.524446 
L 468.228869 107.586844 
L 474.377629 106.633558 
L 480.526389 105.664578 
L 486.67515 104.679893 
L 492.82391 103.67949 
L 498.97267 102.663359 
L 505.121431 101.631488 
L 511.270191 100.583864 
L 517.418951 99.520475 
L 523.567712 98.441308 
L 529.716472 97.346349 
L 535.865232 96.235585 
L 542.013993 95.109001 
L 548.162753 93.966584 
L 554.311513 92.808319 
L 560.460274 91.634189 
L 566.609034 90.444181 
L 572.757794 89.238277 
L 578.906555 88.016461 
L 585.055315 86.778717 
L 591.204075 85.525027 
L 597.352836 84.255373 
L 603.501596 82.969737 
L 609.650356 81.668101 
L 615.799117 80.350445 
L 621.947877 79.01675 
L 628.096637 77.666995 
L 634.245398 76.301161 
L 640.394158 74.919225 
L 646.542918 73.521167 
L 652.691679 72.106963 
L 658.840439 70.676593 
L 664.989199 69.230031 
L 671.13796 67.767255 
L 677.28672 66.28824 
L 683.43548 64.792962 
L 689.584241 63.281394 
L 695.733001 61.753511 
L 701.881761 60.209286 
" style="fill:none;stroke:#929292;stroke-linecap:square;stroke-width:3;"/>
    <defs>
     <path d="M -3.5 3.5 
L 3.5 3.5 
L 3.5 -3.5 
L -3.5 -3.5 
z
" id="m4df0ca34f8" style="stroke:#929292;stroke-linejoin:miter;"/>
    </defs>
    <g clip-path="url(#pa715728b12)">
     <use style="fill:#929292;stroke:#929292;stroke-linejoin:miter;" x="93.154489" xlink:href="#m4df0ca34f8" y="136.343506"/>
     <use style="fill:#929292;stroke:#929292;stroke-linejoin:miter;" x="154.642092" xlink:href="#m4df0ca34f8" y="135.572596"/>
     <use style="fill:#929292;stroke:#929292;stroke-linejoin:miter;" x="216.129695" xlink:href="#m4df0ca34f8" y="133.259282"/>
     <use style="fill:#929292;stroke:#929292;stroke-linejoin:miter;" x="277.617299" xlink:href="#m4df0ca34f8" y="129.401765"/>
     <use style="fill:#929292;stroke:#929292;stroke-linejoin:miter;" x="339.104902" xlink:href="#m4df0ca34f8" y="123.996905"/>
     <use style="fill:#929292;stroke:#929292;stroke-linejoin:miter;" x="400.592505" xlink:href="#m4df0ca34f8" y="117.039998"/>
     <use style="fill:#929292;stroke:#929292;stroke-linejoin:miter;" x="462.080108" xlink:href="#m4df0ca34f8" y="108.524446"/>
     <use style="fill:#929292;stroke:#929292;stroke-linejoin:miter;" x="523.567712" xlink:href="#m4df0ca34f8" y="98.441308"/>
     <use style="fill:#929292;stroke:#929292;stroke-linejoin:miter;" x="585.055315" xlink:href="#m4df0ca34f8" y="86.778717"/>
     <use style="fill:#929292;stroke:#929292;stroke-linejoin:miter;" x="646.542918" xlink:href="#m4df0ca34f8" y="73.521167"/>
    </g>
   </g>
   <g id="line2d_99">
    <path clip-path="url(#pa715728b12)" d="M 93.154489 220.754164 
L 99.303249 220.736992 
L 105.452009 220.685476 
L 111.60077 220.599618 
L 117.74953 220.479417 
L 123.89829 220.32487 
L 130.047051 220.135978 
L 136.195811 219.912739 
L 142.344571 219.655152 
L 148.493332 219.363214 
L 154.642092 219.036925 
L 160.790852 218.676281 
L 166.939613 218.28128 
L 173.088373 217.85192 
L 179.237133 217.388198 
L 185.385894 216.890111 
L 191.534654 216.357654 
L 197.683414 215.790825 
L 203.832175 215.189619 
L 209.980935 214.554032 
L 216.129695 213.88406 
L 222.278456 213.179697 
L 228.427216 212.440939 
L 234.575976 211.667779 
L 240.724737 210.860212 
L 246.873497 210.018231 
L 253.022257 209.141831 
L 259.171018 208.231004 
L 265.319778 207.285742 
L 271.468538 206.306039 
L 277.617299 205.291885 
L 283.766059 204.243273 
L 289.914819 203.160193 
L 296.06358 202.042635 
L 302.21234 200.89059 
L 308.3611 199.704048 
L 314.509861 198.482996 
L 320.658621 197.227424 
L 326.807381 195.937319 
L 332.956142 194.612668 
L 339.104902 193.253459 
L 345.253662 191.859677 
L 351.402423 190.431307 
L 357.551183 188.968334 
L 363.699943 187.470742 
L 369.848704 185.938513 
L 375.997464 184.37163 
L 382.146224 182.770074 
L 388.294985 181.133826 
L 394.443745 179.462865 
L 400.592505 177.757169 
L 406.741265 176.016717 
L 412.890026 174.241484 
L 419.038786 172.431446 
L 425.187546 170.586577 
L 431.336307 168.70685 
L 437.485067 166.792237 
L 443.633827 164.842707 
L 449.782588 162.85823 
L 455.931348 160.838773 
L 462.080108 158.784303 
L 468.228869 156.694782 
L 474.377629 154.570174 
L 480.526389 152.41044 
L 486.67515 150.215538 
L 492.82391 147.985427 
L 498.97267 145.72006 
L 505.121431 143.419391 
L 511.270191 141.08337 
L 517.418951 138.711946 
L 523.567712 136.305065 
L 529.716472 133.862671 
L 535.865232 131.384704 
L 542.013993 128.871103 
L 548.162753 126.321804 
L 554.311513 123.736738 
L 560.460274 121.115836 
L 566.609034 118.459023 
L 572.757794 115.766223 
L 578.906555 113.037355 
L 585.055315 110.272335 
L 591.204075 107.471076 
L 597.352836 104.633485 
L 603.501596 101.759469 
L 609.650356 98.848926 
L 615.799117 95.901754 
L 621.947877 92.917844 
L 628.096637 89.897084 
L 634.245398 86.839357 
L 640.394158 83.74454 
L 646.542918 80.612508 
L 652.691679 77.443129 
L 658.840439 74.236266 
L 664.989199 70.991777 
L 671.13796 67.709517 
L 677.28672 64.389332 
L 683.43548 61.031066 
L 689.584241 57.634555 
L 695.733001 54.199632 
L 701.881761 50.726124 
" style="fill:none;stroke:#4b4b4b;stroke-linecap:square;stroke-width:4;"/>
    <defs>
     <path d="M -0 5.656854 
L 3.394113 0 
L 0 -5.656854 
L -3.394113 -0 
z
" id="m3ecbc159c4" style="stroke:#4b4b4b;stroke-linejoin:miter;"/>
    </defs>
    <g clip-path="url(#pa715728b12)">
     <use style="fill:#4b4b4b;stroke:#4b4b4b;stroke-linejoin:miter;" x="93.154489" xlink:href="#m3ecbc159c4" y="220.754164"/>
     <use style="fill:#4b4b4b;stroke:#4b4b4b;stroke-linejoin:miter;" x="154.642092" xlink:href="#m3ecbc159c4" y="219.036925"/>
     <use style="fill:#4b4b4b;stroke:#4b4b4b;stroke-linejoin:miter;" x="216.129695" xlink:href="#m3ecbc159c4" y="213.88406"/>
     <use style="fill:#4b4b4b;stroke:#4b4b4b;stroke-linejoin:miter;" x="277.617299" xlink:href="#m3ecbc159c4" y="205.291885"/>
     <use style="fill:#4b4b4b;stroke:#4b4b4b;stroke-linejoin:miter;" x="339.104902" xlink:href="#m3ecbc159c4" y="193.253459"/>
     <use style="fill:#4b4b4b;stroke:#4b4b4b;stroke-linejoin:miter;" x="400.592505" xlink:href="#m3ecbc159c4" y="177.757169"/>
     <use style="fill:#4b4b4b;stroke:#4b4b4b;stroke-linejoin:miter;" x="462.080108" xlink:href="#m3ecbc159c4" y="158.784303"/>
     <use style="fill:#4b4b4b;stroke:#4b4b4b;stroke-linejoin:miter;" x="523.567712" xlink:href="#m3ecbc159c4" y="136.305065"/>
     <use style="fill:#4b4b4b;stroke:#4b4b4b;stroke-linejoin:miter;" x="585.055315" xlink:href="#m3ecbc159c4" y="110.272335"/>
     <use style="fill:#4b4b4b;stroke:#4b4b4b;stroke-linejoin:miter;" x="646.542918" xlink:href="#m3ecbc159c4" y="80.612508"/>
    </g>
   </g>
   <g id="line2d_100">
    <path clip-path="url(#pa715728b12)" d="M 93.154489 82.289856 
L 99.303249 82.289855 
L 105.452009 82.289853 
L 111.60077 82.289849 
L 117.74953 82.289843 
L 123.89829 82.289836 
L 130.047051 82.289827 
L 136.195811 82.289816 
L 142.344571 82.289804 
L 148.493332 82.28979 
L 154.642092 82.289775 
L 160.790852 82.289758 
L 166.939613 82.289739 
L 173.088373 82.289719 
L 179.237133 82.289697 
L 185.385894 82.289673 
L 191.534654 82.289648 
L 197.683414 82.289621 
L 203.832175 82.289593 
L 209.980935 82.289563 
L 216.129695 82.289531 
L 222.278456 82.289498 
L 228.427216 82.289463 
L 234.575976 82.289426 
L 240.724737 82.289388 
L 246.873497 82.289348 
L 253.022257 82.289307 
L 259.171018 82.289264 
L 265.319778 82.289219 
L 271.468538 82.289172 
L 277.617299 82.289125 
L 283.766059 82.289075 
L 289.914819 82.289024 
L 296.06358 82.288971 
L 302.21234 82.288916 
L 308.3611 82.28886 
L 314.509861 82.288803 
L 320.658621 82.288743 
L 326.807381 82.288682 
L 332.956142 82.28862 
L 339.104902 82.288556 
L 345.253662 82.28849 
L 351.402423 82.288422 
L 357.551183 82.288353 
L 363.699943 82.288282 
L 369.848704 82.28821 
L 375.997464 82.288136 
L 382.146224 82.28806 
L 388.294985 82.287983 
L 394.443745 82.287904 
L 400.592505 82.287824 
L 406.741265 82.287742 
L 412.890026 82.287658 
L 419.038786 82.287573 
L 425.187546 82.287486 
L 431.336307 82.287397 
L 437.485067 82.287307 
L 443.633827 82.287215 
L 449.782588 82.287122 
L 455.931348 82.287027 
L 462.080108 82.28693 
L 468.228869 82.286831 
L 474.377629 82.286731 
L 480.526389 82.28663 
L 486.67515 82.286527 
L 492.82391 82.286422 
L 498.97267 82.286315 
L 505.121431 82.286207 
L 511.270191 82.286097 
L 517.418951 82.285986 
L 523.567712 82.285873 
L 529.716472 82.285758 
L 535.865232 82.285642 
L 542.013993 82.285524 
L 548.162753 82.285405 
L 554.311513 82.285284 
L 560.460274 82.285161 
L 566.609034 82.285037 
L 572.757794 82.284911 
L 578.906555 82.284783 
L 585.055315 82.284654 
L 591.204075 82.284523 
L 597.352836 82.28439 
L 603.501596 82.284256 
L 609.650356 82.284121 
L 615.799117 82.283983 
L 621.947877 82.283844 
L 628.096637 82.283704 
L 634.245398 82.283561 
L 640.394158 82.283417 
L 646.542918 82.283272 
L 652.691679 82.283125 
L 658.840439 82.282976 
L 664.989199 82.282826 
L 671.13796 82.282674 
L 677.28672 82.28252 
L 683.43548 82.282365 
L 689.584241 82.282208 
L 695.733001 82.282049 
L 701.881761 82.281889 
" style="fill:none;stroke:#e1e1e1;stroke-dasharray:3.7,1.6;stroke-dashoffset:0;stroke-opacity:0.4;"/>
    <defs>
     <path d="M 0 2.5 
C 0.663008 2.5 1.29895 2.236584 1.767767 1.767767 
C 2.236584 1.29895 2.5 0.663008 2.5 0 
C 2.5 -0.663008 2.236584 -1.29895 1.767767 -1.767767 
C 1.29895 -2.236584 0.663008 -2.5 0 -2.5 
C -0.663008 -2.5 -1.29895 -2.236584 -1.767767 -1.767767 
C -2.236584 -1.29895 -2.5 -0.663008 -2.5 0 
C -2.5 0.663008 -2.236584 1.29895 -1.767767 1.767767 
C -1.29895 2.236584 -0.663008 2.5 0 2.5 
z
" id="m5e9610ad89" style="stroke:#e1e1e1;stroke-opacity:0.4;"/>
    </defs>
    <g clip-path="url(#pa715728b12)">
     <use style="fill:#e1e1e1;fill-opacity:0.4;stroke:#e1e1e1;stroke-opacity:0.4;" x="93.154489" xlink:href="#m5e9610ad89" y="82.289856"/>
     <use style="fill:#e1e1e1;fill-opacity:0.4;stroke:#e1e1e1;stroke-opacity:0.4;" x="154.642092" xlink:href="#m5e9610ad89" y="82.289775"/>
     <use style="fill:#e1e1e1;fill-opacity:0.4;stroke:#e1e1e1;stroke-opacity:0.4;" x="216.129695" xlink:href="#m5e9610ad89" y="82.289531"/>
     <use style="fill:#e1e1e1;fill-opacity:0.4;stroke:#e1e1e1;stroke-opacity:0.4;" x="277.617299" xlink:href="#m5e9610ad89" y="82.289125"/>
     <use style="fill:#e1e1e1;fill-opacity:0.4;stroke:#e1e1e1;stroke-opacity:0.4;" x="339.104902" xlink:href="#m5e9610ad89" y="82.288556"/>
     <use style="fill:#e1e1e1;fill-opacity:0.4;stroke:#e1e1e1;stroke-opacity:0.4;" x="400.592505" xlink:href="#m5e9610ad89" y="82.287824"/>
     <use style="fill:#e1e1e1;fill-opacity:0.4;stroke:#e1e1e1;stroke-opacity:0.4;" x="462.080108" xlink:href="#m5e9610ad89" y="82.28693"/>
     <use style="fill:#e1e1e1;fill-opacity:0.4;stroke:#e1e1e1;stroke-opacity:0.4;" x="523.567712" xlink:href="#m5e9610ad89" y="82.285873"/>
     <use style="fill:#e1e1e1;fill-opacity:0.4;stroke:#e1e1e1;stroke-opacity:0.4;" x="585.055315" xlink:href="#m5e9610ad89" y="82.284654"/>
     <use style="fill:#e1e1e1;fill-opacity:0.4;stroke:#e1e1e1;stroke-opacity:0.4;" x="646.542918" xlink:href="#m5e9610ad89" y="82.283272"/>
    </g>
   </g>
   <g id="line2d_101">
    <path clip-path="url(#pa715728b12)" d="M 93.154489 93.61275 
L 99.303249 93.610718 
L 105.452009 93.604621 
L 111.60077 93.594461 
L 117.74953 93.580236 
L 123.89829 93.561947 
L 130.047051 93.539593 
L 136.195811 93.513176 
L 142.344571 93.482694 
L 148.493332 93.448148 
L 154.642092 93.409537 
L 160.790852 93.366862 
L 166.939613 93.320123 
L 173.088373 93.26932 
L 179.237133 93.214453 
L 185.385894 93.155521 
L 191.534654 93.092525 
L 197.683414 93.025465 
L 203.832175 92.95434 
L 209.980935 92.879152 
L 216.129695 92.799899 
L 222.278456 92.716581 
L 228.427216 92.6292 
L 234.575976 92.537754 
L 240.724737 92.442244 
L 246.873497 92.34267 
L 253.022257 92.239031 
L 259.171018 92.131328 
L 265.319778 92.019561 
L 271.468538 91.90373 
L 277.617299 91.783834 
L 283.766059 91.659875 
L 289.914819 91.53185 
L 296.06358 91.399762 
L 302.21234 91.263609 
L 308.3611 91.123393 
L 314.509861 90.979111 
L 320.658621 90.830766 
L 326.807381 90.678356 
L 332.956142 90.521883 
L 339.104902 90.361344 
L 345.253662 90.196742 
L 351.402423 90.028075 
L 357.551183 89.855344 
L 363.699943 89.678549 
L 369.848704 89.49769 
L 375.997464 89.312766 
L 382.146224 89.123778 
L 388.294985 88.930726 
L 394.443745 88.733609 
L 400.592505 88.532429 
L 406.741265 88.327184 
L 412.890026 88.117875 
L 419.038786 87.904501 
L 425.187546 87.687063 
L 431.336307 87.465561 
L 437.485067 87.239995 
L 443.633827 87.010365 
L 449.782588 86.77667 
L 455.931348 86.538911 
L 462.080108 86.297087 
L 468.228869 86.0512 
L 474.377629 85.801248 
L 480.526389 85.547232 
L 486.67515 85.289152 
L 492.82391 85.027007 
L 498.97267 84.760798 
L 505.121431 84.490525 
L 511.270191 84.216188 
L 517.418951 83.937786 
L 523.567712 83.65532 
L 529.716472 83.36879 
L 535.865232 83.078196 
L 542.013993 82.783537 
L 548.162753 82.484814 
L 554.311513 82.182027 
L 560.460274 81.875176 
L 566.609034 81.56426 
L 572.757794 81.24928 
L 578.906555 80.930236 
L 585.055315 80.607128 
L 591.204075 80.279955 
L 597.352836 79.948718 
L 603.501596 79.613417 
L 609.650356 79.274051 
L 615.799117 78.930622 
L 621.947877 78.583128 
L 628.096637 78.231569 
L 634.245398 77.875947 
L 640.394158 77.51626 
L 646.542918 77.152509 
L 652.691679 76.784694 
L 658.840439 76.412814 
L 664.989199 76.036871 
L 671.13796 75.656863 
L 677.28672 75.27279 
L 683.43548 74.884654 
L 689.584241 74.492453 
L 695.733001 74.096188 
L 701.881761 73.695859 
" style="fill:none;stroke:#c9c9c9;stroke-dasharray:7.4,3.2;stroke-dashoffset:0;stroke-opacity:0.4;stroke-width:2;"/>
    <defs>
     <path d="M -3 -0 
L 3 3 
L 3 -3 
z
" id="m188a3d83c8" style="stroke:#c9c9c9;stroke-linejoin:miter;stroke-opacity:0.4;"/>
    </defs>
    <g clip-path="url(#pa715728b12)">
     <use style="fill:#c9c9c9;fill-opacity:0.4;stroke:#c9c9c9;stroke-linejoin:miter;stroke-opacity:0.4;" x="93.154489" xlink:href="#m188a3d83c8" y="93.61275"/>
     <use style="fill:#c9c9c9;fill-opacity:0.4;stroke:#c9c9c9;stroke-linejoin:miter;stroke-opacity:0.4;" x="154.642092" xlink:href="#m188a3d83c8" y="93.409537"/>
     <use style="fill:#c9c9c9;fill-opacity:0.4;stroke:#c9c9c9;stroke-linejoin:miter;stroke-opacity:0.4;" x="216.129695" xlink:href="#m188a3d83c8" y="92.799899"/>
     <use style="fill:#c9c9c9;fill-opacity:0.4;stroke:#c9c9c9;stroke-linejoin:miter;stroke-opacity:0.4;" x="277.617299" xlink:href="#m188a3d83c8" y="91.783834"/>
     <use style="fill:#c9c9c9;fill-opacity:0.4;stroke:#c9c9c9;stroke-linejoin:miter;stroke-opacity:0.4;" x="339.104902" xlink:href="#m188a3d83c8" y="90.361344"/>
     <use style="fill:#c9c9c9;fill-opacity:0.4;stroke:#c9c9c9;stroke-linejoin:miter;stroke-opacity:0.4;" x="400.592505" xlink:href="#m188a3d83c8" y="88.532429"/>
     <use style="fill:#c9c9c9;fill-opacity:0.4;stroke:#c9c9c9;stroke-linejoin:miter;stroke-opacity:0.4;" x="462.080108" xlink:href="#m188a3d83c8" y="86.297087"/>
     <use style="fill:#c9c9c9;fill-opacity:0.4;stroke:#c9c9c9;stroke-linejoin:miter;stroke-opacity:0.4;" x="523.567712" xlink:href="#m188a3d83c8" y="83.65532"/>
     <use style="fill:#c9c9c9;fill-opacity:0.4;stroke:#c9c9c9;stroke-linejoin:miter;stroke-opacity:0.4;" x="585.055315" xlink:href="#m188a3d83c8" y="80.607128"/>
     <use style="fill:#c9c9c9;fill-opacity:0.4;stroke:#c9c9c9;stroke-linejoin:miter;stroke-opacity:0.4;" x="646.542918" xlink:href="#m188a3d83c8" y="77.152509"/>
    </g>
   </g>
   <g id="line2d_102">
    <path clip-path="url(#pa715728b12)" d="M 93.154489 139.400642 
L 99.303249 139.392513 
L 105.452009 139.368128 
L 111.60077 139.327485 
L 117.74953 139.270586 
L 123.89829 139.197429 
L 130.047051 139.108015 
L 136.195811 139.002345 
L 142.344571 138.880417 
L 148.493332 138.742232 
L 154.642092 138.587791 
L 160.790852 138.417092 
L 166.939613 138.230136 
L 173.088373 138.026923 
L 179.237133 137.807453 
L 185.385894 137.571726 
L 191.534654 137.319742 
L 197.683414 137.051501 
L 203.832175 136.767003 
L 209.980935 136.466248 
L 216.129695 136.149236 
L 222.278456 135.815967 
L 228.427216 135.466441 
L 234.575976 135.100658 
L 240.724737 134.718618 
L 246.873497 134.320321 
L 253.022257 133.905767 
L 259.171018 133.474955 
L 265.319778 133.027887 
L 271.468538 132.564562 
L 277.617299 132.084979 
L 283.766059 131.58914 
L 289.914819 131.077044 
L 296.06358 130.54869 
L 302.21234 130.00408 
L 308.3611 129.443212 
L 314.509861 128.866088 
L 320.658621 128.272706 
L 326.807381 127.663068 
L 332.956142 127.037172 
L 339.104902 126.39502 
L 345.253662 125.73661 
L 351.402423 125.061943 
L 357.551183 124.37102 
L 363.699943 123.663839 
L 369.848704 122.940401 
L 375.997464 122.200706 
L 382.146224 121.444755 
L 388.294985 120.672546 
L 394.443745 119.88408 
L 400.592505 119.079357 
L 406.741265 118.258377 
L 412.890026 117.42114 
L 419.038786 116.567646 
L 425.187546 115.697895 
L 431.336307 114.811887 
L 437.485067 113.909622 
L 443.633827 112.9911 
L 449.782588 112.056321 
L 455.931348 111.105285 
L 462.080108 110.137992 
L 468.228869 109.154441 
L 474.377629 108.154634 
L 480.526389 107.13857 
L 486.67515 106.106249 
L 492.82391 105.05767 
L 498.97267 103.992835 
L 505.121431 102.911743 
L 511.270191 101.814393 
L 517.418951 100.700787 
L 523.567712 99.570923 
L 529.716472 98.424803 
L 535.865232 97.262425 
L 542.013993 96.083791 
L 548.162753 94.888899 
L 554.311513 93.677751 
L 560.460274 92.450345 
L 566.609034 91.206683 
L 572.757794 89.946763 
L 578.906555 88.670586 
L 585.055315 87.378152 
L 591.204075 86.069462 
L 597.352836 84.744514 
L 603.501596 83.403309 
L 609.650356 82.045847 
L 615.799117 80.672128 
L 621.947877 79.282153 
L 628.096637 77.87592 
L 634.245398 76.45343 
L 640.394158 75.014683 
L 646.542918 73.559679 
L 652.691679 72.088418 
L 658.840439 70.6009 
L 664.989199 69.097124 
L 671.13796 67.577092 
L 677.28672 66.040803 
L 683.43548 64.488257 
L 689.584241 62.919454 
L 695.733001 61.334394 
L 701.881761 59.733076 
" style="fill:none;stroke:#929292;stroke-dasharray:11.1,4.8;stroke-dashoffset:0;stroke-opacity:0.4;stroke-width:3;"/>
    <defs>
     <path d="M -3.5 3.5 
L 3.5 3.5 
L 3.5 -3.5 
L -3.5 -3.5 
z
" id="mdecf4f3a13" style="stroke:#929292;stroke-linejoin:miter;stroke-opacity:0.4;"/>
    </defs>
    <g clip-path="url(#pa715728b12)">
     <use style="fill:#929292;fill-opacity:0.4;stroke:#929292;stroke-linejoin:miter;stroke-opacity:0.4;" x="93.154489" xlink:href="#mdecf4f3a13" y="139.400642"/>
     <use style="fill:#929292;fill-opacity:0.4;stroke:#929292;stroke-linejoin:miter;stroke-opacity:0.4;" x="154.642092" xlink:href="#mdecf4f3a13" y="138.587791"/>
     <use style="fill:#929292;fill-opacity:0.4;stroke:#929292;stroke-linejoin:miter;stroke-opacity:0.4;" x="216.129695" xlink:href="#mdecf4f3a13" y="136.149236"/>
     <use style="fill:#929292;fill-opacity:0.4;stroke:#929292;stroke-linejoin:miter;stroke-opacity:0.4;" x="277.617299" xlink:href="#mdecf4f3a13" y="132.084979"/>
     <use style="fill:#929292;fill-opacity:0.4;stroke:#929292;stroke-linejoin:miter;stroke-opacity:0.4;" x="339.104902" xlink:href="#mdecf4f3a13" y="126.39502"/>
     <use style="fill:#929292;fill-opacity:0.4;stroke:#929292;stroke-linejoin:miter;stroke-opacity:0.4;" x="400.592505" xlink:href="#mdecf4f3a13" y="119.079357"/>
     <use style="fill:#929292;fill-opacity:0.4;stroke:#929292;stroke-linejoin:miter;stroke-opacity:0.4;" x="462.080108" xlink:href="#mdecf4f3a13" y="110.137992"/>
     <use style="fill:#929292;fill-opacity:0.4;stroke:#929292;stroke-linejoin:miter;stroke-opacity:0.4;" x="523.567712" xlink:href="#mdecf4f3a13" y="99.570923"/>
     <use style="fill:#929292;fill-opacity:0.4;stroke:#929292;stroke-linejoin:miter;stroke-opacity:0.4;" x="585.055315" xlink:href="#mdecf4f3a13" y="87.378152"/>
     <use style="fill:#929292;fill-opacity:0.4;stroke:#929292;stroke-linejoin:miter;stroke-opacity:0.4;" x="646.542918" xlink:href="#mdecf4f3a13" y="73.559679"/>
    </g>
   </g>
   <g id="line2d_103">
    <path clip-path="url(#pa715728b12)" d="M 93.154489 229.426617 
L 99.303249 229.408327 
L 105.452009 229.35346 
L 111.60077 229.262014 
L 117.74953 229.13399 
L 123.89829 228.969388 
L 130.047051 228.768207 
L 136.195811 228.530448 
L 142.344571 228.256111 
L 148.493332 227.945195 
L 154.642092 227.597701 
L 160.790852 227.213629 
L 166.939613 226.792978 
L 173.088373 226.335749 
L 179.237133 225.841942 
L 185.385894 225.311556 
L 191.534654 224.744592 
L 197.683414 224.14105 
L 203.832175 223.50093 
L 209.980935 222.824231 
L 216.129695 222.110954 
L 222.278456 221.361099 
L 228.427216 220.574665 
L 234.575976 219.751653 
L 240.724737 218.892062 
L 246.873497 217.995894 
L 253.022257 217.063147 
L 259.171018 216.093821 
L 265.319778 215.087918 
L 271.468538 214.045436 
L 277.617299 212.966376 
L 283.766059 211.850737 
L 289.914819 210.69852 
L 296.06358 209.509725 
L 302.21234 208.284352 
L 308.3611 207.0224 
L 314.509861 205.72387 
L 320.658621 204.388761 
L 326.807381 203.017075 
L 332.956142 201.60881 
L 339.104902 200.163966 
L 345.253662 198.682545 
L 351.402423 197.164545 
L 357.551183 195.609966 
L 363.699943 194.01881 
L 369.848704 192.391075 
L 375.997464 190.726761 
L 382.146224 189.02587 
L 388.294985 187.2884 
L 394.443745 185.514352 
L 400.592505 183.703725 
L 406.741265 181.856521 
L 412.890026 179.972737 
L 419.038786 178.052376 
L 425.187546 176.095436 
L 431.336307 174.101918 
L 437.485067 172.071822 
L 443.633827 170.005147 
L 449.782588 167.901894 
L 455.931348 165.762063 
L 462.080108 163.585653 
L 468.228869 161.372665 
L 474.377629 159.123099 
L 480.526389 156.836954 
L 486.67515 154.514232 
L 492.82391 152.15493 
L 498.97267 149.759051 
L 505.121431 147.326593 
L 511.270191 144.857557 
L 517.418951 142.351943 
L 523.567712 139.80975 
L 529.716472 137.230979 
L 535.865232 134.615629 
L 542.013993 131.963702 
L 548.162753 129.275196 
L 554.311513 126.550111 
L 560.460274 123.788449 
L 566.609034 120.990208 
L 572.757794 118.155389 
L 578.906555 115.283991 
L 585.055315 112.376015 
L 591.204075 109.431461 
L 597.352836 106.450328 
L 603.501596 103.432618 
L 609.650356 100.378328 
L 615.799117 97.287461 
L 621.947877 94.160015 
L 628.096637 90.995991 
L 634.245398 87.795389 
L 640.394158 84.558208 
L 646.542918 81.284449 
L 652.691679 77.974112 
L 658.840439 74.627196 
L 664.989199 71.243702 
L 671.13796 67.82363 
L 677.28672 64.366979 
L 683.43548 60.87375 
L 689.584241 57.343943 
L 695.733001 53.777558 
L 701.881761 50.174594 
" style="fill:none;stroke:#4b4b4b;stroke-dasharray:14.8,6.4;stroke-dashoffset:0;stroke-opacity:0.4;stroke-width:4;"/>
    <defs>
     <path d="M -0 5.656854 
L 3.394113 0 
L 0 -5.656854 
L -3.394113 -0 
z
" id="m3483316215" style="stroke:#4b4b4b;stroke-linejoin:miter;stroke-opacity:0.4;"/>
    </defs>
    <g clip-path="url(#pa715728b12)">
     <use style="fill:#4b4b4b;fill-opacity:0.4;stroke:#4b4b4b;stroke-linejoin:miter;stroke-opacity:0.4;" x="93.154489" xlink:href="#m3483316215" y="229.426617"/>
     <use style="fill:#4b4b4b;fill-opacity:0.4;stroke:#4b4b4b;stroke-linejoin:miter;stroke-opacity:0.4;" x="154.642092" xlink:href="#m3483316215" y="227.597701"/>
     <use style="fill:#4b4b4b;fill-opacity:0.4;stroke:#4b4b4b;stroke-linejoin:miter;stroke-opacity:0.4;" x="216.129695" xlink:href="#m3483316215" y="222.110954"/>
     <use style="fill:#4b4b4b;fill-opacity:0.4;stroke:#4b4b4b;stroke-linejoin:miter;stroke-opacity:0.4;" x="277.617299" xlink:href="#m3483316215" y="212.966376"/>
     <use style="fill:#4b4b4b;fill-opacity:0.4;stroke:#4b4b4b;stroke-linejoin:miter;stroke-opacity:0.4;" x="339.104902" xlink:href="#m3483316215" y="200.163966"/>
     <use style="fill:#4b4b4b;fill-opacity:0.4;stroke:#4b4b4b;stroke-linejoin:miter;stroke-opacity:0.4;" x="400.592505" xlink:href="#m3483316215" y="183.703725"/>
     <use style="fill:#4b4b4b;fill-opacity:0.4;stroke:#4b4b4b;stroke-linejoin:miter;stroke-opacity:0.4;" x="462.080108" xlink:href="#m3483316215" y="163.585653"/>
     <use style="fill:#4b4b4b;fill-opacity:0.4;stroke:#4b4b4b;stroke-linejoin:miter;stroke-opacity:0.4;" x="523.567712" xlink:href="#m3483316215" y="139.80975"/>
     <use style="fill:#4b4b4b;fill-opacity:0.4;stroke:#4b4b4b;stroke-linejoin:miter;stroke-opacity:0.4;" x="585.055315" xlink:href="#m3483316215" y="112.376015"/>
     <use style="fill:#4b4b4b;fill-opacity:0.4;stroke:#4b4b4b;stroke-linejoin:miter;stroke-opacity:0.4;" x="646.542918" xlink:href="#m3483316215" y="81.284449"/>
    </g>
   </g>
   <g id="patch_3">
    <path d="M 62.718125 245.52125 
L 62.718125 28.08125 
" style="fill:none;stroke:#000000;stroke-linecap:square;stroke-linejoin:miter;stroke-width:0.8;"/>
   </g>
   <g id="patch_4">
    <path d="M 732.318125 245.52125 
L 732.318125 28.08125 
" style="fill:none;stroke:#000000;stroke-linecap:square;stroke-linejoin:miter;stroke-width:0.8;"/>
   </g>
   <g id="patch_5">
    <path d="M 62.718125 245.52125 
L 732.318125 245.52125 
" style="fill:none;stroke:#000000;stroke-linecap:square;stroke-linejoin:miter;stroke-width:0.8;"/>
   </g>
   <g id="patch_6">
    <path d="M 62.718125 28.08125 
L 732.318125 28.08125 
" style="fill:none;stroke:#000000;stroke-linecap:square;stroke-linejoin:miter;stroke-width:0.8;"/>
   </g>
   <g id="patch_7">
    <path d="M 390.818108 218.245943 
Q 378.017176 211.905609 365.216244 205.565274 
L 363.884716 208.253588 
Q 359.395966 203.798417 354.907216 199.343245 
Q 361.171337 200.213998 367.435459 201.084751 
L 366.10393 203.773065 
Q 378.904862 210.113399 391.705793 216.453733 
L 390.818108 218.245943 
z
" style="fill:#ff0000;stroke:#ff0000;stroke-linecap:round;"/>
   </g>
   <g id="text_18">
    <!-- Constant $M = \bar{M}$ -->
    <defs>
     <path d="M 58.796875 2.296875 
Q 48.796875 -1.203125 38.59375 -1.203125 
Q 28.703125 -1.203125 21.59375 2.796875 
Q 13.5 7.40625 8.890625 15.546875 
Q 4.296875 23.703125 4.296875 33.59375 
Q 4.296875 41.40625 6.796875 47.796875 
Q 9.296875 54.203125 13.84375 58.75 
Q 18.40625 63.296875 24.796875 65.796875 
Q 31.203125 68.296875 39 68.296875 
Q 48 68.296875 58.796875 64.90625 
L 58.796875 49.5 
L 53.203125 49.5 
L 51.703125 58.59375 
L 50.40625 60.40625 
Q 47.59375 61.703125 44.84375 62.34375 
Q 42.09375 63 39.203125 63 
Q 33.59375 63 29.046875 61.046875 
Q 24.5 59.09375 21.296875 55.390625 
Q 18.09375 51.703125 16.34375 46.34375 
Q 14.59375 41 14.59375 34.296875 
Q 14.59375 27.203125 16.390625 21.59375 
Q 18.203125 16 21.546875 12.09375 
Q 24.90625 8.203125 29.75 6.140625 
Q 34.59375 4.09375 40.703125 4.09375 
Q 45.09375 4.09375 49.40625 5.40625 
L 51 7 
L 53.203125 18.09375 
L 58.796875 18.09375 
L 58.796875 2.296875 
z
" id="Charter-67"/>
     <path d="M 26.90625 49.09375 
Q 32 49.09375 36.25 47.25 
Q 40.5 45.40625 43.59375 42.09375 
Q 46.703125 38.796875 48.453125 34.1875 
Q 50.203125 29.59375 50.203125 24.09375 
Q 50.203125 18.5 48.453125 13.890625 
Q 46.703125 9.296875 43.59375 6 
Q 40.5 2.703125 36.203125 0.890625 
Q 31.90625 -0.90625 26.90625 -0.90625 
Q 21.90625 -0.90625 17.65625 0.890625 
Q 13.40625 2.703125 10.296875 6 
Q 7.203125 9.296875 5.453125 13.890625 
Q 3.703125 18.5 3.703125 24.09375 
Q 3.703125 29.703125 5.453125 34.296875 
Q 7.203125 38.90625 10.25 42.203125 
Q 13.296875 45.5 17.546875 47.296875 
Q 21.796875 49.09375 26.90625 49.09375 
z
M 26.90625 44.796875 
Q 20.796875 44.796875 16.9375 39.34375 
Q 13.09375 33.90625 13.09375 24.09375 
Q 13.09375 19.296875 14.140625 15.4375 
Q 15.203125 11.59375 17 8.890625 
Q 18.796875 6.203125 21.34375 4.796875 
Q 23.90625 3.40625 26.90625 3.40625 
Q 33 3.40625 36.890625 8.84375 
Q 40.796875 14.296875 40.796875 24.09375 
Q 40.796875 33.796875 36.890625 39.296875 
Q 33 44.796875 26.90625 44.796875 
z
" id="Charter-111"/>
     <path d="M 3 3.59375 
L 8.40625 4.09375 
L 10.09375 5.703125 
L 10.09375 41.90625 
L 3 41.90625 
L 3 45 
L 14.59375 48.59375 
L 18.40625 48.59375 
L 18.40625 43.09375 
Q 23.5 45.90625 27.390625 47.5 
Q 31.296875 49.09375 34.5 49.09375 
Q 41.09375 49.09375 44.546875 45.25 
Q 48 41.40625 48 33.90625 
L 48 5.703125 
L 49.703125 4.09375 
L 55.09375 3.59375 
L 55.09375 0 
L 33.203125 0 
L 33.203125 3.59375 
L 38 4.09375 
L 39.703125 5.703125 
L 39.703125 32.203125 
Q 39.703125 37.703125 37.453125 40.09375 
Q 35.203125 42.5 29.59375 42.5 
Q 24.796875 42.5 18.40625 39.203125 
L 18.40625 5.703125 
L 20.09375 4.09375 
L 24.90625 3.59375 
L 24.90625 0 
L 3 0 
z
" id="Charter-110"/>
     <path d="M 34.40625 35.59375 
L 29.5 35.59375 
L 28.703125 42.703125 
Q 24.796875 44.796875 21.296875 44.796875 
Q 17.296875 44.796875 15.140625 42.890625 
Q 13 41 13 37.59375 
Q 13 34.40625 15.140625 32.453125 
Q 17.296875 30.5 21.5 28.5 
Q 24.09375 27.203125 26.84375 25.953125 
Q 29.59375 24.703125 32.09375 22.703125 
Q 35.90625 19.703125 35.90625 14.09375 
Q 35.90625 7.09375 31 3.09375 
Q 26.09375 -0.90625 17.203125 -0.90625 
Q 13.40625 -0.90625 10.09375 -0.34375 
Q 6.796875 0.203125 4.203125 1.203125 
L 4.203125 14.203125 
L 9 14.203125 
L 10.203125 5.703125 
Q 14.40625 3.296875 18.703125 3.296875 
Q 23.09375 3.296875 25.59375 5.59375 
Q 28.09375 7.90625 28.09375 11.40625 
Q 28.09375 13.296875 27.4375 14.6875 
Q 26.796875 16.09375 25.5 17.1875 
Q 24.203125 18.296875 22.296875 19.296875 
Q 20.40625 20.296875 17.90625 21.40625 
Q 11.5 24.203125 8.25 27.140625 
Q 5 30.09375 5 35.09375 
Q 5 41.703125 9.546875 45.390625 
Q 14.09375 49.09375 22.703125 49.09375 
Q 29.40625 49.09375 34.40625 46.90625 
z
" id="Charter-115"/>
     <path d="M 2.5 42.09375 
L 2.5 45.203125 
L 9.09375 48.09375 
L 13.40625 57.40625 
L 17.09375 57.40625 
L 17.09375 46.796875 
L 32.296875 46.796875 
L 32.296875 42.09375 
L 17.09375 42.09375 
L 17.09375 15.703125 
Q 17.09375 12.796875 17.390625 10.75 
Q 17.703125 8.703125 18.59375 7.390625 
Q 19.5 6.09375 21.140625 5.4375 
Q 22.796875 4.796875 25.40625 4.796875 
Q 28.59375 4.796875 32.296875 5.59375 
L 32.296875 1.90625 
Q 28.796875 0.796875 25.4375 0.25 
Q 22.09375 -0.296875 19.203125 -0.296875 
Q 13 -0.296875 10.890625 2.09375 
Q 8.796875 4.5 8.796875 9.796875 
L 8.796875 42.09375 
z
" id="Charter-116"/>
     <path d="M 33.40625 5.796875 
Q 28.59375 2.59375 24.59375 0.9375 
Q 20.59375 -0.703125 17 -0.703125 
Q 11 -0.703125 7.59375 2.84375 
Q 4.203125 6.40625 4.203125 12.09375 
Q 4.203125 16 5.953125 18.640625 
Q 7.703125 21.296875 11.296875 23.296875 
Q 14.90625 25.296875 20.40625 26.890625 
Q 25.90625 28.5 33.40625 30.296875 
L 33.40625 33.5 
Q 33.40625 39.5 31.5 42.09375 
Q 29.59375 44.703125 24.203125 44.703125 
Q 20.5 44.703125 16.59375 43.09375 
L 16.59375 34.703125 
L 9.703125 34.703125 
Q 8 34.703125 7.296875 35.34375 
Q 6.59375 36 6.59375 37.796875 
Q 6.59375 40.09375 8 42.140625 
Q 9.40625 44.203125 12 45.75 
Q 14.59375 47.296875 18.34375 48.1875 
Q 22.09375 49.09375 26.796875 49.09375 
Q 34.703125 49.09375 38.203125 45.6875 
Q 41.703125 42.296875 41.703125 34.703125 
L 41.703125 5.703125 
L 43.5 4.09375 
L 48.796875 3.59375 
L 48.796875 0 
L 34.703125 0 
z
M 33.40625 26.796875 
Q 28.09375 25.296875 24.25 24 
Q 20.40625 22.703125 17.90625 21.140625 
Q 15.40625 19.59375 14.203125 17.59375 
Q 13 15.59375 13 12.90625 
Q 13 9.203125 15.09375 6.953125 
Q 17.203125 4.703125 21 4.703125 
Q 23.5 4.703125 26.546875 5.84375 
Q 29.59375 7 33.40625 9.203125 
z
" id="Charter-97"/>
     <path d="M 8.40625 67.09375 
L 8.40625 63.296875 
L 14.703125 62.796875 
L 15.796875 61.296875 
L 5.203125 5.796875 
L 3.59375 4.40625 
L -2.703125 3.796875 
L -2.703125 0 
L 18.09375 0 
L 18.09375 3.796875 
L 12.203125 4.40625 
L 10.703125 5.796875 
L 21.09375 61.59375 
L 31.90625 0 
L 36.296875 0 
L 70.796875 61.90625 
L 60.09375 5.796875 
L 59.09375 4.40625 
L 51.90625 3.796875 
L 51.90625 0 
L 75.59375 0 
L 75.59375 3.796875 
L 69.203125 4.40625 
L 68.203125 5.796875 
L 78.796875 61.296875 
L 80.40625 62.796875 
L 86.703125 63.296875 
L 86.703125 67.09375 
L 65.90625 67.09375 
L 65.90625 64 
L 37.90625 13.5 
L 28.796875 64.40625 
L 28.796875 67.09375 
z
" id="Charter-Italic-77"/>
     <path d="M 70.90625 42 
L 70.90625 36.296875 
L 12.40625 36.296875 
L 12.40625 42 
z
M 70.90625 23.296875 
L 70.90625 17.59375 
L 12.40625 17.59375 
L 12.40625 23.296875 
z
" id="Charter-61"/>
     <path d="M 6.890625 55.515625 
L 6.890625 58.984375 
L 43.015625 58.984375 
L 43.015625 55.515625 
z
" id="Cmr10-185"/>
    </defs>
    <g transform="translate(393.26358 231.588125)scale(0.18 -0.18)">
     <use transform="translate(0 0.9375)" xlink:href="#Charter-67"/>
     <use transform="translate(63.199997 0.9375)" xlink:href="#Charter-111"/>
     <use transform="translate(117.099991 0.9375)" xlink:href="#Charter-110"/>
     <use transform="translate(173.899979 0.9375)" xlink:href="#Charter-115"/>
     <use transform="translate(213.899963 0.9375)" xlink:href="#Charter-116"/>
     <use transform="translate(247.299957 0.9375)" xlink:href="#Charter-97"/>
     <use transform="translate(297.999954 0.9375)" xlink:href="#Charter-110"/>
     <use transform="translate(354.799942 0.9375)" xlink:href="#Charter-116"/>
     <use transform="translate(388.199936 0.9375)" xlink:href="#Charter-32"/>
     <use transform="translate(415.999924 0.9375)" xlink:href="#Charter-Italic-77"/>
     <use transform="translate(516.199915 0.9375)" xlink:href="#Charter-61"/>
     <use transform="translate(642.884273 25.015625)" xlink:href="#Cmr10-185"/>
     <use transform="translate(615.799899 0.9375)" xlink:href="#Charter-Italic-77"/>
    </g>
   </g>
   <g id="text_19">
    <!-- Pressure profile -->
    <defs>
     <path d="M 3.296875 4.09375 
L 9 4.59375 
L 10.703125 6 
L 10.703125 61.09375 
L 9 62.5 
L 2.5 63.09375 
L 2.5 67.09375 
L 25.296875 67.09375 
Q 32.5 67.09375 37.75 66.046875 
Q 43 65 46.390625 62.59375 
Q 49.796875 60.203125 51.4375 56.296875 
Q 53.09375 52.40625 53.09375 46.703125 
Q 53.09375 41.90625 51.296875 37.953125 
Q 49.5 34 46.140625 31.140625 
Q 42.796875 28.296875 38 26.75 
Q 33.203125 25.203125 27.203125 25.203125 
Q 25.796875 25.203125 23.890625 25.34375 
Q 22 25.5 19.703125 25.703125 
L 19.703125 6 
L 21.40625 4.59375 
L 28.5 4.09375 
L 28.5 0 
L 3.296875 0 
z
M 19.703125 30.5 
Q 21.90625 30.296875 23.546875 30.140625 
Q 25.203125 30 26.296875 30 
Q 34.90625 30 39.34375 34.296875 
Q 43.796875 38.59375 43.796875 46.90625 
Q 43.796875 55 39.1875 58.75 
Q 34.59375 62.5 24.90625 62.5 
Q 23.703125 62.5 22.390625 62.5 
Q 21.09375 62.5 19.703125 62.296875 
z
" id="Charter-80"/>
     <path d="M 3 3.59375 
L 8.296875 4.09375 
L 10.09375 5.703125 
L 10.09375 41.90625 
L 3 41.90625 
L 3 45 
L 14.59375 48.59375 
L 18.40625 48.59375 
L 18.40625 39.203125 
Q 21 41.90625 23.703125 44.296875 
Q 26.40625 46.703125 29.09375 48.90625 
Q 29.703125 49.09375 30.34375 49.09375 
Q 31 49.09375 31.59375 49.09375 
Q 34.59375 49.09375 37.59375 47.796875 
L 37.59375 39.203125 
L 34.40625 39.203125 
Q 32.40625 41.59375 29.296875 41.59375 
Q 24.59375 41.59375 18.40625 34.296875 
L 18.40625 5.703125 
L 20.09375 4.09375 
L 27.09375 3.59375 
L 27.09375 0 
L 3 0 
z
" id="Charter-114"/>
     <path d="M 44.796875 5.09375 
Q 40.296875 2.09375 35.546875 0.59375 
Q 30.796875 -0.90625 26 -0.90625 
Q 21 -0.90625 16.890625 0.890625 
Q 12.796875 2.703125 9.890625 5.890625 
Q 7 9.09375 5.34375 13.640625 
Q 3.703125 18.203125 3.703125 23.703125 
Q 3.703125 29.40625 5.390625 34.046875 
Q 7.09375 38.703125 10.1875 42.046875 
Q 13.296875 45.40625 17.546875 47.25 
Q 21.796875 49.09375 26.796875 49.09375 
Q 35 49.09375 39.890625 43.890625 
Q 44.796875 38.703125 44.796875 29.40625 
Q 44.796875 28.59375 44.796875 27.84375 
Q 44.796875 27.09375 44.703125 26.296875 
L 12.296875 26.296875 
L 12.296875 25.203125 
Q 12.296875 15.5 16.890625 10.140625 
Q 21.5 4.796875 29.09375 4.796875 
Q 32.90625 4.796875 36.703125 6.25 
Q 40.5 7.703125 44.796875 10.59375 
z
M 35.90625 32.09375 
Q 35.90625 38.203125 33.25 41.390625 
Q 30.59375 44.59375 25.5 44.59375 
Q 23.09375 44.59375 20.890625 43.59375 
Q 18.703125 42.59375 16.953125 40.75 
Q 15.203125 38.90625 14.09375 36.296875 
Q 13 33.703125 12.796875 30.5 
L 35.90625 30.5 
z
" id="Charter-101"/>
     <path d="M 18 49.09375 
L 18 16 
Q 18 10.59375 20.296875 8 
Q 22.59375 5.40625 27.703125 5.40625 
Q 33.09375 5.40625 39.296875 8.40625 
L 39.296875 42.296875 
L 32.203125 42.296875 
L 32.203125 45.40625 
L 43.796875 49.09375 
L 47.59375 49.09375 
L 47.59375 5.703125 
L 49.40625 4.09375 
L 54.09375 3.59375 
L 54.09375 0 
L 39.296875 0 
L 39.296875 5.59375 
Q 34.796875 2.40625 30.796875 0.703125 
Q 26.796875 -1 23.09375 -1 
Q 16.59375 -1 13.140625 2.890625 
Q 9.703125 6.796875 9.703125 14.296875 
L 9.703125 42.296875 
L 2.59375 42.296875 
L 2.59375 45.40625 
L 14.203125 49.09375 
z
" id="Charter-117"/>
     <path d="M 2.296875 -18.203125 
L 7.703125 -17.703125 
L 9.40625 -16.09375 
L 9.40625 41.90625 
L 2.296875 41.90625 
L 2.296875 45 
L 13.90625 48.59375 
L 17.703125 48.59375 
L 17.703125 43.09375 
Q 25.59375 49.09375 32.40625 49.09375 
Q 36.5 49.09375 40.046875 47.390625 
Q 43.59375 45.703125 46.140625 42.640625 
Q 48.703125 39.59375 50.140625 35.25 
Q 51.59375 30.90625 51.59375 25.703125 
Q 51.59375 19.796875 49.84375 15 
Q 48.09375 10.203125 44.84375 6.796875 
Q 41.59375 3.40625 37.046875 1.546875 
Q 32.5 -0.296875 27 -0.296875 
Q 23.203125 -0.296875 17.703125 0.59375 
L 17.703125 -16.09375 
L 19.40625 -17.703125 
L 25.796875 -18.203125 
L 25.796875 -21.796875 
L 2.296875 -21.796875 
z
M 17.703125 5.796875 
Q 22.5 4.203125 26.203125 4.203125 
Q 29.90625 4.203125 32.953125 5.640625 
Q 36 7.09375 38.203125 9.6875 
Q 40.40625 12.296875 41.59375 16.046875 
Q 42.796875 19.796875 42.796875 24.40625 
Q 42.796875 33.09375 38.796875 37.9375 
Q 34.796875 42.796875 28.203125 42.796875 
Q 25.59375 42.796875 23.09375 41.9375 
Q 20.59375 41.09375 17.703125 39.40625 
z
" id="Charter-112"/>
     <path d="M 2.90625 3.59375 
L 8.203125 4.09375 
L 10 5.703125 
L 10 42.09375 
L 3.59375 42.09375 
L 3.59375 45.296875 
L 10 46.796875 
L 10 47.90625 
Q 10 54.09375 11.5 59.046875 
Q 13 64 15.703125 67.390625 
Q 18.40625 70.796875 22.15625 72.59375 
Q 25.90625 74.40625 30.296875 74.40625 
Q 33.796875 74.40625 35.9375 72.75 
Q 38.09375 71.09375 38.09375 68.703125 
Q 38.09375 66.90625 37.046875 65.546875 
Q 36 64.203125 34 63.703125 
L 24.90625 69.703125 
Q 18.40625 66.703125 18.40625 54.09375 
L 18.40625 46.796875 
L 32.296875 46.796875 
L 32.296875 42.09375 
L 18.296875 42.09375 
L 18.296875 5.703125 
L 20 4.09375 
L 26.203125 3.59375 
L 26.203125 0 
L 2.90625 0 
z
" id="Charter-102"/>
     <path d="M 15.40625 70.796875 
Q 17.796875 70.796875 19.5 69.09375 
Q 21.203125 67.40625 21.203125 65 
Q 21.203125 62.59375 19.5 60.9375 
Q 17.796875 59.296875 15.40625 59.296875 
Q 13 59.296875 11.296875 60.9375 
Q 9.59375 62.59375 9.59375 65 
Q 9.59375 67.5 11.296875 69.140625 
Q 13 70.796875 15.40625 70.796875 
z
M 18.796875 48.59375 
L 18.796875 5.703125 
L 20.59375 4.09375 
L 26 3.59375 
L 26 0 
L 3.5 0 
L 3.5 3.59375 
L 8.796875 4.09375 
L 10.5 5.703125 
L 10.5 41.90625 
L 3.5 41.90625 
L 3.5 45 
L 15 48.59375 
z
" id="Charter-105"/>
     <path d="M 2.796875 3.59375 
L 8.703125 4.09375 
L 10.40625 5.703125 
L 10.40625 66.90625 
L 2.703125 66.90625 
L 2.703125 70 
L 14.90625 73.59375 
L 18.703125 73.59375 
L 18.703125 5.703125 
L 20.5 4.09375 
L 26.203125 3.59375 
L 26.203125 0 
L 2.796875 0 
z
" id="Charter-108"/>
    </defs>
    <g transform="translate(329.549375 22.08125)scale(0.2 -0.2)">
     <use xlink:href="#Charter-80"/>
     <use x="55.799988" xlink:href="#Charter-114"/>
     <use x="93.999985" xlink:href="#Charter-101"/>
     <use x="143.099976" xlink:href="#Charter-115"/>
     <use x="183.09996" xlink:href="#Charter-115"/>
     <use x="223.099945" xlink:href="#Charter-117"/>
     <use x="279.999939" xlink:href="#Charter-114"/>
     <use x="318.199936" xlink:href="#Charter-101"/>
     <use x="367.299927" xlink:href="#Charter-32"/>
     <use x="395.099915" xlink:href="#Charter-112"/>
     <use x="450.199905" xlink:href="#Charter-114"/>
     <use x="488.399902" xlink:href="#Charter-111"/>
     <use x="542.299896" xlink:href="#Charter-102"/>
     <use x="574.399887" xlink:href="#Charter-105"/>
     <use x="602.399872" xlink:href="#Charter-108"/>
     <use x="630.599869" xlink:href="#Charter-101"/>
    </g>
   </g>
   <g id="legend_1">
    <g id="patch_8">
     <path d="M 570.103125 237.52125 
L 721.118125 237.52125 
Q 724.318125 237.52125 724.318125 234.32125 
L 724.318125 119.60875 
Q 724.318125 116.40875 721.118125 116.40875 
L 570.103125 116.40875 
Q 566.903125 116.40875 566.903125 119.60875 
L 566.903125 234.32125 
Q 566.903125 237.52125 570.103125 237.52125 
z
" style="fill:#ffffff;opacity:0.8;stroke:#cccccc;stroke-linejoin:miter;"/>
    </g>
    <g id="line2d_104">
     <path d="M 573.303125 128.98375 
L 605.303125 128.98375 
" style="fill:none;stroke:#000000;stroke-dasharray:7.4,3.2;stroke-dashoffset:0;stroke-width:2;"/>
    </g>
    <g id="line2d_105"/>
    <g id="text_20">
     <!-- Pure stream -->
     <defs>
      <path d="M 45.40625 42.40625 
Q 56.796875 49.09375 62.59375 49.09375 
Q 68.59375 49.09375 72.046875 45.25 
Q 75.5 41.40625 75.5 33.90625 
L 75.5 5.703125 
L 77.203125 4.09375 
L 82.5 3.59375 
L 82.5 0 
L 60.703125 0 
L 60.703125 3.59375 
L 65.40625 4.09375 
L 67.203125 5.703125 
L 67.203125 32.203125 
Q 67.203125 37.5 65.046875 40 
Q 62.90625 42.5 58.203125 42.5 
Q 55.796875 42.5 52.9375 41.640625 
Q 50.09375 40.796875 46.90625 39.203125 
L 46.90625 5.703125 
L 48.703125 4.09375 
L 53.40625 3.59375 
L 53.40625 0 
L 32.09375 0 
L 32.09375 3.59375 
L 36.90625 4.09375 
L 38.59375 5.703125 
L 38.59375 32.203125 
Q 38.59375 42.5 29.796875 42.5 
Q 25 42.5 18.40625 39.203125 
L 18.40625 5.703125 
L 20.09375 4.09375 
L 24.90625 3.59375 
L 24.90625 0 
L 3 0 
L 3 3.59375 
L 8.40625 4.09375 
L 10.09375 5.703125 
L 10.09375 41.90625 
L 3 41.90625 
L 3 45 
L 14.59375 48.59375 
L 18.40625 48.59375 
L 18.40625 43.09375 
Q 23.40625 46 27.296875 47.546875 
Q 31.203125 49.09375 34.40625 49.09375 
Q 41.90625 49.09375 45.40625 42.40625 
z
" id="Charter-109"/>
     </defs>
     <g transform="translate(618.103125 134.58375)scale(0.16 -0.16)">
      <use xlink:href="#Charter-80"/>
      <use x="55.799988" xlink:href="#Charter-117"/>
      <use x="112.699982" xlink:href="#Charter-114"/>
      <use x="150.899979" xlink:href="#Charter-101"/>
      <use x="199.999969" xlink:href="#Charter-32"/>
      <use x="227.799957" xlink:href="#Charter-115"/>
      <use x="267.799942" xlink:href="#Charter-116"/>
      <use x="301.199936" xlink:href="#Charter-114"/>
      <use x="339.399933" xlink:href="#Charter-101"/>
      <use x="388.499924" xlink:href="#Charter-97"/>
      <use x="439.199921" xlink:href="#Charter-109"/>
     </g>
    </g>
    <g id="line2d_106">
     <path d="M 573.303125 152.24625 
L 605.303125 152.24625 
" style="fill:none;stroke:#e1e1e1;stroke-linecap:square;"/>
    </g>
    <g id="line2d_107">
     <g>
      <use style="fill:#e1e1e1;stroke:#e1e1e1;" x="589.303125" xlink:href="#mb18bac1357" y="152.24625"/>
     </g>
    </g>
    <g id="text_21">
     <!-- RPM=1000 -->
     <defs>
      <path d="M 28.796875 67.09375 
Q 41 67.09375 46.953125 62.75 
Q 52.90625 58.40625 52.90625 49.09375 
Q 52.90625 36.09375 36.703125 32.5 
Q 44.09375 30.5 47 25.796875 
Q 48 24.09375 48.640625 22.1875 
Q 49.296875 20.296875 49.75 18.390625 
Q 50.203125 16.5 50.59375 14.640625 
Q 51 12.796875 51.703125 11 
Q 52.5 8.796875 53.59375 7.390625 
Q 54.703125 6 56.203125 5.25 
Q 57.703125 4.5 59.75 4.203125 
Q 61.796875 3.90625 64.703125 3.90625 
L 65.59375 3.90625 
L 65.59375 0.09375 
Q 61.09375 -0.796875 57.796875 -0.796875 
Q 51 -0.796875 47.703125 2.09375 
Q 45.90625 3.703125 44.84375 5.640625 
Q 43.796875 7.59375 43.046875 9.796875 
Q 42.296875 12 41.75 14.390625 
Q 41.203125 16.796875 40.40625 19.203125 
Q 39.40625 22.296875 38.09375 24.34375 
Q 36.796875 26.40625 34.9375 27.65625 
Q 33.09375 28.90625 30.59375 29.453125 
Q 28.09375 30 24.703125 30 
Q 23.59375 30 22.34375 29.953125 
Q 21.09375 29.90625 19.703125 29.796875 
L 19.703125 6 
L 21.40625 4.59375 
L 27.09375 4.09375 
L 27.09375 0 
L 3.296875 0 
L 3.296875 4.09375 
L 9 4.59375 
L 10.703125 6 
L 10.703125 61.09375 
L 9 62.5 
L 3.296875 63.09375 
L 3.296875 67.09375 
z
M 19.703125 34.59375 
Q 22 34.5 23.34375 34.5 
Q 24.703125 34.5 25.203125 34.5 
Q 34.296875 34.5 38.59375 37.640625 
Q 42.90625 40.796875 42.90625 48.296875 
Q 42.90625 56.09375 38.40625 59.296875 
Q 33.90625 62.5 24.5 62.5 
L 19.703125 62.5 
z
" id="Charter-82"/>
      <path d="M 3.09375 4.09375 
L 9.09375 4.90625 
L 10.90625 6.796875 
L 10.90625 61.09375 
L 9.59375 62.5 
L 3 63.09375 
L 3 67.09375 
L 24.203125 67.09375 
L 24.203125 64.40625 
L 43 14.203125 
L 62 64 
L 62 67.09375 
L 83.40625 67.09375 
L 83.40625 63.09375 
L 77.09375 62.5 
L 75.90625 61.09375 
L 75.90625 6 
L 77.09375 4.59375 
L 83.40625 4.09375 
L 83.40625 0 
L 59.5 0 
L 59.5 4.09375 
L 66.09375 4.59375 
L 67.09375 6 
L 67.09375 62.40625 
L 43.40625 0 
L 39.09375 0 
L 16.296875 61.40625 
L 16.296875 6.796875 
L 18.09375 4.90625 
L 24.203125 4.09375 
L 24.203125 0 
L 3.09375 0 
z
" id="Charter-77"/>
     </defs>
     <g transform="translate(618.103125 157.84625)scale(0.16 -0.16)">
      <use xlink:href="#Charter-82"/>
      <use x="64.599991" xlink:href="#Charter-80"/>
      <use x="120.399979" xlink:href="#Charter-77"/>
      <use x="206.999969" xlink:href="#Charter-61"/>
      <use x="290.299957" xlink:href="#Charter-49"/>
      <use x="345.899948" xlink:href="#Charter-48"/>
      <use x="401.499939" xlink:href="#Charter-48"/>
      <use x="457.09993" xlink:href="#Charter-48"/>
     </g>
    </g>
    <g id="line2d_108">
     <path d="M 573.303125 175.50875 
L 605.303125 175.50875 
" style="fill:none;stroke:#c9c9c9;stroke-linecap:square;stroke-width:2;"/>
    </g>
    <g id="line2d_109">
     <g>
      <use style="fill:#c9c9c9;stroke:#c9c9c9;stroke-linejoin:miter;" x="589.303125" xlink:href="#ma4db1778f3" y="175.50875"/>
     </g>
    </g>
    <g id="text_22">
     <!-- RPM=50000 -->
     <g transform="translate(618.103125 181.10875)scale(0.16 -0.16)">
      <use xlink:href="#Charter-82"/>
      <use x="64.599991" xlink:href="#Charter-80"/>
      <use x="120.399979" xlink:href="#Charter-77"/>
      <use x="206.999969" xlink:href="#Charter-61"/>
      <use x="290.299957" xlink:href="#Charter-53"/>
      <use x="345.899948" xlink:href="#Charter-48"/>
      <use x="401.499939" xlink:href="#Charter-48"/>
      <use x="457.09993" xlink:href="#Charter-48"/>
      <use x="512.699921" xlink:href="#Charter-48"/>
     </g>
    </g>
    <g id="line2d_110">
     <path d="M 573.303125 198.77125 
L 605.303125 198.77125 
" style="fill:none;stroke:#929292;stroke-linecap:square;stroke-width:3;"/>
    </g>
    <g id="line2d_111">
     <g>
      <use style="fill:#929292;stroke:#929292;stroke-linejoin:miter;" x="589.303125" xlink:href="#m4df0ca34f8" y="198.77125"/>
     </g>
    </g>
    <g id="text_23">
     <!-- RPM=100000 -->
     <g transform="translate(618.103125 204.37125)scale(0.16 -0.16)">
      <use xlink:href="#Charter-82"/>
      <use x="64.599991" xlink:href="#Charter-80"/>
      <use x="120.399979" xlink:href="#Charter-77"/>
      <use x="206.999969" xlink:href="#Charter-61"/>
      <use x="290.299957" xlink:href="#Charter-49"/>
      <use x="345.899948" xlink:href="#Charter-48"/>
      <use x="401.499939" xlink:href="#Charter-48"/>
      <use x="457.09993" xlink:href="#Charter-48"/>
      <use x="512.699921" xlink:href="#Charter-48"/>
      <use x="568.299911" xlink:href="#Charter-48"/>
     </g>
    </g>
    <g id="line2d_112">
     <path d="M 573.303125 222.03375 
L 605.303125 222.03375 
" style="fill:none;stroke:#4b4b4b;stroke-linecap:square;stroke-width:4;"/>
    </g>
    <g id="line2d_113">
     <g>
      <use style="fill:#4b4b4b;stroke:#4b4b4b;stroke-linejoin:miter;" x="589.303125" xlink:href="#m3ecbc159c4" y="222.03375"/>
     </g>
    </g>
    <g id="text_24">
     <!-- RPM=150000 -->
     <g transform="translate(618.103125 227.63375)scale(0.16 -0.16)">
      <use xlink:href="#Charter-82"/>
      <use x="64.599991" xlink:href="#Charter-80"/>
      <use x="120.399979" xlink:href="#Charter-77"/>
      <use x="206.999969" xlink:href="#Charter-61"/>
      <use x="290.299957" xlink:href="#Charter-49"/>
      <use x="345.899948" xlink:href="#Charter-53"/>
      <use x="401.499939" xlink:href="#Charter-48"/>
      <use x="457.09993" xlink:href="#Charter-48"/>
      <use x="512.699921" xlink:href="#Charter-48"/>
      <use x="568.299911" xlink:href="#Charter-48"/>
     </g>
    </g>
   </g>
  </g>
 </g>
 <defs>
  <clipPath id="pa715728b12">
   <rect height="217.44" width="669.6" x="62.718125" y="28.08125"/>
  </clipPath>
 </defs>
</svg>
