<?xml version="1.0" encoding="utf-8" standalone="no"?>
<!DOCTYPE svg PUBLIC "-//W3C//DTD SVG 1.1//EN"
  "http://www.w3.org/Graphics/SVG/1.1/DTD/svg11.dtd">
<!-- Created with matplotlib (https://matplotlib.org/) -->
<svg height="339.55625pt" version="1.1" viewBox="0 0 629.27375 339.55625" width="629.27375pt" xmlns="http://www.w3.org/2000/svg" xmlns:xlink="http://www.w3.org/1999/xlink">
 <defs>
  <style type="text/css">
*{stroke-linecap:butt;stroke-linejoin:round;}
  </style>
 </defs>
 <g id="figure_1">
  <g id="patch_1">
   <path d="M -0 339.55625 
L 629.27375 339.55625 
L 629.27375 0 
L -0 0 
z
" style="fill:#ffffff;"/>
  </g>
  <g id="axes_1">
   <g id="patch_2">
    <path d="M 64.07375 290.83125 
L 622.07375 290.83125 
L 622.07375 19.03125 
L 64.07375 19.03125 
z
" style="fill:#ffffff;"/>
   </g>
   <g id="matplotlib.axis_1">
    <g id="xtick_1">
     <g id="line2d_1">
      <path clip-path="url(#p235a79a32c)" d="M 89.437386 290.83125 
L 89.437386 19.03125 
" style="fill:none;stroke:#b0b0b0;stroke-linecap:square;stroke-opacity:0.3;stroke-width:0.8;"/>
     </g>
     <g id="line2d_2">
      <defs>
       <path d="M 0 0 
L 0 3.5 
" id="me627e642a9" style="stroke:#000000;stroke-width:0.8;"/>
      </defs>
      <g>
       <use style="stroke:#000000;stroke-width:0.8;" x="89.437386" xlink:href="#me627e642a9" y="290.83125"/>
      </g>
     </g>
     <g id="text_1">
      <!-- 0.000 -->
      <defs>
       <path d="M 27.796875 68.296875 
Q 33.203125 68.296875 37.546875 66 
Q 41.90625 63.703125 45 59.25 
Q 48.09375 54.796875 49.796875 48.34375 
Q 51.5 41.90625 51.5 33.59375 
Q 51.5 25.296875 49.796875 18.84375 
Q 48.09375 12.40625 45 7.953125 
Q 41.90625 3.5 37.546875 1.140625 
Q 33.203125 -1.203125 27.796875 -1.203125 
Q 22.40625 -1.203125 18.046875 1.140625 
Q 13.703125 3.5 10.59375 7.953125 
Q 7.5 12.40625 5.796875 18.84375 
Q 4.09375 25.296875 4.09375 33.59375 
Q 4.09375 41.90625 5.796875 48.34375 
Q 7.5 54.796875 10.59375 59.25 
Q 13.703125 63.703125 18.046875 66 
Q 22.40625 68.296875 27.796875 68.296875 
z
M 27.796875 63.59375 
Q 20.90625 63.59375 17.203125 56.046875 
Q 13.5 48.5 13.5 33.5 
Q 13.5 18.59375 17.203125 11.09375 
Q 20.90625 3.59375 27.796875 3.59375 
Q 34.703125 3.59375 38.34375 11.140625 
Q 42 18.703125 42 33.59375 
Q 42 48.5 38.34375 56.046875 
Q 34.703125 63.59375 27.796875 63.59375 
z
" id="Charter-48"/>
       <path d="M 13.90625 11.796875 
Q 16.5 11.796875 18.34375 9.9375 
Q 20.203125 8.09375 20.203125 5.40625 
Q 20.203125 2.796875 18.34375 0.9375 
Q 16.5 -0.90625 13.90625 -0.90625 
Q 11.296875 -0.90625 9.390625 0.890625 
Q 7.5 2.703125 7.5 5.40625 
Q 7.5 8.09375 9.390625 9.9375 
Q 11.296875 11.796875 13.90625 11.796875 
z
" id="Charter-46"/>
      </defs>
      <g transform="translate(74.427074 306.6625)scale(0.12 -0.12)">
       <use xlink:href="#Charter-48"/>
       <use x="55.599991" xlink:href="#Charter-46"/>
       <use x="83.399979" xlink:href="#Charter-48"/>
       <use x="138.999969" xlink:href="#Charter-48"/>
       <use x="194.59996" xlink:href="#Charter-48"/>
      </g>
     </g>
    </g>
    <g id="xtick_2">
     <g id="line2d_3">
      <path clip-path="url(#p235a79a32c)" d="M 190.891932 290.83125 
L 190.891932 19.03125 
" style="fill:none;stroke:#b0b0b0;stroke-linecap:square;stroke-opacity:0.3;stroke-width:0.8;"/>
     </g>
     <g id="line2d_4">
      <g>
       <use style="stroke:#000000;stroke-width:0.8;" x="190.891932" xlink:href="#me627e642a9" y="290.83125"/>
      </g>
     </g>
     <g id="text_2">
      <!-- 0.002 -->
      <defs>
       <path d="M 44.203125 7.90625 
L 46 16.40625 
L 50.5 16.40625 
L 50.5 0 
L 4.203125 0 
L 4.203125 6.296875 
Q 12.40625 13 18.796875 18.5 
Q 25.203125 24 29.59375 28.953125 
Q 34 33.90625 36.296875 38.546875 
Q 38.59375 43.203125 38.59375 48.09375 
Q 38.59375 55.296875 35.09375 59.25 
Q 31.59375 63.203125 25.296875 63.203125 
Q 23 63.203125 20.84375 62.640625 
Q 18.703125 62.09375 16.40625 60.796875 
L 16.40625 50.09375 
Q 14.296875 48.59375 11.90625 48.59375 
Q 9.296875 48.59375 7.796875 50.09375 
Q 6.296875 51.59375 6.296875 54.203125 
Q 6.296875 56.796875 7.84375 59.34375 
Q 9.40625 61.90625 12.25 63.90625 
Q 15.09375 65.90625 18.9375 67.09375 
Q 22.796875 68.296875 27.5 68.296875 
Q 32.296875 68.296875 36.140625 66.9375 
Q 40 65.59375 42.703125 63.09375 
Q 45.40625 60.59375 46.84375 57.09375 
Q 48.296875 53.59375 48.296875 49.40625 
Q 48.296875 44.703125 46.046875 40.09375 
Q 43.796875 35.5 39.4375 30.546875 
Q 35.09375 25.59375 28.75 20.046875 
Q 22.40625 14.5 14.09375 7.90625 
z
" id="Charter-50"/>
      </defs>
      <g transform="translate(175.881619 306.6625)scale(0.12 -0.12)">
       <use xlink:href="#Charter-48"/>
       <use x="55.599991" xlink:href="#Charter-46"/>
       <use x="83.399979" xlink:href="#Charter-48"/>
       <use x="138.999969" xlink:href="#Charter-48"/>
       <use x="194.59996" xlink:href="#Charter-50"/>
      </g>
     </g>
    </g>
    <g id="xtick_3">
     <g id="line2d_5">
      <path clip-path="url(#p235a79a32c)" d="M 292.346477 290.83125 
L 292.346477 19.03125 
" style="fill:none;stroke:#b0b0b0;stroke-linecap:square;stroke-opacity:0.3;stroke-width:0.8;"/>
     </g>
     <g id="line2d_6">
      <g>
       <use style="stroke:#000000;stroke-width:0.8;" x="292.346477" xlink:href="#me627e642a9" y="290.83125"/>
      </g>
     </g>
     <g id="text_3">
      <!-- 0.004 -->
      <defs>
       <path d="M 42.59375 67.703125 
L 42.59375 25.90625 
L 53.90625 25.90625 
L 53.90625 19.40625 
L 42.59375 19.40625 
L 42.59375 -3.703125 
L 34.90625 -3.703125 
L 34.90625 19.40625 
L 2.703125 19.40625 
L 2.703125 25.90625 
L 36.796875 67.703125 
z
M 10.203125 25.90625 
L 34.90625 25.90625 
L 34.90625 56.796875 
z
" id="Charter-52"/>
      </defs>
      <g transform="translate(277.336165 306.6625)scale(0.12 -0.12)">
       <use xlink:href="#Charter-48"/>
       <use x="55.599991" xlink:href="#Charter-46"/>
       <use x="83.399979" xlink:href="#Charter-48"/>
       <use x="138.999969" xlink:href="#Charter-48"/>
       <use x="194.59996" xlink:href="#Charter-52"/>
      </g>
     </g>
    </g>
    <g id="xtick_4">
     <g id="line2d_7">
      <path clip-path="url(#p235a79a32c)" d="M 393.801023 290.83125 
L 393.801023 19.03125 
" style="fill:none;stroke:#b0b0b0;stroke-linecap:square;stroke-opacity:0.3;stroke-width:0.8;"/>
     </g>
     <g id="line2d_8">
      <g>
       <use style="stroke:#000000;stroke-width:0.8;" x="393.801023" xlink:href="#me627e642a9" y="290.83125"/>
      </g>
     </g>
     <g id="text_4">
      <!-- 0.006 -->
      <defs>
       <path d="M 44.296875 65.59375 
L 44 65.59375 
Q 31.90625 65.59375 24.453125 58.6875 
Q 17 51.796875 14.703125 38.40625 
Q 22.59375 44.5 31.703125 44.5 
Q 36.203125 44.5 40 42.890625 
Q 43.796875 41.296875 46.546875 38.390625 
Q 49.296875 35.5 50.890625 31.5 
Q 52.5 27.5 52.5 22.703125 
Q 52.5 17.59375 50.640625 13.25 
Q 48.796875 8.90625 45.546875 5.703125 
Q 42.296875 2.5 37.84375 0.640625 
Q 33.40625 -1.203125 28.296875 -1.203125 
Q 23.203125 -1.203125 18.953125 0.796875 
Q 14.703125 2.796875 11.59375 6.5 
Q 8.5 10.203125 6.75 15.546875 
Q 5 20.90625 5 27.703125 
Q 5 37.296875 7.703125 45.09375 
Q 10.40625 52.90625 15.453125 58.546875 
Q 20.5 64.203125 27.796875 67.5 
Q 35.09375 70.796875 44.296875 71.40625 
z
M 14.5 34 
Q 14.296875 32.40625 14.296875 30.84375 
Q 14.296875 29.296875 14.296875 27.90625 
Q 14.296875 15.90625 18.140625 9.75 
Q 22 3.59375 29.09375 3.59375 
Q 32.203125 3.59375 34.84375 4.9375 
Q 37.5 6.296875 39.390625 8.6875 
Q 41.296875 11.09375 42.34375 14.4375 
Q 43.40625 17.796875 43.40625 21.796875 
Q 43.40625 29.59375 39.40625 34.046875 
Q 35.40625 38.5 29 38.5 
Q 20.59375 38.5 14.5 34 
z
" id="Charter-54"/>
      </defs>
      <g transform="translate(378.79071 306.6625)scale(0.12 -0.12)">
       <use xlink:href="#Charter-48"/>
       <use x="55.599991" xlink:href="#Charter-46"/>
       <use x="83.399979" xlink:href="#Charter-48"/>
       <use x="138.999969" xlink:href="#Charter-48"/>
       <use x="194.59996" xlink:href="#Charter-54"/>
      </g>
     </g>
    </g>
    <g id="xtick_5">
     <g id="line2d_9">
      <path clip-path="url(#p235a79a32c)" d="M 495.255568 290.83125 
L 495.255568 19.03125 
" style="fill:none;stroke:#b0b0b0;stroke-linecap:square;stroke-opacity:0.3;stroke-width:0.8;"/>
     </g>
     <g id="line2d_10">
      <g>
       <use style="stroke:#000000;stroke-width:0.8;" x="495.255568" xlink:href="#me627e642a9" y="290.83125"/>
      </g>
     </g>
     <g id="text_5">
      <!-- 0.008 -->
      <defs>
       <path d="M 32.09375 36.90625 
Q 36 39.5 38.046875 43.09375 
Q 40.09375 46.703125 40.09375 50.703125 
Q 40.09375 56.703125 36.796875 60.203125 
Q 33.5 63.703125 28 63.703125 
Q 25.40625 63.703125 23.203125 62.796875 
Q 21 61.90625 19.34375 60.296875 
Q 17.703125 58.703125 16.796875 56.546875 
Q 15.90625 54.40625 15.90625 51.90625 
Q 15.90625 46.90625 19.90625 43.34375 
Q 23.90625 39.796875 32.09375 36.90625 
z
M 36.296875 35.09375 
Q 43.40625 32.59375 47 28.1875 
Q 50.59375 23.796875 50.59375 17.90625 
Q 50.59375 13.90625 48.9375 10.34375 
Q 47.296875 6.796875 44.25 4.140625 
Q 41.203125 1.5 36.953125 -0.046875 
Q 32.703125 -1.59375 27.5 -1.59375 
Q 22.09375 -1.59375 17.796875 -0.140625 
Q 13.5 1.296875 10.546875 3.84375 
Q 7.59375 6.40625 6 9.953125 
Q 4.40625 13.5 4.40625 17.703125 
Q 4.40625 29.703125 18.09375 35 
Q 7.59375 39.40625 7.59375 50.40625 
Q 7.59375 54.40625 9.09375 57.703125 
Q 10.59375 61 13.296875 63.390625 
Q 16 65.796875 19.796875 67.140625 
Q 23.59375 68.5 28.296875 68.5 
Q 32.796875 68.5 36.390625 67.25 
Q 40 66 42.546875 63.75 
Q 45.09375 61.5 46.4375 58.390625 
Q 47.796875 55.296875 47.796875 51.703125 
Q 47.796875 46.703125 44.84375 42.34375 
Q 41.90625 38 36.296875 35.09375 
z
M 21.90625 32.90625 
Q 16.796875 30.203125 14.4375 26.796875 
Q 12.09375 23.40625 12.09375 18.296875 
Q 12.09375 11.703125 16.34375 7.640625 
Q 20.59375 3.59375 27.796875 3.59375 
Q 34.296875 3.59375 38.140625 7.25 
Q 42 10.90625 42 16.90625 
Q 42 19.90625 40.75 22.046875 
Q 39.5 24.203125 37 26 
Q 34.5 27.796875 30.703125 29.390625 
Q 26.90625 31 21.90625 32.90625 
z
" id="Charter-56"/>
      </defs>
      <g transform="translate(480.245256 306.6625)scale(0.12 -0.12)">
       <use xlink:href="#Charter-48"/>
       <use x="55.599991" xlink:href="#Charter-46"/>
       <use x="83.399979" xlink:href="#Charter-48"/>
       <use x="138.999969" xlink:href="#Charter-48"/>
       <use x="194.59996" xlink:href="#Charter-56"/>
      </g>
     </g>
    </g>
    <g id="xtick_6">
     <g id="line2d_11">
      <path clip-path="url(#p235a79a32c)" d="M 596.710114 290.83125 
L 596.710114 19.03125 
" style="fill:none;stroke:#b0b0b0;stroke-linecap:square;stroke-opacity:0.3;stroke-width:0.8;"/>
     </g>
     <g id="line2d_12">
      <g>
       <use style="stroke:#000000;stroke-width:0.8;" x="596.710114" xlink:href="#me627e642a9" y="290.83125"/>
      </g>
     </g>
     <g id="text_6">
      <!-- 0.010 -->
      <defs>
       <path d="M 33.90625 68.296875 
L 33.90625 6.203125 
L 35.09375 4.703125 
L 45.90625 4.203125 
L 45.90625 0 
L 12.40625 0 
L 12.40625 4.296875 
L 23.90625 4.90625 
L 25.09375 6.59375 
L 25.09375 60.40625 
L 9.40625 57.59375 
L 9.40625 61.796875 
L 31.09375 68.296875 
z
" id="Charter-49"/>
      </defs>
      <g transform="translate(581.699801 306.6625)scale(0.12 -0.12)">
       <use xlink:href="#Charter-48"/>
       <use x="55.599991" xlink:href="#Charter-46"/>
       <use x="83.399979" xlink:href="#Charter-48"/>
       <use x="138.999969" xlink:href="#Charter-49"/>
       <use x="194.59996" xlink:href="#Charter-48"/>
      </g>
     </g>
    </g>
    <g id="text_7">
     <!-- $z$ [$m$] -->
     <defs>
      <path d="M 37.296875 49 
L 35.40625 44.09375 
C 34.296875 43.59375 33.296875 43.296875 32.40625 43.296875 
C 30.296875 43.296875 28.203125 44.296875 25.59375 45.59375 
C 22.90625 47 20.40625 48.296875 17.40625 48.296875 
C 10.5 48.296875 3.90625 41.296875 3.90625 34.296875 
C 3.90625 30.59375 5.796875 28.40625 8.59375 28.40625 
C 10.59375 28.40625 12.09375 29.5 13.296875 31.59375 
L 8 38 
C 9.5 40.09375 11.703125 41.203125 14.296875 41.203125 
C 16.40625 41.203125 19.40625 40.203125 23.09375 38.296875 
L 33 40.5 
L -1.40625 1.90625 
L 4.09375 -1.09375 
L 6.5 3.203125 
C 7.59375 3.796875 8.59375 4.09375 9.703125 4.09375 
C 14.5 4.09375 19.59375 -0.203125 25.296875 -0.203125 
C 32.59375 -0.203125 39.203125 6.90625 39.203125 13.796875 
C 39.203125 17.40625 37.09375 19.796875 34.296875 19.796875 
C 32.59375 19.796875 30.90625 18.59375 29.5 16.203125 
L 35 10.09375 
C 33.40625 7.703125 31.296875 6.5 28.796875 6.5 
C 26.90625 6.5 23.5 7.59375 18.59375 9.796875 
L 8.90625 7.296875 
L 43.40625 45.796875 
z
" id="Charter-Italic-122"/>
      <path id="Charter-32"/>
      <path d="M 37.59375 70.796875 
L 37.59375 66.5 
L 21.796875 66.5 
L 21.796875 -9 
L 37.59375 -9 
L 37.59375 -13.203125 
L 13.90625 -13.203125 
L 13.90625 70.796875 
z
" id="Charter-91"/>
      <path d="M 18.09375 48.203125 
L 3.296875 45 
L 3.296875 42.40625 
L 11.5 40.796875 
L 3.203125 0 
L 11.59375 0 
L 17.90625 33.90625 
C 24.203125 39.59375 29.5 42.09375 32.09375 42.09375 
C 35.59375 42.09375 37.59375 39.90625 37.59375 36.203125 
C 37.59375 34.796875 37.296875 32.5 36.703125 29.296875 
L 30.703125 0 
L 39 0 
L 45.5 34 
C 50.09375 39.40625 55.296875 42.09375 59.09375 42.09375 
C 62.40625 42.09375 64 39.90625 64 35.703125 
C 64 34.296875 63.796875 32.203125 63.09375 29.296875 
L 58.796875 10.796875 
C 58.296875 8.5 58 6.59375 58 5.40625 
C 58 1.296875 60.296875 -0.59375 65.296875 -0.59375 
C 68 -0.59375 72 0.5 77.296875 2.5 
L 77.296875 5.203125 
C 75 4.59375 73.09375 4.296875 71.703125 4.296875 
C 68.5 4.296875 66.59375 6.09375 66.59375 9.296875 
C 66.59375 10.90625 67.09375 13.09375 67.703125 15.796875 
L 71.09375 31.296875 
C 71.90625 34.703125 72.296875 37.5 72.296875 39.703125 
C 72.296875 45 68.90625 48.203125 64.09375 48.203125 
C 59.296875 48.203125 53.09375 45.203125 45.796875 39.09375 
C 45.703125 45 42.703125 48.203125 37.703125 48.203125 
C 33 48.203125 26.59375 45.09375 18.796875 38.703125 
L 20.59375 48.203125 
z
" id="Charter-Italic-109"/>
      <path d="M 28.203125 70.796875 
L 28.203125 -13.296875 
L 4.59375 -13.296875 
L 4.59375 -9 
L 20.40625 -9 
L 20.40625 66.5 
L 4.59375 66.5 
L 4.59375 70.796875 
z
" id="Charter-93"/>
     </defs>
     <g transform="translate(319.27375 327.996875)scale(0.2 -0.2)">
      <use transform="translate(0 0.203125)" xlink:href="#Charter-Italic-122"/>
      <use transform="translate(43.999985 0.203125)" xlink:href="#Charter-32"/>
      <use transform="translate(71.799973 0.203125)" xlink:href="#Charter-91"/>
      <use transform="translate(113.899963 0.203125)" xlink:href="#Charter-Italic-109"/>
      <use transform="translate(195.399948 0.203125)" xlink:href="#Charter-93"/>
     </g>
    </g>
   </g>
   <g id="matplotlib.axis_2">
    <g id="ytick_1">
     <g id="line2d_13">
      <path clip-path="url(#p235a79a32c)" d="M 64.07375 272.942817 
L 622.07375 272.942817 
" style="fill:none;stroke:#b0b0b0;stroke-linecap:square;stroke-opacity:0.3;stroke-width:0.8;"/>
     </g>
     <g id="line2d_14">
      <defs>
       <path d="M 0 0 
L -3.5 0 
" id="mdb51abcfc8" style="stroke:#000000;stroke-width:0.8;"/>
      </defs>
      <g>
       <use style="stroke:#000000;stroke-width:0.8;" x="64.07375" xlink:href="#mdb51abcfc8" y="272.942817"/>
      </g>
     </g>
     <g id="text_8">
      <!-- −0.2 -->
      <defs>
       <path d="M 70.90625 32.703125 
L 70.90625 26.90625 
L 12.40625 26.90625 
L 12.40625 32.703125 
z
" id="Charter-8722"/>
      </defs>
      <g transform="translate(30.4 277.358442)scale(0.12 -0.12)">
       <use xlink:href="#Charter-8722"/>
       <use x="83.299988" xlink:href="#Charter-48"/>
       <use x="138.899979" xlink:href="#Charter-46"/>
       <use x="166.699966" xlink:href="#Charter-50"/>
      </g>
     </g>
    </g>
    <g id="ytick_2">
     <g id="line2d_15">
      <path clip-path="url(#p235a79a32c)" d="M 64.07375 233.24734 
L 622.07375 233.24734 
" style="fill:none;stroke:#b0b0b0;stroke-linecap:square;stroke-opacity:0.3;stroke-width:0.8;"/>
     </g>
     <g id="line2d_16">
      <g>
       <use style="stroke:#000000;stroke-width:0.8;" x="64.07375" xlink:href="#mdb51abcfc8" y="233.24734"/>
      </g>
     </g>
     <g id="text_9">
      <!-- 0.0 -->
      <g transform="translate(40.395625 237.662965)scale(0.12 -0.12)">
       <use xlink:href="#Charter-48"/>
       <use x="55.599991" xlink:href="#Charter-46"/>
       <use x="83.399979" xlink:href="#Charter-48"/>
      </g>
     </g>
    </g>
    <g id="ytick_3">
     <g id="line2d_17">
      <path clip-path="url(#p235a79a32c)" d="M 64.07375 193.551863 
L 622.07375 193.551863 
" style="fill:none;stroke:#b0b0b0;stroke-linecap:square;stroke-opacity:0.3;stroke-width:0.8;"/>
     </g>
     <g id="line2d_18">
      <g>
       <use style="stroke:#000000;stroke-width:0.8;" x="64.07375" xlink:href="#mdb51abcfc8" y="193.551863"/>
      </g>
     </g>
     <g id="text_10">
      <!-- 0.2 -->
      <g transform="translate(40.395625 197.967488)scale(0.12 -0.12)">
       <use xlink:href="#Charter-48"/>
       <use x="55.599991" xlink:href="#Charter-46"/>
       <use x="83.399979" xlink:href="#Charter-50"/>
      </g>
     </g>
    </g>
    <g id="ytick_4">
     <g id="line2d_19">
      <path clip-path="url(#p235a79a32c)" d="M 64.07375 153.856385 
L 622.07375 153.856385 
" style="fill:none;stroke:#b0b0b0;stroke-linecap:square;stroke-opacity:0.3;stroke-width:0.8;"/>
     </g>
     <g id="line2d_20">
      <g>
       <use style="stroke:#000000;stroke-width:0.8;" x="64.07375" xlink:href="#mdb51abcfc8" y="153.856385"/>
      </g>
     </g>
     <g id="text_11">
      <!-- 0.4 -->
      <g transform="translate(40.395625 158.27201)scale(0.12 -0.12)">
       <use xlink:href="#Charter-48"/>
       <use x="55.599991" xlink:href="#Charter-46"/>
       <use x="83.399979" xlink:href="#Charter-52"/>
      </g>
     </g>
    </g>
    <g id="ytick_5">
     <g id="line2d_21">
      <path clip-path="url(#p235a79a32c)" d="M 64.07375 114.160908 
L 622.07375 114.160908 
" style="fill:none;stroke:#b0b0b0;stroke-linecap:square;stroke-opacity:0.3;stroke-width:0.8;"/>
     </g>
     <g id="line2d_22">
      <g>
       <use style="stroke:#000000;stroke-width:0.8;" x="64.07375" xlink:href="#mdb51abcfc8" y="114.160908"/>
      </g>
     </g>
     <g id="text_12">
      <!-- 0.6 -->
      <g transform="translate(40.395625 118.576533)scale(0.12 -0.12)">
       <use xlink:href="#Charter-48"/>
       <use x="55.599991" xlink:href="#Charter-46"/>
       <use x="83.399979" xlink:href="#Charter-54"/>
      </g>
     </g>
    </g>
    <g id="ytick_6">
     <g id="line2d_23">
      <path clip-path="url(#p235a79a32c)" d="M 64.07375 74.465431 
L 622.07375 74.465431 
" style="fill:none;stroke:#b0b0b0;stroke-linecap:square;stroke-opacity:0.3;stroke-width:0.8;"/>
     </g>
     <g id="line2d_24">
      <g>
       <use style="stroke:#000000;stroke-width:0.8;" x="64.07375" xlink:href="#mdb51abcfc8" y="74.465431"/>
      </g>
     </g>
     <g id="text_13">
      <!-- 0.8 -->
      <g transform="translate(40.395625 78.881056)scale(0.12 -0.12)">
       <use xlink:href="#Charter-48"/>
       <use x="55.599991" xlink:href="#Charter-46"/>
       <use x="83.399979" xlink:href="#Charter-56"/>
      </g>
     </g>
    </g>
    <g id="ytick_7">
     <g id="line2d_25">
      <path clip-path="url(#p235a79a32c)" d="M 64.07375 34.769953 
L 622.07375 34.769953 
" style="fill:none;stroke:#b0b0b0;stroke-linecap:square;stroke-opacity:0.3;stroke-width:0.8;"/>
     </g>
     <g id="line2d_26">
      <g>
       <use style="stroke:#000000;stroke-width:0.8;" x="64.07375" xlink:href="#mdb51abcfc8" y="34.769953"/>
      </g>
     </g>
     <g id="text_14">
      <!-- 1.0 -->
      <g transform="translate(40.395625 39.185578)scale(0.12 -0.12)">
       <use xlink:href="#Charter-49"/>
       <use x="55.599991" xlink:href="#Charter-46"/>
       <use x="83.399979" xlink:href="#Charter-48"/>
      </g>
     </g>
    </g>
    <g id="text_15">
     <!-- $D$ [$m^2/s$] -->
     <defs>
      <path d="M 8.40625 67.09375 
L 8.40625 63.296875 
L 14.90625 62.796875 
L 15.90625 61.296875 
L 5.203125 5.796875 
L 3.59375 4.40625 
L -2.796875 3.796875 
L -2.796875 0 
L 18.296875 0 
C 32 0 42 3.296875 49.90625 11.09375 
C 57.796875 18.90625 62.296875 29.90625 62.296875 41.59375 
C 62.296875 58.09375 51.59375 67.09375 31.09375 67.09375 
z
M 24.90625 62.5 
L 30.296875 62.5 
C 45.296875 62.5 52.59375 56.09375 52.59375 42.59375 
C 52.59375 32.203125 49.09375 21.90625 44 15.203125 
C 38.796875 8.40625 30.40625 4.703125 19.5 4.703125 
L 14 4.703125 
z
" id="Charter-Italic-68"/>
      <path d="M 46 67.09375 
L 3.203125 -9.296875 
L -2.796875 -9.296875 
L 39.90625 67.09375 
z
" id="Charter-47"/>
      <path d="M 26.59375 36.90625 
C 30.296875 37.09375 32.40625 39.203125 32.40625 42 
C 32.40625 45.5 28.796875 48.203125 23.09375 48.203125 
C 13.5 48.203125 5.90625 41.296875 5.90625 33.09375 
C 5.90625 27.5 9.703125 24.796875 15.40625 20.5 
C 19.59375 17.296875 22.296875 15 22.296875 11.203125 
C 22.296875 5.90625 18.90625 2.703125 13.203125 2.703125 
C 10.09375 2.703125 7.59375 3.90625 6 6.203125 
L 7.796875 11.203125 
C 6.203125 12.40625 4.90625 13 3.5 13 
C 0.40625 13 -1.703125 11 -1.703125 7.90625 
C -1.703125 2.703125 3.203125 -0.90625 11.59375 -0.90625 
C 22.5 -0.90625 29.90625 5.796875 29.90625 14.5 
C 29.90625 20.5 25.796875 23.09375 19.796875 27.703125 
C 15.09375 31.296875 12.296875 33.40625 12.296875 37 
C 12.296875 40.90625 15.296875 43.703125 19.296875 43.703125 
C 20.40625 43.703125 21.40625 43.40625 22.40625 42.703125 
z
" id="Charter-Italic-115"/>
     </defs>
     <g transform="translate(22.040625 194.03125)rotate(-90)scale(0.2 -0.2)">
      <use transform="translate(0 0.176563)" xlink:href="#Charter-Italic-68"/>
      <use transform="translate(67.099991 0.176563)" xlink:href="#Charter-32"/>
      <use transform="translate(94.899979 0.176563)" xlink:href="#Charter-91"/>
      <use transform="translate(136.999969 0.176563)" xlink:href="#Charter-Italic-109"/>
      <use transform="translate(222.413756 34.192188)scale(0.7)" xlink:href="#Charter-50"/>
      <use transform="translate(263.763437 0.176563)" xlink:href="#Charter-47"/>
      <use transform="translate(311.863428 0.176563)" xlink:href="#Charter-Italic-115"/>
      <use transform="translate(348.863413 0.176563)" xlink:href="#Charter-93"/>
     </g>
    </g>
    <g id="text_16">
     <!-- 1e−6 -->
     <defs>
      <path d="M 44.796875 5.09375 
Q 40.296875 2.09375 35.546875 0.59375 
Q 30.796875 -0.90625 26 -0.90625 
Q 21 -0.90625 16.890625 0.890625 
Q 12.796875 2.703125 9.890625 5.890625 
Q 7 9.09375 5.34375 13.640625 
Q 3.703125 18.203125 3.703125 23.703125 
Q 3.703125 29.40625 5.390625 34.046875 
Q 7.09375 38.703125 10.1875 42.046875 
Q 13.296875 45.40625 17.546875 47.25 
Q 21.796875 49.09375 26.796875 49.09375 
Q 35 49.09375 39.890625 43.890625 
Q 44.796875 38.703125 44.796875 29.40625 
Q 44.796875 28.59375 44.796875 27.84375 
Q 44.796875 27.09375 44.703125 26.296875 
L 12.296875 26.296875 
L 12.296875 25.203125 
Q 12.296875 15.5 16.890625 10.140625 
Q 21.5 4.796875 29.09375 4.796875 
Q 32.90625 4.796875 36.703125 6.25 
Q 40.5 7.703125 44.796875 10.59375 
z
M 35.90625 32.09375 
Q 35.90625 38.203125 33.25 41.390625 
Q 30.59375 44.59375 25.5 44.59375 
Q 23.09375 44.59375 20.890625 43.59375 
Q 18.703125 42.59375 16.953125 40.75 
Q 15.203125 38.90625 14.09375 36.296875 
Q 13 33.703125 12.796875 30.5 
L 35.90625 30.5 
z
" id="Charter-101"/>
     </defs>
     <g transform="translate(64.07375 16.03125)scale(0.12 -0.12)">
      <use xlink:href="#Charter-49"/>
      <use x="55.599991" xlink:href="#Charter-101"/>
      <use x="104.699982" xlink:href="#Charter-8722"/>
      <use x="187.999969" xlink:href="#Charter-54"/>
     </g>
    </g>
   </g>
   <g id="line2d_27">
    <path clip-path="url(#p235a79a32c)" d="M 89.437386 160.507221 
L 145.801023 165.521361 
L 202.164659 171.035062 
L 258.528295 177.126895 
L 314.891932 183.892819 
L 371.255568 191.451272 
L 427.619205 199.950164 
L 483.982841 209.576653 
L 540.346477 220.571087 
L 596.710114 233.24734 
" style="fill:none;stroke:#000000;stroke-linecap:square;stroke-width:2;"/>
   </g>
   <g id="line2d_28">
    <path clip-path="url(#p235a79a32c)" d="M 89.437386 173.484016 
L 145.801023 163.691383 
L 202.164659 152.922677 
L 258.528295 141.024313 
L 314.891932 127.808697 
L 371.255568 113.044262 
L 427.619205 96.441791 
L 483.982841 77.635273 
L 540.346477 56.154613 
L 596.710114 31.385795 
" style="fill:none;stroke:#000000;stroke-dasharray:7.4,3.2;stroke-dashoffset:0;stroke-width:2;"/>
   </g>
   <g id="line2d_29">
    <path clip-path="url(#p235a79a32c)" d="M 89.437386 278.476705 
L 145.801023 275.413425 
L 202.164659 272.035722 
L 258.528295 268.292589 
L 314.891932 264.12136 
L 371.255568 259.444181 
L 427.619205 254.163111 
L 483.982841 248.153204 
L 540.346477 241.252518 
L 596.710114 233.24734 
" style="fill:none;stroke:#ff0000;stroke-linecap:square;stroke-width:2;"/>
   </g>
   <g id="line2d_30">
    <path clip-path="url(#p235a79a32c)" d="M 89.437386 231.905674 
L 145.801023 231.686978 
L 202.164659 231.446858 
L 258.528295 231.182006 
L 314.891932 230.888396 
L 371.255568 230.561081 
L 427.619205 230.193908 
L 483.982841 229.779134 
L 540.346477 229.306873 
L 596.710114 228.764304 
" style="fill:none;stroke:#ff0000;stroke-dasharray:7.4,3.2;stroke-dashoffset:0;stroke-width:2;"/>
   </g>
   <g id="patch_3">
    <path d="M 64.07375 290.83125 
L 64.07375 19.03125 
" style="fill:none;stroke:#000000;stroke-linecap:square;stroke-linejoin:miter;stroke-width:0.8;"/>
   </g>
   <g id="patch_4">
    <path d="M 622.07375 290.83125 
L 622.07375 19.03125 
" style="fill:none;stroke:#000000;stroke-linecap:square;stroke-linejoin:miter;stroke-width:0.8;"/>
   </g>
   <g id="patch_5">
    <path d="M 64.07375 290.83125 
L 622.07375 290.83125 
" style="fill:none;stroke:#000000;stroke-linecap:square;stroke-linejoin:miter;stroke-width:0.8;"/>
   </g>
   <g id="patch_6">
    <path d="M 64.07375 19.03125 
L 622.07375 19.03125 
" style="fill:none;stroke:#000000;stroke-linecap:square;stroke-linejoin:miter;stroke-width:0.8;"/>
   </g>
   <g id="legend_1">
    <g id="patch_7">
     <path d="M 75.27375 80.98125 
L 349.83375 80.98125 
Q 353.03375 80.98125 353.03375 77.78125 
L 353.03375 30.23125 
Q 353.03375 27.03125 349.83375 27.03125 
L 75.27375 27.03125 
Q 72.07375 27.03125 72.07375 30.23125 
L 72.07375 77.78125 
Q 72.07375 80.98125 75.27375 80.98125 
z
" style="fill:#ffffff;opacity:0.8;stroke:#cccccc;stroke-linejoin:miter;"/>
    </g>
    <g id="line2d_31">
     <path d="M 78.47375 39.60625 
L 110.47375 39.60625 
" style="fill:none;stroke:#000000;stroke-linecap:square;stroke-width:2;"/>
    </g>
    <g id="line2d_32"/>
    <g id="text_17">
     <!-- $D_{pm}$ ampw -->
     <defs>
      <path d="M 16.90625 48.203125 
L 2.703125 45.203125 
L 2.703125 42.703125 
L 10.5 41.703125 
L 0 -16.5 
L -1 -17.59375 
L -6.90625 -18.796875 
L -6.90625 -21.796875 
L 17.09375 -21.796875 
L 17.09375 -18.796875 
L 7.59375 -17.09375 
L 10.90625 1.5 
C 13.40625 0.296875 16 -0.40625 18.59375 -0.40625 
C 25.40625 -0.40625 32.5 2.90625 37.59375 8.5 
C 43.296875 14.796875 46.09375 22.09375 46.09375 30.796875 
C 46.09375 42.09375 41.296875 48.203125 33.40625 48.203125 
C 29.09375 48.203125 24.09375 46.203125 18.296875 42.09375 
L 19.5 48.203125 
z
M 11.90625 6.703125 
L 17.59375 37.703125 
C 22.09375 41.203125 25.796875 43 28.796875 43 
C 34.203125 43 37.796875 38.5 37.796875 30.59375 
C 37.796875 22.59375 35 14.5 31.703125 10.09375 
C 28.59375 6 24.90625 4 20.5 4 
C 17.703125 4 14.90625 4.90625 11.90625 6.703125 
z
" id="Charter-Italic-112"/>
      <path d="M 33.40625 5.796875 
Q 28.59375 2.59375 24.59375 0.9375 
Q 20.59375 -0.703125 17 -0.703125 
Q 11 -0.703125 7.59375 2.84375 
Q 4.203125 6.40625 4.203125 12.09375 
Q 4.203125 16 5.953125 18.640625 
Q 7.703125 21.296875 11.296875 23.296875 
Q 14.90625 25.296875 20.40625 26.890625 
Q 25.90625 28.5 33.40625 30.296875 
L 33.40625 33.5 
Q 33.40625 39.5 31.5 42.09375 
Q 29.59375 44.703125 24.203125 44.703125 
Q 20.5 44.703125 16.59375 43.09375 
L 16.59375 34.703125 
L 9.703125 34.703125 
Q 8 34.703125 7.296875 35.34375 
Q 6.59375 36 6.59375 37.796875 
Q 6.59375 40.09375 8 42.140625 
Q 9.40625 44.203125 12 45.75 
Q 14.59375 47.296875 18.34375 48.1875 
Q 22.09375 49.09375 26.796875 49.09375 
Q 34.703125 49.09375 38.203125 45.6875 
Q 41.703125 42.296875 41.703125 34.703125 
L 41.703125 5.703125 
L 43.5 4.09375 
L 48.796875 3.59375 
L 48.796875 0 
L 34.703125 0 
z
M 33.40625 26.796875 
Q 28.09375 25.296875 24.25 24 
Q 20.40625 22.703125 17.90625 21.140625 
Q 15.40625 19.59375 14.203125 17.59375 
Q 13 15.59375 13 12.90625 
Q 13 9.203125 15.09375 6.953125 
Q 17.203125 4.703125 21 4.703125 
Q 23.5 4.703125 26.546875 5.84375 
Q 29.59375 7 33.40625 9.203125 
z
" id="Charter-97"/>
      <path d="M 45.40625 42.40625 
Q 56.796875 49.09375 62.59375 49.09375 
Q 68.59375 49.09375 72.046875 45.25 
Q 75.5 41.40625 75.5 33.90625 
L 75.5 5.703125 
L 77.203125 4.09375 
L 82.5 3.59375 
L 82.5 0 
L 60.703125 0 
L 60.703125 3.59375 
L 65.40625 4.09375 
L 67.203125 5.703125 
L 67.203125 32.203125 
Q 67.203125 37.5 65.046875 40 
Q 62.90625 42.5 58.203125 42.5 
Q 55.796875 42.5 52.9375 41.640625 
Q 50.09375 40.796875 46.90625 39.203125 
L 46.90625 5.703125 
L 48.703125 4.09375 
L 53.40625 3.59375 
L 53.40625 0 
L 32.09375 0 
L 32.09375 3.59375 
L 36.90625 4.09375 
L 38.59375 5.703125 
L 38.59375 32.203125 
Q 38.59375 42.5 29.796875 42.5 
Q 25 42.5 18.40625 39.203125 
L 18.40625 5.703125 
L 20.09375 4.09375 
L 24.90625 3.59375 
L 24.90625 0 
L 3 0 
L 3 3.59375 
L 8.40625 4.09375 
L 10.09375 5.703125 
L 10.09375 41.90625 
L 3 41.90625 
L 3 45 
L 14.59375 48.59375 
L 18.40625 48.59375 
L 18.40625 43.09375 
Q 23.40625 46 27.296875 47.546875 
Q 31.203125 49.09375 34.40625 49.09375 
Q 41.90625 49.09375 45.40625 42.40625 
z
" id="Charter-109"/>
      <path d="M 2.296875 -18.203125 
L 7.703125 -17.703125 
L 9.40625 -16.09375 
L 9.40625 41.90625 
L 2.296875 41.90625 
L 2.296875 45 
L 13.90625 48.59375 
L 17.703125 48.59375 
L 17.703125 43.09375 
Q 25.59375 49.09375 32.40625 49.09375 
Q 36.5 49.09375 40.046875 47.390625 
Q 43.59375 45.703125 46.140625 42.640625 
Q 48.703125 39.59375 50.140625 35.25 
Q 51.59375 30.90625 51.59375 25.703125 
Q 51.59375 19.796875 49.84375 15 
Q 48.09375 10.203125 44.84375 6.796875 
Q 41.59375 3.40625 37.046875 1.546875 
Q 32.5 -0.296875 27 -0.296875 
Q 23.203125 -0.296875 17.703125 0.59375 
L 17.703125 -16.09375 
L 19.40625 -17.703125 
L 25.796875 -18.203125 
L 25.796875 -21.796875 
L 2.296875 -21.796875 
z
M 17.703125 5.796875 
Q 22.5 4.203125 26.203125 4.203125 
Q 29.90625 4.203125 32.953125 5.640625 
Q 36 7.09375 38.203125 9.6875 
Q 40.40625 12.296875 41.59375 16.046875 
Q 42.796875 19.796875 42.796875 24.40625 
Q 42.796875 33.09375 38.796875 37.9375 
Q 34.796875 42.796875 28.203125 42.796875 
Q 25.59375 42.796875 23.09375 41.9375 
Q 20.59375 41.09375 17.703125 39.40625 
z
" id="Charter-112"/>
      <path d="M 21.5 48.09375 
L 21.5 44.40625 
L 16.203125 44 
L 15 42.40625 
L 24.09375 9.90625 
L 37.5 48.09375 
L 43.59375 48.09375 
L 55.40625 9.90625 
L 65.59375 42.40625 
L 64.796875 44 
L 59.40625 44.40625 
L 59.40625 48.09375 
L 77.09375 48.09375 
L 77.09375 44.40625 
L 71.5 43.59375 
L 57.203125 0 
L 51 0 
L 38.90625 37.90625 
L 25.40625 0 
L 19.203125 0 
L 5.90625 43.796875 
L -0.203125 44.40625 
L -0.203125 48.09375 
z
" id="Charter-119"/>
     </defs>
     <g transform="translate(123.27375 45.20625)scale(0.16 -0.16)">
      <use transform="translate(0 0.90625)" xlink:href="#Charter-Italic-68"/>
      <use transform="translate(67.099991 -13.671875)scale(0.7)" xlink:href="#Charter-Italic-112"/>
      <use transform="translate(103.219984 -13.671875)scale(0.7)" xlink:href="#Charter-Italic-109"/>
      <use transform="translate(162.699661 0.90625)" xlink:href="#Charter-32"/>
      <use transform="translate(190.499649 0.90625)" xlink:href="#Charter-97"/>
      <use transform="translate(241.199646 0.90625)" xlink:href="#Charter-109"/>
      <use transform="translate(325.499634 0.90625)" xlink:href="#Charter-112"/>
      <use transform="translate(380.599625 0.90625)" xlink:href="#Charter-119"/>
     </g>
    </g>
    <g id="line2d_33">
     <path d="M 78.47375 64.18125 
L 110.47375 64.18125 
" style="fill:none;stroke:#000000;stroke-dasharray:7.4,3.2;stroke-dashoffset:0;stroke-width:2;"/>
    </g>
    <g id="line2d_34"/>
    <g id="text_18">
     <!-- $D_{mp}$ ampw -->
     <g transform="translate(123.27375 69.78125)scale(0.16 -0.16)">
      <use transform="translate(0 0.90625)" xlink:href="#Charter-Italic-68"/>
      <use transform="translate(67.099991 -13.671875)scale(0.7)" xlink:href="#Charter-Italic-109"/>
      <use transform="translate(124.14998 -13.671875)scale(0.7)" xlink:href="#Charter-Italic-112"/>
      <use transform="translate(162.699661 0.90625)" xlink:href="#Charter-32"/>
      <use transform="translate(190.499649 0.90625)" xlink:href="#Charter-97"/>
      <use transform="translate(241.199646 0.90625)" xlink:href="#Charter-109"/>
      <use transform="translate(325.499634 0.90625)" xlink:href="#Charter-112"/>
      <use transform="translate(380.599625 0.90625)" xlink:href="#Charter-119"/>
     </g>
    </g>
    <g id="line2d_35">
     <path d="M 228.55375 39.60625 
L 260.55375 39.60625 
" style="fill:none;stroke:#ff0000;stroke-linecap:square;stroke-width:2;"/>
    </g>
    <g id="line2d_36"/>
    <g id="text_19">
     <!-- $D_{pm}$ pmwa -->
     <g transform="translate(273.35375 45.20625)scale(0.16 -0.16)">
      <use transform="translate(0 0.90625)" xlink:href="#Charter-Italic-68"/>
      <use transform="translate(67.099991 -13.671875)scale(0.7)" xlink:href="#Charter-Italic-112"/>
      <use transform="translate(103.219984 -13.671875)scale(0.7)" xlink:href="#Charter-Italic-109"/>
      <use transform="translate(162.699661 0.90625)" xlink:href="#Charter-32"/>
      <use transform="translate(190.499649 0.90625)" xlink:href="#Charter-112"/>
      <use transform="translate(245.59964 0.90625)" xlink:href="#Charter-109"/>
      <use transform="translate(329.899628 0.90625)" xlink:href="#Charter-119"/>
      <use transform="translate(406.999619 0.90625)" xlink:href="#Charter-97"/>
     </g>
    </g>
    <g id="line2d_37">
     <path d="M 228.55375 64.18125 
L 260.55375 64.18125 
" style="fill:none;stroke:#ff0000;stroke-dasharray:7.4,3.2;stroke-dashoffset:0;stroke-width:2;"/>
    </g>
    <g id="line2d_38"/>
    <g id="text_20">
     <!-- $D_{mp}$ pmwa -->
     <g transform="translate(273.35375 69.78125)scale(0.16 -0.16)">
      <use transform="translate(0 0.90625)" xlink:href="#Charter-Italic-68"/>
      <use transform="translate(67.099991 -13.671875)scale(0.7)" xlink:href="#Charter-Italic-109"/>
      <use transform="translate(124.14998 -13.671875)scale(0.7)" xlink:href="#Charter-Italic-112"/>
      <use transform="translate(162.699661 0.90625)" xlink:href="#Charter-32"/>
      <use transform="translate(190.499649 0.90625)" xlink:href="#Charter-112"/>
      <use transform="translate(245.59964 0.90625)" xlink:href="#Charter-109"/>
      <use transform="translate(329.899628 0.90625)" xlink:href="#Charter-119"/>
      <use transform="translate(406.999619 0.90625)" xlink:href="#Charter-97"/>
     </g>
    </g>
   </g>
  </g>
 </g>
 <defs>
  <clipPath id="p235a79a32c">
   <rect height="271.8" width="558" x="64.07375" y="19.03125"/>
  </clipPath>
 </defs>
</svg>
