<?xml version="1.0" encoding="utf-8" standalone="no"?>
<!DOCTYPE svg PUBLIC "-//W3C//DTD SVG 1.1//EN"
  "http://www.w3.org/Graphics/SVG/1.1/DTD/svg11.dtd">
<!-- Created with matplotlib (https://matplotlib.org/) -->
<svg height="219.005pt" version="1.1" viewBox="0 0 395.95625 219.005" width="395.95625pt" xmlns="http://www.w3.org/2000/svg" xmlns:xlink="http://www.w3.org/1999/xlink">
 <defs>
  <style type="text/css">
*{stroke-linecap:butt;stroke-linejoin:round;}
  </style>
 </defs>
 <g id="figure_1">
  <g id="patch_1">
   <path d="M 0 219.005 
L 395.95625 219.005 
L 395.95625 0 
L 0 0 
z
" style="fill:#ffffff;"/>
  </g>
  <g id="axes_1">
   <g id="patch_2">
    <path d="M 53.95625 170.28 
L 388.75625 170.28 
L 388.75625 7.2 
L 53.95625 7.2 
z
" style="fill:#ffffff;"/>
   </g>
   <g id="matplotlib.axis_1">
    <g id="xtick_1">
     <g id="line2d_1">
      <path clip-path="url(#pc4d874acf3)" d="M 69.174432 170.28 
L 69.174432 7.2 
" style="fill:none;stroke:#b0b0b0;stroke-linecap:square;stroke-opacity:0.3;stroke-width:0.8;"/>
     </g>
     <g id="line2d_2">
      <defs>
       <path d="M 0 0 
L 0 3.5 
" id="me18e3eda4a" style="stroke:#000000;stroke-width:0.8;"/>
      </defs>
      <g>
       <use style="stroke:#000000;stroke-width:0.8;" x="69.174432" xlink:href="#me18e3eda4a" y="170.28"/>
      </g>
     </g>
     <g id="text_1">
      <!-- 0.0 -->
      <defs>
       <path d="M 27.796875 68.296875 
Q 33.203125 68.296875 37.546875 66 
Q 41.90625 63.703125 45 59.25 
Q 48.09375 54.796875 49.796875 48.34375 
Q 51.5 41.90625 51.5 33.59375 
Q 51.5 25.296875 49.796875 18.84375 
Q 48.09375 12.40625 45 7.953125 
Q 41.90625 3.5 37.546875 1.140625 
Q 33.203125 -1.203125 27.796875 -1.203125 
Q 22.40625 -1.203125 18.046875 1.140625 
Q 13.703125 3.5 10.59375 7.953125 
Q 7.5 12.40625 5.796875 18.84375 
Q 4.09375 25.296875 4.09375 33.59375 
Q 4.09375 41.90625 5.796875 48.34375 
Q 7.5 54.796875 10.59375 59.25 
Q 13.703125 63.703125 18.046875 66 
Q 22.40625 68.296875 27.796875 68.296875 
z
M 27.796875 63.59375 
Q 20.90625 63.59375 17.203125 56.046875 
Q 13.5 48.5 13.5 33.5 
Q 13.5 18.59375 17.203125 11.09375 
Q 20.90625 3.59375 27.796875 3.59375 
Q 34.703125 3.59375 38.34375 11.140625 
Q 42 18.703125 42 33.59375 
Q 42 48.5 38.34375 56.046875 
Q 34.703125 63.59375 27.796875 63.59375 
z
" id="Charter-48"/>
       <path d="M 13.90625 11.796875 
Q 16.5 11.796875 18.34375 9.9375 
Q 20.203125 8.09375 20.203125 5.40625 
Q 20.203125 2.796875 18.34375 0.9375 
Q 16.5 -0.90625 13.90625 -0.90625 
Q 11.296875 -0.90625 9.390625 0.890625 
Q 7.5 2.703125 7.5 5.40625 
Q 7.5 8.09375 9.390625 9.9375 
Q 11.296875 11.796875 13.90625 11.796875 
z
" id="Charter-46"/>
      </defs>
      <g transform="translate(60.835369 186.11125)scale(0.12 -0.12)">
       <use xlink:href="#Charter-48"/>
       <use x="55.599991" xlink:href="#Charter-46"/>
       <use x="83.399979" xlink:href="#Charter-48"/>
      </g>
     </g>
    </g>
    <g id="xtick_2">
     <g id="line2d_3">
      <path clip-path="url(#pc4d874acf3)" d="M 130.047159 170.28 
L 130.047159 7.2 
" style="fill:none;stroke:#b0b0b0;stroke-linecap:square;stroke-opacity:0.3;stroke-width:0.8;"/>
     </g>
     <g id="line2d_4">
      <g>
       <use style="stroke:#000000;stroke-width:0.8;" x="130.047159" xlink:href="#me18e3eda4a" y="170.28"/>
      </g>
     </g>
     <g id="text_2">
      <!-- 0.2 -->
      <defs>
       <path d="M 44.203125 7.90625 
L 46 16.40625 
L 50.5 16.40625 
L 50.5 0 
L 4.203125 0 
L 4.203125 6.296875 
Q 12.40625 13 18.796875 18.5 
Q 25.203125 24 29.59375 28.953125 
Q 34 33.90625 36.296875 38.546875 
Q 38.59375 43.203125 38.59375 48.09375 
Q 38.59375 55.296875 35.09375 59.25 
Q 31.59375 63.203125 25.296875 63.203125 
Q 23 63.203125 20.84375 62.640625 
Q 18.703125 62.09375 16.40625 60.796875 
L 16.40625 50.09375 
Q 14.296875 48.59375 11.90625 48.59375 
Q 9.296875 48.59375 7.796875 50.09375 
Q 6.296875 51.59375 6.296875 54.203125 
Q 6.296875 56.796875 7.84375 59.34375 
Q 9.40625 61.90625 12.25 63.90625 
Q 15.09375 65.90625 18.9375 67.09375 
Q 22.796875 68.296875 27.5 68.296875 
Q 32.296875 68.296875 36.140625 66.9375 
Q 40 65.59375 42.703125 63.09375 
Q 45.40625 60.59375 46.84375 57.09375 
Q 48.296875 53.59375 48.296875 49.40625 
Q 48.296875 44.703125 46.046875 40.09375 
Q 43.796875 35.5 39.4375 30.546875 
Q 35.09375 25.59375 28.75 20.046875 
Q 22.40625 14.5 14.09375 7.90625 
z
" id="Charter-50"/>
      </defs>
      <g transform="translate(121.708097 186.11125)scale(0.12 -0.12)">
       <use xlink:href="#Charter-48"/>
       <use x="55.599991" xlink:href="#Charter-46"/>
       <use x="83.399979" xlink:href="#Charter-50"/>
      </g>
     </g>
    </g>
    <g id="xtick_3">
     <g id="line2d_5">
      <path clip-path="url(#pc4d874acf3)" d="M 190.919886 170.28 
L 190.919886 7.2 
" style="fill:none;stroke:#b0b0b0;stroke-linecap:square;stroke-opacity:0.3;stroke-width:0.8;"/>
     </g>
     <g id="line2d_6">
      <g>
       <use style="stroke:#000000;stroke-width:0.8;" x="190.919886" xlink:href="#me18e3eda4a" y="170.28"/>
      </g>
     </g>
     <g id="text_3">
      <!-- 0.4 -->
      <defs>
       <path d="M 42.59375 67.703125 
L 42.59375 25.90625 
L 53.90625 25.90625 
L 53.90625 19.40625 
L 42.59375 19.40625 
L 42.59375 -3.703125 
L 34.90625 -3.703125 
L 34.90625 19.40625 
L 2.703125 19.40625 
L 2.703125 25.90625 
L 36.796875 67.703125 
z
M 10.203125 25.90625 
L 34.90625 25.90625 
L 34.90625 56.796875 
z
" id="Charter-52"/>
      </defs>
      <g transform="translate(182.580824 186.11125)scale(0.12 -0.12)">
       <use xlink:href="#Charter-48"/>
       <use x="55.599991" xlink:href="#Charter-46"/>
       <use x="83.399979" xlink:href="#Charter-52"/>
      </g>
     </g>
    </g>
    <g id="xtick_4">
     <g id="line2d_7">
      <path clip-path="url(#pc4d874acf3)" d="M 251.792614 170.28 
L 251.792614 7.2 
" style="fill:none;stroke:#b0b0b0;stroke-linecap:square;stroke-opacity:0.3;stroke-width:0.8;"/>
     </g>
     <g id="line2d_8">
      <g>
       <use style="stroke:#000000;stroke-width:0.8;" x="251.792614" xlink:href="#me18e3eda4a" y="170.28"/>
      </g>
     </g>
     <g id="text_4">
      <!-- 0.6 -->
      <defs>
       <path d="M 44.296875 65.59375 
L 44 65.59375 
Q 31.90625 65.59375 24.453125 58.6875 
Q 17 51.796875 14.703125 38.40625 
Q 22.59375 44.5 31.703125 44.5 
Q 36.203125 44.5 40 42.890625 
Q 43.796875 41.296875 46.546875 38.390625 
Q 49.296875 35.5 50.890625 31.5 
Q 52.5 27.5 52.5 22.703125 
Q 52.5 17.59375 50.640625 13.25 
Q 48.796875 8.90625 45.546875 5.703125 
Q 42.296875 2.5 37.84375 0.640625 
Q 33.40625 -1.203125 28.296875 -1.203125 
Q 23.203125 -1.203125 18.953125 0.796875 
Q 14.703125 2.796875 11.59375 6.5 
Q 8.5 10.203125 6.75 15.546875 
Q 5 20.90625 5 27.703125 
Q 5 37.296875 7.703125 45.09375 
Q 10.40625 52.90625 15.453125 58.546875 
Q 20.5 64.203125 27.796875 67.5 
Q 35.09375 70.796875 44.296875 71.40625 
z
M 14.5 34 
Q 14.296875 32.40625 14.296875 30.84375 
Q 14.296875 29.296875 14.296875 27.90625 
Q 14.296875 15.90625 18.140625 9.75 
Q 22 3.59375 29.09375 3.59375 
Q 32.203125 3.59375 34.84375 4.9375 
Q 37.5 6.296875 39.390625 8.6875 
Q 41.296875 11.09375 42.34375 14.4375 
Q 43.40625 17.796875 43.40625 21.796875 
Q 43.40625 29.59375 39.40625 34.046875 
Q 35.40625 38.5 29 38.5 
Q 20.59375 38.5 14.5 34 
z
" id="Charter-54"/>
      </defs>
      <g transform="translate(243.453551 186.11125)scale(0.12 -0.12)">
       <use xlink:href="#Charter-48"/>
       <use x="55.599991" xlink:href="#Charter-46"/>
       <use x="83.399979" xlink:href="#Charter-54"/>
      </g>
     </g>
    </g>
    <g id="xtick_5">
     <g id="line2d_9">
      <path clip-path="url(#pc4d874acf3)" d="M 312.665341 170.28 
L 312.665341 7.2 
" style="fill:none;stroke:#b0b0b0;stroke-linecap:square;stroke-opacity:0.3;stroke-width:0.8;"/>
     </g>
     <g id="line2d_10">
      <g>
       <use style="stroke:#000000;stroke-width:0.8;" x="312.665341" xlink:href="#me18e3eda4a" y="170.28"/>
      </g>
     </g>
     <g id="text_5">
      <!-- 0.8 -->
      <defs>
       <path d="M 32.09375 36.90625 
Q 36 39.5 38.046875 43.09375 
Q 40.09375 46.703125 40.09375 50.703125 
Q 40.09375 56.703125 36.796875 60.203125 
Q 33.5 63.703125 28 63.703125 
Q 25.40625 63.703125 23.203125 62.796875 
Q 21 61.90625 19.34375 60.296875 
Q 17.703125 58.703125 16.796875 56.546875 
Q 15.90625 54.40625 15.90625 51.90625 
Q 15.90625 46.90625 19.90625 43.34375 
Q 23.90625 39.796875 32.09375 36.90625 
z
M 36.296875 35.09375 
Q 43.40625 32.59375 47 28.1875 
Q 50.59375 23.796875 50.59375 17.90625 
Q 50.59375 13.90625 48.9375 10.34375 
Q 47.296875 6.796875 44.25 4.140625 
Q 41.203125 1.5 36.953125 -0.046875 
Q 32.703125 -1.59375 27.5 -1.59375 
Q 22.09375 -1.59375 17.796875 -0.140625 
Q 13.5 1.296875 10.546875 3.84375 
Q 7.59375 6.40625 6 9.953125 
Q 4.40625 13.5 4.40625 17.703125 
Q 4.40625 29.703125 18.09375 35 
Q 7.59375 39.40625 7.59375 50.40625 
Q 7.59375 54.40625 9.09375 57.703125 
Q 10.59375 61 13.296875 63.390625 
Q 16 65.796875 19.796875 67.140625 
Q 23.59375 68.5 28.296875 68.5 
Q 32.796875 68.5 36.390625 67.25 
Q 40 66 42.546875 63.75 
Q 45.09375 61.5 46.4375 58.390625 
Q 47.796875 55.296875 47.796875 51.703125 
Q 47.796875 46.703125 44.84375 42.34375 
Q 41.90625 38 36.296875 35.09375 
z
M 21.90625 32.90625 
Q 16.796875 30.203125 14.4375 26.796875 
Q 12.09375 23.40625 12.09375 18.296875 
Q 12.09375 11.703125 16.34375 7.640625 
Q 20.59375 3.59375 27.796875 3.59375 
Q 34.296875 3.59375 38.140625 7.25 
Q 42 10.90625 42 16.90625 
Q 42 19.90625 40.75 22.046875 
Q 39.5 24.203125 37 26 
Q 34.5 27.796875 30.703125 29.390625 
Q 26.90625 31 21.90625 32.90625 
z
" id="Charter-56"/>
      </defs>
      <g transform="translate(304.326278 186.11125)scale(0.12 -0.12)">
       <use xlink:href="#Charter-48"/>
       <use x="55.599991" xlink:href="#Charter-46"/>
       <use x="83.399979" xlink:href="#Charter-56"/>
      </g>
     </g>
    </g>
    <g id="xtick_6">
     <g id="line2d_11">
      <path clip-path="url(#pc4d874acf3)" d="M 373.538068 170.28 
L 373.538068 7.2 
" style="fill:none;stroke:#b0b0b0;stroke-linecap:square;stroke-opacity:0.3;stroke-width:0.8;"/>
     </g>
     <g id="line2d_12">
      <g>
       <use style="stroke:#000000;stroke-width:0.8;" x="373.538068" xlink:href="#me18e3eda4a" y="170.28"/>
      </g>
     </g>
     <g id="text_6">
      <!-- 1.0 -->
      <defs>
       <path d="M 33.90625 68.296875 
L 33.90625 6.203125 
L 35.09375 4.703125 
L 45.90625 4.203125 
L 45.90625 0 
L 12.40625 0 
L 12.40625 4.296875 
L 23.90625 4.90625 
L 25.09375 6.59375 
L 25.09375 60.40625 
L 9.40625 57.59375 
L 9.40625 61.796875 
L 31.09375 68.296875 
z
" id="Charter-49"/>
      </defs>
      <g transform="translate(365.199006 186.11125)scale(0.12 -0.12)">
       <use xlink:href="#Charter-49"/>
       <use x="55.599991" xlink:href="#Charter-46"/>
       <use x="83.399979" xlink:href="#Charter-48"/>
      </g>
     </g>
    </g>
    <g id="text_7">
     <!-- $\eta$ [-] -->
     <defs>
      <path d="M 10.6875 -1.125 
Q 9.46875 -1.125 8.59375 -0.34375 
Q 7.71875 0.4375 7.71875 1.703125 
Q 7.71875 2.296875 7.8125 2.59375 
L 15.28125 32.421875 
Q 16.015625 35.203125 16.015625 37.3125 
Q 16.015625 41.609375 13.09375 41.609375 
Q 9.96875 41.609375 8.453125 37.859375 
Q 6.9375 34.125 5.515625 28.421875 
Q 5.515625 28.125 5.21875 27.953125 
Q 4.9375 27.78125 4.6875 27.78125 
L 3.515625 27.78125 
Q 3.171875 27.78125 2.921875 28.140625 
Q 2.6875 28.515625 2.6875 28.8125 
Q 3.765625 33.15625 4.765625 36.171875 
Q 5.765625 39.203125 7.890625 41.6875 
Q 10.015625 44.1875 13.1875 44.1875 
Q 16.890625 44.1875 19.796875 41.84375 
Q 22.703125 39.5 22.703125 35.796875 
Q 25.640625 39.703125 29.59375 41.9375 
Q 33.546875 44.1875 38.1875 44.1875 
Q 43.40625 44.1875 46.546875 41.375 
Q 49.703125 38.578125 49.703125 33.40625 
Q 49.703125 30.421875 49.03125 27.875 
L 37.40625 -18.40625 
Q 37.109375 -19.828125 35.9375 -20.703125 
Q 34.765625 -21.578125 33.296875 -21.578125 
Q 32.078125 -21.578125 31.203125 -20.8125 
Q 30.328125 -20.0625 30.328125 -18.796875 
Q 30.328125 -18.21875 30.421875 -18.015625 
L 41.890625 28.078125 
Q 42.921875 32.171875 42.921875 34.90625 
Q 42.921875 37.703125 41.75 39.65625 
Q 40.578125 41.609375 37.984375 41.609375 
Q 28.171875 41.609375 21.6875 29.5 
L 14.890625 2.203125 
Q 14.546875 0.828125 13.34375 -0.140625 
Q 12.15625 -1.125 10.6875 -1.125 
z
" id="Cmmi10-180"/>
      <path id="Charter-32"/>
      <path d="M 37.59375 70.796875 
L 37.59375 66.5 
L 21.796875 66.5 
L 21.796875 -9 
L 37.59375 -9 
L 37.59375 -13.203125 
L 13.90625 -13.203125 
L 13.90625 70.796875 
z
" id="Charter-91"/>
      <path d="M 27.203125 27.40625 
L 27.203125 20.703125 
L 4.703125 20.703125 
L 4.703125 27.40625 
z
" id="Charter-45"/>
      <path d="M 28.203125 70.796875 
L 28.203125 -13.296875 
L 4.59375 -13.296875 
L 4.59375 -9 
L 20.40625 -9 
L 20.40625 66.5 
L 4.59375 66.5 
L 4.59375 70.796875 
z
" id="Charter-93"/>
     </defs>
     <g transform="translate(201.95625 207.405)scale(0.2 -0.2)">
      <use transform="translate(0 0.203125)" xlink:href="#Cmmi10-180"/>
      <use transform="translate(49.609375 0.203125)" xlink:href="#Charter-32"/>
      <use transform="translate(77.409363 0.203125)" xlink:href="#Charter-91"/>
      <use transform="translate(119.509354 0.203125)" xlink:href="#Charter-45"/>
      <use transform="translate(151.409348 0.203125)" xlink:href="#Charter-93"/>
     </g>
    </g>
   </g>
   <g id="matplotlib.axis_2">
    <g id="ytick_1">
     <g id="line2d_13">
      <path clip-path="url(#pc4d874acf3)" d="M 53.95625 162.867273 
L 388.75625 162.867273 
" style="fill:none;stroke:#b0b0b0;stroke-linecap:square;stroke-opacity:0.3;stroke-width:0.8;"/>
     </g>
     <g id="line2d_14">
      <defs>
       <path d="M 0 0 
L -3.5 0 
" id="m60366ffdd3" style="stroke:#000000;stroke-width:0.8;"/>
      </defs>
      <g>
       <use style="stroke:#000000;stroke-width:0.8;" x="53.95625" xlink:href="#m60366ffdd3" y="162.867273"/>
      </g>
     </g>
     <g id="text_8">
      <!-- 0.0 -->
      <g transform="translate(30.278125 167.282898)scale(0.12 -0.12)">
       <use xlink:href="#Charter-48"/>
       <use x="55.599991" xlink:href="#Charter-46"/>
       <use x="83.399979" xlink:href="#Charter-48"/>
      </g>
     </g>
    </g>
    <g id="ytick_2">
     <g id="line2d_15">
      <path clip-path="url(#pc4d874acf3)" d="M 53.95625 133.216364 
L 388.75625 133.216364 
" style="fill:none;stroke:#b0b0b0;stroke-linecap:square;stroke-opacity:0.3;stroke-width:0.8;"/>
     </g>
     <g id="line2d_16">
      <g>
       <use style="stroke:#000000;stroke-width:0.8;" x="53.95625" xlink:href="#m60366ffdd3" y="133.216364"/>
      </g>
     </g>
     <g id="text_9">
      <!-- 0.2 -->
      <g transform="translate(30.278125 137.631989)scale(0.12 -0.12)">
       <use xlink:href="#Charter-48"/>
       <use x="55.599991" xlink:href="#Charter-46"/>
       <use x="83.399979" xlink:href="#Charter-50"/>
      </g>
     </g>
    </g>
    <g id="ytick_3">
     <g id="line2d_17">
      <path clip-path="url(#pc4d874acf3)" d="M 53.95625 103.565455 
L 388.75625 103.565455 
" style="fill:none;stroke:#b0b0b0;stroke-linecap:square;stroke-opacity:0.3;stroke-width:0.8;"/>
     </g>
     <g id="line2d_18">
      <g>
       <use style="stroke:#000000;stroke-width:0.8;" x="53.95625" xlink:href="#m60366ffdd3" y="103.565455"/>
      </g>
     </g>
     <g id="text_10">
      <!-- 0.4 -->
      <g transform="translate(30.278125 107.98108)scale(0.12 -0.12)">
       <use xlink:href="#Charter-48"/>
       <use x="55.599991" xlink:href="#Charter-46"/>
       <use x="83.399979" xlink:href="#Charter-52"/>
      </g>
     </g>
    </g>
    <g id="ytick_4">
     <g id="line2d_19">
      <path clip-path="url(#pc4d874acf3)" d="M 53.95625 73.914545 
L 388.75625 73.914545 
" style="fill:none;stroke:#b0b0b0;stroke-linecap:square;stroke-opacity:0.3;stroke-width:0.8;"/>
     </g>
     <g id="line2d_20">
      <g>
       <use style="stroke:#000000;stroke-width:0.8;" x="53.95625" xlink:href="#m60366ffdd3" y="73.914545"/>
      </g>
     </g>
     <g id="text_11">
      <!-- 0.6 -->
      <g transform="translate(30.278125 78.33017)scale(0.12 -0.12)">
       <use xlink:href="#Charter-48"/>
       <use x="55.599991" xlink:href="#Charter-46"/>
       <use x="83.399979" xlink:href="#Charter-54"/>
      </g>
     </g>
    </g>
    <g id="ytick_5">
     <g id="line2d_21">
      <path clip-path="url(#pc4d874acf3)" d="M 53.95625 44.263636 
L 388.75625 44.263636 
" style="fill:none;stroke:#b0b0b0;stroke-linecap:square;stroke-opacity:0.3;stroke-width:0.8;"/>
     </g>
     <g id="line2d_22">
      <g>
       <use style="stroke:#000000;stroke-width:0.8;" x="53.95625" xlink:href="#m60366ffdd3" y="44.263636"/>
      </g>
     </g>
     <g id="text_12">
      <!-- 0.8 -->
      <g transform="translate(30.278125 48.679261)scale(0.12 -0.12)">
       <use xlink:href="#Charter-48"/>
       <use x="55.599991" xlink:href="#Charter-46"/>
       <use x="83.399979" xlink:href="#Charter-56"/>
      </g>
     </g>
    </g>
    <g id="ytick_6">
     <g id="line2d_23">
      <path clip-path="url(#pc4d874acf3)" d="M 53.95625 14.612727 
L 388.75625 14.612727 
" style="fill:none;stroke:#b0b0b0;stroke-linecap:square;stroke-opacity:0.3;stroke-width:0.8;"/>
     </g>
     <g id="line2d_24">
      <g>
       <use style="stroke:#000000;stroke-width:0.8;" x="53.95625" xlink:href="#m60366ffdd3" y="14.612727"/>
      </g>
     </g>
     <g id="text_13">
      <!-- 1.0 -->
      <g transform="translate(30.278125 19.028352)scale(0.12 -0.12)">
       <use xlink:href="#Charter-49"/>
       <use x="55.599991" xlink:href="#Charter-46"/>
       <use x="83.399979" xlink:href="#Charter-48"/>
      </g>
     </g>
    </g>
    <g id="text_14">
     <!-- $Y_i$ [-] -->
     <defs>
      <path d="M 3.09375 67.09375 
L 3.09375 63.296875 
L 9.59375 62.796875 
L 10.59375 61.296875 
L 21.796875 27.203125 
L 17.59375 5.796875 
L 16 4.40625 
L 9.703125 3.796875 
L 9.703125 0 
L 34 0 
L 34 3.796875 
L 27.5 4.40625 
L 26.203125 5.796875 
L 30.59375 28.09375 
L 56 61.296875 
L 57.59375 62.796875 
L 64.203125 63.296875 
L 64.203125 67.09375 
L 41.796875 67.09375 
L 41.796875 63.296875 
L 48.203125 62.796875 
L 49.203125 61.296875 
L 28.296875 33 
L 19.296875 61.296875 
L 20.90625 62.796875 
L 27.40625 63.296875 
L 27.40625 67.09375 
z
" id="Charter-Italic-89"/>
      <path d="M 20.09375 70.40625 
C 17.09375 70.40625 14.703125 68 14.703125 65 
C 14.703125 61.90625 17.09375 59.59375 20.09375 59.59375 
C 23 59.59375 25.5 62 25.5 65 
C 25.5 67.90625 23 70.40625 20.09375 70.40625 
z
M 18.09375 48.203125 
L 3.296875 45 
L 3.296875 42.40625 
L 11.40625 40.90625 
L 5.5 11.09375 
C 5.09375 8.90625 4.90625 7.09375 4.90625 5.90625 
C 4.90625 1.5 7 -0.703125 11.296875 -0.703125 
C 15.09375 -0.703125 19.90625 0.5 25.40625 2.796875 
L 25.40625 5.90625 
C 22.296875 4.90625 19.90625 4.40625 18 4.40625 
C 14.90625 4.40625 13.203125 5.703125 13.203125 8.296875 
C 13.203125 8.90625 13.296875 9.703125 13.5 10.796875 
L 20.703125 48.203125 
z
" id="Charter-Italic-105"/>
     </defs>
     <g transform="translate(21.91875 111.04)rotate(-90)scale(0.2 -0.2)">
      <use transform="translate(0 0.203125)" xlink:href="#Charter-Italic-89"/>
      <use transform="translate(56.199997 -14.375)scale(0.7)" xlink:href="#Charter-Italic-105"/>
      <use transform="translate(78.719682 0.203125)" xlink:href="#Charter-32"/>
      <use transform="translate(106.51967 0.203125)" xlink:href="#Charter-91"/>
      <use transform="translate(148.619661 0.203125)" xlink:href="#Charter-45"/>
      <use transform="translate(180.519655 0.203125)" xlink:href="#Charter-93"/>
     </g>
    </g>
   </g>
   <g id="line2d_25">
    <path clip-path="url(#pc4d874acf3)" d="M 69.174432 93.983919 
L 94.766569 95.211381 
L 117.616692 96.524812 
L 138.334137 97.932398 
L 157.223572 99.432655 
L 174.589665 101.030075 
L 190.737085 102.7377 
L 205.665832 104.540827 
L 219.375906 106.418811 
L 232.171975 108.394431 
L 244.054039 110.45137 
L 255.022098 112.568342 
L 265.38082 114.787459 
L 275.130206 117.097803 
L 284.270255 119.48504 
L 293.105636 122.022735 
L 301.33168 124.614435 
L 309.253056 127.344835 
L 316.565095 130.094153 
L 323.572466 132.959364 
L 330.275169 135.935145 
L 336.673203 139.014262 
L 342.766569 142.187347 
L 348.555267 145.442716 
L 354.343965 148.95814 
L 359.827994 152.554117 
L 365.007356 156.212798 
L 370.186717 160.153344 
L 373.538068 162.867274 
L 373.538068 162.867274 
" style="fill:none;stroke:#c7254e;stroke-linecap:square;"/>
    <defs>
     <path d="M 0 3 
C 0.795609 3 1.55874 2.683901 2.12132 2.12132 
C 2.683901 1.55874 3 0.795609 3 0 
C 3 -0.795609 2.683901 -1.55874 2.12132 -2.12132 
C 1.55874 -2.683901 0.795609 -3 0 -3 
C -0.795609 -3 -1.55874 -2.683901 -2.12132 -2.12132 
C -2.683901 -1.55874 -3 -0.795609 -3 0 
C -3 0.795609 -2.683901 1.55874 -2.12132 2.12132 
C -1.55874 2.683901 -0.795609 3 0 3 
z
" id="mc92654202c" style="stroke:#c7254e;"/>
    </defs>
    <g clip-path="url(#pc4d874acf3)">
     <use style="fill:#c7254e;stroke:#c7254e;" x="69.174432" xlink:href="#mc92654202c" y="93.983919"/>
     <use style="fill:#c7254e;stroke:#c7254e;" x="99.641262" xlink:href="#mc92654202c" y="95.472844"/>
     <use style="fill:#c7254e;stroke:#c7254e;" x="130.108093" xlink:href="#mc92654202c" y="97.346151"/>
     <use style="fill:#c7254e;stroke:#c7254e;" x="160.574923" xlink:href="#mc92654202c" y="99.723486"/>
     <use style="fill:#c7254e;stroke:#c7254e;" x="191.041754" xlink:href="#mc92654202c" y="102.772222"/>
     <use style="fill:#c7254e;stroke:#c7254e;" x="221.508584" xlink:href="#mc92654202c" y="106.732261"/>
     <use style="fill:#c7254e;stroke:#c7254e;" x="251.975415" xlink:href="#mc92654202c" y="111.957584"/>
     <use style="fill:#c7254e;stroke:#c7254e;" x="282.442245" xlink:href="#mc92654202c" y="118.989151"/>
     <use style="fill:#c7254e;stroke:#c7254e;" x="312.909076" xlink:href="#mc92654202c" y="128.690427"/>
     <use style="fill:#c7254e;stroke:#c7254e;" x="343.375906" xlink:href="#mc92654202c" y="142.518537"/>
    </g>
   </g>
   <g id="line2d_26">
    <path clip-path="url(#pc4d874acf3)" d="M 69.174432 99.971215 
L 92.329223 101.523894 
L 113.960673 103.194461 
L 134.068781 104.967079 
L 152.958216 106.852872 
L 170.628977 108.836916 
L 187.385734 110.94042 
L 203.228486 113.153087 
L 218.157233 115.461603 
L 232.171975 117.849535 
L 245.57738 120.35685 
L 258.373449 122.977007 
L 270.560181 125.701697 
L 282.137577 128.520718 
L 293.105636 131.421841 
L 303.464358 134.390674 
L 313.213744 137.410511 
L 322.658461 140.567862 
L 331.493842 143.751142 
L 340.024555 147.059054 
L 348.250599 150.491823 
L 355.867307 153.907534 
L 363.179346 157.426087 
L 370.186717 161.04378 
L 373.538068 162.867272 
L 373.538068 162.867272 
" style="fill:none;stroke:#bbbbbb;stroke-linecap:square;"/>
    <defs>
     <path d="M 0 3 
C 0.795609 3 1.55874 2.683901 2.12132 2.12132 
C 2.683901 1.55874 3 0.795609 3 0 
C 3 -0.795609 2.683901 -1.55874 2.12132 -2.12132 
C 1.55874 -2.683901 0.795609 -3 0 -3 
C -0.795609 -3 -1.55874 -2.683901 -2.12132 -2.12132 
C -2.683901 -1.55874 -3 -0.795609 -3 0 
C -3 0.795609 -2.683901 1.55874 -2.12132 2.12132 
C -1.55874 2.683901 -0.795609 3 0 3 
z
" id="m973a920046" style="stroke:#bbbbbb;"/>
    </defs>
    <g clip-path="url(#pc4d874acf3)">
     <use style="fill:#bbbbbb;stroke:#bbbbbb;" x="69.174432" xlink:href="#m973a920046" y="99.971215"/>
     <use style="fill:#bbbbbb;stroke:#bbbbbb;" x="99.641262" xlink:href="#m973a920046" y="102.063214"/>
     <use style="fill:#bbbbbb;stroke:#bbbbbb;" x="130.108093" xlink:href="#m973a920046" y="104.599748"/>
     <use style="fill:#bbbbbb;stroke:#bbbbbb;" x="160.574923" xlink:href="#m973a920046" y="107.680392"/>
     <use style="fill:#bbbbbb;stroke:#bbbbbb;" x="191.041754" xlink:href="#m973a920046" y="111.430768"/>
     <use style="fill:#bbbbbb;stroke:#bbbbbb;" x="221.508584" xlink:href="#m973a920046" y="116.012269"/>
     <use style="fill:#bbbbbb;stroke:#bbbbbb;" x="251.975415" xlink:href="#m973a920046" y="121.637706"/>
     <use style="fill:#bbbbbb;stroke:#bbbbbb;" x="282.442245" xlink:href="#m973a920046" y="128.598164"/>
     <use style="fill:#bbbbbb;stroke:#bbbbbb;" x="312.909076" xlink:href="#m973a920046" y="137.312592"/>
     <use style="fill:#bbbbbb;stroke:#bbbbbb;" x="343.375906" xlink:href="#m973a920046" y="148.427276"/>
    </g>
   </g>
   <g id="line2d_27">
    <path clip-path="url(#pc4d874acf3)" d="M 69.174432 146.392138 
L 86.540525 144.441819 
L 102.992614 142.370171 
L 118.226029 140.232445 
L 132.850107 137.956832 
L 146.560181 135.600877 
L 159.660918 133.12496 
L 172.152319 130.536622 
L 184.034383 127.845653 
L 195.30711 125.064232 
L 205.970501 122.207056 
L 216.329223 119.199483 
L 226.078609 116.139037 
L 235.523326 112.940761 
L 244.358707 109.720814 
L 252.88942 106.382979 
L 261.115464 102.931578 
L 269.03684 99.372115 
L 276.653547 95.711375 
L 283.965587 91.95754 
L 290.972958 88.120292 
L 297.980329 84.027336 
L 304.683031 79.851643 
L 311.081066 75.606692 
L 317.174432 71.30793 
L 323.267798 66.737525 
L 329.056496 62.122007 
L 334.845193 57.216199 
L 340.329223 52.277153 
L 345.813252 47.029152 
L 350.992614 41.763775 
L 356.171975 36.171248 
L 361.046668 30.582144 
L 365.921361 24.648823 
L 370.491385 18.745774 
L 373.538068 14.612727 
L 373.538068 14.612727 
" style="fill:none;stroke:#008cba;stroke-linecap:square;"/>
    <defs>
     <path d="M 0 3 
C 0.795609 3 1.55874 2.683901 2.12132 2.12132 
C 2.683901 1.55874 3 0.795609 3 0 
C 3 -0.795609 2.683901 -1.55874 2.12132 -2.12132 
C 1.55874 -2.683901 0.795609 -3 0 -3 
C -0.795609 -3 -1.55874 -2.683901 -2.12132 -2.12132 
C -2.683901 -1.55874 -3 -0.795609 -3 0 
C -3 0.795609 -2.683901 1.55874 -2.12132 2.12132 
C -1.55874 2.683901 -0.795609 3 0 3 
z
" id="m355d92e208" style="stroke:#008cba;"/>
    </defs>
    <g clip-path="url(#pc4d874acf3)">
     <use style="fill:#008cba;stroke:#008cba;" x="69.174432" xlink:href="#m355d92e208" y="146.392138"/>
     <use style="fill:#008cba;stroke:#008cba;" x="99.641262" xlink:href="#m355d92e208" y="142.811214"/>
     <use style="fill:#008cba;stroke:#008cba;" x="130.108093" xlink:href="#m355d92e208" y="138.401374"/>
     <use style="fill:#008cba;stroke:#008cba;" x="160.574923" xlink:href="#m355d92e208" y="132.943395"/>
     <use style="fill:#008cba;stroke:#008cba;" x="191.041754" xlink:href="#m355d92e208" y="126.144283"/>
     <use style="fill:#008cba;stroke:#008cba;" x="221.508584" xlink:href="#m355d92e208" y="117.602743"/>
     <use style="fill:#008cba;stroke:#008cba;" x="251.975415" xlink:href="#m355d92e208" y="106.751983"/>
     <use style="fill:#008cba;stroke:#008cba;" x="282.442245" xlink:href="#m355d92e208" y="92.759958"/>
     <use style="fill:#008cba;stroke:#008cba;" x="312.909076" xlink:href="#m355d92e208" y="74.344254"/>
     <use style="fill:#008cba;stroke:#008cba;" x="343.375906" xlink:href="#m355d92e208" y="49.401459"/>
    </g>
   </g>
   <g id="patch_3">
    <path d="M 53.95625 170.28 
L 53.95625 7.2 
" style="fill:none;stroke:#000000;stroke-linecap:square;stroke-linejoin:miter;stroke-width:0.8;"/>
   </g>
   <g id="patch_4">
    <path d="M 388.75625 170.28 
L 388.75625 7.2 
" style="fill:none;stroke:#000000;stroke-linecap:square;stroke-linejoin:miter;stroke-width:0.8;"/>
   </g>
   <g id="patch_5">
    <path d="M 53.95625 170.28 
L 388.75625 170.28 
" style="fill:none;stroke:#000000;stroke-linecap:square;stroke-linejoin:miter;stroke-width:0.8;"/>
   </g>
   <g id="patch_6">
    <path d="M 53.95625 7.2 
L 388.75625 7.2 
" style="fill:none;stroke:#000000;stroke-linecap:square;stroke-linejoin:miter;stroke-width:0.8;"/>
   </g>
   <g id="legend_1">
    <g id="patch_7">
     <path d="M 62.35625 69.140625 
L 150.569375 69.140625 
Q 152.969375 69.140625 152.969375 66.740625 
L 152.969375 15.6 
Q 152.969375 13.2 150.569375 13.2 
L 62.35625 13.2 
Q 59.95625 13.2 59.95625 15.6 
L 59.95625 66.740625 
Q 59.95625 69.140625 62.35625 69.140625 
z
" style="fill:#ffffff;opacity:0.8;stroke:#cccccc;stroke-linejoin:miter;"/>
    </g>
    <g id="line2d_28">
     <path d="M 64.75625 22.63125 
L 88.75625 22.63125 
" style="fill:none;stroke:#c7254e;stroke-linecap:square;"/>
    </g>
    <g id="line2d_29">
     <g>
      <use style="fill:#c7254e;stroke:#c7254e;" x="76.75625" xlink:href="#mc92654202c" y="22.63125"/>
     </g>
    </g>
    <g id="text_15">
     <!-- Acetone -->
     <defs>
      <path d="M 35 67.90625 
L 59 5.296875 
L 65 4.09375 
L 65 0 
L 42.296875 0 
L 42.296875 4.09375 
L 48.5 4.59375 
L 49.203125 6 
L 42 25.09375 
L 18.40625 25.09375 
L 11.296875 6 
L 12.296875 4.59375 
L 18.796875 4.09375 
L 18.796875 0 
L -0.796875 0 
L -0.796875 4.09375 
L 5 5.296875 
L 28.40625 67.90625 
z
M 20.09375 29.703125 
L 40.296875 29.703125 
L 30 57.40625 
z
" id="Charter-65"/>
      <path d="M 42.5 4.203125 
Q 34.09375 -0.703125 26.203125 -0.703125 
Q 21.09375 -0.703125 16.9375 1.09375 
Q 12.796875 2.90625 9.84375 6.15625 
Q 6.90625 9.40625 5.296875 13.953125 
Q 3.703125 18.5 3.703125 24.09375 
Q 3.703125 29.703125 5.453125 34.296875 
Q 7.203125 38.90625 10.296875 42.203125 
Q 13.40625 45.5 17.75 47.296875 
Q 22.09375 49.09375 27.40625 49.09375 
Q 34.59375 49.09375 38.5 46.390625 
Q 42.40625 43.703125 42.40625 39.296875 
Q 42.40625 36.90625 40.90625 35.453125 
Q 39.40625 34 36.796875 34 
Q 34.5 34 32.296875 35.5 
L 32.296875 43.703125 
Q 30 45.09375 27.5 45.09375 
Q 21 45.09375 16.890625 39.6875 
Q 12.796875 34.296875 12.796875 24.796875 
Q 12.796875 15.5 17.390625 10.34375 
Q 22 5.203125 29.796875 5.203125 
Q 36.203125 5.203125 42.5 9.40625 
L 42.5 4.203125 
z
" id="Charter-99"/>
      <path d="M 44.796875 5.09375 
Q 40.296875 2.09375 35.546875 0.59375 
Q 30.796875 -0.90625 26 -0.90625 
Q 21 -0.90625 16.890625 0.890625 
Q 12.796875 2.703125 9.890625 5.890625 
Q 7 9.09375 5.34375 13.640625 
Q 3.703125 18.203125 3.703125 23.703125 
Q 3.703125 29.40625 5.390625 34.046875 
Q 7.09375 38.703125 10.1875 42.046875 
Q 13.296875 45.40625 17.546875 47.25 
Q 21.796875 49.09375 26.796875 49.09375 
Q 35 49.09375 39.890625 43.890625 
Q 44.796875 38.703125 44.796875 29.40625 
Q 44.796875 28.59375 44.796875 27.84375 
Q 44.796875 27.09375 44.703125 26.296875 
L 12.296875 26.296875 
L 12.296875 25.203125 
Q 12.296875 15.5 16.890625 10.140625 
Q 21.5 4.796875 29.09375 4.796875 
Q 32.90625 4.796875 36.703125 6.25 
Q 40.5 7.703125 44.796875 10.59375 
z
M 35.90625 32.09375 
Q 35.90625 38.203125 33.25 41.390625 
Q 30.59375 44.59375 25.5 44.59375 
Q 23.09375 44.59375 20.890625 43.59375 
Q 18.703125 42.59375 16.953125 40.75 
Q 15.203125 38.90625 14.09375 36.296875 
Q 13 33.703125 12.796875 30.5 
L 35.90625 30.5 
z
" id="Charter-101"/>
      <path d="M 2.5 42.09375 
L 2.5 45.203125 
L 9.09375 48.09375 
L 13.40625 57.40625 
L 17.09375 57.40625 
L 17.09375 46.796875 
L 32.296875 46.796875 
L 32.296875 42.09375 
L 17.09375 42.09375 
L 17.09375 15.703125 
Q 17.09375 12.796875 17.390625 10.75 
Q 17.703125 8.703125 18.59375 7.390625 
Q 19.5 6.09375 21.140625 5.4375 
Q 22.796875 4.796875 25.40625 4.796875 
Q 28.59375 4.796875 32.296875 5.59375 
L 32.296875 1.90625 
Q 28.796875 0.796875 25.4375 0.25 
Q 22.09375 -0.296875 19.203125 -0.296875 
Q 13 -0.296875 10.890625 2.09375 
Q 8.796875 4.5 8.796875 9.796875 
L 8.796875 42.09375 
z
" id="Charter-116"/>
      <path d="M 26.90625 49.09375 
Q 32 49.09375 36.25 47.25 
Q 40.5 45.40625 43.59375 42.09375 
Q 46.703125 38.796875 48.453125 34.1875 
Q 50.203125 29.59375 50.203125 24.09375 
Q 50.203125 18.5 48.453125 13.890625 
Q 46.703125 9.296875 43.59375 6 
Q 40.5 2.703125 36.203125 0.890625 
Q 31.90625 -0.90625 26.90625 -0.90625 
Q 21.90625 -0.90625 17.65625 0.890625 
Q 13.40625 2.703125 10.296875 6 
Q 7.203125 9.296875 5.453125 13.890625 
Q 3.703125 18.5 3.703125 24.09375 
Q 3.703125 29.703125 5.453125 34.296875 
Q 7.203125 38.90625 10.25 42.203125 
Q 13.296875 45.5 17.546875 47.296875 
Q 21.796875 49.09375 26.90625 49.09375 
z
M 26.90625 44.796875 
Q 20.796875 44.796875 16.9375 39.34375 
Q 13.09375 33.90625 13.09375 24.09375 
Q 13.09375 19.296875 14.140625 15.4375 
Q 15.203125 11.59375 17 8.890625 
Q 18.796875 6.203125 21.34375 4.796875 
Q 23.90625 3.40625 26.90625 3.40625 
Q 33 3.40625 36.890625 8.84375 
Q 40.796875 14.296875 40.796875 24.09375 
Q 40.796875 33.796875 36.890625 39.296875 
Q 33 44.796875 26.90625 44.796875 
z
" id="Charter-111"/>
      <path d="M 3 3.59375 
L 8.40625 4.09375 
L 10.09375 5.703125 
L 10.09375 41.90625 
L 3 41.90625 
L 3 45 
L 14.59375 48.59375 
L 18.40625 48.59375 
L 18.40625 43.09375 
Q 23.5 45.90625 27.390625 47.5 
Q 31.296875 49.09375 34.5 49.09375 
Q 41.09375 49.09375 44.546875 45.25 
Q 48 41.40625 48 33.90625 
L 48 5.703125 
L 49.703125 4.09375 
L 55.09375 3.59375 
L 55.09375 0 
L 33.203125 0 
L 33.203125 3.59375 
L 38 4.09375 
L 39.703125 5.703125 
L 39.703125 32.203125 
Q 39.703125 37.703125 37.453125 40.09375 
Q 35.203125 42.5 29.59375 42.5 
Q 24.796875 42.5 18.40625 39.203125 
L 18.40625 5.703125 
L 20.09375 4.09375 
L 24.90625 3.59375 
L 24.90625 0 
L 3 0 
z
" id="Charter-110"/>
     </defs>
     <g transform="translate(98.35625 26.83125)scale(0.12 -0.12)">
      <use xlink:href="#Charter-65"/>
      <use x="63.899994" xlink:href="#Charter-99"/>
      <use x="108.499985" xlink:href="#Charter-101"/>
      <use x="157.599976" xlink:href="#Charter-116"/>
      <use x="190.999969" xlink:href="#Charter-111"/>
      <use x="244.899963" xlink:href="#Charter-110"/>
      <use x="301.699951" xlink:href="#Charter-101"/>
     </g>
    </g>
    <g id="line2d_30">
     <path d="M 64.75625 40.078125 
L 88.75625 40.078125 
" style="fill:none;stroke:#bbbbbb;stroke-linecap:square;"/>
    </g>
    <g id="line2d_31">
     <g>
      <use style="fill:#bbbbbb;stroke:#bbbbbb;" x="76.75625" xlink:href="#m973a920046" y="40.078125"/>
     </g>
    </g>
    <g id="text_16">
     <!-- Methanol -->
     <defs>
      <path d="M 3.09375 4.09375 
L 9.09375 4.90625 
L 10.90625 6.796875 
L 10.90625 61.09375 
L 9.59375 62.5 
L 3 63.09375 
L 3 67.09375 
L 24.203125 67.09375 
L 24.203125 64.40625 
L 43 14.203125 
L 62 64 
L 62 67.09375 
L 83.40625 67.09375 
L 83.40625 63.09375 
L 77.09375 62.5 
L 75.90625 61.09375 
L 75.90625 6 
L 77.09375 4.59375 
L 83.40625 4.09375 
L 83.40625 0 
L 59.5 0 
L 59.5 4.09375 
L 66.09375 4.59375 
L 67.09375 6 
L 67.09375 62.40625 
L 43.40625 0 
L 39.09375 0 
L 16.296875 61.40625 
L 16.296875 6.796875 
L 18.09375 4.90625 
L 24.203125 4.09375 
L 24.203125 0 
L 3.09375 0 
z
" id="Charter-77"/>
      <path d="M 17.90625 73.59375 
L 17.90625 43.09375 
Q 23 45.90625 26.953125 47.5 
Q 30.90625 49.09375 34.09375 49.09375 
Q 40.703125 49.09375 44.09375 45.25 
Q 47.5 41.40625 47.5 33.90625 
L 47.5 5.703125 
L 49.296875 4.09375 
L 54.59375 3.59375 
L 54.59375 0 
L 32.796875 0 
L 32.796875 3.59375 
L 37.5 4.09375 
L 39.203125 5.703125 
L 39.203125 32.203125 
Q 39.203125 37.703125 36.953125 40.09375 
Q 34.703125 42.5 29.09375 42.5 
Q 24.296875 42.5 17.90625 39.203125 
L 17.90625 5.703125 
L 19.703125 4.09375 
L 24.40625 3.59375 
L 24.40625 0 
L 2.5 0 
L 2.5 3.59375 
L 7.90625 4.09375 
L 9.59375 5.703125 
L 9.59375 66.90625 
L 1.90625 66.90625 
L 1.90625 70 
L 14.09375 73.59375 
z
" id="Charter-104"/>
      <path d="M 33.40625 5.796875 
Q 28.59375 2.59375 24.59375 0.9375 
Q 20.59375 -0.703125 17 -0.703125 
Q 11 -0.703125 7.59375 2.84375 
Q 4.203125 6.40625 4.203125 12.09375 
Q 4.203125 16 5.953125 18.640625 
Q 7.703125 21.296875 11.296875 23.296875 
Q 14.90625 25.296875 20.40625 26.890625 
Q 25.90625 28.5 33.40625 30.296875 
L 33.40625 33.5 
Q 33.40625 39.5 31.5 42.09375 
Q 29.59375 44.703125 24.203125 44.703125 
Q 20.5 44.703125 16.59375 43.09375 
L 16.59375 34.703125 
L 9.703125 34.703125 
Q 8 34.703125 7.296875 35.34375 
Q 6.59375 36 6.59375 37.796875 
Q 6.59375 40.09375 8 42.140625 
Q 9.40625 44.203125 12 45.75 
Q 14.59375 47.296875 18.34375 48.1875 
Q 22.09375 49.09375 26.796875 49.09375 
Q 34.703125 49.09375 38.203125 45.6875 
Q 41.703125 42.296875 41.703125 34.703125 
L 41.703125 5.703125 
L 43.5 4.09375 
L 48.796875 3.59375 
L 48.796875 0 
L 34.703125 0 
z
M 33.40625 26.796875 
Q 28.09375 25.296875 24.25 24 
Q 20.40625 22.703125 17.90625 21.140625 
Q 15.40625 19.59375 14.203125 17.59375 
Q 13 15.59375 13 12.90625 
Q 13 9.203125 15.09375 6.953125 
Q 17.203125 4.703125 21 4.703125 
Q 23.5 4.703125 26.546875 5.84375 
Q 29.59375 7 33.40625 9.203125 
z
" id="Charter-97"/>
      <path d="M 2.796875 3.59375 
L 8.703125 4.09375 
L 10.40625 5.703125 
L 10.40625 66.90625 
L 2.703125 66.90625 
L 2.703125 70 
L 14.90625 73.59375 
L 18.703125 73.59375 
L 18.703125 5.703125 
L 20.5 4.09375 
L 26.203125 3.59375 
L 26.203125 0 
L 2.796875 0 
z
" id="Charter-108"/>
     </defs>
     <g transform="translate(98.35625 44.278125)scale(0.12 -0.12)">
      <use xlink:href="#Charter-77"/>
      <use x="86.599991" xlink:href="#Charter-101"/>
      <use x="135.699982" xlink:href="#Charter-116"/>
      <use x="169.099976" xlink:href="#Charter-104"/>
      <use x="225.499969" xlink:href="#Charter-97"/>
      <use x="276.199966" xlink:href="#Charter-110"/>
      <use x="332.999954" xlink:href="#Charter-111"/>
      <use x="386.899948" xlink:href="#Charter-108"/>
     </g>
    </g>
    <g id="line2d_32">
     <path d="M 64.75625 57.525 
L 88.75625 57.525 
" style="fill:none;stroke:#008cba;stroke-linecap:square;"/>
    </g>
    <g id="line2d_33">
     <g>
      <use style="fill:#008cba;stroke:#008cba;" x="76.75625" xlink:href="#m355d92e208" y="57.525"/>
     </g>
    </g>
    <g id="text_17">
     <!-- Air -->
     <defs>
      <path d="M 15.40625 70.796875 
Q 17.796875 70.796875 19.5 69.09375 
Q 21.203125 67.40625 21.203125 65 
Q 21.203125 62.59375 19.5 60.9375 
Q 17.796875 59.296875 15.40625 59.296875 
Q 13 59.296875 11.296875 60.9375 
Q 9.59375 62.59375 9.59375 65 
Q 9.59375 67.5 11.296875 69.140625 
Q 13 70.796875 15.40625 70.796875 
z
M 18.796875 48.59375 
L 18.796875 5.703125 
L 20.59375 4.09375 
L 26 3.59375 
L 26 0 
L 3.5 0 
L 3.5 3.59375 
L 8.796875 4.09375 
L 10.5 5.703125 
L 10.5 41.90625 
L 3.5 41.90625 
L 3.5 45 
L 15 48.59375 
z
" id="Charter-105"/>
      <path d="M 3 3.59375 
L 8.296875 4.09375 
L 10.09375 5.703125 
L 10.09375 41.90625 
L 3 41.90625 
L 3 45 
L 14.59375 48.59375 
L 18.40625 48.59375 
L 18.40625 39.203125 
Q 21 41.90625 23.703125 44.296875 
Q 26.40625 46.703125 29.09375 48.90625 
Q 29.703125 49.09375 30.34375 49.09375 
Q 31 49.09375 31.59375 49.09375 
Q 34.59375 49.09375 37.59375 47.796875 
L 37.59375 39.203125 
L 34.40625 39.203125 
Q 32.40625 41.59375 29.296875 41.59375 
Q 24.59375 41.59375 18.40625 34.296875 
L 18.40625 5.703125 
L 20.09375 4.09375 
L 27.09375 3.59375 
L 27.09375 0 
L 3 0 
z
" id="Charter-114"/>
     </defs>
     <g transform="translate(98.35625 61.725)scale(0.12 -0.12)">
      <use xlink:href="#Charter-65"/>
      <use x="63.899994" xlink:href="#Charter-105"/>
      <use x="91.899979" xlink:href="#Charter-114"/>
     </g>
    </g>
   </g>
  </g>
 </g>
 <defs>
  <clipPath id="pc4d874acf3">
   <rect height="163.08" width="334.8" x="53.95625" y="7.2"/>
  </clipPath>
 </defs>
</svg>
