<?xml version="1.0" encoding="utf-8" standalone="no"?>
<!DOCTYPE svg PUBLIC "-//W3C//DTD SVG 1.1//EN"
  "http://www.w3.org/Graphics/SVG/1.1/DTD/svg11.dtd">
<!-- Created with matplotlib (https://matplotlib.org/) -->
<svg height="327.725pt" version="1.1" viewBox="0 0 643.01625 327.725" width="643.01625pt" xmlns="http://www.w3.org/2000/svg" xmlns:xlink="http://www.w3.org/1999/xlink">
 <defs>
  <style type="text/css">
*{stroke-linecap:butt;stroke-linejoin:round;}
  </style>
 </defs>
 <g id="figure_1">
  <g id="patch_1">
   <path d="M 0 327.725 
L 643.01625 327.725 
L 643.01625 0 
L 0 0 
z
" style="fill:#ffffff;"/>
  </g>
  <g id="axes_1">
   <g id="patch_2">
    <path d="M 77.81625 279 
L 635.81625 279 
L 635.81625 7.2 
L 77.81625 7.2 
z
" style="fill:#ffffff;"/>
   </g>
   <g id="matplotlib.axis_1">
    <g id="xtick_1">
     <g id="line2d_1">
      <path clip-path="url(#p3836a93e28)" d="M 103.179886 279 
L 103.179886 7.2 
" style="fill:none;stroke:#b0b0b0;stroke-linecap:square;stroke-opacity:0.3;stroke-width:0.8;"/>
     </g>
     <g id="line2d_2">
      <defs>
       <path d="M 0 0 
L 0 3.5 
" id="me4c463e751" style="stroke:#000000;stroke-width:0.8;"/>
      </defs>
      <g>
       <use style="stroke:#000000;stroke-width:0.8;" x="103.179886" xlink:href="#me4c463e751" y="279"/>
      </g>
     </g>
     <g id="text_1">
      <!-- 0.000 -->
      <defs>
       <path d="M 27.796875 68.296875 
Q 33.203125 68.296875 37.546875 66 
Q 41.90625 63.703125 45 59.25 
Q 48.09375 54.796875 49.796875 48.34375 
Q 51.5 41.90625 51.5 33.59375 
Q 51.5 25.296875 49.796875 18.84375 
Q 48.09375 12.40625 45 7.953125 
Q 41.90625 3.5 37.546875 1.140625 
Q 33.203125 -1.203125 27.796875 -1.203125 
Q 22.40625 -1.203125 18.046875 1.140625 
Q 13.703125 3.5 10.59375 7.953125 
Q 7.5 12.40625 5.796875 18.84375 
Q 4.09375 25.296875 4.09375 33.59375 
Q 4.09375 41.90625 5.796875 48.34375 
Q 7.5 54.796875 10.59375 59.25 
Q 13.703125 63.703125 18.046875 66 
Q 22.40625 68.296875 27.796875 68.296875 
z
M 27.796875 63.59375 
Q 20.90625 63.59375 17.203125 56.046875 
Q 13.5 48.5 13.5 33.5 
Q 13.5 18.59375 17.203125 11.09375 
Q 20.90625 3.59375 27.796875 3.59375 
Q 34.703125 3.59375 38.34375 11.140625 
Q 42 18.703125 42 33.59375 
Q 42 48.5 38.34375 56.046875 
Q 34.703125 63.59375 27.796875 63.59375 
z
" id="Charter-48"/>
       <path d="M 13.90625 11.796875 
Q 16.5 11.796875 18.34375 9.9375 
Q 20.203125 8.09375 20.203125 5.40625 
Q 20.203125 2.796875 18.34375 0.9375 
Q 16.5 -0.90625 13.90625 -0.90625 
Q 11.296875 -0.90625 9.390625 0.890625 
Q 7.5 2.703125 7.5 5.40625 
Q 7.5 8.09375 9.390625 9.9375 
Q 11.296875 11.796875 13.90625 11.796875 
z
" id="Charter-46"/>
      </defs>
      <g transform="translate(88.169574 294.83125)scale(0.12 -0.12)">
       <use xlink:href="#Charter-48"/>
       <use x="55.599991" xlink:href="#Charter-46"/>
       <use x="83.399979" xlink:href="#Charter-48"/>
       <use x="138.999969" xlink:href="#Charter-48"/>
       <use x="194.59996" xlink:href="#Charter-48"/>
      </g>
     </g>
    </g>
    <g id="xtick_2">
     <g id="line2d_3">
      <path clip-path="url(#p3836a93e28)" d="M 204.634432 279 
L 204.634432 7.2 
" style="fill:none;stroke:#b0b0b0;stroke-linecap:square;stroke-opacity:0.3;stroke-width:0.8;"/>
     </g>
     <g id="line2d_4">
      <g>
       <use style="stroke:#000000;stroke-width:0.8;" x="204.634432" xlink:href="#me4c463e751" y="279"/>
      </g>
     </g>
     <g id="text_2">
      <!-- 0.002 -->
      <defs>
       <path d="M 44.203125 7.90625 
L 46 16.40625 
L 50.5 16.40625 
L 50.5 0 
L 4.203125 0 
L 4.203125 6.296875 
Q 12.40625 13 18.796875 18.5 
Q 25.203125 24 29.59375 28.953125 
Q 34 33.90625 36.296875 38.546875 
Q 38.59375 43.203125 38.59375 48.09375 
Q 38.59375 55.296875 35.09375 59.25 
Q 31.59375 63.203125 25.296875 63.203125 
Q 23 63.203125 20.84375 62.640625 
Q 18.703125 62.09375 16.40625 60.796875 
L 16.40625 50.09375 
Q 14.296875 48.59375 11.90625 48.59375 
Q 9.296875 48.59375 7.796875 50.09375 
Q 6.296875 51.59375 6.296875 54.203125 
Q 6.296875 56.796875 7.84375 59.34375 
Q 9.40625 61.90625 12.25 63.90625 
Q 15.09375 65.90625 18.9375 67.09375 
Q 22.796875 68.296875 27.5 68.296875 
Q 32.296875 68.296875 36.140625 66.9375 
Q 40 65.59375 42.703125 63.09375 
Q 45.40625 60.59375 46.84375 57.09375 
Q 48.296875 53.59375 48.296875 49.40625 
Q 48.296875 44.703125 46.046875 40.09375 
Q 43.796875 35.5 39.4375 30.546875 
Q 35.09375 25.59375 28.75 20.046875 
Q 22.40625 14.5 14.09375 7.90625 
z
" id="Charter-50"/>
      </defs>
      <g transform="translate(189.624119 294.83125)scale(0.12 -0.12)">
       <use xlink:href="#Charter-48"/>
       <use x="55.599991" xlink:href="#Charter-46"/>
       <use x="83.399979" xlink:href="#Charter-48"/>
       <use x="138.999969" xlink:href="#Charter-48"/>
       <use x="194.59996" xlink:href="#Charter-50"/>
      </g>
     </g>
    </g>
    <g id="xtick_3">
     <g id="line2d_5">
      <path clip-path="url(#p3836a93e28)" d="M 306.088977 279 
L 306.088977 7.2 
" style="fill:none;stroke:#b0b0b0;stroke-linecap:square;stroke-opacity:0.3;stroke-width:0.8;"/>
     </g>
     <g id="line2d_6">
      <g>
       <use style="stroke:#000000;stroke-width:0.8;" x="306.088977" xlink:href="#me4c463e751" y="279"/>
      </g>
     </g>
     <g id="text_3">
      <!-- 0.004 -->
      <defs>
       <path d="M 42.59375 67.703125 
L 42.59375 25.90625 
L 53.90625 25.90625 
L 53.90625 19.40625 
L 42.59375 19.40625 
L 42.59375 -3.703125 
L 34.90625 -3.703125 
L 34.90625 19.40625 
L 2.703125 19.40625 
L 2.703125 25.90625 
L 36.796875 67.703125 
z
M 10.203125 25.90625 
L 34.90625 25.90625 
L 34.90625 56.796875 
z
" id="Charter-52"/>
      </defs>
      <g transform="translate(291.078665 294.83125)scale(0.12 -0.12)">
       <use xlink:href="#Charter-48"/>
       <use x="55.599991" xlink:href="#Charter-46"/>
       <use x="83.399979" xlink:href="#Charter-48"/>
       <use x="138.999969" xlink:href="#Charter-48"/>
       <use x="194.59996" xlink:href="#Charter-52"/>
      </g>
     </g>
    </g>
    <g id="xtick_4">
     <g id="line2d_7">
      <path clip-path="url(#p3836a93e28)" d="M 407.543523 279 
L 407.543523 7.2 
" style="fill:none;stroke:#b0b0b0;stroke-linecap:square;stroke-opacity:0.3;stroke-width:0.8;"/>
     </g>
     <g id="line2d_8">
      <g>
       <use style="stroke:#000000;stroke-width:0.8;" x="407.543523" xlink:href="#me4c463e751" y="279"/>
      </g>
     </g>
     <g id="text_4">
      <!-- 0.006 -->
      <defs>
       <path d="M 44.296875 65.59375 
L 44 65.59375 
Q 31.90625 65.59375 24.453125 58.6875 
Q 17 51.796875 14.703125 38.40625 
Q 22.59375 44.5 31.703125 44.5 
Q 36.203125 44.5 40 42.890625 
Q 43.796875 41.296875 46.546875 38.390625 
Q 49.296875 35.5 50.890625 31.5 
Q 52.5 27.5 52.5 22.703125 
Q 52.5 17.59375 50.640625 13.25 
Q 48.796875 8.90625 45.546875 5.703125 
Q 42.296875 2.5 37.84375 0.640625 
Q 33.40625 -1.203125 28.296875 -1.203125 
Q 23.203125 -1.203125 18.953125 0.796875 
Q 14.703125 2.796875 11.59375 6.5 
Q 8.5 10.203125 6.75 15.546875 
Q 5 20.90625 5 27.703125 
Q 5 37.296875 7.703125 45.09375 
Q 10.40625 52.90625 15.453125 58.546875 
Q 20.5 64.203125 27.796875 67.5 
Q 35.09375 70.796875 44.296875 71.40625 
z
M 14.5 34 
Q 14.296875 32.40625 14.296875 30.84375 
Q 14.296875 29.296875 14.296875 27.90625 
Q 14.296875 15.90625 18.140625 9.75 
Q 22 3.59375 29.09375 3.59375 
Q 32.203125 3.59375 34.84375 4.9375 
Q 37.5 6.296875 39.390625 8.6875 
Q 41.296875 11.09375 42.34375 14.4375 
Q 43.40625 17.796875 43.40625 21.796875 
Q 43.40625 29.59375 39.40625 34.046875 
Q 35.40625 38.5 29 38.5 
Q 20.59375 38.5 14.5 34 
z
" id="Charter-54"/>
      </defs>
      <g transform="translate(392.53321 294.83125)scale(0.12 -0.12)">
       <use xlink:href="#Charter-48"/>
       <use x="55.599991" xlink:href="#Charter-46"/>
       <use x="83.399979" xlink:href="#Charter-48"/>
       <use x="138.999969" xlink:href="#Charter-48"/>
       <use x="194.59996" xlink:href="#Charter-54"/>
      </g>
     </g>
    </g>
    <g id="xtick_5">
     <g id="line2d_9">
      <path clip-path="url(#p3836a93e28)" d="M 508.998068 279 
L 508.998068 7.2 
" style="fill:none;stroke:#b0b0b0;stroke-linecap:square;stroke-opacity:0.3;stroke-width:0.8;"/>
     </g>
     <g id="line2d_10">
      <g>
       <use style="stroke:#000000;stroke-width:0.8;" x="508.998068" xlink:href="#me4c463e751" y="279"/>
      </g>
     </g>
     <g id="text_5">
      <!-- 0.008 -->
      <defs>
       <path d="M 32.09375 36.90625 
Q 36 39.5 38.046875 43.09375 
Q 40.09375 46.703125 40.09375 50.703125 
Q 40.09375 56.703125 36.796875 60.203125 
Q 33.5 63.703125 28 63.703125 
Q 25.40625 63.703125 23.203125 62.796875 
Q 21 61.90625 19.34375 60.296875 
Q 17.703125 58.703125 16.796875 56.546875 
Q 15.90625 54.40625 15.90625 51.90625 
Q 15.90625 46.90625 19.90625 43.34375 
Q 23.90625 39.796875 32.09375 36.90625 
z
M 36.296875 35.09375 
Q 43.40625 32.59375 47 28.1875 
Q 50.59375 23.796875 50.59375 17.90625 
Q 50.59375 13.90625 48.9375 10.34375 
Q 47.296875 6.796875 44.25 4.140625 
Q 41.203125 1.5 36.953125 -0.046875 
Q 32.703125 -1.59375 27.5 -1.59375 
Q 22.09375 -1.59375 17.796875 -0.140625 
Q 13.5 1.296875 10.546875 3.84375 
Q 7.59375 6.40625 6 9.953125 
Q 4.40625 13.5 4.40625 17.703125 
Q 4.40625 29.703125 18.09375 35 
Q 7.59375 39.40625 7.59375 50.40625 
Q 7.59375 54.40625 9.09375 57.703125 
Q 10.59375 61 13.296875 63.390625 
Q 16 65.796875 19.796875 67.140625 
Q 23.59375 68.5 28.296875 68.5 
Q 32.796875 68.5 36.390625 67.25 
Q 40 66 42.546875 63.75 
Q 45.09375 61.5 46.4375 58.390625 
Q 47.796875 55.296875 47.796875 51.703125 
Q 47.796875 46.703125 44.84375 42.34375 
Q 41.90625 38 36.296875 35.09375 
z
M 21.90625 32.90625 
Q 16.796875 30.203125 14.4375 26.796875 
Q 12.09375 23.40625 12.09375 18.296875 
Q 12.09375 11.703125 16.34375 7.640625 
Q 20.59375 3.59375 27.796875 3.59375 
Q 34.296875 3.59375 38.140625 7.25 
Q 42 10.90625 42 16.90625 
Q 42 19.90625 40.75 22.046875 
Q 39.5 24.203125 37 26 
Q 34.5 27.796875 30.703125 29.390625 
Q 26.90625 31 21.90625 32.90625 
z
" id="Charter-56"/>
      </defs>
      <g transform="translate(493.987756 294.83125)scale(0.12 -0.12)">
       <use xlink:href="#Charter-48"/>
       <use x="55.599991" xlink:href="#Charter-46"/>
       <use x="83.399979" xlink:href="#Charter-48"/>
       <use x="138.999969" xlink:href="#Charter-48"/>
       <use x="194.59996" xlink:href="#Charter-56"/>
      </g>
     </g>
    </g>
    <g id="xtick_6">
     <g id="line2d_11">
      <path clip-path="url(#p3836a93e28)" d="M 610.452614 279 
L 610.452614 7.2 
" style="fill:none;stroke:#b0b0b0;stroke-linecap:square;stroke-opacity:0.3;stroke-width:0.8;"/>
     </g>
     <g id="line2d_12">
      <g>
       <use style="stroke:#000000;stroke-width:0.8;" x="610.452614" xlink:href="#me4c463e751" y="279"/>
      </g>
     </g>
     <g id="text_6">
      <!-- 0.010 -->
      <defs>
       <path d="M 33.90625 68.296875 
L 33.90625 6.203125 
L 35.09375 4.703125 
L 45.90625 4.203125 
L 45.90625 0 
L 12.40625 0 
L 12.40625 4.296875 
L 23.90625 4.90625 
L 25.09375 6.59375 
L 25.09375 60.40625 
L 9.40625 57.59375 
L 9.40625 61.796875 
L 31.09375 68.296875 
z
" id="Charter-49"/>
      </defs>
      <g transform="translate(595.442301 294.83125)scale(0.12 -0.12)">
       <use xlink:href="#Charter-48"/>
       <use x="55.599991" xlink:href="#Charter-46"/>
       <use x="83.399979" xlink:href="#Charter-48"/>
       <use x="138.999969" xlink:href="#Charter-49"/>
       <use x="194.59996" xlink:href="#Charter-48"/>
      </g>
     </g>
    </g>
    <g id="text_7">
     <!-- $z$ [$m$] -->
     <defs>
      <path d="M 37.296875 49 
L 35.40625 44.09375 
C 34.296875 43.59375 33.296875 43.296875 32.40625 43.296875 
C 30.296875 43.296875 28.203125 44.296875 25.59375 45.59375 
C 22.90625 47 20.40625 48.296875 17.40625 48.296875 
C 10.5 48.296875 3.90625 41.296875 3.90625 34.296875 
C 3.90625 30.59375 5.796875 28.40625 8.59375 28.40625 
C 10.59375 28.40625 12.09375 29.5 13.296875 31.59375 
L 8 38 
C 9.5 40.09375 11.703125 41.203125 14.296875 41.203125 
C 16.40625 41.203125 19.40625 40.203125 23.09375 38.296875 
L 33 40.5 
L -1.40625 1.90625 
L 4.09375 -1.09375 
L 6.5 3.203125 
C 7.59375 3.796875 8.59375 4.09375 9.703125 4.09375 
C 14.5 4.09375 19.59375 -0.203125 25.296875 -0.203125 
C 32.59375 -0.203125 39.203125 6.90625 39.203125 13.796875 
C 39.203125 17.40625 37.09375 19.796875 34.296875 19.796875 
C 32.59375 19.796875 30.90625 18.59375 29.5 16.203125 
L 35 10.09375 
C 33.40625 7.703125 31.296875 6.5 28.796875 6.5 
C 26.90625 6.5 23.5 7.59375 18.59375 9.796875 
L 8.90625 7.296875 
L 43.40625 45.796875 
z
" id="Charter-Italic-122"/>
      <path id="Charter-32"/>
      <path d="M 37.59375 70.796875 
L 37.59375 66.5 
L 21.796875 66.5 
L 21.796875 -9 
L 37.59375 -9 
L 37.59375 -13.203125 
L 13.90625 -13.203125 
L 13.90625 70.796875 
z
" id="Charter-91"/>
      <path d="M 18.09375 48.203125 
L 3.296875 45 
L 3.296875 42.40625 
L 11.5 40.796875 
L 3.203125 0 
L 11.59375 0 
L 17.90625 33.90625 
C 24.203125 39.59375 29.5 42.09375 32.09375 42.09375 
C 35.59375 42.09375 37.59375 39.90625 37.59375 36.203125 
C 37.59375 34.796875 37.296875 32.5 36.703125 29.296875 
L 30.703125 0 
L 39 0 
L 45.5 34 
C 50.09375 39.40625 55.296875 42.09375 59.09375 42.09375 
C 62.40625 42.09375 64 39.90625 64 35.703125 
C 64 34.296875 63.796875 32.203125 63.09375 29.296875 
L 58.796875 10.796875 
C 58.296875 8.5 58 6.59375 58 5.40625 
C 58 1.296875 60.296875 -0.59375 65.296875 -0.59375 
C 68 -0.59375 72 0.5 77.296875 2.5 
L 77.296875 5.203125 
C 75 4.59375 73.09375 4.296875 71.703125 4.296875 
C 68.5 4.296875 66.59375 6.09375 66.59375 9.296875 
C 66.59375 10.90625 67.09375 13.09375 67.703125 15.796875 
L 71.09375 31.296875 
C 71.90625 34.703125 72.296875 37.5 72.296875 39.703125 
C 72.296875 45 68.90625 48.203125 64.09375 48.203125 
C 59.296875 48.203125 53.09375 45.203125 45.796875 39.09375 
C 45.703125 45 42.703125 48.203125 37.703125 48.203125 
C 33 48.203125 26.59375 45.09375 18.796875 38.703125 
L 20.59375 48.203125 
z
" id="Charter-Italic-109"/>
      <path d="M 28.203125 70.796875 
L 28.203125 -13.296875 
L 4.59375 -13.296875 
L 4.59375 -9 
L 20.40625 -9 
L 20.40625 66.5 
L 4.59375 66.5 
L 4.59375 70.796875 
z
" id="Charter-93"/>
     </defs>
     <g transform="translate(333.01625 316.165625)scale(0.2 -0.2)">
      <use transform="translate(0 0.203125)" xlink:href="#Charter-Italic-122"/>
      <use transform="translate(43.999985 0.203125)" xlink:href="#Charter-32"/>
      <use transform="translate(71.799973 0.203125)" xlink:href="#Charter-91"/>
      <use transform="translate(113.899963 0.203125)" xlink:href="#Charter-Italic-109"/>
      <use transform="translate(195.399948 0.203125)" xlink:href="#Charter-93"/>
     </g>
    </g>
   </g>
   <g id="matplotlib.axis_2">
    <g id="ytick_1">
     <g id="line2d_13">
      <path clip-path="url(#p3836a93e28)" d="M 77.81625 276.211408 
L 635.81625 276.211408 
" style="fill:none;stroke:#b0b0b0;stroke-linecap:square;stroke-opacity:0.3;stroke-width:0.8;"/>
     </g>
     <g id="line2d_14">
      <defs>
       <path d="M 0 0 
L -3.5 0 
" id="me34a90fa80" style="stroke:#000000;stroke-width:0.8;"/>
      </defs>
      <g>
       <use style="stroke:#000000;stroke-width:0.8;" x="77.81625" xlink:href="#me34a90fa80" y="276.211408"/>
      </g>
     </g>
     <g id="text_8">
      <!-- −0.003 -->
      <defs>
       <path d="M 70.90625 32.703125 
L 70.90625 26.90625 
L 12.40625 26.90625 
L 12.40625 32.703125 
z
" id="Charter-8722"/>
       <path d="M 31.703125 35.296875 
Q 40.09375 34.703125 44.640625 30.390625 
Q 49.203125 26.09375 49.203125 19.203125 
Q 49.203125 15 47.390625 11.296875 
Q 45.59375 7.59375 42.296875 4.84375 
Q 39 2.09375 34.34375 0.5 
Q 29.703125 -1.09375 23.90625 -1.09375 
Q 19.40625 -1.09375 15.75 -0.09375 
Q 12.09375 0.90625 9.5 2.5 
Q 6.90625 4.09375 5.5 6.046875 
Q 4.09375 8 4.09375 9.90625 
Q 4.09375 12.09375 5.6875 13.546875 
Q 7.296875 15 9.703125 15 
Q 11.296875 15 12.703125 14.5 
L 15.796875 6 
Q 19.796875 3.59375 24.296875 3.59375 
Q 27.703125 3.59375 30.59375 4.796875 
Q 33.5 6 35.59375 8.140625 
Q 37.703125 10.296875 38.84375 13.1875 
Q 40 16.09375 40 19.40625 
Q 40 25.40625 36.203125 28.65625 
Q 32.40625 31.90625 25.203125 31.90625 
Q 24 31.90625 22.640625 31.796875 
Q 21.296875 31.703125 19.90625 31.5 
L 19.90625 37.40625 
Q 20.40625 37.40625 20.953125 37.34375 
Q 21.5 37.296875 22 37.296875 
Q 29.59375 37.296875 33.546875 40.6875 
Q 37.5 44.09375 37.5 50.203125 
Q 37.5 56.203125 34.046875 59.703125 
Q 30.59375 63.203125 24.796875 63.203125 
Q 19.5 63.203125 15.296875 60.296875 
L 15.296875 50.90625 
Q 13.59375 49.59375 11.203125 49.59375 
Q 8.796875 49.59375 7.296875 51.09375 
Q 5.796875 52.59375 5.796875 55 
Q 5.796875 57.5 7.34375 59.84375 
Q 8.90625 62.203125 11.65625 64.09375 
Q 14.40625 66 18.296875 67.140625 
Q 22.203125 68.296875 26.90625 68.296875 
Q 31.40625 68.296875 35.046875 67.09375 
Q 38.703125 65.90625 41.25 63.703125 
Q 43.796875 61.5 45.1875 58.390625 
Q 46.59375 55.296875 46.59375 51.5 
Q 46.59375 45.703125 42.84375 41.546875 
Q 39.09375 37.40625 31.703125 35.296875 
z
" id="Charter-51"/>
      </defs>
      <g transform="translate(30.8 280.627033)scale(0.12 -0.12)">
       <use xlink:href="#Charter-8722"/>
       <use x="83.299988" xlink:href="#Charter-48"/>
       <use x="138.899979" xlink:href="#Charter-46"/>
       <use x="166.699966" xlink:href="#Charter-48"/>
       <use x="222.299957" xlink:href="#Charter-48"/>
       <use x="277.899948" xlink:href="#Charter-51"/>
      </g>
     </g>
    </g>
    <g id="ytick_2">
     <g id="line2d_15">
      <path clip-path="url(#p3836a93e28)" d="M 77.81625 224.231182 
L 635.81625 224.231182 
" style="fill:none;stroke:#b0b0b0;stroke-linecap:square;stroke-opacity:0.3;stroke-width:0.8;"/>
     </g>
     <g id="line2d_16">
      <g>
       <use style="stroke:#000000;stroke-width:0.8;" x="77.81625" xlink:href="#me34a90fa80" y="224.231182"/>
      </g>
     </g>
     <g id="text_9">
      <!-- −0.002 -->
      <g transform="translate(30.8 228.646807)scale(0.12 -0.12)">
       <use xlink:href="#Charter-8722"/>
       <use x="83.299988" xlink:href="#Charter-48"/>
       <use x="138.899979" xlink:href="#Charter-46"/>
       <use x="166.699966" xlink:href="#Charter-48"/>
       <use x="222.299957" xlink:href="#Charter-48"/>
       <use x="277.899948" xlink:href="#Charter-50"/>
      </g>
     </g>
    </g>
    <g id="ytick_3">
     <g id="line2d_17">
      <path clip-path="url(#p3836a93e28)" d="M 77.81625 172.250957 
L 635.81625 172.250957 
" style="fill:none;stroke:#b0b0b0;stroke-linecap:square;stroke-opacity:0.3;stroke-width:0.8;"/>
     </g>
     <g id="line2d_18">
      <g>
       <use style="stroke:#000000;stroke-width:0.8;" x="77.81625" xlink:href="#me34a90fa80" y="172.250957"/>
      </g>
     </g>
     <g id="text_10">
      <!-- −0.001 -->
      <g transform="translate(30.8 176.666582)scale(0.12 -0.12)">
       <use xlink:href="#Charter-8722"/>
       <use x="83.299988" xlink:href="#Charter-48"/>
       <use x="138.899979" xlink:href="#Charter-46"/>
       <use x="166.699966" xlink:href="#Charter-48"/>
       <use x="222.299957" xlink:href="#Charter-48"/>
       <use x="277.899948" xlink:href="#Charter-49"/>
      </g>
     </g>
    </g>
    <g id="ytick_4">
     <g id="line2d_19">
      <path clip-path="url(#p3836a93e28)" d="M 77.81625 120.270731 
L 635.81625 120.270731 
" style="fill:none;stroke:#b0b0b0;stroke-linecap:square;stroke-opacity:0.3;stroke-width:0.8;"/>
     </g>
     <g id="line2d_20">
      <g>
       <use style="stroke:#000000;stroke-width:0.8;" x="77.81625" xlink:href="#me34a90fa80" y="120.270731"/>
      </g>
     </g>
     <g id="text_11">
      <!-- 0.000 -->
      <g transform="translate(40.795625 124.686356)scale(0.12 -0.12)">
       <use xlink:href="#Charter-48"/>
       <use x="55.599991" xlink:href="#Charter-46"/>
       <use x="83.399979" xlink:href="#Charter-48"/>
       <use x="138.999969" xlink:href="#Charter-48"/>
       <use x="194.59996" xlink:href="#Charter-48"/>
      </g>
     </g>
    </g>
    <g id="ytick_5">
     <g id="line2d_21">
      <path clip-path="url(#p3836a93e28)" d="M 77.81625 68.290506 
L 635.81625 68.290506 
" style="fill:none;stroke:#b0b0b0;stroke-linecap:square;stroke-opacity:0.3;stroke-width:0.8;"/>
     </g>
     <g id="line2d_22">
      <g>
       <use style="stroke:#000000;stroke-width:0.8;" x="77.81625" xlink:href="#me34a90fa80" y="68.290506"/>
      </g>
     </g>
     <g id="text_12">
      <!-- 0.001 -->
      <g transform="translate(40.795625 72.706131)scale(0.12 -0.12)">
       <use xlink:href="#Charter-48"/>
       <use x="55.599991" xlink:href="#Charter-46"/>
       <use x="83.399979" xlink:href="#Charter-48"/>
       <use x="138.999969" xlink:href="#Charter-48"/>
       <use x="194.59996" xlink:href="#Charter-49"/>
      </g>
     </g>
    </g>
    <g id="ytick_6">
     <g id="line2d_23">
      <path clip-path="url(#p3836a93e28)" d="M 77.81625 16.31028 
L 635.81625 16.31028 
" style="fill:none;stroke:#b0b0b0;stroke-linecap:square;stroke-opacity:0.3;stroke-width:0.8;"/>
     </g>
     <g id="line2d_24">
      <g>
       <use style="stroke:#000000;stroke-width:0.8;" x="77.81625" xlink:href="#me34a90fa80" y="16.31028"/>
      </g>
     </g>
     <g id="text_13">
      <!-- 0.002 -->
      <g transform="translate(40.795625 20.725905)scale(0.12 -0.12)">
       <use xlink:href="#Charter-48"/>
       <use x="55.599991" xlink:href="#Charter-46"/>
       <use x="83.399979" xlink:href="#Charter-48"/>
       <use x="138.999969" xlink:href="#Charter-48"/>
       <use x="194.59996" xlink:href="#Charter-50"/>
      </g>
     </g>
    </g>
    <g id="text_14">
     <!-- $\mathbf{J}_i$ [$mole/m^2/s$] -->
     <defs>
      <path d="M 24 61.703125 
L 17 62.203125 
L 17 67.09375 
L 46.40625 67.09375 
L 46.40625 62.203125 
L 40.296875 61.703125 
L 38.703125 60.296875 
L 38.703125 26.203125 
Q 38.703125 12.09375 33.25 5.4375 
Q 27.796875 -1.203125 15.5 -1.203125 
Q 8.5 -1.203125 1.203125 1.203125 
L 1.203125 19.203125 
L 8.5 19.203125 
L 10.796875 6 
L 12.203125 4.703125 
Q 12.59375 4.703125 13 4.640625 
Q 13.40625 4.59375 13.796875 4.59375 
Q 20.59375 4.59375 23.09375 9.84375 
Q 25.59375 15.09375 25.59375 26.09375 
L 25.59375 60.296875 
z
" id="Charter-Bold-74"/>
      <path d="M 20.09375 70.40625 
C 17.09375 70.40625 14.703125 68 14.703125 65 
C 14.703125 61.90625 17.09375 59.59375 20.09375 59.59375 
C 23 59.59375 25.5 62 25.5 65 
C 25.5 67.90625 23 70.40625 20.09375 70.40625 
z
M 18.09375 48.203125 
L 3.296875 45 
L 3.296875 42.40625 
L 11.40625 40.90625 
L 5.5 11.09375 
C 5.09375 8.90625 4.90625 7.09375 4.90625 5.90625 
C 4.90625 1.5 7 -0.703125 11.296875 -0.703125 
C 15.09375 -0.703125 19.90625 0.5 25.40625 2.796875 
L 25.40625 5.90625 
C 22.296875 4.90625 19.90625 4.40625 18 4.40625 
C 14.90625 4.40625 13.203125 5.703125 13.203125 8.296875 
C 13.203125 8.90625 13.296875 9.703125 13.5 10.796875 
L 20.703125 48.203125 
z
" id="Charter-Italic-105"/>
      <path d="M 27.90625 48.296875 
C 21.09375 48.296875 15 45.40625 10.203125 40 
C 5.203125 34.296875 2.203125 26.203125 2.203125 18.09375 
C 2.203125 6.5 8.90625 -0.90625 19.203125 -0.90625 
C 26.09375 -0.90625 32.09375 1.796875 36.796875 7.203125 
C 42 13.203125 44.90625 20.796875 44.90625 28.703125 
C 44.90625 40.796875 38.296875 48.296875 27.90625 48.296875 
z
M 26.59375 44.40625 
C 32.703125 44.40625 36.40625 39.203125 36.40625 29.296875 
C 36.40625 14.09375 28.90625 3.203125 20.40625 3.203125 
C 14.40625 3.203125 10.703125 8.40625 10.703125 18 
C 10.703125 33.5 18 44.40625 26.59375 44.40625 
z
" id="Charter-Italic-111"/>
      <path d="M 21.203125 73.59375 
L 6 70.59375 
L 6 68 
L 14.90625 67 
L 5.296875 18 
C 4.09375 11.796875 3.5 7.90625 3.5 6.5 
C 3.5 1.5 5.90625 -0.90625 10.796875 -0.90625 
C 13.90625 -0.90625 18.40625 0.09375 24.09375 2.5 
L 24.09375 5.59375 
C 21.09375 4.59375 18.703125 4 17 4 
C 13.40625 4 11.5 5.59375 11.5 8.703125 
C 11.5 10.09375 11.796875 12.796875 12.59375 16.796875 
L 22.703125 67.09375 
C 22.796875 67.703125 23.203125 69.90625 23.90625 73.59375 
z
" id="Charter-Italic-108"/>
      <path d="M 11 25.59375 
C 13.90625 37.703125 19.59375 44 25.40625 44 
C 28.296875 44 30.59375 41.703125 30.59375 38.59375 
C 30.59375 32.296875 23.5 26.296875 11 25.59375 
z
M 10.5 22.203125 
C 28.296875 23.40625 37.796875 29.796875 37.796875 38.296875 
C 37.796875 44.296875 33.796875 48.203125 27.5 48.203125 
C 22.59375 48.203125 16.09375 45.296875 11 40 
C 5.40625 34.09375 2.09375 25.703125 2.09375 17.296875 
C 2.09375 5.703125 7.796875 -0.90625 17.203125 -0.90625 
C 23.796875 -0.90625 30.40625 2.09375 36.59375 8.09375 
L 36.59375 12.796875 
C 30.796875 7.40625 25.203125 4.59375 20.59375 4.59375 
C 14.203125 4.59375 10.203125 9.5 10.203125 17.59375 
C 10.203125 19.203125 10.296875 20.796875 10.5 22.203125 
z
" id="Charter-Italic-101"/>
      <path d="M 46 67.09375 
L 3.203125 -9.296875 
L -2.796875 -9.296875 
L 39.90625 67.09375 
z
" id="Charter-47"/>
      <path d="M 26.59375 36.90625 
C 30.296875 37.09375 32.40625 39.203125 32.40625 42 
C 32.40625 45.5 28.796875 48.203125 23.09375 48.203125 
C 13.5 48.203125 5.90625 41.296875 5.90625 33.09375 
C 5.90625 27.5 9.703125 24.796875 15.40625 20.5 
C 19.59375 17.296875 22.296875 15 22.296875 11.203125 
C 22.296875 5.90625 18.90625 2.703125 13.203125 2.703125 
C 10.09375 2.703125 7.59375 3.90625 6 6.203125 
L 7.796875 11.203125 
C 6.203125 12.40625 4.90625 13 3.5 13 
C 0.40625 13 -1.703125 11 -1.703125 7.90625 
C -1.703125 2.703125 3.203125 -0.90625 11.59375 -0.90625 
C 22.5 -0.90625 29.90625 5.796875 29.90625 14.5 
C 29.90625 20.5 25.796875 23.09375 19.796875 27.703125 
C 15.09375 31.296875 12.296875 33.40625 12.296875 37 
C 12.296875 40.90625 15.296875 43.703125 19.296875 43.703125 
C 20.40625 43.703125 21.40625 43.40625 22.40625 42.703125 
z
" id="Charter-Italic-115"/>
     </defs>
     <g transform="translate(22.440625 207.5)rotate(-90)scale(0.2 -0.2)">
      <use transform="translate(0 0.176563)" xlink:href="#Charter-Bold-74"/>
      <use transform="translate(47.350375 -14.401562)scale(0.7)" xlink:href="#Charter-Italic-105"/>
      <use transform="translate(69.870061 0.176563)" xlink:href="#Charter-32"/>
      <use transform="translate(97.670049 0.176563)" xlink:href="#Charter-91"/>
      <use transform="translate(139.770039 0.176563)" xlink:href="#Charter-Italic-109"/>
      <use transform="translate(221.270024 0.176563)" xlink:href="#Charter-Italic-111"/>
      <use transform="translate(271.470021 0.176563)" xlink:href="#Charter-Italic-108"/>
      <use transform="translate(298.970006 0.176563)" xlink:href="#Charter-Italic-101"/>
      <use transform="translate(341.37 0.176563)" xlink:href="#Charter-47"/>
      <use transform="translate(389.469991 0.176563)" xlink:href="#Charter-Italic-109"/>
      <use transform="translate(474.883777 34.192188)scale(0.7)" xlink:href="#Charter-50"/>
      <use transform="translate(516.233458 0.176563)" xlink:href="#Charter-47"/>
      <use transform="translate(564.333449 0.176563)" xlink:href="#Charter-Italic-115"/>
      <use transform="translate(601.333434 0.176563)" xlink:href="#Charter-93"/>
     </g>
    </g>
   </g>
   <g id="line2d_25">
    <path clip-path="url(#p3836a93e28)" d="M 103.179886 69.037861 
L 159.543523 69.234483 
L 215.907159 69.450687 
L 272.270795 69.689552 
L 328.634432 69.954835 
L 384.998068 70.251178 
L 441.361705 70.584374 
L 497.725341 70.961753 
L 554.088977 71.392726 
L 610.452614 71.889584 
" style="fill:none;stroke:#c7254e;stroke-linecap:square;stroke-width:2;"/>
   </g>
   <g id="line2d_26">
    <path clip-path="url(#p3836a93e28)" d="M 103.179886 140.375023 
L 159.543523 138.700323 
L 215.907159 136.858676 
L 272.270795 134.82381 
L 328.634432 132.563633 
L 384.998068 130.038529 
L 441.361705 127.199021 
L 497.725341 123.982488 
L 554.088977 120.3085 
L 610.452614 116.071998 
" style="fill:none;stroke:#bbbbbb;stroke-linecap:square;stroke-width:2;"/>
   </g>
   <g id="line2d_27">
    <path clip-path="url(#p3836a93e28)" d="M 103.179886 19.554545 
L 159.543523 20.031383 
L 215.907159 20.555772 
L 272.270795 21.135202 
L 328.634432 21.778815 
L 384.998068 22.497904 
L 441.361705 23.306571 
L 497.725341 24.222666 
L 554.088977 25.269119 
L 610.452614 26.475889 
" style="fill:none;stroke:#008cba;stroke-linecap:square;stroke-width:2;"/>
   </g>
   <g id="line2d_28">
    <path clip-path="url(#p3836a93e28)" d="M 103.179886 252.115495 
L 159.543523 253.116736 
L 215.907159 254.217789 
L 272.270795 255.434362 
L 328.634432 256.785642 
L 384.998068 258.295313 
L 441.361705 259.992959 
L 497.725341 261.916019 
L 554.088977 264.112579 
L 610.452614 266.645455 
" style="fill:none;stroke:#ff9e1b;stroke-linecap:square;stroke-width:2;"/>
   </g>
   <g id="line2d_29">
    <defs>
     <path d="M 0 3.5 
C 0.928211 3.5 1.81853 3.131218 2.474874 2.474874 
C 3.131218 1.81853 3.5 0.928211 3.5 0 
C 3.5 -0.928211 3.131218 -1.81853 2.474874 -2.474874 
C 1.81853 -3.131218 0.928211 -3.5 0 -3.5 
C -0.928211 -3.5 -1.81853 -3.131218 -2.474874 -2.474874 
C -3.131218 -1.81853 -3.5 -0.928211 -3.5 0 
C -3.5 0.928211 -3.131218 1.81853 -2.474874 2.474874 
C -1.81853 3.131218 -0.928211 3.5 0 3.5 
z
" id="m9b7874fe60" style="stroke:#c7254e;"/>
    </defs>
    <g clip-path="url(#p3836a93e28)">
     <use style="fill:#c7254e;stroke:#c7254e;" x="103.179886" xlink:href="#m9b7874fe60" y="69.037861"/>
     <use style="fill:#c7254e;stroke:#c7254e;" x="159.543523" xlink:href="#m9b7874fe60" y="69.234483"/>
     <use style="fill:#c7254e;stroke:#c7254e;" x="215.907159" xlink:href="#m9b7874fe60" y="69.450687"/>
     <use style="fill:#c7254e;stroke:#c7254e;" x="272.270795" xlink:href="#m9b7874fe60" y="69.689552"/>
     <use style="fill:#c7254e;stroke:#c7254e;" x="328.634432" xlink:href="#m9b7874fe60" y="69.954835"/>
     <use style="fill:#c7254e;stroke:#c7254e;" x="384.998068" xlink:href="#m9b7874fe60" y="70.251178"/>
     <use style="fill:#c7254e;stroke:#c7254e;" x="441.361705" xlink:href="#m9b7874fe60" y="70.584374"/>
     <use style="fill:#c7254e;stroke:#c7254e;" x="497.725341" xlink:href="#m9b7874fe60" y="70.961753"/>
     <use style="fill:#c7254e;stroke:#c7254e;" x="554.088977" xlink:href="#m9b7874fe60" y="71.392726"/>
     <use style="fill:#c7254e;stroke:#c7254e;" x="610.452614" xlink:href="#m9b7874fe60" y="71.889584"/>
    </g>
   </g>
   <g id="line2d_30">
    <defs>
     <path d="M 0 3.5 
C 0.928211 3.5 1.81853 3.131218 2.474874 2.474874 
C 3.131218 1.81853 3.5 0.928211 3.5 0 
C 3.5 -0.928211 3.131218 -1.81853 2.474874 -2.474874 
C 1.81853 -3.131218 0.928211 -3.5 0 -3.5 
C -0.928211 -3.5 -1.81853 -3.131218 -2.474874 -2.474874 
C -3.131218 -1.81853 -3.5 -0.928211 -3.5 0 
C -3.5 0.928211 -3.131218 1.81853 -2.474874 2.474874 
C -1.81853 3.131218 -0.928211 3.5 0 3.5 
z
" id="m80432ec273" style="stroke:#bbbbbb;"/>
    </defs>
    <g clip-path="url(#p3836a93e28)">
     <use style="fill:#bbbbbb;stroke:#bbbbbb;" x="103.179886" xlink:href="#m80432ec273" y="140.375023"/>
     <use style="fill:#bbbbbb;stroke:#bbbbbb;" x="159.543523" xlink:href="#m80432ec273" y="138.700323"/>
     <use style="fill:#bbbbbb;stroke:#bbbbbb;" x="215.907159" xlink:href="#m80432ec273" y="136.858676"/>
     <use style="fill:#bbbbbb;stroke:#bbbbbb;" x="272.270795" xlink:href="#m80432ec273" y="134.82381"/>
     <use style="fill:#bbbbbb;stroke:#bbbbbb;" x="328.634432" xlink:href="#m80432ec273" y="132.563633"/>
     <use style="fill:#bbbbbb;stroke:#bbbbbb;" x="384.998068" xlink:href="#m80432ec273" y="130.038529"/>
     <use style="fill:#bbbbbb;stroke:#bbbbbb;" x="441.361705" xlink:href="#m80432ec273" y="127.199021"/>
     <use style="fill:#bbbbbb;stroke:#bbbbbb;" x="497.725341" xlink:href="#m80432ec273" y="123.982488"/>
     <use style="fill:#bbbbbb;stroke:#bbbbbb;" x="554.088977" xlink:href="#m80432ec273" y="120.3085"/>
     <use style="fill:#bbbbbb;stroke:#bbbbbb;" x="610.452614" xlink:href="#m80432ec273" y="116.071998"/>
    </g>
   </g>
   <g id="line2d_31">
    <defs>
     <path d="M 0 3.5 
C 0.928211 3.5 1.81853 3.131218 2.474874 2.474874 
C 3.131218 1.81853 3.5 0.928211 3.5 0 
C 3.5 -0.928211 3.131218 -1.81853 2.474874 -2.474874 
C 1.81853 -3.131218 0.928211 -3.5 0 -3.5 
C -0.928211 -3.5 -1.81853 -3.131218 -2.474874 -2.474874 
C -3.131218 -1.81853 -3.5 -0.928211 -3.5 0 
C -3.5 0.928211 -3.131218 1.81853 -2.474874 2.474874 
C -1.81853 3.131218 -0.928211 3.5 0 3.5 
z
" id="mae889cc243" style="stroke:#008cba;"/>
    </defs>
    <g clip-path="url(#p3836a93e28)">
     <use style="fill:#008cba;stroke:#008cba;" x="103.179886" xlink:href="#mae889cc243" y="19.554545"/>
     <use style="fill:#008cba;stroke:#008cba;" x="159.543523" xlink:href="#mae889cc243" y="20.031383"/>
     <use style="fill:#008cba;stroke:#008cba;" x="215.907159" xlink:href="#mae889cc243" y="20.555772"/>
     <use style="fill:#008cba;stroke:#008cba;" x="272.270795" xlink:href="#mae889cc243" y="21.135202"/>
     <use style="fill:#008cba;stroke:#008cba;" x="328.634432" xlink:href="#mae889cc243" y="21.778815"/>
     <use style="fill:#008cba;stroke:#008cba;" x="384.998068" xlink:href="#mae889cc243" y="22.497904"/>
     <use style="fill:#008cba;stroke:#008cba;" x="441.361705" xlink:href="#mae889cc243" y="23.306571"/>
     <use style="fill:#008cba;stroke:#008cba;" x="497.725341" xlink:href="#mae889cc243" y="24.222666"/>
     <use style="fill:#008cba;stroke:#008cba;" x="554.088977" xlink:href="#mae889cc243" y="25.269119"/>
     <use style="fill:#008cba;stroke:#008cba;" x="610.452614" xlink:href="#mae889cc243" y="26.475889"/>
    </g>
   </g>
   <g id="line2d_32">
    <defs>
     <path d="M 0 3.5 
C 0.928211 3.5 1.81853 3.131218 2.474874 2.474874 
C 3.131218 1.81853 3.5 0.928211 3.5 0 
C 3.5 -0.928211 3.131218 -1.81853 2.474874 -2.474874 
C 1.81853 -3.131218 0.928211 -3.5 0 -3.5 
C -0.928211 -3.5 -1.81853 -3.131218 -2.474874 -2.474874 
C -3.131218 -1.81853 -3.5 -0.928211 -3.5 0 
C -3.5 0.928211 -3.131218 1.81853 -2.474874 2.474874 
C -1.81853 3.131218 -0.928211 3.5 0 3.5 
z
" id="m124716d80e" style="stroke:#ff9e1b;"/>
    </defs>
    <g clip-path="url(#p3836a93e28)">
     <use style="fill:#ff9e1b;stroke:#ff9e1b;" x="103.179886" xlink:href="#m124716d80e" y="252.115495"/>
     <use style="fill:#ff9e1b;stroke:#ff9e1b;" x="159.543523" xlink:href="#m124716d80e" y="253.116736"/>
     <use style="fill:#ff9e1b;stroke:#ff9e1b;" x="215.907159" xlink:href="#m124716d80e" y="254.217789"/>
     <use style="fill:#ff9e1b;stroke:#ff9e1b;" x="272.270795" xlink:href="#m124716d80e" y="255.434362"/>
     <use style="fill:#ff9e1b;stroke:#ff9e1b;" x="328.634432" xlink:href="#m124716d80e" y="256.785642"/>
     <use style="fill:#ff9e1b;stroke:#ff9e1b;" x="384.998068" xlink:href="#m124716d80e" y="258.295313"/>
     <use style="fill:#ff9e1b;stroke:#ff9e1b;" x="441.361705" xlink:href="#m124716d80e" y="259.992959"/>
     <use style="fill:#ff9e1b;stroke:#ff9e1b;" x="497.725341" xlink:href="#m124716d80e" y="261.916019"/>
     <use style="fill:#ff9e1b;stroke:#ff9e1b;" x="554.088977" xlink:href="#m124716d80e" y="264.112579"/>
     <use style="fill:#ff9e1b;stroke:#ff9e1b;" x="610.452614" xlink:href="#m124716d80e" y="266.645455"/>
    </g>
   </g>
   <g id="patch_3">
    <path d="M 77.81625 279 
L 77.81625 7.2 
" style="fill:none;stroke:#000000;stroke-linecap:square;stroke-linejoin:miter;stroke-width:0.8;"/>
   </g>
   <g id="patch_4">
    <path d="M 635.81625 279 
L 635.81625 7.2 
" style="fill:none;stroke:#000000;stroke-linecap:square;stroke-linejoin:miter;stroke-width:0.8;"/>
   </g>
   <g id="patch_5">
    <path d="M 77.81625 279 
L 635.81625 279 
" style="fill:none;stroke:#000000;stroke-linecap:square;stroke-linejoin:miter;stroke-width:0.8;"/>
   </g>
   <g id="patch_6">
    <path d="M 77.81625 7.2 
L 635.81625 7.2 
" style="fill:none;stroke:#000000;stroke-linecap:square;stroke-linejoin:miter;stroke-width:0.8;"/>
   </g>
   <g id="legend_1">
    <g id="patch_7">
     <path d="M 284.31625 236.77 
L 611.99625 236.77 
Q 615.19625 236.77 615.19625 233.57 
L 615.19625 140.71 
Q 615.19625 137.51 611.99625 137.51 
L 284.31625 137.51 
Q 281.11625 137.51 281.11625 140.71 
L 281.11625 233.57 
Q 281.11625 236.77 284.31625 236.77 
z
" style="fill:#ffffff;opacity:0.8;stroke:#cccccc;stroke-linejoin:miter;"/>
    </g>
    <g id="line2d_33">
     <path d="M 287.51625 150.085 
L 319.51625 150.085 
" style="fill:none;stroke:#c7254e;stroke-linecap:square;stroke-width:2;"/>
    </g>
    <g id="line2d_34"/>
    <g id="text_15">
     <!-- $\mathbf{J}_{acetone}$ ampw -->
     <defs>
      <path d="M 41 48.203125 
L 39 46 
C 35.90625 47.5 32.796875 48.203125 30 48.203125 
C 20.09375 48.203125 12 43.5 6.90625 35.09375 
C 3.5 29.5 1.703125 23.296875 1.703125 16.59375 
C 1.703125 5.59375 7 -0.90625 15.5 -0.90625 
C 20.296875 -0.90625 25.09375 1.90625 30.40625 7.5 
C 30.40625 7.203125 30.40625 7 30.40625 6.703125 
C 30.40625 1.59375 32.296875 -0.90625 36.5 -0.90625 
C 39.203125 -0.90625 43.296875 0.296875 48.796875 2.59375 
L 48.796875 5.59375 
C 46.09375 5 44.296875 4.59375 43.203125 4.59375 
C 39.5 4.59375 37.796875 6 37.796875 9.203125 
C 37.796875 10.59375 38.09375 12.90625 38.796875 16.203125 
L 42.40625 33.90625 
C 43.90625 41.296875 45.203125 46.09375 46.203125 48.203125 
z
M 31.703125 44.296875 
L 35.703125 38.203125 
L 30.5 11.796875 
C 26.40625 7.40625 22.5 5.203125 18.703125 5.203125 
C 12.90625 5.203125 10 9.203125 10 17.203125 
C 10 33.09375 18.59375 44.296875 30.296875 44.296875 
C 30.796875 44.296875 31.203125 44.296875 31.703125 44.296875 
z
" id="Charter-Italic-97"/>
      <path d="M 30.703125 36 
C 34.5 36.09375 37 38.40625 37 41.5 
C 37 45.296875 33.203125 48.5 27.703125 48.5 
C 21.5 48.5 14.90625 45.40625 9.796875 39.796875 
C 4.5 34 1.5 26.09375 1.5 17.203125 
C 1.5 5.90625 7.5 -1 16.296875 -1 
C 22.203125 -1 28.796875 2.203125 35 8.703125 
L 35 13.296875 
C 29.59375 7.796875 24 5 19.40625 5 
C 13.203125 5 9.40625 9.90625 9.40625 18.59375 
C 9.40625 33.5 16.296875 43.59375 24.40625 43.59375 
C 24.59375 43.59375 24.703125 43.59375 24.90625 43.59375 
z
" id="Charter-Italic-99"/>
      <path d="M 16.703125 57.90625 
L 11.703125 47.90625 
L 4.40625 44.703125 
L 4.40625 41.703125 
L 10.59375 42.203125 
L 5.203125 15.09375 
C 4.59375 12.296875 4.40625 10 4.40625 8.40625 
C 4.40625 2.296875 7.09375 -0.703125 12.796875 -0.703125 
C 16.296875 -0.703125 21.5 0.796875 28.203125 3.703125 
L 28.203125 6.90625 
C 24.203125 5.59375 21 4.90625 18.703125 4.90625 
C 14.703125 4.90625 12.59375 7.09375 12.59375 11.09375 
C 12.59375 12.203125 12.90625 13.703125 13.203125 15.5 
L 18.40625 42.203125 
L 33.59375 42.203125 
L 33.59375 46.5 
L 19.203125 46.5 
L 21.296875 57.90625 
z
" id="Charter-Italic-116"/>
      <path d="M 18.09375 48.203125 
L 3.296875 44.90625 
L 3.296875 42.40625 
L 11.5 40.90625 
L 3.203125 0 
L 11.703125 0 
L 17.90625 33.796875 
C 24 39.40625 29.296875 42 32.703125 42 
C 36.5 42 38.09375 40.09375 38.09375 35.703125 
C 38.09375 34.40625 37.90625 32.203125 37.203125 29.296875 
L 32.90625 10.796875 
C 32.40625 8.59375 32.09375 6.703125 32.09375 5.40625 
C 32.09375 1.40625 34.5 -0.59375 39.40625 -0.59375 
C 42.203125 -0.59375 46.203125 0.40625 51.40625 2.40625 
L 51.40625 5.203125 
C 49.09375 4.59375 47.296875 4.296875 45.90625 4.296875 
C 42.59375 4.296875 40.703125 6 40.703125 9.203125 
C 40.703125 10.703125 41.203125 12.90625 41.796875 15.796875 
L 45.203125 31.296875 
C 46 34.90625 46.59375 37.703125 46.59375 40.203125 
C 46.59375 45.09375 43.40625 48.203125 38.203125 48.203125 
C 32.90625 48.203125 26.703125 44.90625 18.796875 38.59375 
L 20.59375 48.203125 
z
" id="Charter-Italic-110"/>
      <path d="M 33.40625 5.796875 
Q 28.59375 2.59375 24.59375 0.9375 
Q 20.59375 -0.703125 17 -0.703125 
Q 11 -0.703125 7.59375 2.84375 
Q 4.203125 6.40625 4.203125 12.09375 
Q 4.203125 16 5.953125 18.640625 
Q 7.703125 21.296875 11.296875 23.296875 
Q 14.90625 25.296875 20.40625 26.890625 
Q 25.90625 28.5 33.40625 30.296875 
L 33.40625 33.5 
Q 33.40625 39.5 31.5 42.09375 
Q 29.59375 44.703125 24.203125 44.703125 
Q 20.5 44.703125 16.59375 43.09375 
L 16.59375 34.703125 
L 9.703125 34.703125 
Q 8 34.703125 7.296875 35.34375 
Q 6.59375 36 6.59375 37.796875 
Q 6.59375 40.09375 8 42.140625 
Q 9.40625 44.203125 12 45.75 
Q 14.59375 47.296875 18.34375 48.1875 
Q 22.09375 49.09375 26.796875 49.09375 
Q 34.703125 49.09375 38.203125 45.6875 
Q 41.703125 42.296875 41.703125 34.703125 
L 41.703125 5.703125 
L 43.5 4.09375 
L 48.796875 3.59375 
L 48.796875 0 
L 34.703125 0 
z
M 33.40625 26.796875 
Q 28.09375 25.296875 24.25 24 
Q 20.40625 22.703125 17.90625 21.140625 
Q 15.40625 19.59375 14.203125 17.59375 
Q 13 15.59375 13 12.90625 
Q 13 9.203125 15.09375 6.953125 
Q 17.203125 4.703125 21 4.703125 
Q 23.5 4.703125 26.546875 5.84375 
Q 29.59375 7 33.40625 9.203125 
z
" id="Charter-97"/>
      <path d="M 45.40625 42.40625 
Q 56.796875 49.09375 62.59375 49.09375 
Q 68.59375 49.09375 72.046875 45.25 
Q 75.5 41.40625 75.5 33.90625 
L 75.5 5.703125 
L 77.203125 4.09375 
L 82.5 3.59375 
L 82.5 0 
L 60.703125 0 
L 60.703125 3.59375 
L 65.40625 4.09375 
L 67.203125 5.703125 
L 67.203125 32.203125 
Q 67.203125 37.5 65.046875 40 
Q 62.90625 42.5 58.203125 42.5 
Q 55.796875 42.5 52.9375 41.640625 
Q 50.09375 40.796875 46.90625 39.203125 
L 46.90625 5.703125 
L 48.703125 4.09375 
L 53.40625 3.59375 
L 53.40625 0 
L 32.09375 0 
L 32.09375 3.59375 
L 36.90625 4.09375 
L 38.59375 5.703125 
L 38.59375 32.203125 
Q 38.59375 42.5 29.796875 42.5 
Q 25 42.5 18.40625 39.203125 
L 18.40625 5.703125 
L 20.09375 4.09375 
L 24.90625 3.59375 
L 24.90625 0 
L 3 0 
L 3 3.59375 
L 8.40625 4.09375 
L 10.09375 5.703125 
L 10.09375 41.90625 
L 3 41.90625 
L 3 45 
L 14.59375 48.59375 
L 18.40625 48.59375 
L 18.40625 43.09375 
Q 23.40625 46 27.296875 47.546875 
Q 31.203125 49.09375 34.40625 49.09375 
Q 41.90625 49.09375 45.40625 42.40625 
z
" id="Charter-109"/>
      <path d="M 2.296875 -18.203125 
L 7.703125 -17.703125 
L 9.40625 -16.09375 
L 9.40625 41.90625 
L 2.296875 41.90625 
L 2.296875 45 
L 13.90625 48.59375 
L 17.703125 48.59375 
L 17.703125 43.09375 
Q 25.59375 49.09375 32.40625 49.09375 
Q 36.5 49.09375 40.046875 47.390625 
Q 43.59375 45.703125 46.140625 42.640625 
Q 48.703125 39.59375 50.140625 35.25 
Q 51.59375 30.90625 51.59375 25.703125 
Q 51.59375 19.796875 49.84375 15 
Q 48.09375 10.203125 44.84375 6.796875 
Q 41.59375 3.40625 37.046875 1.546875 
Q 32.5 -0.296875 27 -0.296875 
Q 23.203125 -0.296875 17.703125 0.59375 
L 17.703125 -16.09375 
L 19.40625 -17.703125 
L 25.796875 -18.203125 
L 25.796875 -21.796875 
L 2.296875 -21.796875 
z
M 17.703125 5.796875 
Q 22.5 4.203125 26.203125 4.203125 
Q 29.90625 4.203125 32.953125 5.640625 
Q 36 7.09375 38.203125 9.6875 
Q 40.40625 12.296875 41.59375 16.046875 
Q 42.796875 19.796875 42.796875 24.40625 
Q 42.796875 33.09375 38.796875 37.9375 
Q 34.796875 42.796875 28.203125 42.796875 
Q 25.59375 42.796875 23.09375 41.9375 
Q 20.59375 41.09375 17.703125 39.40625 
z
" id="Charter-112"/>
      <path d="M 21.5 48.09375 
L 21.5 44.40625 
L 16.203125 44 
L 15 42.40625 
L 24.09375 9.90625 
L 37.5 48.09375 
L 43.59375 48.09375 
L 55.40625 9.90625 
L 65.59375 42.40625 
L 64.796875 44 
L 59.40625 44.40625 
L 59.40625 48.09375 
L 77.09375 48.09375 
L 77.09375 44.40625 
L 71.5 43.59375 
L 57.203125 0 
L 51 0 
L 38.90625 37.90625 
L 25.40625 0 
L 19.203125 0 
L 5.90625 43.796875 
L -0.203125 44.40625 
L -0.203125 48.09375 
z
" id="Charter-119"/>
     </defs>
     <g transform="translate(332.31625 155.685)scale(0.16 -0.16)">
      <use transform="translate(0 0.90625)" xlink:href="#Charter-Bold-74"/>
      <use transform="translate(47.350375 -13.671875)scale(0.7)" xlink:href="#Charter-Italic-97"/>
      <use transform="translate(84.100365 -13.671875)scale(0.7)" xlink:href="#Charter-Italic-99"/>
      <use transform="translate(111.68036 -13.671875)scale(0.7)" xlink:href="#Charter-Italic-101"/>
      <use transform="translate(141.360356 -13.671875)scale(0.7)" xlink:href="#Charter-Italic-116"/>
      <use transform="translate(164.670348 -13.671875)scale(0.7)" xlink:href="#Charter-Italic-111"/>
      <use transform="translate(199.810345 -13.671875)scale(0.7)" xlink:href="#Charter-Italic-110"/>
      <use transform="translate(238.730339 -13.671875)scale(0.7)" xlink:href="#Charter-Italic-101"/>
      <use transform="translate(270.840022 0.90625)" xlink:href="#Charter-32"/>
      <use transform="translate(298.64001 0.90625)" xlink:href="#Charter-97"/>
      <use transform="translate(349.340007 0.90625)" xlink:href="#Charter-109"/>
      <use transform="translate(433.639995 0.90625)" xlink:href="#Charter-112"/>
      <use transform="translate(488.739986 0.90625)" xlink:href="#Charter-119"/>
     </g>
    </g>
    <g id="line2d_35">
     <path d="M 287.51625 173.38 
L 319.51625 173.38 
" style="fill:none;stroke:#bbbbbb;stroke-linecap:square;stroke-width:2;"/>
    </g>
    <g id="line2d_36"/>
    <g id="text_16">
     <!-- $\mathbf{J}_{methanol}$ ampw -->
     <defs>
      <path d="M 22.296875 73.59375 
L 6.59375 70.296875 
L 6.59375 67.796875 
L 16 67 
L 2.296875 0 
L 10.796875 0 
L 17 33.90625 
C 23.203125 39.5 28.5 42.09375 31.796875 42.09375 
C 35.59375 42.09375 37.203125 40 37.203125 35.703125 
C 37.203125 34.40625 36.90625 32.203125 36.203125 29.296875 
L 31.90625 10.796875 
C 31.40625 8.59375 31.203125 6.796875 31.203125 5.5 
C 31.203125 1.296875 33.5 -0.59375 38.5 -0.59375 
C 41.09375 -0.59375 45.203125 0.40625 50.5 2.5 
L 50.5 5.203125 
C 48.203125 4.59375 46.296875 4.296875 44.90625 4.296875 
C 41.59375 4.296875 39.796875 6.09375 39.796875 9.296875 
C 39.796875 11 40.203125 13.09375 40.796875 15.796875 
L 44.296875 31.296875 
C 45.09375 34.90625 45.703125 37.796875 45.703125 40.296875 
C 45.703125 45.203125 42.5 48.296875 37.296875 48.296875 
C 32.09375 48.296875 25.90625 45.09375 18.09375 38.796875 
L 21.40625 55.90625 
C 22.796875 62.90625 24.09375 68.796875 25.40625 73.59375 
z
" id="Charter-Italic-104"/>
     </defs>
     <g transform="translate(332.31625 178.98)scale(0.16 -0.16)">
      <use transform="translate(0 0.90625)" xlink:href="#Charter-Bold-74"/>
      <use transform="translate(47.350375 -13.671875)scale(0.7)" xlink:href="#Charter-Italic-109"/>
      <use transform="translate(104.400365 -13.671875)scale(0.7)" xlink:href="#Charter-Italic-101"/>
      <use transform="translate(134.08036 -13.671875)scale(0.7)" xlink:href="#Charter-Italic-116"/>
      <use transform="translate(157.390352 -13.671875)scale(0.7)" xlink:href="#Charter-Italic-104"/>
      <use transform="translate(195.960345 -13.671875)scale(0.7)" xlink:href="#Charter-Italic-97"/>
      <use transform="translate(232.710335 -13.671875)scale(0.7)" xlink:href="#Charter-Italic-110"/>
      <use transform="translate(271.630328 -13.671875)scale(0.7)" xlink:href="#Charter-Italic-111"/>
      <use transform="translate(306.770326 -13.671875)scale(0.7)" xlink:href="#Charter-Italic-108"/>
      <use transform="translate(328.450003 0.90625)" xlink:href="#Charter-32"/>
      <use transform="translate(356.249991 0.90625)" xlink:href="#Charter-97"/>
      <use transform="translate(406.949988 0.90625)" xlink:href="#Charter-109"/>
      <use transform="translate(491.249976 0.90625)" xlink:href="#Charter-112"/>
      <use transform="translate(546.349966 0.90625)" xlink:href="#Charter-119"/>
     </g>
    </g>
    <g id="line2d_37">
     <path d="M 287.51625 196.675 
L 319.51625 196.675 
" style="fill:none;stroke:#008cba;stroke-linecap:square;stroke-width:2;"/>
    </g>
    <g id="line2d_38"/>
    <g id="text_17">
     <!-- $\mathbf{J}_{propanol}$ ampw -->
     <defs>
      <path d="M 16.90625 48.203125 
L 2.703125 45.203125 
L 2.703125 42.703125 
L 10.5 41.703125 
L 0 -16.5 
L -1 -17.59375 
L -6.90625 -18.796875 
L -6.90625 -21.796875 
L 17.09375 -21.796875 
L 17.09375 -18.796875 
L 7.59375 -17.09375 
L 10.90625 1.5 
C 13.40625 0.296875 16 -0.40625 18.59375 -0.40625 
C 25.40625 -0.40625 32.5 2.90625 37.59375 8.5 
C 43.296875 14.796875 46.09375 22.09375 46.09375 30.796875 
C 46.09375 42.09375 41.296875 48.203125 33.40625 48.203125 
C 29.09375 48.203125 24.09375 46.203125 18.296875 42.09375 
L 19.5 48.203125 
z
M 11.90625 6.703125 
L 17.59375 37.703125 
C 22.09375 41.203125 25.796875 43 28.796875 43 
C 34.203125 43 37.796875 38.5 37.796875 30.59375 
C 37.796875 22.59375 35 14.5 31.703125 10.09375 
C 28.59375 6 24.90625 4 20.5 4 
C 17.703125 4 14.90625 4.90625 11.90625 6.703125 
z
" id="Charter-Italic-112"/>
      <path d="M 17.703125 48.203125 
L 2.90625 44.90625 
L 2.90625 42.40625 
L 11.09375 40.90625 
L 2.796875 0 
L 11.203125 0 
L 15.296875 23.5 
C 16.90625 32.703125 20.09375 38.09375 29.90625 41.90625 
L 32.5 36.5 
C 32.703125 36.5 32.90625 36.5 33.203125 36.5 
C 37.296875 36.5 39.90625 39.203125 39.90625 43 
C 39.90625 46 37.703125 48.203125 34.296875 48.203125 
C 29.296875 48.203125 22.90625 43.59375 16.5 34.5 
L 19.703125 48.203125 
z
" id="Charter-Italic-114"/>
     </defs>
     <g transform="translate(332.31625 202.275)scale(0.16 -0.16)">
      <use transform="translate(0 0.90625)" xlink:href="#Charter-Bold-74"/>
      <use transform="translate(47.350375 -13.671875)scale(0.7)" xlink:href="#Charter-Italic-112"/>
      <use transform="translate(83.470369 -13.671875)scale(0.7)" xlink:href="#Charter-Italic-114"/>
      <use transform="translate(111.33036 -13.671875)scale(0.7)" xlink:href="#Charter-Italic-111"/>
      <use transform="translate(146.470358 -13.671875)scale(0.7)" xlink:href="#Charter-Italic-112"/>
      <use transform="translate(182.590352 -13.671875)scale(0.7)" xlink:href="#Charter-Italic-97"/>
      <use transform="translate(219.340341 -13.671875)scale(0.7)" xlink:href="#Charter-Italic-110"/>
      <use transform="translate(258.260335 -13.671875)scale(0.7)" xlink:href="#Charter-Italic-111"/>
      <use transform="translate(293.400333 -13.671875)scale(0.7)" xlink:href="#Charter-Italic-108"/>
      <use transform="translate(315.080009 0.90625)" xlink:href="#Charter-32"/>
      <use transform="translate(342.879997 0.90625)" xlink:href="#Charter-97"/>
      <use transform="translate(393.579994 0.90625)" xlink:href="#Charter-109"/>
      <use transform="translate(477.879982 0.90625)" xlink:href="#Charter-112"/>
      <use transform="translate(532.979973 0.90625)" xlink:href="#Charter-119"/>
     </g>
    </g>
    <g id="line2d_39">
     <path d="M 287.51625 221.25 
L 319.51625 221.25 
" style="fill:none;stroke:#ff9e1b;stroke-linecap:square;stroke-width:2;"/>
    </g>
    <g id="line2d_40"/>
    <g id="text_18">
     <!-- $\mathbf{J}_{water}$ ampw -->
     <defs>
      <path d="M 11.5 48.5 
L 0 45.09375 
L 0 42.703125 
L 7.40625 41.796875 
L 10.09375 2.203125 
L 9.296875 0 
L 15.796875 0 
C 26 17.5 32.296875 29.203125 34.90625 34.90625 
L 37.296875 0 
L 43.09375 0 
C 59.59375 21.703125 68.796875 35.203125 68.796875 42.703125 
C 68.796875 46.296875 66.90625 48.40625 63.59375 48.40625 
C 61.5 48.40625 59.796875 47.703125 58.5 46.09375 
L 60.5 34.40625 
C 58.203125 27.40625 52.59375 18.59375 44.296875 7.5 
C 42.90625 24.40625 42 37.5 41.59375 46.703125 
L 35.59375 46 
C 30.296875 33.59375 23.796875 21.40625 17.203125 8.90625 
L 15 48.296875 
z
" id="Charter-Italic-119"/>
     </defs>
     <g transform="translate(332.31625 226.85)scale(0.16 -0.16)">
      <use transform="translate(0 0.90625)" xlink:href="#Charter-Bold-74"/>
      <use transform="translate(47.350375 -13.671875)scale(0.7)" xlink:href="#Charter-Italic-119"/>
      <use transform="translate(97.260367 -13.671875)scale(0.7)" xlink:href="#Charter-Italic-97"/>
      <use transform="translate(134.010356 -13.671875)scale(0.7)" xlink:href="#Charter-Italic-116"/>
      <use transform="translate(157.320348 -13.671875)scale(0.7)" xlink:href="#Charter-Italic-101"/>
      <use transform="translate(187.000343 -13.671875)scale(0.7)" xlink:href="#Charter-Italic-114"/>
      <use transform="translate(217.290022 0.90625)" xlink:href="#Charter-32"/>
      <use transform="translate(245.09001 0.90625)" xlink:href="#Charter-97"/>
      <use transform="translate(295.790007 0.90625)" xlink:href="#Charter-109"/>
      <use transform="translate(380.089995 0.90625)" xlink:href="#Charter-112"/>
      <use transform="translate(435.189986 0.90625)" xlink:href="#Charter-119"/>
     </g>
    </g>
    <g id="line2d_41"/>
    <g id="line2d_42">
     <g>
      <use style="fill:#c7254e;stroke:#c7254e;" x="480.15625" xlink:href="#m9b7874fe60" y="150.085"/>
     </g>
    </g>
    <g id="text_19">
     <!-- $\mathbf{J}_{acetone}$ pmwa -->
     <g transform="translate(508.95625 155.685)scale(0.16 -0.16)">
      <use transform="translate(0 0.90625)" xlink:href="#Charter-Bold-74"/>
      <use transform="translate(47.350375 -13.671875)scale(0.7)" xlink:href="#Charter-Italic-97"/>
      <use transform="translate(84.100365 -13.671875)scale(0.7)" xlink:href="#Charter-Italic-99"/>
      <use transform="translate(111.68036 -13.671875)scale(0.7)" xlink:href="#Charter-Italic-101"/>
      <use transform="translate(141.360356 -13.671875)scale(0.7)" xlink:href="#Charter-Italic-116"/>
      <use transform="translate(164.670348 -13.671875)scale(0.7)" xlink:href="#Charter-Italic-111"/>
      <use transform="translate(199.810345 -13.671875)scale(0.7)" xlink:href="#Charter-Italic-110"/>
      <use transform="translate(238.730339 -13.671875)scale(0.7)" xlink:href="#Charter-Italic-101"/>
      <use transform="translate(270.840022 0.90625)" xlink:href="#Charter-32"/>
      <use transform="translate(298.64001 0.90625)" xlink:href="#Charter-112"/>
      <use transform="translate(353.740001 0.90625)" xlink:href="#Charter-109"/>
      <use transform="translate(438.039989 0.90625)" xlink:href="#Charter-119"/>
      <use transform="translate(515.13998 0.90625)" xlink:href="#Charter-97"/>
     </g>
    </g>
    <g id="line2d_43"/>
    <g id="line2d_44">
     <g>
      <use style="fill:#bbbbbb;stroke:#bbbbbb;" x="480.15625" xlink:href="#m80432ec273" y="173.38"/>
     </g>
    </g>
    <g id="text_20">
     <!-- $\mathbf{J}_{methanol}$ pmwa -->
     <g transform="translate(508.95625 178.98)scale(0.16 -0.16)">
      <use transform="translate(0 0.90625)" xlink:href="#Charter-Bold-74"/>
      <use transform="translate(47.350375 -13.671875)scale(0.7)" xlink:href="#Charter-Italic-109"/>
      <use transform="translate(104.400365 -13.671875)scale(0.7)" xlink:href="#Charter-Italic-101"/>
      <use transform="translate(134.08036 -13.671875)scale(0.7)" xlink:href="#Charter-Italic-116"/>
      <use transform="translate(157.390352 -13.671875)scale(0.7)" xlink:href="#Charter-Italic-104"/>
      <use transform="translate(195.960345 -13.671875)scale(0.7)" xlink:href="#Charter-Italic-97"/>
      <use transform="translate(232.710335 -13.671875)scale(0.7)" xlink:href="#Charter-Italic-110"/>
      <use transform="translate(271.630328 -13.671875)scale(0.7)" xlink:href="#Charter-Italic-111"/>
      <use transform="translate(306.770326 -13.671875)scale(0.7)" xlink:href="#Charter-Italic-108"/>
      <use transform="translate(328.450003 0.90625)" xlink:href="#Charter-32"/>
      <use transform="translate(356.249991 0.90625)" xlink:href="#Charter-112"/>
      <use transform="translate(411.349982 0.90625)" xlink:href="#Charter-109"/>
      <use transform="translate(495.649969 0.90625)" xlink:href="#Charter-119"/>
      <use transform="translate(572.74996 0.90625)" xlink:href="#Charter-97"/>
     </g>
    </g>
    <g id="line2d_45"/>
    <g id="line2d_46">
     <g>
      <use style="fill:#008cba;stroke:#008cba;" x="480.15625" xlink:href="#mae889cc243" y="196.675"/>
     </g>
    </g>
    <g id="text_21">
     <!-- $\mathbf{J}_{propanol}$ pmwa -->
     <g transform="translate(508.95625 202.275)scale(0.16 -0.16)">
      <use transform="translate(0 0.90625)" xlink:href="#Charter-Bold-74"/>
      <use transform="translate(47.350375 -13.671875)scale(0.7)" xlink:href="#Charter-Italic-112"/>
      <use transform="translate(83.470369 -13.671875)scale(0.7)" xlink:href="#Charter-Italic-114"/>
      <use transform="translate(111.33036 -13.671875)scale(0.7)" xlink:href="#Charter-Italic-111"/>
      <use transform="translate(146.470358 -13.671875)scale(0.7)" xlink:href="#Charter-Italic-112"/>
      <use transform="translate(182.590352 -13.671875)scale(0.7)" xlink:href="#Charter-Italic-97"/>
      <use transform="translate(219.340341 -13.671875)scale(0.7)" xlink:href="#Charter-Italic-110"/>
      <use transform="translate(258.260335 -13.671875)scale(0.7)" xlink:href="#Charter-Italic-111"/>
      <use transform="translate(293.400333 -13.671875)scale(0.7)" xlink:href="#Charter-Italic-108"/>
      <use transform="translate(315.080009 0.90625)" xlink:href="#Charter-32"/>
      <use transform="translate(342.879997 0.90625)" xlink:href="#Charter-112"/>
      <use transform="translate(397.979988 0.90625)" xlink:href="#Charter-109"/>
      <use transform="translate(482.279976 0.90625)" xlink:href="#Charter-119"/>
      <use transform="translate(559.379967 0.90625)" xlink:href="#Charter-97"/>
     </g>
    </g>
    <g id="line2d_47"/>
    <g id="line2d_48">
     <g>
      <use style="fill:#ff9e1b;stroke:#ff9e1b;" x="480.15625" xlink:href="#m124716d80e" y="221.25"/>
     </g>
    </g>
    <g id="text_22">
     <!-- $\mathbf{J}_{water}$ pmwa -->
     <g transform="translate(508.95625 226.85)scale(0.16 -0.16)">
      <use transform="translate(0 0.90625)" xlink:href="#Charter-Bold-74"/>
      <use transform="translate(47.350375 -13.671875)scale(0.7)" xlink:href="#Charter-Italic-119"/>
      <use transform="translate(97.260367 -13.671875)scale(0.7)" xlink:href="#Charter-Italic-97"/>
      <use transform="translate(134.010356 -13.671875)scale(0.7)" xlink:href="#Charter-Italic-116"/>
      <use transform="translate(157.320348 -13.671875)scale(0.7)" xlink:href="#Charter-Italic-101"/>
      <use transform="translate(187.000343 -13.671875)scale(0.7)" xlink:href="#Charter-Italic-114"/>
      <use transform="translate(217.290022 0.90625)" xlink:href="#Charter-32"/>
      <use transform="translate(245.09001 0.90625)" xlink:href="#Charter-112"/>
      <use transform="translate(300.190001 0.90625)" xlink:href="#Charter-109"/>
      <use transform="translate(384.489989 0.90625)" xlink:href="#Charter-119"/>
      <use transform="translate(461.58998 0.90625)" xlink:href="#Charter-97"/>
     </g>
    </g>
   </g>
  </g>
 </g>
 <defs>
  <clipPath id="p3836a93e28">
   <rect height="271.8" width="558" x="77.81625" y="7.2"/>
  </clipPath>
 </defs>
</svg>
