<?xml version="1.0" encoding="utf-8" standalone="no"?>
<!DOCTYPE svg PUBLIC "-//W3C//DTD SVG 1.1//EN"
  "http://www.w3.org/Graphics/SVG/1.1/DTD/svg11.dtd">
<svg xmlns:xlink="http://www.w3.org/1999/xlink" width="393.176563pt" height="217.097188pt" viewBox="0 0 393.176563 217.097188" xmlns="http://www.w3.org/2000/svg" version="1.1">
 <metadata>
  <rdf:RDF xmlns:dc="http://purl.org/dc/elements/1.1/" xmlns:cc="http://creativecommons.org/ns#" xmlns:rdf="http://www.w3.org/1999/02/22-rdf-syntax-ns#">
   <cc:Work>
    <dc:type rdf:resource="http://purl.org/dc/dcmitype/StillImage"/>
    <dc:date>2022-05-15T23:54:39.422991</dc:date>
    <dc:format>image/svg+xml</dc:format>
    <dc:creator>
     <cc:Agent>
      <dc:title>Matplotlib v3.5.1, https://matplotlib.org/</dc:title>
     </cc:Agent>
    </dc:creator>
   </cc:Work>
  </rdf:RDF>
 </metadata>
 <defs>
  <style type="text/css">*{stroke-linejoin: round; stroke-linecap: butt}</style>
 </defs>
 <g id="figure_1">
  <g id="patch_1">
   <path d="M 0 217.097188 
L 393.176563 217.097188 
L 393.176563 0 
L 0 0 
L 0 217.097188 
z
" style="fill: none"/>
  </g>
  <g id="axes_1">
   <g id="patch_2">
    <path d="M 51.176563 170.28 
L 385.976562 170.28 
L 385.976562 7.2 
L 51.176563 7.2 
z
" style="fill: #ffffff"/>
   </g>
   <g id="matplotlib.axis_1">
    <g id="xtick_1">
     <g id="line2d_1">
      <path d="M 66.394744 170.28 
L 66.394744 7.2 
" clip-path="url(#peaecde2337)" style="fill: none; stroke: #b0b0b0; stroke-opacity: 0.3; stroke-width: 0.8; stroke-linecap: square"/>
     </g>
     <g id="line2d_2">
      <defs>
       <path id="mc69a1cf0b5" d="M 0 0 
L 0 3.5 
" style="stroke: #000000; stroke-width: 0.8"/>
      </defs>
      <g>
       <use xlink:href="#mc69a1cf0b5" x="66.394744" y="170.28" style="stroke: #000000; stroke-width: 0.8"/>
      </g>
     </g>
     <g id="text_1">
      <!-- 0.0 -->
      <g transform="translate(59.445526 184.639375)scale(0.1 -0.1)">
       <defs>
        <path id="Charter-30" d="M 1779 4371 
Q 2125 4371 2403 4224 
Q 2682 4077 2880 3792 
Q 3078 3507 3187 3094 
Q 3296 2682 3296 2150 
Q 3296 1619 3187 1206 
Q 3078 794 2880 509 
Q 2682 224 2403 73 
Q 2125 -77 1779 -77 
Q 1434 -77 1155 73 
Q 877 224 678 509 
Q 480 794 371 1206 
Q 262 1619 262 2150 
Q 262 2682 371 3094 
Q 480 3507 678 3792 
Q 877 4077 1155 4224 
Q 1434 4371 1779 4371 
z
M 1779 4070 
Q 1338 4070 1101 3587 
Q 864 3104 864 2144 
Q 864 1190 1101 710 
Q 1338 230 1779 230 
Q 2221 230 2454 713 
Q 2688 1197 2688 2150 
Q 2688 3104 2454 3587 
Q 2221 4070 1779 4070 
z
" transform="scale(0.015625)"/>
        <path id="Charter-2e" d="M 890 755 
Q 1056 755 1174 636 
Q 1293 518 1293 346 
Q 1293 179 1174 60 
Q 1056 -58 890 -58 
Q 723 -58 601 57 
Q 480 173 480 346 
Q 480 518 601 636 
Q 723 755 890 755 
z
" transform="scale(0.015625)"/>
       </defs>
       <use xlink:href="#Charter-30"/>
       <use xlink:href="#Charter-2e" x="55.599991"/>
       <use xlink:href="#Charter-30" x="83.399979"/>
      </g>
     </g>
    </g>
    <g id="xtick_2">
     <g id="line2d_3">
      <path d="M 127.267472 170.28 
L 127.267472 7.2 
" clip-path="url(#peaecde2337)" style="fill: none; stroke: #b0b0b0; stroke-opacity: 0.3; stroke-width: 0.8; stroke-linecap: square"/>
     </g>
     <g id="line2d_4">
      <g>
       <use xlink:href="#mc69a1cf0b5" x="127.267472" y="170.28" style="stroke: #000000; stroke-width: 0.8"/>
      </g>
     </g>
     <g id="text_2">
      <!-- 0.2 -->
      <g transform="translate(120.318253 184.639375)scale(0.1 -0.1)">
       <defs>
        <path id="Charter-32" d="M 2829 506 
L 2944 1050 
L 3232 1050 
L 3232 0 
L 269 0 
L 269 403 
Q 794 832 1203 1184 
Q 1613 1536 1894 1853 
Q 2176 2170 2323 2467 
Q 2470 2765 2470 3078 
Q 2470 3539 2246 3792 
Q 2022 4045 1619 4045 
Q 1472 4045 1334 4009 
Q 1197 3974 1050 3891 
L 1050 3206 
Q 915 3110 762 3110 
Q 595 3110 499 3206 
Q 403 3302 403 3469 
Q 403 3635 502 3798 
Q 602 3962 784 4090 
Q 966 4218 1212 4294 
Q 1459 4371 1760 4371 
Q 2067 4371 2313 4284 
Q 2560 4198 2733 4038 
Q 2906 3878 2998 3654 
Q 3091 3430 3091 3162 
Q 3091 2861 2947 2566 
Q 2803 2272 2524 1955 
Q 2246 1638 1840 1283 
Q 1434 928 902 506 
L 2829 506 
z
" transform="scale(0.015625)"/>
       </defs>
       <use xlink:href="#Charter-30"/>
       <use xlink:href="#Charter-2e" x="55.599991"/>
       <use xlink:href="#Charter-32" x="83.399979"/>
      </g>
     </g>
    </g>
    <g id="xtick_3">
     <g id="line2d_5">
      <path d="M 188.140199 170.28 
L 188.140199 7.2 
" clip-path="url(#peaecde2337)" style="fill: none; stroke: #b0b0b0; stroke-opacity: 0.3; stroke-width: 0.8; stroke-linecap: square"/>
     </g>
     <g id="line2d_6">
      <g>
       <use xlink:href="#mc69a1cf0b5" x="188.140199" y="170.28" style="stroke: #000000; stroke-width: 0.8"/>
      </g>
     </g>
     <g id="text_3">
      <!-- 0.4 -->
      <g transform="translate(181.19098 184.639375)scale(0.1 -0.1)">
       <defs>
        <path id="Charter-34" d="M 2726 4333 
L 2726 1658 
L 3450 1658 
L 3450 1242 
L 2726 1242 
L 2726 -237 
L 2234 -237 
L 2234 1242 
L 173 1242 
L 173 1658 
L 2355 4333 
L 2726 4333 
z
M 653 1658 
L 2234 1658 
L 2234 3635 
L 653 1658 
z
" transform="scale(0.015625)"/>
       </defs>
       <use xlink:href="#Charter-30"/>
       <use xlink:href="#Charter-2e" x="55.599991"/>
       <use xlink:href="#Charter-34" x="83.399979"/>
      </g>
     </g>
    </g>
    <g id="xtick_4">
     <g id="line2d_7">
      <path d="M 249.012926 170.28 
L 249.012926 7.2 
" clip-path="url(#peaecde2337)" style="fill: none; stroke: #b0b0b0; stroke-opacity: 0.3; stroke-width: 0.8; stroke-linecap: square"/>
     </g>
     <g id="line2d_8">
      <g>
       <use xlink:href="#mc69a1cf0b5" x="249.012926" y="170.28" style="stroke: #000000; stroke-width: 0.8"/>
      </g>
     </g>
     <g id="text_4">
      <!-- 0.6 -->
      <g transform="translate(242.063707 184.639375)scale(0.1 -0.1)">
       <defs>
        <path id="Charter-36" d="M 2835 4198 
L 2816 4198 
Q 2042 4198 1565 3756 
Q 1088 3315 941 2458 
Q 1446 2848 2029 2848 
Q 2317 2848 2560 2745 
Q 2803 2643 2979 2457 
Q 3155 2272 3257 2016 
Q 3360 1760 3360 1453 
Q 3360 1126 3241 848 
Q 3123 570 2915 365 
Q 2707 160 2422 41 
Q 2138 -77 1811 -77 
Q 1485 -77 1213 51 
Q 941 179 742 416 
Q 544 653 432 995 
Q 320 1338 320 1773 
Q 320 2387 493 2886 
Q 666 3386 989 3747 
Q 1312 4109 1779 4320 
Q 2246 4531 2835 4570 
L 2835 4198 
z
M 928 2176 
Q 915 2074 915 1974 
Q 915 1875 915 1786 
Q 915 1018 1161 624 
Q 1408 230 1862 230 
Q 2061 230 2230 316 
Q 2400 403 2521 556 
Q 2643 710 2710 924 
Q 2778 1139 2778 1395 
Q 2778 1894 2522 2179 
Q 2266 2464 1856 2464 
Q 1318 2464 928 2176 
z
" transform="scale(0.015625)"/>
       </defs>
       <use xlink:href="#Charter-30"/>
       <use xlink:href="#Charter-2e" x="55.599991"/>
       <use xlink:href="#Charter-36" x="83.399979"/>
      </g>
     </g>
    </g>
    <g id="xtick_5">
     <g id="line2d_9">
      <path d="M 309.885653 170.28 
L 309.885653 7.2 
" clip-path="url(#peaecde2337)" style="fill: none; stroke: #b0b0b0; stroke-opacity: 0.3; stroke-width: 0.8; stroke-linecap: square"/>
     </g>
     <g id="line2d_10">
      <g>
       <use xlink:href="#mc69a1cf0b5" x="309.885653" y="170.28" style="stroke: #000000; stroke-width: 0.8"/>
      </g>
     </g>
     <g id="text_5">
      <!-- 0.8 -->
      <g transform="translate(302.936435 184.639375)scale(0.1 -0.1)">
       <defs>
        <path id="Charter-38" d="M 2054 2362 
Q 2304 2528 2435 2758 
Q 2566 2989 2566 3245 
Q 2566 3629 2355 3853 
Q 2144 4077 1792 4077 
Q 1626 4077 1485 4019 
Q 1344 3962 1238 3859 
Q 1133 3757 1075 3619 
Q 1018 3482 1018 3322 
Q 1018 3002 1274 2774 
Q 1530 2547 2054 2362 
z
M 2323 2246 
Q 2778 2086 3008 1804 
Q 3238 1523 3238 1146 
Q 3238 890 3132 662 
Q 3027 435 2832 265 
Q 2637 96 2365 -3 
Q 2093 -102 1760 -102 
Q 1414 -102 1139 -9 
Q 864 83 675 246 
Q 486 410 384 637 
Q 282 864 282 1133 
Q 282 1901 1158 2240 
Q 486 2522 486 3226 
Q 486 3482 582 3693 
Q 678 3904 851 4057 
Q 1024 4211 1267 4297 
Q 1510 4384 1811 4384 
Q 2099 4384 2329 4304 
Q 2560 4224 2723 4080 
Q 2886 3936 2972 3737 
Q 3059 3539 3059 3309 
Q 3059 2989 2870 2710 
Q 2682 2432 2323 2246 
z
M 1402 2106 
Q 1075 1933 924 1715 
Q 774 1498 774 1171 
Q 774 749 1046 489 
Q 1318 230 1779 230 
Q 2195 230 2441 464 
Q 2688 698 2688 1082 
Q 2688 1274 2608 1411 
Q 2528 1549 2368 1664 
Q 2208 1779 1965 1881 
Q 1722 1984 1402 2106 
z
" transform="scale(0.015625)"/>
       </defs>
       <use xlink:href="#Charter-30"/>
       <use xlink:href="#Charter-2e" x="55.599991"/>
       <use xlink:href="#Charter-38" x="83.399979"/>
      </g>
     </g>
    </g>
    <g id="xtick_6">
     <g id="line2d_11">
      <path d="M 370.758381 170.28 
L 370.758381 7.2 
" clip-path="url(#peaecde2337)" style="fill: none; stroke: #b0b0b0; stroke-opacity: 0.3; stroke-width: 0.8; stroke-linecap: square"/>
     </g>
     <g id="line2d_12">
      <g>
       <use xlink:href="#mc69a1cf0b5" x="370.758381" y="170.28" style="stroke: #000000; stroke-width: 0.8"/>
      </g>
     </g>
     <g id="text_6">
      <!-- 1.0 -->
      <g transform="translate(363.809162 184.639375)scale(0.1 -0.1)">
       <defs>
        <path id="Charter-31" d="M 2170 4371 
L 2170 397 
L 2246 301 
L 2938 269 
L 2938 0 
L 794 0 
L 794 275 
L 1530 314 
L 1606 422 
L 1606 3866 
L 602 3686 
L 602 3955 
L 1990 4371 
L 2170 4371 
z
" transform="scale(0.015625)"/>
       </defs>
       <use xlink:href="#Charter-31"/>
       <use xlink:href="#Charter-2e" x="55.599991"/>
       <use xlink:href="#Charter-30" x="83.399979"/>
      </g>
     </g>
    </g>
    <g id="text_7">
     <!-- $\eta$ [-] -->
     <g transform="translate(199.176563 205.497188)scale(0.2 -0.2)">
      <defs>
       <path id="Cmmi10-b4" d="M 684 -72 
Q 606 -72 550 -22 
Q 494 28 494 109 
Q 494 147 500 166 
L 978 2075 
Q 1025 2253 1025 2388 
Q 1025 2663 838 2663 
Q 638 2663 541 2423 
Q 444 2184 353 1819 
Q 353 1800 334 1789 
Q 316 1778 300 1778 
L 225 1778 
Q 203 1778 187 1801 
Q 172 1825 172 1844 
Q 241 2122 305 2315 
Q 369 2509 505 2668 
Q 641 2828 844 2828 
Q 1081 2828 1267 2678 
Q 1453 2528 1453 2291 
Q 1641 2541 1894 2684 
Q 2147 2828 2444 2828 
Q 2778 2828 2979 2648 
Q 3181 2469 3181 2138 
Q 3181 1947 3138 1784 
L 2394 -1178 
Q 2375 -1269 2300 -1325 
Q 2225 -1381 2131 -1381 
Q 2053 -1381 1997 -1332 
Q 1941 -1284 1941 -1203 
Q 1941 -1166 1947 -1153 
L 2681 1797 
Q 2747 2059 2747 2234 
Q 2747 2413 2672 2538 
Q 2597 2663 2431 2663 
Q 1803 2663 1388 1888 
L 953 141 
Q 931 53 854 -9 
Q 778 -72 684 -72 
z
" transform="scale(0.015625)"/>
       <path id="Charter-20" transform="scale(0.015625)"/>
       <path id="Charter-5b" d="M 2406 4531 
L 2406 4256 
L 1395 4256 
L 1395 -576 
L 2406 -576 
L 2406 -845 
L 890 -845 
L 890 4531 
L 2406 4531 
z
" transform="scale(0.015625)"/>
       <path id="Charter-2d" d="M 1741 1754 
L 1741 1325 
L 301 1325 
L 301 1754 
L 1741 1754 
z
" transform="scale(0.015625)"/>
       <path id="Charter-5d" d="M 1805 4531 
L 1805 -851 
L 294 -851 
L 294 -576 
L 1306 -576 
L 1306 4256 
L 294 4256 
L 294 4531 
L 1805 4531 
z
" transform="scale(0.015625)"/>
      </defs>
      <use xlink:href="#Cmmi10-b4" transform="translate(0 0.203125)"/>
      <use xlink:href="#Charter-20" transform="translate(49.609375 0.203125)"/>
      <use xlink:href="#Charter-5b" transform="translate(77.409363 0.203125)"/>
      <use xlink:href="#Charter-2d" transform="translate(119.509354 0.203125)"/>
      <use xlink:href="#Charter-5d" transform="translate(151.409348 0.203125)"/>
     </g>
    </g>
   </g>
   <g id="matplotlib.axis_2">
    <g id="ytick_1">
     <g id="line2d_13">
      <path d="M 51.176563 162.867273 
L 385.976562 162.867273 
" clip-path="url(#peaecde2337)" style="fill: none; stroke: #b0b0b0; stroke-opacity: 0.3; stroke-width: 0.8; stroke-linecap: square"/>
     </g>
     <g id="line2d_14">
      <defs>
       <path id="m4b3a53d485" d="M 0 0 
L -3.5 0 
" style="stroke: #000000; stroke-width: 0.8"/>
      </defs>
      <g>
       <use xlink:href="#m4b3a53d485" x="51.176563" y="162.867273" style="stroke: #000000; stroke-width: 0.8"/>
      </g>
     </g>
     <g id="text_8">
      <!-- 0.0 -->
      <g transform="translate(30.278125 166.54696)scale(0.1 -0.1)">
       <use xlink:href="#Charter-30"/>
       <use xlink:href="#Charter-2e" x="55.599991"/>
       <use xlink:href="#Charter-30" x="83.399979"/>
      </g>
     </g>
    </g>
    <g id="ytick_2">
     <g id="line2d_15">
      <path d="M 51.176563 133.216364 
L 385.976562 133.216364 
" clip-path="url(#peaecde2337)" style="fill: none; stroke: #b0b0b0; stroke-opacity: 0.3; stroke-width: 0.8; stroke-linecap: square"/>
     </g>
     <g id="line2d_16">
      <g>
       <use xlink:href="#m4b3a53d485" x="51.176563" y="133.216364" style="stroke: #000000; stroke-width: 0.8"/>
      </g>
     </g>
     <g id="text_9">
      <!-- 0.2 -->
      <g transform="translate(30.278125 136.896051)scale(0.1 -0.1)">
       <use xlink:href="#Charter-30"/>
       <use xlink:href="#Charter-2e" x="55.599991"/>
       <use xlink:href="#Charter-32" x="83.399979"/>
      </g>
     </g>
    </g>
    <g id="ytick_3">
     <g id="line2d_17">
      <path d="M 51.176563 103.565455 
L 385.976562 103.565455 
" clip-path="url(#peaecde2337)" style="fill: none; stroke: #b0b0b0; stroke-opacity: 0.3; stroke-width: 0.8; stroke-linecap: square"/>
     </g>
     <g id="line2d_18">
      <g>
       <use xlink:href="#m4b3a53d485" x="51.176563" y="103.565455" style="stroke: #000000; stroke-width: 0.8"/>
      </g>
     </g>
     <g id="text_10">
      <!-- 0.4 -->
      <g transform="translate(30.278125 107.245142)scale(0.1 -0.1)">
       <use xlink:href="#Charter-30"/>
       <use xlink:href="#Charter-2e" x="55.599991"/>
       <use xlink:href="#Charter-34" x="83.399979"/>
      </g>
     </g>
    </g>
    <g id="ytick_4">
     <g id="line2d_19">
      <path d="M 51.176563 73.914545 
L 385.976562 73.914545 
" clip-path="url(#peaecde2337)" style="fill: none; stroke: #b0b0b0; stroke-opacity: 0.3; stroke-width: 0.8; stroke-linecap: square"/>
     </g>
     <g id="line2d_20">
      <g>
       <use xlink:href="#m4b3a53d485" x="51.176563" y="73.914545" style="stroke: #000000; stroke-width: 0.8"/>
      </g>
     </g>
     <g id="text_11">
      <!-- 0.6 -->
      <g transform="translate(30.278125 77.594233)scale(0.1 -0.1)">
       <use xlink:href="#Charter-30"/>
       <use xlink:href="#Charter-2e" x="55.599991"/>
       <use xlink:href="#Charter-36" x="83.399979"/>
      </g>
     </g>
    </g>
    <g id="ytick_5">
     <g id="line2d_21">
      <path d="M 51.176563 44.263636 
L 385.976562 44.263636 
" clip-path="url(#peaecde2337)" style="fill: none; stroke: #b0b0b0; stroke-opacity: 0.3; stroke-width: 0.8; stroke-linecap: square"/>
     </g>
     <g id="line2d_22">
      <g>
       <use xlink:href="#m4b3a53d485" x="51.176563" y="44.263636" style="stroke: #000000; stroke-width: 0.8"/>
      </g>
     </g>
     <g id="text_12">
      <!-- 0.8 -->
      <g transform="translate(30.278125 47.943324)scale(0.1 -0.1)">
       <use xlink:href="#Charter-30"/>
       <use xlink:href="#Charter-2e" x="55.599991"/>
       <use xlink:href="#Charter-38" x="83.399979"/>
      </g>
     </g>
    </g>
    <g id="ytick_6">
     <g id="line2d_23">
      <path d="M 51.176563 14.612727 
L 385.976562 14.612727 
" clip-path="url(#peaecde2337)" style="fill: none; stroke: #b0b0b0; stroke-opacity: 0.3; stroke-width: 0.8; stroke-linecap: square"/>
     </g>
     <g id="line2d_24">
      <g>
       <use xlink:href="#m4b3a53d485" x="51.176563" y="14.612727" style="stroke: #000000; stroke-width: 0.8"/>
      </g>
     </g>
     <g id="text_13">
      <!-- 1.0 -->
      <g transform="translate(30.278125 18.292415)scale(0.1 -0.1)">
       <use xlink:href="#Charter-31"/>
       <use xlink:href="#Charter-2e" x="55.599991"/>
       <use xlink:href="#Charter-30" x="83.399979"/>
      </g>
     </g>
    </g>
    <g id="text_14">
     <!-- $X_i$ [-] -->
     <g transform="translate(21.91875 111.14)rotate(-90)scale(0.2 -0.2)">
      <defs>
       <path id="Charter-Italic-58" d="M 346 4294 
L 346 4051 
L 755 4019 
L 819 3923 
L 1587 2176 
L -6 371 
L -115 282 
L -531 243 
L -531 0 
L 922 0 
L 922 243 
L 506 282 
L 442 371 
L 1760 1843 
L 2387 371 
L 2285 282 
L 1869 243 
L 1869 0 
L 3418 0 
L 3418 243 
L 3008 282 
L 2944 371 
L 2099 2304 
L 3597 4019 
L 4045 4051 
L 4045 4294 
L 2714 4294 
L 2714 4051 
L 3078 4019 
L 3117 3923 
L 1952 2598 
L 1382 3923 
L 1478 4019 
L 1901 4051 
L 1901 4294 
L 346 4294 
z
" transform="scale(0.015625)"/>
       <path id="Charter-Italic-69" d="M 1286 4506 
C 1094 4506 941 4352 941 4160 
C 941 3962 1094 3814 1286 3814 
C 1472 3814 1632 3968 1632 4160 
C 1632 4346 1472 4506 1286 4506 
z
M 1158 3085 
L 211 2880 
L 211 2714 
L 730 2618 
L 352 710 
C 326 570 314 454 314 378 
C 314 96 448 -45 723 -45 
C 966 -45 1274 32 1626 179 
L 1626 378 
C 1427 314 1274 282 1152 282 
C 954 282 845 365 845 531 
C 845 570 851 621 864 691 
L 1325 3085 
L 1158 3085 
z
" transform="scale(0.015625)"/>
      </defs>
      <use xlink:href="#Charter-Italic-58" transform="translate(0 0.203125)"/>
      <use xlink:href="#Charter-Italic-69" transform="translate(56.899994 -14.375)scale(0.7)"/>
      <use xlink:href="#Charter-20" transform="translate(79.419679 0.203125)"/>
      <use xlink:href="#Charter-5b" transform="translate(107.219667 0.203125)"/>
      <use xlink:href="#Charter-2d" transform="translate(149.319658 0.203125)"/>
      <use xlink:href="#Charter-5d" transform="translate(181.219652 0.203125)"/>
     </g>
    </g>
   </g>
   <g id="line2d_25">
    <path d="M 66.394744 115.574073 
L 93.510223 116.828225 
L 118.188356 118.189348 
L 140.733811 119.652636 
L 161.451255 121.216798 
L 180.645359 122.886208 
L 198.31612 124.640901 
L 215.072877 126.527357 
L 230.610961 128.498313 
L 245.235039 130.575179 
L 258.945113 132.743242 
L 272.04585 135.039845 
L 284.232582 137.397121 
L 295.809978 139.856277 
L 307.082705 142.479048 
L 317.746096 145.189413 
L 327.80015 147.970052 
L 337.549535 150.895663 
L 346.994253 153.965613 
L 355.829634 157.066907 
L 364.360346 160.290376 
L 370.758381 162.867359 
L 370.758381 162.867359 
" clip-path="url(#peaecde2337)" style="fill: none; stroke: #c7254e; stroke-linecap: square"/>
    <defs>
     <path id="m7db8618612" d="M 0 3 
C 0.795609 3 1.55874 2.683901 2.12132 2.12132 
C 2.683901 1.55874 3 0.795609 3 0 
C 3 -0.795609 2.683901 -1.55874 2.12132 -2.12132 
C 1.55874 -2.683901 0.795609 -3 0 -3 
C -0.795609 -3 -1.55874 -2.683901 -2.12132 -2.12132 
C -2.683901 -1.55874 -3 -0.795609 -3 0 
C -3 0.795609 -2.683901 1.55874 -2.12132 2.12132 
C -1.55874 2.683901 -0.795609 3 0 3 
z
" style="stroke: #c7254e"/>
    </defs>
    <g clip-path="url(#peaecde2337)">
     <use xlink:href="#m7db8618612" x="66.394744" y="115.574073" style="fill: #c7254e; stroke: #c7254e"/>
     <use xlink:href="#m7db8618612" x="96.861575" y="116.999861" style="fill: #c7254e; stroke: #c7254e"/>
     <use xlink:href="#m7db8618612" x="127.328405" y="118.755101" style="fill: #c7254e; stroke: #c7254e"/>
     <use xlink:href="#m7db8618612" x="157.795236" y="120.923891" style="fill: #c7254e; stroke: #c7254e"/>
     <use xlink:href="#m7db8618612" x="188.262066" y="123.615091" style="fill: #c7254e; stroke: #c7254e"/>
     <use xlink:href="#m7db8618612" x="218.728897" y="126.970834" style="fill: #c7254e; stroke: #c7254e"/>
     <use xlink:href="#m7db8618612" x="249.195727" y="131.178372" style="fill: #c7254e; stroke: #c7254e"/>
     <use xlink:href="#m7db8618612" x="279.662558" y="136.486654" style="fill: #c7254e; stroke: #c7254e"/>
     <use xlink:href="#m7db8618612" x="310.129388" y="143.229688" style="fill: #c7254e; stroke: #c7254e"/>
     <use xlink:href="#m7db8618612" x="340.596219" y="151.859595" style="fill: #c7254e; stroke: #c7254e"/>
    </g>
   </g>
   <g id="line2d_26">
    <path d="M 66.394744 84.588873 
L 85.588848 86.576032 
L 103.868946 88.689677 
L 121.235039 90.918829 
L 137.991796 93.294608 
L 153.834548 95.762985 
L 169.067963 98.35805 
L 183.692042 101.070588 
L 198.011452 103.953 
L 211.721526 106.93803 
L 225.126931 110.084535 
L 238.227668 113.391282 
L 250.719069 116.770525 
L 262.905801 120.292241 
L 275.092533 124.047727 
L 286.974597 127.945392 
L 298.551992 131.977397 
L 309.82472 136.134495 
L 321.097447 140.527981 
L 332.065506 145.036795 
L 343.033565 149.782681 
L 354.001624 154.770757 
L 364.969683 160.004812 
L 370.758381 162.867201 
L 370.758381 162.867201 
" clip-path="url(#peaecde2337)" style="fill: none; stroke: #bbbbbb; stroke-linecap: square"/>
    <defs>
     <path id="m98b17aef04" d="M 0 3 
C 0.795609 3 1.55874 2.683901 2.12132 2.12132 
C 2.683901 1.55874 3 0.795609 3 0 
C 3 -0.795609 2.683901 -1.55874 2.12132 -2.12132 
C 1.55874 -2.683901 0.795609 -3 0 -3 
C -0.795609 -3 -1.55874 -2.683901 -2.12132 -2.12132 
C -2.683901 -1.55874 -3 -0.795609 -3 0 
C -3 0.795609 -2.683901 1.55874 -2.12132 2.12132 
C -1.55874 2.683901 -0.795609 3 0 3 
z
" style="stroke: #bbbbbb"/>
    </defs>
    <g clip-path="url(#peaecde2337)">
     <use xlink:href="#m98b17aef04" x="66.394744" y="84.588873" style="fill: #bbbbbb; stroke: #bbbbbb"/>
     <use xlink:href="#m98b17aef04" x="96.861575" y="87.852479" style="fill: #bbbbbb; stroke: #bbbbbb"/>
     <use xlink:href="#m98b17aef04" x="127.328405" y="91.756103" style="fill: #bbbbbb; stroke: #bbbbbb"/>
     <use xlink:href="#m98b17aef04" x="157.795236" y="96.416071" style="fill: #bbbbbb; stroke: #bbbbbb"/>
     <use xlink:href="#m98b17aef04" x="188.262066" y="101.965383" style="fill: #bbbbbb; stroke: #bbbbbb"/>
     <use xlink:href="#m98b17aef04" x="218.728897" y="108.553767" style="fill: #bbbbbb; stroke: #bbbbbb"/>
     <use xlink:href="#m98b17aef04" x="249.195727" y="116.346171" style="fill: #bbbbbb; stroke: #bbbbbb"/>
     <use xlink:href="#m98b17aef04" x="279.662558" y="125.518657" style="fill: #bbbbbb; stroke: #bbbbbb"/>
     <use xlink:href="#m98b17aef04" x="310.129388" y="136.250094" style="fill: #bbbbbb; stroke: #bbbbbb"/>
     <use xlink:href="#m98b17aef04" x="340.596219" y="148.707272" style="fill: #bbbbbb; stroke: #bbbbbb"/>
    </g>
   </g>
   <g id="line2d_27">
    <path d="M 66.394744 140.184327 
L 82.237496 137.855877 
L 97.470911 135.391863 
L 111.790322 132.854782 
L 125.805064 130.144976 
L 139.210469 127.324338 
L 152.006538 124.405391 
L 164.19327 121.402862 
L 176.075334 118.249862 
L 187.65273 114.94724 
L 198.925457 111.496781 
L 209.588848 108.004458 
L 219.94757 104.384719 
L 230.001624 100.643198 
L 240.055678 96.662307 
L 249.805064 92.55898 
L 259.249781 88.341512 
L 268.38983 84.019368 
L 277.529879 79.446559 
L 286.36526 74.774249 
L 294.895973 70.0149 
L 303.426685 64.998419 
L 311.65273 59.904586 
L 319.878774 54.545631 
L 327.80015 49.121706 
L 335.721526 43.426193 
L 343.338233 37.680963 
L 350.954941 31.659382 
L 358.571648 25.348157 
L 365.883688 19.003957 
L 370.758381 14.612713 
L 370.758381 14.612713 
" clip-path="url(#peaecde2337)" style="fill: none; stroke: #008cba; stroke-linecap: square"/>
    <defs>
     <path id="mf75c240653" d="M 0 3 
C 0.795609 3 1.55874 2.683901 2.12132 2.12132 
C 2.683901 1.55874 3 0.795609 3 0 
C 3 -0.795609 2.683901 -1.55874 2.12132 -2.12132 
C 1.55874 -2.683901 0.795609 -3 0 -3 
C -0.795609 -3 -1.55874 -2.683901 -2.12132 -2.12132 
C -2.683901 -1.55874 -3 -0.795609 -3 0 
C -3 0.795609 -2.683901 1.55874 -2.12132 2.12132 
C -1.55874 2.683901 -0.795609 3 0 3 
z
" style="stroke: #008cba"/>
    </defs>
    <g clip-path="url(#peaecde2337)">
     <use xlink:href="#mf75c240653" x="66.394744" y="140.184327" style="fill: #008cba; stroke: #008cba"/>
     <use xlink:href="#mf75c240653" x="96.861575" y="135.494933" style="fill: #008cba; stroke: #008cba"/>
     <use xlink:href="#mf75c240653" x="127.328405" y="129.836069" style="fill: #008cba; stroke: #008cba"/>
     <use xlink:href="#mf75c240653" x="157.795236" y="123.00731" style="fill: #008cba; stroke: #008cba"/>
     <use xlink:href="#mf75c240653" x="188.262066" y="114.766799" style="fill: #008cba; stroke: #008cba"/>
     <use xlink:href="#mf75c240653" x="218.728897" y="104.822672" style="fill: #008cba; stroke: #008cba"/>
     <use xlink:href="#mf75c240653" x="249.195727" y="92.82273" style="fill: #008cba; stroke: #008cba"/>
     <use xlink:href="#mf75c240653" x="279.662558" y="78.341963" style="fill: #008cba; stroke: #008cba"/>
     <use xlink:href="#mf75c240653" x="310.129388" y="60.867491" style="fill: #008cba; stroke: #008cba"/>
     <use xlink:href="#mf75c240653" x="340.596219" y="39.780406" style="fill: #008cba; stroke: #008cba"/>
    </g>
   </g>
   <g id="patch_3">
    <path d="M 51.176563 170.28 
L 51.176563 7.2 
" style="fill: none; stroke: #000000; stroke-width: 0.8; stroke-linejoin: miter; stroke-linecap: square"/>
   </g>
   <g id="patch_4">
    <path d="M 385.976562 170.28 
L 385.976562 7.2 
" style="fill: none; stroke: #000000; stroke-width: 0.8; stroke-linejoin: miter; stroke-linecap: square"/>
   </g>
   <g id="patch_5">
    <path d="M 51.176563 170.28 
L 385.976563 170.28 
" style="fill: none; stroke: #000000; stroke-width: 0.8; stroke-linejoin: miter; stroke-linecap: square"/>
   </g>
   <g id="patch_6">
    <path d="M 51.176563 7.2 
L 385.976563 7.2 
" style="fill: none; stroke: #000000; stroke-width: 0.8; stroke-linejoin: miter; stroke-linecap: square"/>
   </g>
   <g id="legend_1">
    <g id="patch_7">
     <path d="M 58.176563 58.817188 
L 131.6875 58.817188 
Q 133.6875 58.817188 133.6875 56.817188 
L 133.6875 14.2 
Q 133.6875 12.2 131.6875 12.2 
L 58.176563 12.2 
Q 56.176563 12.2 56.176563 14.2 
L 56.176563 56.817188 
Q 56.176563 58.817188 58.176563 58.817188 
z
" style="fill: #ffffff; opacity: 0.8; stroke: #cccccc; stroke-linejoin: miter"/>
    </g>
    <g id="line2d_28">
     <path d="M 60.176563 20.059375 
L 70.176563 20.059375 
L 80.176563 20.059375 
" style="fill: none; stroke: #c7254e; stroke-linecap: square"/>
     <g>
      <use xlink:href="#m7db8618612" x="70.176563" y="20.059375" style="fill: #c7254e; stroke: #c7254e"/>
     </g>
    </g>
    <g id="text_15">
     <!-- Acetone -->
     <g transform="translate(88.176563 23.559375)scale(0.1 -0.1)">
      <defs>
       <path id="Charter-41" d="M 2240 4346 
L 3776 339 
L 4160 262 
L 4160 0 
L 2707 0 
L 2707 262 
L 3104 294 
L 3149 384 
L 2688 1606 
L 1178 1606 
L 723 384 
L 787 294 
L 1203 262 
L 1203 0 
L -51 0 
L -51 262 
L 320 339 
L 1818 4346 
L 2240 4346 
z
M 1286 1901 
L 2579 1901 
L 1920 3674 
L 1286 1901 
z
" transform="scale(0.015625)"/>
       <path id="Charter-63" d="M 2720 269 
Q 2182 -45 1677 -45 
Q 1350 -45 1084 70 
Q 819 186 630 394 
Q 442 602 339 893 
Q 237 1184 237 1542 
Q 237 1901 349 2195 
Q 461 2490 659 2701 
Q 858 2912 1136 3027 
Q 1414 3142 1754 3142 
Q 2214 3142 2464 2969 
Q 2714 2797 2714 2515 
Q 2714 2362 2618 2269 
Q 2522 2176 2355 2176 
Q 2208 2176 2067 2272 
L 2067 2797 
Q 1920 2886 1760 2886 
Q 1344 2886 1081 2540 
Q 819 2195 819 1587 
Q 819 992 1113 662 
Q 1408 333 1907 333 
Q 2317 333 2720 602 
L 2720 269 
L 2720 269 
z
" transform="scale(0.015625)"/>
       <path id="Charter-65" d="M 2867 326 
Q 2579 134 2275 38 
Q 1971 -58 1664 -58 
Q 1344 -58 1081 57 
Q 819 173 633 377 
Q 448 582 342 873 
Q 237 1165 237 1517 
Q 237 1882 345 2179 
Q 454 2477 652 2691 
Q 851 2906 1123 3024 
Q 1395 3142 1715 3142 
Q 2240 3142 2553 2809 
Q 2867 2477 2867 1882 
Q 2867 1830 2867 1782 
Q 2867 1734 2861 1683 
L 787 1683 
L 787 1613 
Q 787 992 1081 649 
Q 1376 307 1862 307 
Q 2106 307 2349 400 
Q 2592 493 2867 678 
L 2867 326 
z
M 2298 2054 
Q 2298 2445 2128 2649 
Q 1958 2854 1632 2854 
Q 1478 2854 1337 2790 
Q 1197 2726 1085 2608 
Q 973 2490 902 2323 
Q 832 2157 819 1952 
L 2298 1952 
L 2298 2054 
z
" transform="scale(0.015625)"/>
       <path id="Charter-74" d="M 160 2694 
L 160 2893 
L 582 3078 
L 858 3674 
L 1094 3674 
L 1094 2995 
L 2067 2995 
L 2067 2694 
L 1094 2694 
L 1094 1005 
Q 1094 819 1113 688 
Q 1133 557 1190 473 
Q 1248 390 1353 348 
Q 1459 307 1626 307 
Q 1830 307 2067 358 
L 2067 122 
Q 1843 51 1628 16 
Q 1414 -19 1229 -19 
Q 832 -19 697 134 
Q 563 288 563 627 
L 563 2694 
L 160 2694 
z
" transform="scale(0.015625)"/>
       <path id="Charter-6f" d="M 1722 3142 
Q 2048 3142 2320 3024 
Q 2592 2906 2790 2694 
Q 2989 2483 3101 2188 
Q 3213 1894 3213 1542 
Q 3213 1184 3101 889 
Q 2989 595 2790 384 
Q 2592 173 2317 57 
Q 2042 -58 1722 -58 
Q 1402 -58 1130 57 
Q 858 173 659 384 
Q 461 595 349 889 
Q 237 1184 237 1542 
Q 237 1901 349 2195 
Q 461 2490 656 2701 
Q 851 2912 1123 3027 
Q 1395 3142 1722 3142 
z
M 1722 2867 
Q 1331 2867 1084 2518 
Q 838 2170 838 1542 
Q 838 1235 905 988 
Q 973 742 1088 569 
Q 1203 397 1366 307 
Q 1530 218 1722 218 
Q 2112 218 2361 566 
Q 2611 915 2611 1542 
Q 2611 2163 2361 2515 
Q 2112 2867 1722 2867 
z
" transform="scale(0.015625)"/>
       <path id="Charter-6e" d="M 192 230 
L 538 262 
L 646 365 
L 646 2682 
L 192 2682 
L 192 2880 
L 934 3110 
L 1178 3110 
L 1178 2758 
Q 1504 2938 1753 3040 
Q 2003 3142 2208 3142 
Q 2630 3142 2851 2896 
Q 3072 2650 3072 2170 
L 3072 365 
L 3181 262 
L 3526 230 
L 3526 0 
L 2125 0 
L 2125 230 
L 2432 262 
L 2541 365 
L 2541 2061 
Q 2541 2413 2397 2566 
Q 2253 2720 1894 2720 
Q 1587 2720 1178 2509 
L 1178 365 
L 1286 262 
L 1594 230 
L 1594 0 
L 192 0 
L 192 230 
z
" transform="scale(0.015625)"/>
      </defs>
      <use xlink:href="#Charter-41"/>
      <use xlink:href="#Charter-63" x="63.899994"/>
      <use xlink:href="#Charter-65" x="108.499985"/>
      <use xlink:href="#Charter-74" x="157.599976"/>
      <use xlink:href="#Charter-6f" x="190.999969"/>
      <use xlink:href="#Charter-6e" x="244.899963"/>
      <use xlink:href="#Charter-65" x="301.699951"/>
     </g>
    </g>
    <g id="line2d_29">
     <path d="M 60.176563 34.598438 
L 70.176563 34.598438 
L 80.176563 34.598438 
" style="fill: none; stroke: #bbbbbb; stroke-linecap: square"/>
     <g>
      <use xlink:href="#m98b17aef04" x="70.176563" y="34.598438" style="fill: #bbbbbb; stroke: #bbbbbb"/>
     </g>
    </g>
    <g id="text_16">
     <!-- Methanol -->
     <g transform="translate(88.176563 38.098438)scale(0.1 -0.1)">
      <defs>
       <path id="Charter-4d" d="M 198 262 
L 582 314 
L 698 435 
L 698 3910 
L 614 4000 
L 192 4038 
L 192 4294 
L 1549 4294 
L 1549 4122 
L 2752 909 
L 3968 4096 
L 3968 4294 
L 5338 4294 
L 5338 4038 
L 4934 4000 
L 4858 3910 
L 4858 384 
L 4934 294 
L 5338 262 
L 5338 0 
L 3808 0 
L 3808 262 
L 4230 294 
L 4294 384 
L 4294 3994 
L 2778 0 
L 2502 0 
L 1043 3930 
L 1043 435 
L 1158 314 
L 1549 262 
L 1549 0 
L 198 0 
L 198 262 
z
" transform="scale(0.015625)"/>
       <path id="Charter-68" d="M 1146 4710 
L 1146 2758 
Q 1472 2938 1725 3040 
Q 1978 3142 2182 3142 
Q 2605 3142 2822 2896 
Q 3040 2650 3040 2170 
L 3040 365 
L 3155 262 
L 3494 230 
L 3494 0 
L 2099 0 
L 2099 230 
L 2400 262 
L 2509 365 
L 2509 2061 
Q 2509 2413 2365 2566 
Q 2221 2720 1862 2720 
Q 1555 2720 1146 2509 
L 1146 365 
L 1261 262 
L 1562 230 
L 1562 0 
L 160 0 
L 160 230 
L 506 262 
L 614 365 
L 614 4282 
L 122 4282 
L 122 4480 
L 902 4710 
L 1146 4710 
z
" transform="scale(0.015625)"/>
       <path id="Charter-61" d="M 2138 371 
Q 1830 166 1574 60 
Q 1318 -45 1088 -45 
Q 704 -45 486 182 
Q 269 410 269 774 
Q 269 1024 381 1193 
Q 493 1363 723 1491 
Q 954 1619 1306 1721 
Q 1658 1824 2138 1939 
L 2138 2144 
Q 2138 2528 2016 2694 
Q 1894 2861 1549 2861 
Q 1312 2861 1062 2758 
L 1062 2221 
L 621 2221 
Q 512 2221 467 2262 
Q 422 2304 422 2419 
Q 422 2566 512 2697 
Q 602 2829 768 2928 
Q 934 3027 1174 3084 
Q 1414 3142 1715 3142 
Q 2221 3142 2445 2924 
Q 2669 2707 2669 2221 
L 2669 365 
L 2784 262 
L 3123 230 
L 3123 0 
L 2221 0 
L 2138 371 
z
M 2138 1715 
Q 1798 1619 1552 1536 
Q 1306 1453 1146 1353 
Q 986 1254 909 1126 
Q 832 998 832 826 
Q 832 589 966 445 
Q 1101 301 1344 301 
Q 1504 301 1699 374 
Q 1894 448 2138 589 
L 2138 1715 
z
" transform="scale(0.015625)"/>
       <path id="Charter-6c" d="M 179 230 
L 557 262 
L 666 365 
L 666 4282 
L 173 4282 
L 173 4480 
L 954 4710 
L 1197 4710 
L 1197 365 
L 1312 262 
L 1677 230 
L 1677 0 
L 179 0 
L 179 230 
z
" transform="scale(0.015625)"/>
      </defs>
      <use xlink:href="#Charter-4d"/>
      <use xlink:href="#Charter-65" x="86.599991"/>
      <use xlink:href="#Charter-74" x="135.699982"/>
      <use xlink:href="#Charter-68" x="169.099976"/>
      <use xlink:href="#Charter-61" x="225.499969"/>
      <use xlink:href="#Charter-6e" x="276.199966"/>
      <use xlink:href="#Charter-6f" x="332.999954"/>
      <use xlink:href="#Charter-6c" x="386.899948"/>
     </g>
    </g>
    <g id="line2d_30">
     <path d="M 60.176563 49.1375 
L 70.176563 49.1375 
L 80.176563 49.1375 
" style="fill: none; stroke: #008cba; stroke-linecap: square"/>
     <g>
      <use xlink:href="#mf75c240653" x="70.176563" y="49.1375" style="fill: #008cba; stroke: #008cba"/>
     </g>
    </g>
    <g id="text_17">
     <!-- Air -->
     <g transform="translate(88.176563 52.6375)scale(0.1 -0.1)">
      <defs>
       <path id="Charter-69" d="M 986 4531 
Q 1139 4531 1248 4422 
Q 1357 4314 1357 4160 
Q 1357 4006 1248 3900 
Q 1139 3795 986 3795 
Q 832 3795 723 3900 
Q 614 4006 614 4160 
Q 614 4320 723 4425 
Q 832 4531 986 4531 
z
M 1203 3110 
L 1203 365 
L 1318 262 
L 1664 230 
L 1664 0 
L 224 0 
L 224 230 
L 563 262 
L 672 365 
L 672 2682 
L 224 2682 
L 224 2880 
L 960 3110 
L 1203 3110 
z
" transform="scale(0.015625)"/>
       <path id="Charter-72" d="M 192 230 
L 531 262 
L 646 365 
L 646 2682 
L 192 2682 
L 192 2880 
L 934 3110 
L 1178 3110 
L 1178 2509 
Q 1344 2682 1517 2835 
Q 1690 2989 1862 3130 
Q 1901 3142 1942 3142 
Q 1984 3142 2022 3142 
Q 2214 3142 2406 3059 
L 2406 2509 
L 2202 2509 
Q 2074 2662 1875 2662 
Q 1574 2662 1178 2195 
L 1178 365 
L 1286 262 
L 1734 230 
L 1734 0 
L 192 0 
L 192 230 
z
" transform="scale(0.015625)"/>
      </defs>
      <use xlink:href="#Charter-41"/>
      <use xlink:href="#Charter-69" x="63.899994"/>
      <use xlink:href="#Charter-72" x="91.899979"/>
     </g>
    </g>
   </g>
  </g>
 </g>
 <defs>
  <clipPath id="peaecde2337">
   <rect x="51.176563" y="7.2" width="334.8" height="163.08"/>
  </clipPath>
 </defs>
</svg>
