<?xml version="1.0" encoding="utf-8" standalone="no"?>
<!DOCTYPE svg PUBLIC "-//W3C//DTD SVG 1.1//EN"
  "http://www.w3.org/Graphics/SVG/1.1/DTD/svg11.dtd">
<!-- Created with matplotlib (https://matplotlib.org/) -->
<svg height="219.005pt" version="1.1" viewBox="0 0 395.95625 219.005" width="395.95625pt" xmlns="http://www.w3.org/2000/svg" xmlns:xlink="http://www.w3.org/1999/xlink">
 <defs>
  <style type="text/css">
*{stroke-linecap:butt;stroke-linejoin:round;}
  </style>
 </defs>
 <g id="figure_1">
  <g id="patch_1">
   <path d="M 0 219.005 
L 395.95625 219.005 
L 395.95625 0 
L 0 0 
z
" style="fill:#ffffff;"/>
  </g>
  <g id="axes_1">
   <g id="patch_2">
    <path d="M 53.95625 170.28 
L 388.75625 170.28 
L 388.75625 7.2 
L 53.95625 7.2 
z
" style="fill:#ffffff;"/>
   </g>
   <g id="matplotlib.axis_1">
    <g id="xtick_1">
     <g id="line2d_1">
      <path clip-path="url(#p835bd09640)" d="M 69.174432 170.28 
L 69.174432 7.2 
" style="fill:none;stroke:#b0b0b0;stroke-linecap:square;stroke-opacity:0.3;stroke-width:0.8;"/>
     </g>
     <g id="line2d_2">
      <defs>
       <path d="M 0 0 
L 0 3.5 
" id="mea2a948891" style="stroke:#000000;stroke-width:0.8;"/>
      </defs>
      <g>
       <use style="stroke:#000000;stroke-width:0.8;" x="69.174432" xlink:href="#mea2a948891" y="170.28"/>
      </g>
     </g>
     <g id="text_1">
      <!-- 0 -->
      <defs>
       <path d="M 27.796875 68.296875 
Q 33.203125 68.296875 37.546875 66 
Q 41.90625 63.703125 45 59.25 
Q 48.09375 54.796875 49.796875 48.34375 
Q 51.5 41.90625 51.5 33.59375 
Q 51.5 25.296875 49.796875 18.84375 
Q 48.09375 12.40625 45 7.953125 
Q 41.90625 3.5 37.546875 1.140625 
Q 33.203125 -1.203125 27.796875 -1.203125 
Q 22.40625 -1.203125 18.046875 1.140625 
Q 13.703125 3.5 10.59375 7.953125 
Q 7.5 12.40625 5.796875 18.84375 
Q 4.09375 25.296875 4.09375 33.59375 
Q 4.09375 41.90625 5.796875 48.34375 
Q 7.5 54.796875 10.59375 59.25 
Q 13.703125 63.703125 18.046875 66 
Q 22.40625 68.296875 27.796875 68.296875 
z
M 27.796875 63.59375 
Q 20.90625 63.59375 17.203125 56.046875 
Q 13.5 48.5 13.5 33.5 
Q 13.5 18.59375 17.203125 11.09375 
Q 20.90625 3.59375 27.796875 3.59375 
Q 34.703125 3.59375 38.34375 11.140625 
Q 42 18.703125 42 33.59375 
Q 42 48.5 38.34375 56.046875 
Q 34.703125 63.59375 27.796875 63.59375 
z
" id="Charter-48"/>
      </defs>
      <g transform="translate(65.838807 186.11125)scale(0.12 -0.12)">
       <use xlink:href="#Charter-48"/>
      </g>
     </g>
    </g>
    <g id="xtick_2">
     <g id="line2d_3">
      <path clip-path="url(#p835bd09640)" d="M 107.219886 170.28 
L 107.219886 7.2 
" style="fill:none;stroke:#b0b0b0;stroke-linecap:square;stroke-opacity:0.3;stroke-width:0.8;"/>
     </g>
     <g id="line2d_4">
      <g>
       <use style="stroke:#000000;stroke-width:0.8;" x="107.219886" xlink:href="#mea2a948891" y="170.28"/>
      </g>
     </g>
     <g id="text_2">
      <!-- 10 -->
      <defs>
       <path d="M 33.90625 68.296875 
L 33.90625 6.203125 
L 35.09375 4.703125 
L 45.90625 4.203125 
L 45.90625 0 
L 12.40625 0 
L 12.40625 4.296875 
L 23.90625 4.90625 
L 25.09375 6.59375 
L 25.09375 60.40625 
L 9.40625 57.59375 
L 9.40625 61.796875 
L 31.09375 68.296875 
z
" id="Charter-49"/>
      </defs>
      <g transform="translate(100.548636 186.11125)scale(0.12 -0.12)">
       <use xlink:href="#Charter-49"/>
       <use x="55.599991" xlink:href="#Charter-48"/>
      </g>
     </g>
    </g>
    <g id="xtick_3">
     <g id="line2d_5">
      <path clip-path="url(#p835bd09640)" d="M 145.265341 170.28 
L 145.265341 7.2 
" style="fill:none;stroke:#b0b0b0;stroke-linecap:square;stroke-opacity:0.3;stroke-width:0.8;"/>
     </g>
     <g id="line2d_6">
      <g>
       <use style="stroke:#000000;stroke-width:0.8;" x="145.265341" xlink:href="#mea2a948891" y="170.28"/>
      </g>
     </g>
     <g id="text_3">
      <!-- 20 -->
      <defs>
       <path d="M 44.203125 7.90625 
L 46 16.40625 
L 50.5 16.40625 
L 50.5 0 
L 4.203125 0 
L 4.203125 6.296875 
Q 12.40625 13 18.796875 18.5 
Q 25.203125 24 29.59375 28.953125 
Q 34 33.90625 36.296875 38.546875 
Q 38.59375 43.203125 38.59375 48.09375 
Q 38.59375 55.296875 35.09375 59.25 
Q 31.59375 63.203125 25.296875 63.203125 
Q 23 63.203125 20.84375 62.640625 
Q 18.703125 62.09375 16.40625 60.796875 
L 16.40625 50.09375 
Q 14.296875 48.59375 11.90625 48.59375 
Q 9.296875 48.59375 7.796875 50.09375 
Q 6.296875 51.59375 6.296875 54.203125 
Q 6.296875 56.796875 7.84375 59.34375 
Q 9.40625 61.90625 12.25 63.90625 
Q 15.09375 65.90625 18.9375 67.09375 
Q 22.796875 68.296875 27.5 68.296875 
Q 32.296875 68.296875 36.140625 66.9375 
Q 40 65.59375 42.703125 63.09375 
Q 45.40625 60.59375 46.84375 57.09375 
Q 48.296875 53.59375 48.296875 49.40625 
Q 48.296875 44.703125 46.046875 40.09375 
Q 43.796875 35.5 39.4375 30.546875 
Q 35.09375 25.59375 28.75 20.046875 
Q 22.40625 14.5 14.09375 7.90625 
z
" id="Charter-50"/>
      </defs>
      <g transform="translate(138.594091 186.11125)scale(0.12 -0.12)">
       <use xlink:href="#Charter-50"/>
       <use x="55.599991" xlink:href="#Charter-48"/>
      </g>
     </g>
    </g>
    <g id="xtick_4">
     <g id="line2d_7">
      <path clip-path="url(#p835bd09640)" d="M 183.310795 170.28 
L 183.310795 7.2 
" style="fill:none;stroke:#b0b0b0;stroke-linecap:square;stroke-opacity:0.3;stroke-width:0.8;"/>
     </g>
     <g id="line2d_8">
      <g>
       <use style="stroke:#000000;stroke-width:0.8;" x="183.310795" xlink:href="#mea2a948891" y="170.28"/>
      </g>
     </g>
     <g id="text_4">
      <!-- 30 -->
      <defs>
       <path d="M 31.703125 35.296875 
Q 40.09375 34.703125 44.640625 30.390625 
Q 49.203125 26.09375 49.203125 19.203125 
Q 49.203125 15 47.390625 11.296875 
Q 45.59375 7.59375 42.296875 4.84375 
Q 39 2.09375 34.34375 0.5 
Q 29.703125 -1.09375 23.90625 -1.09375 
Q 19.40625 -1.09375 15.75 -0.09375 
Q 12.09375 0.90625 9.5 2.5 
Q 6.90625 4.09375 5.5 6.046875 
Q 4.09375 8 4.09375 9.90625 
Q 4.09375 12.09375 5.6875 13.546875 
Q 7.296875 15 9.703125 15 
Q 11.296875 15 12.703125 14.5 
L 15.796875 6 
Q 19.796875 3.59375 24.296875 3.59375 
Q 27.703125 3.59375 30.59375 4.796875 
Q 33.5 6 35.59375 8.140625 
Q 37.703125 10.296875 38.84375 13.1875 
Q 40 16.09375 40 19.40625 
Q 40 25.40625 36.203125 28.65625 
Q 32.40625 31.90625 25.203125 31.90625 
Q 24 31.90625 22.640625 31.796875 
Q 21.296875 31.703125 19.90625 31.5 
L 19.90625 37.40625 
Q 20.40625 37.40625 20.953125 37.34375 
Q 21.5 37.296875 22 37.296875 
Q 29.59375 37.296875 33.546875 40.6875 
Q 37.5 44.09375 37.5 50.203125 
Q 37.5 56.203125 34.046875 59.703125 
Q 30.59375 63.203125 24.796875 63.203125 
Q 19.5 63.203125 15.296875 60.296875 
L 15.296875 50.90625 
Q 13.59375 49.59375 11.203125 49.59375 
Q 8.796875 49.59375 7.296875 51.09375 
Q 5.796875 52.59375 5.796875 55 
Q 5.796875 57.5 7.34375 59.84375 
Q 8.90625 62.203125 11.65625 64.09375 
Q 14.40625 66 18.296875 67.140625 
Q 22.203125 68.296875 26.90625 68.296875 
Q 31.40625 68.296875 35.046875 67.09375 
Q 38.703125 65.90625 41.25 63.703125 
Q 43.796875 61.5 45.1875 58.390625 
Q 46.59375 55.296875 46.59375 51.5 
Q 46.59375 45.703125 42.84375 41.546875 
Q 39.09375 37.40625 31.703125 35.296875 
z
" id="Charter-51"/>
      </defs>
      <g transform="translate(176.639545 186.11125)scale(0.12 -0.12)">
       <use xlink:href="#Charter-51"/>
       <use x="55.599991" xlink:href="#Charter-48"/>
      </g>
     </g>
    </g>
    <g id="xtick_5">
     <g id="line2d_9">
      <path clip-path="url(#p835bd09640)" d="M 221.35625 170.28 
L 221.35625 7.2 
" style="fill:none;stroke:#b0b0b0;stroke-linecap:square;stroke-opacity:0.3;stroke-width:0.8;"/>
     </g>
     <g id="line2d_10">
      <g>
       <use style="stroke:#000000;stroke-width:0.8;" x="221.35625" xlink:href="#mea2a948891" y="170.28"/>
      </g>
     </g>
     <g id="text_5">
      <!-- 40 -->
      <defs>
       <path d="M 42.59375 67.703125 
L 42.59375 25.90625 
L 53.90625 25.90625 
L 53.90625 19.40625 
L 42.59375 19.40625 
L 42.59375 -3.703125 
L 34.90625 -3.703125 
L 34.90625 19.40625 
L 2.703125 19.40625 
L 2.703125 25.90625 
L 36.796875 67.703125 
z
M 10.203125 25.90625 
L 34.90625 25.90625 
L 34.90625 56.796875 
z
" id="Charter-52"/>
      </defs>
      <g transform="translate(214.685 186.11125)scale(0.12 -0.12)">
       <use xlink:href="#Charter-52"/>
       <use x="55.599991" xlink:href="#Charter-48"/>
      </g>
     </g>
    </g>
    <g id="xtick_6">
     <g id="line2d_11">
      <path clip-path="url(#p835bd09640)" d="M 259.401705 170.28 
L 259.401705 7.2 
" style="fill:none;stroke:#b0b0b0;stroke-linecap:square;stroke-opacity:0.3;stroke-width:0.8;"/>
     </g>
     <g id="line2d_12">
      <g>
       <use style="stroke:#000000;stroke-width:0.8;" x="259.401705" xlink:href="#mea2a948891" y="170.28"/>
      </g>
     </g>
     <g id="text_6">
      <!-- 50 -->
      <defs>
       <path d="M 45.90625 67.09375 
L 45.90625 59.296875 
L 16.296875 59.296875 
L 16.296875 39.296875 
Q 22 40.90625 27 40.90625 
Q 32 40.90625 36.046875 39.5 
Q 40.09375 38.09375 42.9375 35.546875 
Q 45.796875 33 47.34375 29.5 
Q 48.90625 26 48.90625 21.703125 
Q 48.90625 16.90625 47.046875 12.75 
Q 45.203125 8.59375 41.703125 5.546875 
Q 38.203125 2.5 33.25 0.796875 
Q 28.296875 -0.90625 22.203125 -0.90625 
Q 18.296875 -0.90625 15.140625 -0.09375 
Q 12 0.703125 9.75 2 
Q 7.5 3.296875 6.25 5 
Q 5 6.703125 5 8.5 
Q 5 10.796875 6.59375 12.296875 
Q 8.203125 13.796875 10.796875 13.796875 
Q 11.703125 13.796875 13.203125 13.5 
L 17.203125 4.90625 
Q 20.5 3.703125 23.90625 3.703125 
Q 27.40625 3.703125 30.296875 4.890625 
Q 33.203125 6.09375 35.296875 8.1875 
Q 37.40625 10.296875 38.546875 13.25 
Q 39.703125 16.203125 39.703125 19.703125 
Q 39.703125 27.5 34.546875 31.09375 
Q 29.40625 34.703125 18.90625 34.703125 
Q 13.40625 34.703125 10.09375 34.09375 
L 10.09375 67.09375 
z
" id="Charter-53"/>
      </defs>
      <g transform="translate(252.730455 186.11125)scale(0.12 -0.12)">
       <use xlink:href="#Charter-53"/>
       <use x="55.599991" xlink:href="#Charter-48"/>
      </g>
     </g>
    </g>
    <g id="xtick_7">
     <g id="line2d_13">
      <path clip-path="url(#p835bd09640)" d="M 297.447159 170.28 
L 297.447159 7.2 
" style="fill:none;stroke:#b0b0b0;stroke-linecap:square;stroke-opacity:0.3;stroke-width:0.8;"/>
     </g>
     <g id="line2d_14">
      <g>
       <use style="stroke:#000000;stroke-width:0.8;" x="297.447159" xlink:href="#mea2a948891" y="170.28"/>
      </g>
     </g>
     <g id="text_7">
      <!-- 60 -->
      <defs>
       <path d="M 44.296875 65.59375 
L 44 65.59375 
Q 31.90625 65.59375 24.453125 58.6875 
Q 17 51.796875 14.703125 38.40625 
Q 22.59375 44.5 31.703125 44.5 
Q 36.203125 44.5 40 42.890625 
Q 43.796875 41.296875 46.546875 38.390625 
Q 49.296875 35.5 50.890625 31.5 
Q 52.5 27.5 52.5 22.703125 
Q 52.5 17.59375 50.640625 13.25 
Q 48.796875 8.90625 45.546875 5.703125 
Q 42.296875 2.5 37.84375 0.640625 
Q 33.40625 -1.203125 28.296875 -1.203125 
Q 23.203125 -1.203125 18.953125 0.796875 
Q 14.703125 2.796875 11.59375 6.5 
Q 8.5 10.203125 6.75 15.546875 
Q 5 20.90625 5 27.703125 
Q 5 37.296875 7.703125 45.09375 
Q 10.40625 52.90625 15.453125 58.546875 
Q 20.5 64.203125 27.796875 67.5 
Q 35.09375 70.796875 44.296875 71.40625 
z
M 14.5 34 
Q 14.296875 32.40625 14.296875 30.84375 
Q 14.296875 29.296875 14.296875 27.90625 
Q 14.296875 15.90625 18.140625 9.75 
Q 22 3.59375 29.09375 3.59375 
Q 32.203125 3.59375 34.84375 4.9375 
Q 37.5 6.296875 39.390625 8.6875 
Q 41.296875 11.09375 42.34375 14.4375 
Q 43.40625 17.796875 43.40625 21.796875 
Q 43.40625 29.59375 39.40625 34.046875 
Q 35.40625 38.5 29 38.5 
Q 20.59375 38.5 14.5 34 
z
" id="Charter-54"/>
      </defs>
      <g transform="translate(290.775909 186.11125)scale(0.12 -0.12)">
       <use xlink:href="#Charter-54"/>
       <use x="55.599991" xlink:href="#Charter-48"/>
      </g>
     </g>
    </g>
    <g id="xtick_8">
     <g id="line2d_15">
      <path clip-path="url(#p835bd09640)" d="M 335.492614 170.28 
L 335.492614 7.2 
" style="fill:none;stroke:#b0b0b0;stroke-linecap:square;stroke-opacity:0.3;stroke-width:0.8;"/>
     </g>
     <g id="line2d_16">
      <g>
       <use style="stroke:#000000;stroke-width:0.8;" x="335.492614" xlink:href="#mea2a948891" y="170.28"/>
      </g>
     </g>
     <g id="text_8">
      <!-- 70 -->
      <defs>
       <path d="M 53.09375 67.09375 
L 53.09375 63.09375 
L 19.90625 -1.5 
L 19.90625 -3.703125 
L 11.59375 -3.703125 
L 44.203125 59.5 
L 13.40625 59.5 
L 11.796875 50.40625 
L 7.09375 50.40625 
L 7.09375 67.09375 
z
" id="Charter-55"/>
      </defs>
      <g transform="translate(328.821364 186.11125)scale(0.12 -0.12)">
       <use xlink:href="#Charter-55"/>
       <use x="55.599991" xlink:href="#Charter-48"/>
      </g>
     </g>
    </g>
    <g id="xtick_9">
     <g id="line2d_17">
      <path clip-path="url(#p835bd09640)" d="M 373.538068 170.28 
L 373.538068 7.2 
" style="fill:none;stroke:#b0b0b0;stroke-linecap:square;stroke-opacity:0.3;stroke-width:0.8;"/>
     </g>
     <g id="line2d_18">
      <g>
       <use style="stroke:#000000;stroke-width:0.8;" x="373.538068" xlink:href="#mea2a948891" y="170.28"/>
      </g>
     </g>
     <g id="text_9">
      <!-- 80 -->
      <defs>
       <path d="M 32.09375 36.90625 
Q 36 39.5 38.046875 43.09375 
Q 40.09375 46.703125 40.09375 50.703125 
Q 40.09375 56.703125 36.796875 60.203125 
Q 33.5 63.703125 28 63.703125 
Q 25.40625 63.703125 23.203125 62.796875 
Q 21 61.90625 19.34375 60.296875 
Q 17.703125 58.703125 16.796875 56.546875 
Q 15.90625 54.40625 15.90625 51.90625 
Q 15.90625 46.90625 19.90625 43.34375 
Q 23.90625 39.796875 32.09375 36.90625 
z
M 36.296875 35.09375 
Q 43.40625 32.59375 47 28.1875 
Q 50.59375 23.796875 50.59375 17.90625 
Q 50.59375 13.90625 48.9375 10.34375 
Q 47.296875 6.796875 44.25 4.140625 
Q 41.203125 1.5 36.953125 -0.046875 
Q 32.703125 -1.59375 27.5 -1.59375 
Q 22.09375 -1.59375 17.796875 -0.140625 
Q 13.5 1.296875 10.546875 3.84375 
Q 7.59375 6.40625 6 9.953125 
Q 4.40625 13.5 4.40625 17.703125 
Q 4.40625 29.703125 18.09375 35 
Q 7.59375 39.40625 7.59375 50.40625 
Q 7.59375 54.40625 9.09375 57.703125 
Q 10.59375 61 13.296875 63.390625 
Q 16 65.796875 19.796875 67.140625 
Q 23.59375 68.5 28.296875 68.5 
Q 32.796875 68.5 36.390625 67.25 
Q 40 66 42.546875 63.75 
Q 45.09375 61.5 46.4375 58.390625 
Q 47.796875 55.296875 47.796875 51.703125 
Q 47.796875 46.703125 44.84375 42.34375 
Q 41.90625 38 36.296875 35.09375 
z
M 21.90625 32.90625 
Q 16.796875 30.203125 14.4375 26.796875 
Q 12.09375 23.40625 12.09375 18.296875 
Q 12.09375 11.703125 16.34375 7.640625 
Q 20.59375 3.59375 27.796875 3.59375 
Q 34.296875 3.59375 38.140625 7.25 
Q 42 10.90625 42 16.90625 
Q 42 19.90625 40.75 22.046875 
Q 39.5 24.203125 37 26 
Q 34.5 27.796875 30.703125 29.390625 
Q 26.90625 31 21.90625 32.90625 
z
" id="Charter-56"/>
      </defs>
      <g transform="translate(366.866818 186.11125)scale(0.12 -0.12)">
       <use xlink:href="#Charter-56"/>
       <use x="55.599991" xlink:href="#Charter-48"/>
      </g>
     </g>
    </g>
    <g id="text_10">
     <!-- $t$ [h] -->
     <defs>
      <path d="M 16.703125 57.90625 
L 11.703125 47.90625 
L 4.40625 44.703125 
L 4.40625 41.703125 
L 10.59375 42.203125 
L 5.203125 15.09375 
C 4.59375 12.296875 4.40625 10 4.40625 8.40625 
C 4.40625 2.296875 7.09375 -0.703125 12.796875 -0.703125 
C 16.296875 -0.703125 21.5 0.796875 28.203125 3.703125 
L 28.203125 6.90625 
C 24.203125 5.59375 21 4.90625 18.703125 4.90625 
C 14.703125 4.90625 12.59375 7.09375 12.59375 11.09375 
C 12.59375 12.203125 12.90625 13.703125 13.203125 15.5 
L 18.40625 42.203125 
L 33.59375 42.203125 
L 33.59375 46.5 
L 19.203125 46.5 
L 21.296875 57.90625 
z
" id="Charter-Italic-116"/>
      <path id="Charter-32"/>
      <path d="M 37.59375 70.796875 
L 37.59375 66.5 
L 21.796875 66.5 
L 21.796875 -9 
L 37.59375 -9 
L 37.59375 -13.203125 
L 13.90625 -13.203125 
L 13.90625 70.796875 
z
" id="Charter-91"/>
      <path d="M 17.90625 73.59375 
L 17.90625 43.09375 
Q 23 45.90625 26.953125 47.5 
Q 30.90625 49.09375 34.09375 49.09375 
Q 40.703125 49.09375 44.09375 45.25 
Q 47.5 41.40625 47.5 33.90625 
L 47.5 5.703125 
L 49.296875 4.09375 
L 54.59375 3.59375 
L 54.59375 0 
L 32.796875 0 
L 32.796875 3.59375 
L 37.5 4.09375 
L 39.203125 5.703125 
L 39.203125 32.203125 
Q 39.203125 37.703125 36.953125 40.09375 
Q 34.703125 42.5 29.09375 42.5 
Q 24.296875 42.5 17.90625 39.203125 
L 17.90625 5.703125 
L 19.703125 4.09375 
L 24.40625 3.59375 
L 24.40625 0 
L 2.5 0 
L 2.5 3.59375 
L 7.90625 4.09375 
L 9.59375 5.703125 
L 9.59375 66.90625 
L 1.90625 66.90625 
L 1.90625 70 
L 14.09375 73.59375 
z
" id="Charter-104"/>
      <path d="M 28.203125 70.796875 
L 28.203125 -13.296875 
L 4.59375 -13.296875 
L 4.59375 -9 
L 20.40625 -9 
L 20.40625 66.5 
L 4.59375 66.5 
L 4.59375 70.796875 
z
" id="Charter-93"/>
     </defs>
     <g transform="translate(201.15625 207.445625)scale(0.2 -0.2)">
      <use transform="translate(0 0.40625)" xlink:href="#Charter-Italic-116"/>
      <use transform="translate(33.299988 0.40625)" xlink:href="#Charter-32"/>
      <use transform="translate(61.099976 0.40625)" xlink:href="#Charter-91"/>
      <use transform="translate(103.199966 0.40625)" xlink:href="#Charter-104"/>
      <use transform="translate(159.59996 0.40625)" xlink:href="#Charter-93"/>
     </g>
    </g>
   </g>
   <g id="matplotlib.axis_2">
    <g id="ytick_1">
     <g id="line2d_19">
      <path clip-path="url(#p835bd09640)" d="M 53.95625 162.867273 
L 388.75625 162.867273 
" style="fill:none;stroke:#b0b0b0;stroke-linecap:square;stroke-opacity:0.3;stroke-width:0.8;"/>
     </g>
     <g id="line2d_20">
      <defs>
       <path d="M 0 0 
L -3.5 0 
" id="mc3b00c4713" style="stroke:#000000;stroke-width:0.8;"/>
      </defs>
      <g>
       <use style="stroke:#000000;stroke-width:0.8;" x="53.95625" xlink:href="#mc3b00c4713" y="162.867273"/>
      </g>
     </g>
     <g id="text_11">
      <!-- 0.0 -->
      <defs>
       <path d="M 13.90625 11.796875 
Q 16.5 11.796875 18.34375 9.9375 
Q 20.203125 8.09375 20.203125 5.40625 
Q 20.203125 2.796875 18.34375 0.9375 
Q 16.5 -0.90625 13.90625 -0.90625 
Q 11.296875 -0.90625 9.390625 0.890625 
Q 7.5 2.703125 7.5 5.40625 
Q 7.5 8.09375 9.390625 9.9375 
Q 11.296875 11.796875 13.90625 11.796875 
z
" id="Charter-46"/>
      </defs>
      <g transform="translate(30.278125 167.282898)scale(0.12 -0.12)">
       <use xlink:href="#Charter-48"/>
       <use x="55.599991" xlink:href="#Charter-46"/>
       <use x="83.399979" xlink:href="#Charter-48"/>
      </g>
     </g>
    </g>
    <g id="ytick_2">
     <g id="line2d_21">
      <path clip-path="url(#p835bd09640)" d="M 53.95625 133.216364 
L 388.75625 133.216364 
" style="fill:none;stroke:#b0b0b0;stroke-linecap:square;stroke-opacity:0.3;stroke-width:0.8;"/>
     </g>
     <g id="line2d_22">
      <g>
       <use style="stroke:#000000;stroke-width:0.8;" x="53.95625" xlink:href="#mc3b00c4713" y="133.216364"/>
      </g>
     </g>
     <g id="text_12">
      <!-- 0.2 -->
      <g transform="translate(30.278125 137.631989)scale(0.12 -0.12)">
       <use xlink:href="#Charter-48"/>
       <use x="55.599991" xlink:href="#Charter-46"/>
       <use x="83.399979" xlink:href="#Charter-50"/>
      </g>
     </g>
    </g>
    <g id="ytick_3">
     <g id="line2d_23">
      <path clip-path="url(#p835bd09640)" d="M 53.95625 103.565455 
L 388.75625 103.565455 
" style="fill:none;stroke:#b0b0b0;stroke-linecap:square;stroke-opacity:0.3;stroke-width:0.8;"/>
     </g>
     <g id="line2d_24">
      <g>
       <use style="stroke:#000000;stroke-width:0.8;" x="53.95625" xlink:href="#mc3b00c4713" y="103.565455"/>
      </g>
     </g>
     <g id="text_13">
      <!-- 0.4 -->
      <g transform="translate(30.278125 107.98108)scale(0.12 -0.12)">
       <use xlink:href="#Charter-48"/>
       <use x="55.599991" xlink:href="#Charter-46"/>
       <use x="83.399979" xlink:href="#Charter-52"/>
      </g>
     </g>
    </g>
    <g id="ytick_4">
     <g id="line2d_25">
      <path clip-path="url(#p835bd09640)" d="M 53.95625 73.914545 
L 388.75625 73.914545 
" style="fill:none;stroke:#b0b0b0;stroke-linecap:square;stroke-opacity:0.3;stroke-width:0.8;"/>
     </g>
     <g id="line2d_26">
      <g>
       <use style="stroke:#000000;stroke-width:0.8;" x="53.95625" xlink:href="#mc3b00c4713" y="73.914545"/>
      </g>
     </g>
     <g id="text_14">
      <!-- 0.6 -->
      <g transform="translate(30.278125 78.33017)scale(0.12 -0.12)">
       <use xlink:href="#Charter-48"/>
       <use x="55.599991" xlink:href="#Charter-46"/>
       <use x="83.399979" xlink:href="#Charter-54"/>
      </g>
     </g>
    </g>
    <g id="ytick_5">
     <g id="line2d_27">
      <path clip-path="url(#p835bd09640)" d="M 53.95625 44.263636 
L 388.75625 44.263636 
" style="fill:none;stroke:#b0b0b0;stroke-linecap:square;stroke-opacity:0.3;stroke-width:0.8;"/>
     </g>
     <g id="line2d_28">
      <g>
       <use style="stroke:#000000;stroke-width:0.8;" x="53.95625" xlink:href="#mc3b00c4713" y="44.263636"/>
      </g>
     </g>
     <g id="text_15">
      <!-- 0.8 -->
      <g transform="translate(30.278125 48.679261)scale(0.12 -0.12)">
       <use xlink:href="#Charter-48"/>
       <use x="55.599991" xlink:href="#Charter-46"/>
       <use x="83.399979" xlink:href="#Charter-56"/>
      </g>
     </g>
    </g>
    <g id="ytick_6">
     <g id="line2d_29">
      <path clip-path="url(#p835bd09640)" d="M 53.95625 14.612727 
L 388.75625 14.612727 
" style="fill:none;stroke:#b0b0b0;stroke-linecap:square;stroke-opacity:0.3;stroke-width:0.8;"/>
     </g>
     <g id="line2d_30">
      <g>
       <use style="stroke:#000000;stroke-width:0.8;" x="53.95625" xlink:href="#mc3b00c4713" y="14.612727"/>
      </g>
     </g>
     <g id="text_16">
      <!-- 1.0 -->
      <g transform="translate(30.278125 19.028352)scale(0.12 -0.12)">
       <use xlink:href="#Charter-49"/>
       <use x="55.599991" xlink:href="#Charter-46"/>
       <use x="83.399979" xlink:href="#Charter-48"/>
      </g>
     </g>
    </g>
    <g id="text_17">
     <!-- $X_i$ [-] -->
     <defs>
      <path d="M 5.40625 67.09375 
L 5.40625 63.296875 
L 11.796875 62.796875 
L 12.796875 61.296875 
L 24.796875 34 
L -0.09375 5.796875 
L -1.796875 4.40625 
L -8.296875 3.796875 
L -8.296875 0 
L 14.40625 0 
L 14.40625 3.796875 
L 7.90625 4.40625 
L 6.90625 5.796875 
L 27.5 28.796875 
L 37.296875 5.796875 
L 35.703125 4.40625 
L 29.203125 3.796875 
L 29.203125 0 
L 53.40625 0 
L 53.40625 3.796875 
L 47 4.40625 
L 46 5.796875 
L 32.796875 36 
L 56.203125 62.796875 
L 63.203125 63.296875 
L 63.203125 67.09375 
L 42.40625 67.09375 
L 42.40625 63.296875 
L 48.09375 62.796875 
L 48.703125 61.296875 
L 30.5 40.59375 
L 21.59375 61.296875 
L 23.09375 62.796875 
L 29.703125 63.296875 
L 29.703125 67.09375 
z
" id="Charter-Italic-88"/>
      <path d="M 20.09375 70.40625 
C 17.09375 70.40625 14.703125 68 14.703125 65 
C 14.703125 61.90625 17.09375 59.59375 20.09375 59.59375 
C 23 59.59375 25.5 62 25.5 65 
C 25.5 67.90625 23 70.40625 20.09375 70.40625 
z
M 18.09375 48.203125 
L 3.296875 45 
L 3.296875 42.40625 
L 11.40625 40.90625 
L 5.5 11.09375 
C 5.09375 8.90625 4.90625 7.09375 4.90625 5.90625 
C 4.90625 1.5 7 -0.703125 11.296875 -0.703125 
C 15.09375 -0.703125 19.90625 0.5 25.40625 2.796875 
L 25.40625 5.90625 
C 22.296875 4.90625 19.90625 4.40625 18 4.40625 
C 14.90625 4.40625 13.203125 5.703125 13.203125 8.296875 
C 13.203125 8.90625 13.296875 9.703125 13.5 10.796875 
L 20.703125 48.203125 
z
" id="Charter-Italic-105"/>
      <path d="M 27.203125 27.40625 
L 27.203125 20.703125 
L 4.703125 20.703125 
L 4.703125 27.40625 
z
" id="Charter-45"/>
     </defs>
     <g transform="translate(21.91875 111.14)rotate(-90)scale(0.2 -0.2)">
      <use transform="translate(0 0.203125)" xlink:href="#Charter-Italic-88"/>
      <use transform="translate(56.899994 -14.375)scale(0.7)" xlink:href="#Charter-Italic-105"/>
      <use transform="translate(79.419679 0.203125)" xlink:href="#Charter-32"/>
      <use transform="translate(107.219667 0.203125)" xlink:href="#Charter-91"/>
      <use transform="translate(149.319658 0.203125)" xlink:href="#Charter-45"/>
      <use transform="translate(181.219652 0.203125)" xlink:href="#Charter-93"/>
     </g>
    </g>
   </g>
   <g id="line2d_31">
    <path clip-path="url(#p835bd09640)" d="M 69.174432 162.867273 
L 72.248812 155.547638 
L 75.323192 149.672512 
L 78.397572 144.955925 
L 81.471952 141.168745 
L 84.546333 138.12736 
L 87.620713 135.684589 
L 90.695093 133.722426 
L 93.769473 132.146223 
L 96.843853 130.880048 
L 99.918233 129.862961 
L 102.992614 129.046043 
L 106.066994 128.390009 
L 109.141374 127.863305 
L 112.215754 127.440575 
L 115.290134 127.101444 
L 118.364514 126.82953 
L 121.438895 126.611663 
L 124.513275 126.437251 
L 127.587655 126.297774 
L 130.662035 126.186377 
L 133.736415 126.097546 
L 136.810795 126.026843 
L 139.885176 125.970698 
L 142.959556 125.926238 
L 146.033936 125.891149 
L 149.108316 125.863572 
L 152.182696 125.84201 
L 155.257076 125.825258 
L 158.331457 125.812348 
L 161.405837 125.802502 
L 164.480217 125.795094 
L 167.554597 125.78962 
L 170.628977 125.785678 
L 173.703357 125.782943 
L 176.777738 125.781156 
L 179.852118 125.780109 
L 182.926498 125.779636 
L 186.000878 125.779604 
L 189.075258 125.779907 
L 192.149638 125.780462 
L 195.224019 125.7812 
L 198.298399 125.78207 
L 201.372779 125.78303 
L 204.447159 125.784047 
L 207.521539 125.785096 
L 210.595919 125.786157 
L 213.6703 125.787215 
L 216.74468 125.788259 
L 219.81906 125.789279 
L 222.89344 125.790271 
L 225.96782 125.79123 
L 229.0422 125.792152 
L 232.116581 125.793036 
L 235.190961 125.793881 
L 238.265341 125.794686 
L 241.339721 125.795452 
L 244.414101 125.79618 
L 247.488481 125.79687 
L 250.562862 125.797524 
L 253.637242 125.798143 
L 256.711622 125.798727 
L 259.786002 125.79928 
L 262.860382 125.799801 
L 265.934762 125.800293 
L 269.009143 125.800758 
L 272.083523 125.801195 
L 275.157903 125.801607 
L 278.232283 125.801996 
L 281.306663 125.802362 
L 284.381043 125.802706 
L 287.455424 125.80303 
L 290.529804 125.803336 
L 293.604184 125.803623 
L 296.678564 125.803894 
L 299.752944 125.804148 
L 302.827324 125.804388 
L 305.901705 125.804613 
L 308.976085 125.804825 
L 312.050465 125.805024 
L 315.124845 125.805212 
L 318.199225 125.805389 
L 321.273605 125.805555 
L 324.347986 125.805711 
L 327.422366 125.805858 
L 330.496746 125.805996 
L 333.571126 125.806126 
L 336.645506 125.806248 
L 339.719886 125.806363 
L 342.794267 125.806471 
L 345.868647 125.806573 
L 348.943027 125.806668 
L 352.017407 125.806758 
L 355.091787 125.806843 
L 358.166167 125.806923 
L 361.240548 125.806997 
L 364.314928 125.807068 
L 367.389308 125.807134 
L 370.463688 125.807196 
L 373.538068 125.807255 
" style="fill:none;stroke:#c7254e;stroke-linecap:square;"/>
    <defs>
     <path d="M 0 3 
C 0.795609 3 1.55874 2.683901 2.12132 2.12132 
C 2.683901 1.55874 3 0.795609 3 0 
C 3 -0.795609 2.683901 -1.55874 2.12132 -2.12132 
C 1.55874 -2.683901 0.795609 -3 0 -3 
C -0.795609 -3 -1.55874 -2.683901 -2.12132 -2.12132 
C -2.683901 -1.55874 -3 -0.795609 -3 0 
C -3 0.795609 -2.683901 1.55874 -2.12132 2.12132 
C -1.55874 2.683901 -0.795609 3 0 3 
z
" id="mc4d90bf3a1" style="stroke:#c7254e;"/>
    </defs>
    <g clip-path="url(#p835bd09640)">
     <use style="fill:#c7254e;stroke:#c7254e;" x="69.174432" xlink:href="#mc4d90bf3a1" y="162.867273"/>
     <use style="fill:#c7254e;stroke:#c7254e;" x="99.918233" xlink:href="#mc4d90bf3a1" y="129.862961"/>
     <use style="fill:#c7254e;stroke:#c7254e;" x="130.662035" xlink:href="#mc4d90bf3a1" y="126.186377"/>
     <use style="fill:#c7254e;stroke:#c7254e;" x="161.405837" xlink:href="#mc4d90bf3a1" y="125.802502"/>
     <use style="fill:#c7254e;stroke:#c7254e;" x="192.149638" xlink:href="#mc4d90bf3a1" y="125.780462"/>
     <use style="fill:#c7254e;stroke:#c7254e;" x="222.89344" xlink:href="#mc4d90bf3a1" y="125.790271"/>
     <use style="fill:#c7254e;stroke:#c7254e;" x="253.637242" xlink:href="#mc4d90bf3a1" y="125.798143"/>
     <use style="fill:#c7254e;stroke:#c7254e;" x="284.381043" xlink:href="#mc4d90bf3a1" y="125.802706"/>
     <use style="fill:#c7254e;stroke:#c7254e;" x="315.124845" xlink:href="#mc4d90bf3a1" y="125.805212"/>
     <use style="fill:#c7254e;stroke:#c7254e;" x="345.868647" xlink:href="#mc4d90bf3a1" y="125.806573"/>
    </g>
   </g>
   <g id="line2d_32">
    <path clip-path="url(#p835bd09640)" d="M 69.174432 88.843778 
L 72.248812 93.464725 
L 75.323192 97.306692 
L 78.397572 100.521259 
L 81.471952 103.229024 
L 84.546333 105.525975 
L 87.620713 107.488589 
L 90.695093 109.177879 
L 93.769473 110.642605 
L 96.843853 111.921821 
L 99.918233 113.046881 
L 102.992614 114.043034 
L 106.066994 114.930679 
L 109.141374 115.726358 
L 112.215754 116.443537 
L 115.290134 117.093233 
L 118.364514 117.684499 
L 121.438895 118.224816 
L 124.513275 118.7204 
L 127.587655 119.176446 
L 130.662035 119.597326 
L 133.736415 119.986742 
L 136.810795 120.347849 
L 139.885176 120.683357 
L 142.959556 120.995606 
L 146.033936 121.286634 
L 149.108316 121.558228 
L 152.182696 121.811962 
L 155.257076 122.049233 
L 158.331457 122.271291 
L 161.405837 122.479254 
L 164.480217 122.674135 
L 167.554597 122.85685 
L 170.628977 123.028234 
L 173.703357 123.189051 
L 176.777738 123.340001 
L 179.852118 123.481728 
L 182.926498 123.614829 
L 186.000878 123.739853 
L 189.075258 123.857311 
L 192.149638 123.967678 
L 195.224019 124.071394 
L 198.298399 124.168872 
L 201.372779 124.260495 
L 204.447159 124.346621 
L 207.521539 124.427587 
L 210.595919 124.503705 
L 213.6703 124.575271 
L 216.74468 124.642558 
L 219.81906 124.705825 
L 222.89344 124.765314 
L 225.96782 124.821252 
L 229.0422 124.873853 
L 232.116581 124.923316 
L 235.190961 124.96983 
L 238.265341 125.013571 
L 241.339721 125.054704 
L 244.414101 125.093387 
L 247.488481 125.129764 
L 250.562862 125.163974 
L 253.637242 125.196146 
L 256.711622 125.226402 
L 259.786002 125.254855 
L 262.860382 125.281615 
L 265.934762 125.30678 
L 269.009143 125.330447 
L 272.083523 125.352704 
L 275.157903 125.373636 
L 278.232283 125.393322 
L 281.306663 125.411835 
L 284.381043 125.429246 
L 287.455424 125.445621 
L 290.529804 125.46102 
L 293.604184 125.475503 
L 296.678564 125.489123 
L 299.752944 125.501933 
L 302.827324 125.513979 
L 305.901705 125.525308 
L 308.976085 125.535963 
L 312.050465 125.545983 
L 315.124845 125.555408 
L 318.199225 125.564271 
L 321.273605 125.572606 
L 324.347986 125.580445 
L 327.422366 125.587818 
L 330.496746 125.594752 
L 333.571126 125.601272 
L 336.645506 125.607405 
L 339.719886 125.613172 
L 342.794267 125.618596 
L 345.868647 125.623698 
L 348.943027 125.628495 
L 352.017407 125.633007 
L 355.091787 125.63725 
L 358.166167 125.641241 
L 361.240548 125.644994 
L 364.314928 125.648523 
L 367.389308 125.651843 
L 370.463688 125.654965 
L 373.538068 125.657901 
" style="fill:none;stroke:#bbbbbb;stroke-linecap:square;"/>
    <defs>
     <path d="M 0 3 
C 0.795609 3 1.55874 2.683901 2.12132 2.12132 
C 2.683901 1.55874 3 0.795609 3 0 
C 3 -0.795609 2.683901 -1.55874 2.12132 -2.12132 
C 1.55874 -2.683901 0.795609 -3 0 -3 
C -0.795609 -3 -1.55874 -2.683901 -2.12132 -2.12132 
C -2.683901 -1.55874 -3 -0.795609 -3 0 
C -3 0.795609 -2.683901 1.55874 -2.12132 2.12132 
C -1.55874 2.683901 -0.795609 3 0 3 
z
" id="m67f3e067df" style="stroke:#bbbbbb;"/>
    </defs>
    <g clip-path="url(#p835bd09640)">
     <use style="fill:#bbbbbb;stroke:#bbbbbb;" x="69.174432" xlink:href="#m67f3e067df" y="88.843778"/>
     <use style="fill:#bbbbbb;stroke:#bbbbbb;" x="99.918233" xlink:href="#m67f3e067df" y="113.046881"/>
     <use style="fill:#bbbbbb;stroke:#bbbbbb;" x="130.662035" xlink:href="#m67f3e067df" y="119.597326"/>
     <use style="fill:#bbbbbb;stroke:#bbbbbb;" x="161.405837" xlink:href="#m67f3e067df" y="122.479254"/>
     <use style="fill:#bbbbbb;stroke:#bbbbbb;" x="192.149638" xlink:href="#m67f3e067df" y="123.967678"/>
     <use style="fill:#bbbbbb;stroke:#bbbbbb;" x="222.89344" xlink:href="#m67f3e067df" y="124.765314"/>
     <use style="fill:#bbbbbb;stroke:#bbbbbb;" x="253.637242" xlink:href="#m67f3e067df" y="125.196146"/>
     <use style="fill:#bbbbbb;stroke:#bbbbbb;" x="284.381043" xlink:href="#m67f3e067df" y="125.429246"/>
     <use style="fill:#bbbbbb;stroke:#bbbbbb;" x="315.124845" xlink:href="#m67f3e067df" y="125.555408"/>
     <use style="fill:#bbbbbb;stroke:#bbbbbb;" x="345.868647" xlink:href="#m67f3e067df" y="125.623698"/>
    </g>
   </g>
   <g id="line2d_33">
    <path clip-path="url(#p835bd09640)" d="M 69.174432 88.636222 
L 72.248812 91.33491 
L 75.323192 93.368069 
L 78.397572 94.870089 
L 81.471952 95.949504 
L 84.546333 96.693938 
L 87.620713 97.174095 
L 90.695093 97.446968 
L 93.769473 97.558444 
L 96.843853 97.545403 
L 99.918233 97.43743 
L 102.992614 97.258195 
L 106.066994 97.026584 
L 109.141374 96.757611 
L 112.215754 96.463161 
L 115.290134 96.152596 
L 118.364514 95.833244 
L 121.438895 95.510794 
L 124.513275 95.189622 
L 127.587655 94.873053 
L 130.662035 94.56357 
L 133.736415 94.262985 
L 136.810795 93.97258 
L 139.885176 93.693218 
L 142.959556 93.425429 
L 146.033936 93.169489 
L 149.108316 92.925473 
L 152.182696 92.693301 
L 155.257076 92.472781 
L 158.331457 92.263634 
L 161.405837 92.065516 
L 164.480217 91.878044 
L 167.554597 91.700803 
L 170.628977 91.533361 
L 173.703357 91.375279 
L 176.777738 91.226116 
L 179.852118 91.085435 
L 182.926498 90.952808 
L 186.000878 90.827816 
L 189.075258 90.710054 
L 192.149638 90.599134 
L 195.224019 90.494679 
L 198.298399 90.396331 
L 201.372779 90.303748 
L 204.447159 90.216605 
L 207.521539 90.13459 
L 210.595919 90.057411 
L 213.6703 89.984787 
L 216.74468 89.916457 
L 219.81906 89.852169 
L 222.89344 89.791688 
L 225.96782 89.734791 
L 229.0422 89.681268 
L 232.116581 89.630921 
L 235.190961 89.583562 
L 238.265341 89.539016 
L 241.339721 89.497116 
L 244.414101 89.457706 
L 247.488481 89.420639 
L 250.562862 89.385775 
L 253.637242 89.352984 
L 256.711622 89.322143 
L 259.786002 89.293138 
L 262.860382 89.265857 
L 265.934762 89.2402 
L 269.009143 89.216069 
L 272.083523 89.193374 
L 275.157903 89.172029 
L 278.232283 89.151955 
L 281.306663 89.133076 
L 284.381043 89.11532 
L 287.455424 89.098622 
L 290.529804 89.082917 
L 293.604184 89.068147 
L 296.678564 89.054256 
L 299.752944 89.041192 
L 302.827324 89.028906 
L 305.901705 89.017351 
L 308.976085 89.006485 
L 312.050465 88.996265 
L 315.124845 88.986653 
L 318.199225 88.977613 
L 321.273605 88.969112 
L 324.347986 88.961117 
L 327.422366 88.953597 
L 330.496746 88.946525 
L 333.571126 88.939875 
L 336.645506 88.93362 
L 339.719886 88.927737 
L 342.794267 88.922205 
L 345.868647 88.917002 
L 348.943027 88.912109 
L 352.017407 88.907507 
L 355.091787 88.90318 
L 358.166167 88.899109 
L 361.240548 88.895282 
L 364.314928 88.891681 
L 367.389308 88.888296 
L 370.463688 88.885111 
L 373.538068 88.882117 
" style="fill:none;stroke:#008cba;stroke-linecap:square;"/>
    <defs>
     <path d="M 0 3 
C 0.795609 3 1.55874 2.683901 2.12132 2.12132 
C 2.683901 1.55874 3 0.795609 3 0 
C 3 -0.795609 2.683901 -1.55874 2.12132 -2.12132 
C 1.55874 -2.683901 0.795609 -3 0 -3 
C -0.795609 -3 -1.55874 -2.683901 -2.12132 -2.12132 
C -2.683901 -1.55874 -3 -0.795609 -3 0 
C -3 0.795609 -2.683901 1.55874 -2.12132 2.12132 
C -1.55874 2.683901 -0.795609 3 0 3 
z
" id="md27ee177ba" style="stroke:#008cba;"/>
    </defs>
    <g clip-path="url(#p835bd09640)">
     <use style="fill:#008cba;stroke:#008cba;" x="69.174432" xlink:href="#md27ee177ba" y="88.636222"/>
     <use style="fill:#008cba;stroke:#008cba;" x="99.918233" xlink:href="#md27ee177ba" y="97.43743"/>
     <use style="fill:#008cba;stroke:#008cba;" x="130.662035" xlink:href="#md27ee177ba" y="94.56357"/>
     <use style="fill:#008cba;stroke:#008cba;" x="161.405837" xlink:href="#md27ee177ba" y="92.065516"/>
     <use style="fill:#008cba;stroke:#008cba;" x="192.149638" xlink:href="#md27ee177ba" y="90.599134"/>
     <use style="fill:#008cba;stroke:#008cba;" x="222.89344" xlink:href="#md27ee177ba" y="89.791688"/>
     <use style="fill:#008cba;stroke:#008cba;" x="253.637242" xlink:href="#md27ee177ba" y="89.352984"/>
     <use style="fill:#008cba;stroke:#008cba;" x="284.381043" xlink:href="#md27ee177ba" y="89.11532"/>
     <use style="fill:#008cba;stroke:#008cba;" x="315.124845" xlink:href="#md27ee177ba" y="88.986653"/>
     <use style="fill:#008cba;stroke:#008cba;" x="345.868647" xlink:href="#md27ee177ba" y="88.917002"/>
    </g>
   </g>
   <g id="patch_3">
    <path d="M 53.95625 170.28 
L 53.95625 7.2 
" style="fill:none;stroke:#000000;stroke-linecap:square;stroke-linejoin:miter;stroke-width:0.8;"/>
   </g>
   <g id="patch_4">
    <path d="M 388.75625 170.28 
L 388.75625 7.2 
" style="fill:none;stroke:#000000;stroke-linecap:square;stroke-linejoin:miter;stroke-width:0.8;"/>
   </g>
   <g id="patch_5">
    <path d="M 53.95625 170.28 
L 388.75625 170.28 
" style="fill:none;stroke:#000000;stroke-linecap:square;stroke-linejoin:miter;stroke-width:0.8;"/>
   </g>
   <g id="patch_6">
    <path d="M 53.95625 7.2 
L 388.75625 7.2 
" style="fill:none;stroke:#000000;stroke-linecap:square;stroke-linejoin:miter;stroke-width:0.8;"/>
   </g>
   <g id="legend_1">
    <g id="patch_7">
     <path d="M 261.93875 69.140625 
L 380.35625 69.140625 
Q 382.75625 69.140625 382.75625 66.740625 
L 382.75625 15.6 
Q 382.75625 13.2 380.35625 13.2 
L 261.93875 13.2 
Q 259.53875 13.2 259.53875 15.6 
L 259.53875 66.740625 
Q 259.53875 69.140625 261.93875 69.140625 
z
" style="fill:#ffffff;opacity:0.8;stroke:#cccccc;stroke-linejoin:miter;"/>
    </g>
    <g id="line2d_34">
     <path d="M 264.33875 22.63125 
L 288.33875 22.63125 
" style="fill:none;stroke:#c7254e;stroke-linecap:square;"/>
    </g>
    <g id="line2d_35">
     <g>
      <use style="fill:#c7254e;stroke:#c7254e;" x="276.33875" xlink:href="#mc4d90bf3a1" y="22.63125"/>
     </g>
    </g>
    <g id="text_18">
     <!-- Hydrogen -->
     <defs>
      <path d="M 27.59375 67.09375 
L 27.59375 63.09375 
L 21.40625 62.5 
L 19.703125 61.09375 
L 19.703125 37.5 
L 54.09375 37.5 
L 54.09375 61.09375 
L 52.40625 62.5 
L 46.203125 63.09375 
L 46.203125 67.09375 
L 70.5 67.09375 
L 70.5 63.09375 
L 64.796875 62.5 
L 63.09375 61.09375 
L 63.09375 6 
L 64.796875 4.59375 
L 70.5 4.09375 
L 70.5 0 
L 46.203125 0 
L 46.203125 4.09375 
L 52.40625 4.59375 
L 54.09375 6 
L 54.09375 32.90625 
L 19.703125 32.90625 
L 19.703125 6 
L 21.40625 4.59375 
L 27.59375 4.09375 
L 27.59375 0 
L 3.296875 0 
L 3.296875 4.09375 
L 9 4.59375 
L 10.703125 6 
L 10.703125 61.09375 
L 9 62.5 
L 3.296875 63.09375 
L 3.296875 67.09375 
z
" id="Charter-72"/>
      <path d="M 21.59375 48.09375 
L 21.59375 44.40625 
L 16.296875 44 
L 15.09375 42.40625 
L 27.09375 11.296875 
L 39.59375 42.40625 
L 38.796875 44 
L 33.40625 44.40625 
L 33.40625 48.09375 
L 51.203125 48.09375 
L 51.203125 44.40625 
L 45.40625 43.59375 
L 25.40625 -5 
Q 21.90625 -13.5 18.09375 -17.640625 
Q 14.296875 -21.796875 9.40625 -21.796875 
Q 6.203125 -21.796875 4.34375 -20.25 
Q 2.5 -18.703125 2.5 -16.203125 
Q 2.5 -13.203125 5.09375 -10.796875 
L 14.703125 -14.59375 
Q 16.703125 -12.40625 18.796875 -8.703125 
Q 20.90625 -5 22.796875 0.40625 
L 6 43.796875 
L -0.09375 44.40625 
L -0.09375 48.09375 
z
" id="Charter-121"/>
      <path d="M 30.59375 66.90625 
L 30.59375 70 
L 42.796875 73.59375 
L 46.59375 73.59375 
L 46.59375 5.703125 
L 48.296875 4.09375 
L 53.09375 3.59375 
L 53.09375 0 
L 38.296875 0 
L 38.296875 5.203125 
Q 34.5 2.09375 30.796875 0.59375 
Q 27.09375 -0.90625 22.90625 -0.90625 
Q 18.796875 -0.90625 15.296875 0.796875 
Q 11.796875 2.5 9.1875 5.546875 
Q 6.59375 8.59375 5.09375 12.890625 
Q 3.59375 17.203125 3.59375 22.5 
Q 3.59375 28.5 5.5 33.390625 
Q 7.40625 38.296875 10.796875 41.84375 
Q 14.203125 45.40625 18.953125 47.296875 
Q 23.703125 49.203125 29.40625 49.203125 
Q 33.40625 49.203125 38.296875 48.09375 
L 38.296875 66.90625 
z
M 38.296875 43.203125 
Q 35.703125 44 33.5 44.390625 
Q 31.296875 44.796875 29.5 44.796875 
Q 25.703125 44.796875 22.546875 43.34375 
Q 19.40625 41.90625 17.15625 39.203125 
Q 14.90625 36.5 13.65625 32.703125 
Q 12.40625 28.90625 12.40625 24.203125 
Q 12.40625 15.40625 16.5 10.40625 
Q 20.59375 5.40625 27.40625 5.40625 
Q 32.703125 5.40625 38.296875 8.90625 
z
" id="Charter-100"/>
      <path d="M 3 3.59375 
L 8.296875 4.09375 
L 10.09375 5.703125 
L 10.09375 41.90625 
L 3 41.90625 
L 3 45 
L 14.59375 48.59375 
L 18.40625 48.59375 
L 18.40625 39.203125 
Q 21 41.90625 23.703125 44.296875 
Q 26.40625 46.703125 29.09375 48.90625 
Q 29.703125 49.09375 30.34375 49.09375 
Q 31 49.09375 31.59375 49.09375 
Q 34.59375 49.09375 37.59375 47.796875 
L 37.59375 39.203125 
L 34.40625 39.203125 
Q 32.40625 41.59375 29.296875 41.59375 
Q 24.59375 41.59375 18.40625 34.296875 
L 18.40625 5.703125 
L 20.09375 4.09375 
L 27.09375 3.59375 
L 27.09375 0 
L 3 0 
z
" id="Charter-114"/>
      <path d="M 26.90625 49.09375 
Q 32 49.09375 36.25 47.25 
Q 40.5 45.40625 43.59375 42.09375 
Q 46.703125 38.796875 48.453125 34.1875 
Q 50.203125 29.59375 50.203125 24.09375 
Q 50.203125 18.5 48.453125 13.890625 
Q 46.703125 9.296875 43.59375 6 
Q 40.5 2.703125 36.203125 0.890625 
Q 31.90625 -0.90625 26.90625 -0.90625 
Q 21.90625 -0.90625 17.65625 0.890625 
Q 13.40625 2.703125 10.296875 6 
Q 7.203125 9.296875 5.453125 13.890625 
Q 3.703125 18.5 3.703125 24.09375 
Q 3.703125 29.703125 5.453125 34.296875 
Q 7.203125 38.90625 10.25 42.203125 
Q 13.296875 45.5 17.546875 47.296875 
Q 21.796875 49.09375 26.90625 49.09375 
z
M 26.90625 44.796875 
Q 20.796875 44.796875 16.9375 39.34375 
Q 13.09375 33.90625 13.09375 24.09375 
Q 13.09375 19.296875 14.140625 15.4375 
Q 15.203125 11.59375 17 8.890625 
Q 18.796875 6.203125 21.34375 4.796875 
Q 23.90625 3.40625 26.90625 3.40625 
Q 33 3.40625 36.890625 8.84375 
Q 40.796875 14.296875 40.796875 24.09375 
Q 40.796875 33.796875 36.890625 39.296875 
Q 33 44.796875 26.90625 44.796875 
z
" id="Charter-111"/>
      <path d="M 51.203125 46.296875 
L 51.203125 41.59375 
L 40.203125 41.59375 
Q 43 37.296875 43 32.296875 
Q 43 29 41.640625 26.140625 
Q 40.296875 23.296875 37.796875 21.1875 
Q 35.296875 19.09375 31.75 17.890625 
Q 28.203125 16.703125 23.90625 16.703125 
L 22.203125 16.703125 
Q 21.09375 14.5 21.09375 12.203125 
Q 21.09375 11.796875 21.140625 11.1875 
Q 21.203125 10.59375 21.296875 9.796875 
L 30.90625 8.296875 
Q 35.296875 7.59375 38.5 6.640625 
Q 41.703125 5.703125 43.796875 4.25 
Q 45.90625 2.796875 46.90625 0.796875 
Q 47.90625 -1.203125 47.90625 -4 
Q 47.90625 -6.796875 46.34375 -9.796875 
Q 44.796875 -12.796875 41.90625 -15.203125 
Q 37.90625 -18.40625 32.84375 -20.09375 
Q 27.796875 -21.796875 22.09375 -21.796875 
Q 13.40625 -21.796875 8.703125 -18.34375 
Q 4 -14.90625 4 -8.90625 
Q 4 -4.09375 6.84375 -0.75 
Q 9.703125 2.59375 14.796875 3.5 
Q 13.796875 5.796875 13.796875 8 
Q 13.796875 11.796875 18.59375 17.5 
Q 12.796875 18.796875 9.5 22.84375 
Q 6.203125 26.90625 6.203125 32.59375 
Q 6.203125 36.203125 7.546875 39.25 
Q 8.90625 42.296875 11.453125 44.5 
Q 14 46.703125 17.59375 47.890625 
Q 21.203125 49.09375 25.59375 49.09375 
Q 31.296875 49.09375 36.90625 46.296875 
z
M 24.59375 45.203125 
Q 20.203125 45.203125 17.5 41.953125 
Q 14.796875 38.703125 14.796875 32.90625 
Q 14.796875 27.203125 17.5 23.890625 
Q 20.203125 20.59375 24.59375 20.59375 
Q 29 20.59375 31.703125 23.890625 
Q 34.40625 27.203125 34.40625 32.90625 
Q 34.40625 38.59375 31.703125 41.890625 
Q 29 45.203125 24.59375 45.203125 
z
M 20.59375 3 
Q 16.40625 1.703125 14.203125 -0.890625 
Q 12 -3.5 12 -6.796875 
Q 12 -11.203125 15.703125 -14.203125 
Q 19.40625 -17.203125 25.59375 -17.203125 
Q 28.90625 -17.203125 31.65625 -16.34375 
Q 34.40625 -15.5 36.34375 -14 
Q 38.296875 -12.5 39.390625 -10.59375 
Q 40.5 -8.703125 40.5 -6.59375 
Q 40.5 -4.59375 39.890625 -3.296875 
Q 39.296875 -2 38.046875 -1.140625 
Q 36.796875 -0.296875 34.84375 0.203125 
Q 32.90625 0.703125 30.296875 1.203125 
z
" id="Charter-103"/>
      <path d="M 44.796875 5.09375 
Q 40.296875 2.09375 35.546875 0.59375 
Q 30.796875 -0.90625 26 -0.90625 
Q 21 -0.90625 16.890625 0.890625 
Q 12.796875 2.703125 9.890625 5.890625 
Q 7 9.09375 5.34375 13.640625 
Q 3.703125 18.203125 3.703125 23.703125 
Q 3.703125 29.40625 5.390625 34.046875 
Q 7.09375 38.703125 10.1875 42.046875 
Q 13.296875 45.40625 17.546875 47.25 
Q 21.796875 49.09375 26.796875 49.09375 
Q 35 49.09375 39.890625 43.890625 
Q 44.796875 38.703125 44.796875 29.40625 
Q 44.796875 28.59375 44.796875 27.84375 
Q 44.796875 27.09375 44.703125 26.296875 
L 12.296875 26.296875 
L 12.296875 25.203125 
Q 12.296875 15.5 16.890625 10.140625 
Q 21.5 4.796875 29.09375 4.796875 
Q 32.90625 4.796875 36.703125 6.25 
Q 40.5 7.703125 44.796875 10.59375 
z
M 35.90625 32.09375 
Q 35.90625 38.203125 33.25 41.390625 
Q 30.59375 44.59375 25.5 44.59375 
Q 23.09375 44.59375 20.890625 43.59375 
Q 18.703125 42.59375 16.953125 40.75 
Q 15.203125 38.90625 14.09375 36.296875 
Q 13 33.703125 12.796875 30.5 
L 35.90625 30.5 
z
" id="Charter-101"/>
      <path d="M 3 3.59375 
L 8.40625 4.09375 
L 10.09375 5.703125 
L 10.09375 41.90625 
L 3 41.90625 
L 3 45 
L 14.59375 48.59375 
L 18.40625 48.59375 
L 18.40625 43.09375 
Q 23.5 45.90625 27.390625 47.5 
Q 31.296875 49.09375 34.5 49.09375 
Q 41.09375 49.09375 44.546875 45.25 
Q 48 41.40625 48 33.90625 
L 48 5.703125 
L 49.703125 4.09375 
L 55.09375 3.59375 
L 55.09375 0 
L 33.203125 0 
L 33.203125 3.59375 
L 38 4.09375 
L 39.703125 5.703125 
L 39.703125 32.203125 
Q 39.703125 37.703125 37.453125 40.09375 
Q 35.203125 42.5 29.59375 42.5 
Q 24.796875 42.5 18.40625 39.203125 
L 18.40625 5.703125 
L 20.09375 4.09375 
L 24.90625 3.59375 
L 24.90625 0 
L 3 0 
z
" id="Charter-110"/>
     </defs>
     <g transform="translate(297.93875 26.83125)scale(0.12 -0.12)">
      <use xlink:href="#Charter-72"/>
      <use x="73.799988" xlink:href="#Charter-121"/>
      <use x="123.299973" xlink:href="#Charter-100"/>
      <use x="179.799957" xlink:href="#Charter-114"/>
      <use x="217.999954" xlink:href="#Charter-111"/>
      <use x="271.899948" xlink:href="#Charter-103"/>
      <use x="324.199936" xlink:href="#Charter-101"/>
      <use x="373.299927" xlink:href="#Charter-110"/>
     </g>
    </g>
    <g id="line2d_36">
     <path d="M 264.33875 40.078125 
L 288.33875 40.078125 
" style="fill:none;stroke:#bbbbbb;stroke-linecap:square;"/>
    </g>
    <g id="line2d_37">
     <g>
      <use style="fill:#bbbbbb;stroke:#bbbbbb;" x="276.33875" xlink:href="#m67f3e067df" y="40.078125"/>
     </g>
    </g>
    <g id="text_19">
     <!-- Nitrogen -->
     <defs>
      <path d="M 2.90625 4.09375 
L 9 4.90625 
L 10.796875 6.796875 
L 10.796875 61.09375 
L 9 62.5 
L 2.59375 63.09375 
L 2.59375 67.09375 
L 21.40625 67.09375 
L 21.40625 64.59375 
L 55.5 13.40625 
L 55.5 60.40625 
L 53.703125 62.203125 
L 47.703125 63.09375 
L 47.703125 67.09375 
L 68.703125 67.09375 
L 68.703125 63.09375 
L 62.703125 62.203125 
L 60.90625 60.40625 
L 60.90625 0 
L 54.296875 0 
L 16.203125 56.796875 
L 16.203125 6.796875 
L 18 4.90625 
L 24 4.09375 
L 24 0 
L 2.90625 0 
z
" id="Charter-78"/>
      <path d="M 15.40625 70.796875 
Q 17.796875 70.796875 19.5 69.09375 
Q 21.203125 67.40625 21.203125 65 
Q 21.203125 62.59375 19.5 60.9375 
Q 17.796875 59.296875 15.40625 59.296875 
Q 13 59.296875 11.296875 60.9375 
Q 9.59375 62.59375 9.59375 65 
Q 9.59375 67.5 11.296875 69.140625 
Q 13 70.796875 15.40625 70.796875 
z
M 18.796875 48.59375 
L 18.796875 5.703125 
L 20.59375 4.09375 
L 26 3.59375 
L 26 0 
L 3.5 0 
L 3.5 3.59375 
L 8.796875 4.09375 
L 10.5 5.703125 
L 10.5 41.90625 
L 3.5 41.90625 
L 3.5 45 
L 15 48.59375 
z
" id="Charter-105"/>
      <path d="M 2.5 42.09375 
L 2.5 45.203125 
L 9.09375 48.09375 
L 13.40625 57.40625 
L 17.09375 57.40625 
L 17.09375 46.796875 
L 32.296875 46.796875 
L 32.296875 42.09375 
L 17.09375 42.09375 
L 17.09375 15.703125 
Q 17.09375 12.796875 17.390625 10.75 
Q 17.703125 8.703125 18.59375 7.390625 
Q 19.5 6.09375 21.140625 5.4375 
Q 22.796875 4.796875 25.40625 4.796875 
Q 28.59375 4.796875 32.296875 5.59375 
L 32.296875 1.90625 
Q 28.796875 0.796875 25.4375 0.25 
Q 22.09375 -0.296875 19.203125 -0.296875 
Q 13 -0.296875 10.890625 2.09375 
Q 8.796875 4.5 8.796875 9.796875 
L 8.796875 42.09375 
z
" id="Charter-116"/>
     </defs>
     <g transform="translate(297.93875 44.278125)scale(0.12 -0.12)">
      <use xlink:href="#Charter-78"/>
      <use x="71.299988" xlink:href="#Charter-105"/>
      <use x="99.299973" xlink:href="#Charter-116"/>
      <use x="132.699966" xlink:href="#Charter-114"/>
      <use x="170.899963" xlink:href="#Charter-111"/>
      <use x="224.799957" xlink:href="#Charter-103"/>
      <use x="277.099945" xlink:href="#Charter-101"/>
      <use x="326.199936" xlink:href="#Charter-110"/>
     </g>
    </g>
    <g id="line2d_38">
     <path d="M 264.33875 57.525 
L 288.33875 57.525 
" style="fill:none;stroke:#008cba;stroke-linecap:square;"/>
    </g>
    <g id="line2d_39">
     <g>
      <use style="fill:#008cba;stroke:#008cba;" x="276.33875" xlink:href="#md27ee177ba" y="57.525"/>
     </g>
    </g>
    <g id="text_20">
     <!-- Carbon dioxide -->
     <defs>
      <path d="M 58.796875 2.296875 
Q 48.796875 -1.203125 38.59375 -1.203125 
Q 28.703125 -1.203125 21.59375 2.796875 
Q 13.5 7.40625 8.890625 15.546875 
Q 4.296875 23.703125 4.296875 33.59375 
Q 4.296875 41.40625 6.796875 47.796875 
Q 9.296875 54.203125 13.84375 58.75 
Q 18.40625 63.296875 24.796875 65.796875 
Q 31.203125 68.296875 39 68.296875 
Q 48 68.296875 58.796875 64.90625 
L 58.796875 49.5 
L 53.203125 49.5 
L 51.703125 58.59375 
L 50.40625 60.40625 
Q 47.59375 61.703125 44.84375 62.34375 
Q 42.09375 63 39.203125 63 
Q 33.59375 63 29.046875 61.046875 
Q 24.5 59.09375 21.296875 55.390625 
Q 18.09375 51.703125 16.34375 46.34375 
Q 14.59375 41 14.59375 34.296875 
Q 14.59375 27.203125 16.390625 21.59375 
Q 18.203125 16 21.546875 12.09375 
Q 24.90625 8.203125 29.75 6.140625 
Q 34.59375 4.09375 40.703125 4.09375 
Q 45.09375 4.09375 49.40625 5.40625 
L 51 7 
L 53.203125 18.09375 
L 58.796875 18.09375 
L 58.796875 2.296875 
z
" id="Charter-67"/>
      <path d="M 33.40625 5.796875 
Q 28.59375 2.59375 24.59375 0.9375 
Q 20.59375 -0.703125 17 -0.703125 
Q 11 -0.703125 7.59375 2.84375 
Q 4.203125 6.40625 4.203125 12.09375 
Q 4.203125 16 5.953125 18.640625 
Q 7.703125 21.296875 11.296875 23.296875 
Q 14.90625 25.296875 20.40625 26.890625 
Q 25.90625 28.5 33.40625 30.296875 
L 33.40625 33.5 
Q 33.40625 39.5 31.5 42.09375 
Q 29.59375 44.703125 24.203125 44.703125 
Q 20.5 44.703125 16.59375 43.09375 
L 16.59375 34.703125 
L 9.703125 34.703125 
Q 8 34.703125 7.296875 35.34375 
Q 6.59375 36 6.59375 37.796875 
Q 6.59375 40.09375 8 42.140625 
Q 9.40625 44.203125 12 45.75 
Q 14.59375 47.296875 18.34375 48.1875 
Q 22.09375 49.09375 26.796875 49.09375 
Q 34.703125 49.09375 38.203125 45.6875 
Q 41.703125 42.296875 41.703125 34.703125 
L 41.703125 5.703125 
L 43.5 4.09375 
L 48.796875 3.59375 
L 48.796875 0 
L 34.703125 0 
z
M 33.40625 26.796875 
Q 28.09375 25.296875 24.25 24 
Q 20.40625 22.703125 17.90625 21.140625 
Q 15.40625 19.59375 14.203125 17.59375 
Q 13 15.59375 13 12.90625 
Q 13 9.203125 15.09375 6.953125 
Q 17.203125 4.703125 21 4.703125 
Q 23.5 4.703125 26.546875 5.84375 
Q 29.59375 7 33.40625 9.203125 
z
" id="Charter-97"/>
      <path d="M 16.90625 73.59375 
L 16.90625 45.59375 
Q 24.203125 49.09375 30.59375 49.09375 
Q 35 49.09375 38.640625 47.4375 
Q 42.296875 45.796875 44.890625 42.796875 
Q 47.5 39.796875 48.953125 35.59375 
Q 50.40625 31.40625 50.40625 26.296875 
Q 50.40625 13.296875 43.09375 6.640625 
Q 35.796875 0 21.40625 0 
L 8.59375 0 
L 8.59375 66.90625 
L 0.796875 66.90625 
L 0.796875 70 
L 13.09375 73.59375 
z
M 16.90625 4.59375 
Q 19.203125 4.5 20.59375 4.5 
Q 22 4.5 22.40625 4.5 
Q 32.203125 4.5 36.796875 9.25 
Q 41.40625 14 41.40625 24.40625 
Q 41.40625 33.796875 37.296875 38.796875 
Q 33.203125 43.796875 25.703125 43.796875 
Q 23.796875 43.796875 21.59375 43.390625 
Q 19.40625 43 16.90625 42.203125 
z
" id="Charter-98"/>
      <path d="M 23.296875 48.09375 
L 23.296875 44.40625 
L 18.703125 43.796875 
L 18.203125 42.796875 
L 26.59375 29.703125 
L 35.703125 42.5 
L 34.90625 43.796875 
L 30.09375 44.40625 
L 30.09375 48.09375 
L 48.09375 48.09375 
L 48.09375 44.40625 
L 42.5 43.40625 
L 29.296875 25.90625 
L 44 4.5 
L 50 3.703125 
L 50 0 
L 28.703125 0 
L 28.703125 3.703125 
L 32.90625 4.40625 
L 33.40625 5.203125 
L 24.09375 20.09375 
L 13.90625 5.59375 
L 14.40625 4.40625 
L 20.09375 3.703125 
L 20.09375 0 
L 1.203125 0 
L 1.203125 3.703125 
L 6.90625 4.5 
L 21.296875 23.796875 
L 7.90625 43.296875 
L 1.796875 44.40625 
L 1.796875 48.09375 
z
" id="Charter-120"/>
     </defs>
     <g transform="translate(297.93875 61.725)scale(0.12 -0.12)">
      <use xlink:href="#Charter-67"/>
      <use x="63.199997" xlink:href="#Charter-97"/>
      <use x="113.899994" xlink:href="#Charter-114"/>
      <use x="152.099991" xlink:href="#Charter-98"/>
      <use x="205.999985" xlink:href="#Charter-111"/>
      <use x="259.899979" xlink:href="#Charter-110"/>
      <use x="316.699966" xlink:href="#Charter-32"/>
      <use x="344.499954" xlink:href="#Charter-100"/>
      <use x="400.999939" xlink:href="#Charter-105"/>
      <use x="428.999924" xlink:href="#Charter-111"/>
      <use x="482.899918" xlink:href="#Charter-120"/>
      <use x="533.199905" xlink:href="#Charter-105"/>
      <use x="561.19989" xlink:href="#Charter-100"/>
      <use x="617.699875" xlink:href="#Charter-101"/>
     </g>
    </g>
   </g>
  </g>
 </g>
 <defs>
  <clipPath id="p835bd09640">
   <rect height="163.08" width="334.8" x="53.95625" y="7.2"/>
  </clipPath>
 </defs>
</svg>
