<?xml version="1.0" encoding="utf-8" standalone="no"?>
<!DOCTYPE svg PUBLIC "-//W3C//DTD SVG 1.1//EN"
  "http://www.w3.org/Graphics/SVG/1.1/DTD/svg11.dtd">
<!-- Created with matplotlib (https://matplotlib.org/) -->
<svg height="273.365pt" version="1.1" viewBox="0 0 640.92 273.365" width="640.92pt" xmlns="http://www.w3.org/2000/svg" xmlns:xlink="http://www.w3.org/1999/xlink">
 <defs>
  <style type="text/css">
*{stroke-linecap:butt;stroke-linejoin:round;}
  </style>
 </defs>
 <g id="figure_1">
  <g id="patch_1">
   <path d="M 0 273.365 
L 640.92 273.365 
L 640.92 0 
L 0 0 
z
" style="fill:#ffffff;"/>
  </g>
  <g id="axes_1">
   <g id="patch_2">
    <path d="M 75.72 224.64 
L 633.72 224.64 
L 633.72 7.2 
L 75.72 7.2 
z
" style="fill:#ffffff;"/>
   </g>
   <g id="matplotlib.axis_1">
    <g id="xtick_1">
     <g id="line2d_1">
      <path clip-path="url(#p785daf5c59)" d="M 101.083636 224.64 
L 101.083636 7.2 
" style="fill:none;stroke:#b0b0b0;stroke-linecap:square;stroke-opacity:0.3;stroke-width:0.8;"/>
     </g>
     <g id="line2d_2">
      <defs>
       <path d="M 0 0 
L 0 3.5 
" id="m9fd0b8c5ac" style="stroke:#000000;stroke-width:0.8;"/>
      </defs>
      <g>
       <use style="stroke:#000000;stroke-width:0.8;" x="101.083636" xlink:href="#m9fd0b8c5ac" y="224.64"/>
      </g>
     </g>
     <g id="text_1">
      <!-- $\mathdefault{10^{-2}}$ -->
      <defs>
       <path d="M 33.90625 68.296875 
L 33.90625 6.203125 
L 35.09375 4.703125 
L 45.90625 4.203125 
L 45.90625 0 
L 12.40625 0 
L 12.40625 4.296875 
L 23.90625 4.90625 
L 25.09375 6.59375 
L 25.09375 60.40625 
L 9.40625 57.59375 
L 9.40625 61.796875 
L 31.09375 68.296875 
z
" id="Charter-49"/>
       <path d="M 27.796875 68.296875 
Q 33.203125 68.296875 37.546875 66 
Q 41.90625 63.703125 45 59.25 
Q 48.09375 54.796875 49.796875 48.34375 
Q 51.5 41.90625 51.5 33.59375 
Q 51.5 25.296875 49.796875 18.84375 
Q 48.09375 12.40625 45 7.953125 
Q 41.90625 3.5 37.546875 1.140625 
Q 33.203125 -1.203125 27.796875 -1.203125 
Q 22.40625 -1.203125 18.046875 1.140625 
Q 13.703125 3.5 10.59375 7.953125 
Q 7.5 12.40625 5.796875 18.84375 
Q 4.09375 25.296875 4.09375 33.59375 
Q 4.09375 41.90625 5.796875 48.34375 
Q 7.5 54.796875 10.59375 59.25 
Q 13.703125 63.703125 18.046875 66 
Q 22.40625 68.296875 27.796875 68.296875 
z
M 27.796875 63.59375 
Q 20.90625 63.59375 17.203125 56.046875 
Q 13.5 48.5 13.5 33.5 
Q 13.5 18.59375 17.203125 11.09375 
Q 20.90625 3.59375 27.796875 3.59375 
Q 34.703125 3.59375 38.34375 11.140625 
Q 42 18.703125 42 33.59375 
Q 42 48.5 38.34375 56.046875 
Q 34.703125 63.59375 27.796875 63.59375 
z
" id="Charter-48"/>
       <path d="M 70.90625 32.703125 
L 70.90625 26.90625 
L 12.40625 26.90625 
L 12.40625 32.703125 
z
" id="Charter-8722"/>
       <path d="M 44.203125 7.90625 
L 46 16.40625 
L 50.5 16.40625 
L 50.5 0 
L 4.203125 0 
L 4.203125 6.296875 
Q 12.40625 13 18.796875 18.5 
Q 25.203125 24 29.59375 28.953125 
Q 34 33.90625 36.296875 38.546875 
Q 38.59375 43.203125 38.59375 48.09375 
Q 38.59375 55.296875 35.09375 59.25 
Q 31.59375 63.203125 25.296875 63.203125 
Q 23 63.203125 20.84375 62.640625 
Q 18.703125 62.09375 16.40625 60.796875 
L 16.40625 50.09375 
Q 14.296875 48.59375 11.90625 48.59375 
Q 9.296875 48.59375 7.796875 50.09375 
Q 6.296875 51.59375 6.296875 54.203125 
Q 6.296875 56.796875 7.84375 59.34375 
Q 9.40625 61.90625 12.25 63.90625 
Q 15.09375 65.90625 18.9375 67.09375 
Q 22.796875 68.296875 27.5 68.296875 
Q 32.296875 68.296875 36.140625 66.9375 
Q 40 65.59375 42.703125 63.09375 
Q 45.40625 60.59375 46.84375 57.09375 
Q 48.296875 53.59375 48.296875 49.40625 
Q 48.296875 44.703125 46.046875 40.09375 
Q 43.796875 35.5 39.4375 30.546875 
Q 35.09375 25.59375 28.75 20.046875 
Q 22.40625 14.5 14.09375 7.90625 
z
" id="Charter-50"/>
      </defs>
      <g transform="translate(88.363636 240.47125)scale(0.12 -0.12)">
       <use transform="translate(0 0.526563)" xlink:href="#Charter-49"/>
       <use transform="translate(55.599991 0.526563)" xlink:href="#Charter-48"/>
       <use transform="translate(112.041622 34.192188)scale(0.7)" xlink:href="#Charter-8722"/>
       <use transform="translate(170.351614 34.192188)scale(0.7)" xlink:href="#Charter-50"/>
      </g>
     </g>
    </g>
    <g id="xtick_2">
     <g id="line2d_3">
      <path clip-path="url(#p785daf5c59)" d="M 185.629091 224.64 
L 185.629091 7.2 
" style="fill:none;stroke:#b0b0b0;stroke-linecap:square;stroke-opacity:0.3;stroke-width:0.8;"/>
     </g>
     <g id="line2d_4">
      <g>
       <use style="stroke:#000000;stroke-width:0.8;" x="185.629091" xlink:href="#m9fd0b8c5ac" y="224.64"/>
      </g>
     </g>
     <g id="text_2">
      <!-- $\mathdefault{10^{-1}}$ -->
      <g transform="translate(172.909091 240.47125)scale(0.12 -0.12)">
       <use transform="translate(0 0.526563)" xlink:href="#Charter-49"/>
       <use transform="translate(55.599991 0.526563)" xlink:href="#Charter-48"/>
       <use transform="translate(112.041622 34.192188)scale(0.7)" xlink:href="#Charter-8722"/>
       <use transform="translate(170.351614 34.192188)scale(0.7)" xlink:href="#Charter-49"/>
      </g>
     </g>
    </g>
    <g id="xtick_3">
     <g id="line2d_5">
      <path clip-path="url(#p785daf5c59)" d="M 270.174545 224.64 
L 270.174545 7.2 
" style="fill:none;stroke:#b0b0b0;stroke-linecap:square;stroke-opacity:0.3;stroke-width:0.8;"/>
     </g>
     <g id="line2d_6">
      <g>
       <use style="stroke:#000000;stroke-width:0.8;" x="270.174545" xlink:href="#m9fd0b8c5ac" y="224.64"/>
      </g>
     </g>
     <g id="text_3">
      <!-- $\mathdefault{10^{0}}$ -->
      <g transform="translate(260.934545 240.47125)scale(0.12 -0.12)">
       <use transform="translate(0 0.526563)" xlink:href="#Charter-49"/>
       <use transform="translate(55.599991 0.526563)" xlink:href="#Charter-48"/>
       <use transform="translate(112.041622 34.192188)scale(0.7)" xlink:href="#Charter-48"/>
      </g>
     </g>
    </g>
    <g id="xtick_4">
     <g id="line2d_7">
      <path clip-path="url(#p785daf5c59)" d="M 354.72 224.64 
L 354.72 7.2 
" style="fill:none;stroke:#b0b0b0;stroke-linecap:square;stroke-opacity:0.3;stroke-width:0.8;"/>
     </g>
     <g id="line2d_8">
      <g>
       <use style="stroke:#000000;stroke-width:0.8;" x="354.72" xlink:href="#m9fd0b8c5ac" y="224.64"/>
      </g>
     </g>
     <g id="text_4">
      <!-- $\mathdefault{10^{1}}$ -->
      <g transform="translate(345.48 240.47125)scale(0.12 -0.12)">
       <use transform="translate(0 0.526563)" xlink:href="#Charter-49"/>
       <use transform="translate(55.599991 0.526563)" xlink:href="#Charter-48"/>
       <use transform="translate(112.041622 34.192188)scale(0.7)" xlink:href="#Charter-49"/>
      </g>
     </g>
    </g>
    <g id="xtick_5">
     <g id="line2d_9">
      <path clip-path="url(#p785daf5c59)" d="M 439.265455 224.64 
L 439.265455 7.2 
" style="fill:none;stroke:#b0b0b0;stroke-linecap:square;stroke-opacity:0.3;stroke-width:0.8;"/>
     </g>
     <g id="line2d_10">
      <g>
       <use style="stroke:#000000;stroke-width:0.8;" x="439.265455" xlink:href="#m9fd0b8c5ac" y="224.64"/>
      </g>
     </g>
     <g id="text_5">
      <!-- $\mathdefault{10^{2}}$ -->
      <g transform="translate(430.025455 240.47125)scale(0.12 -0.12)">
       <use transform="translate(0 0.526563)" xlink:href="#Charter-49"/>
       <use transform="translate(55.599991 0.526563)" xlink:href="#Charter-48"/>
       <use transform="translate(112.041622 34.192188)scale(0.7)" xlink:href="#Charter-50"/>
      </g>
     </g>
    </g>
    <g id="xtick_6">
     <g id="line2d_11">
      <path clip-path="url(#p785daf5c59)" d="M 523.810909 224.64 
L 523.810909 7.2 
" style="fill:none;stroke:#b0b0b0;stroke-linecap:square;stroke-opacity:0.3;stroke-width:0.8;"/>
     </g>
     <g id="line2d_12">
      <g>
       <use style="stroke:#000000;stroke-width:0.8;" x="523.810909" xlink:href="#m9fd0b8c5ac" y="224.64"/>
      </g>
     </g>
     <g id="text_6">
      <!-- $\mathdefault{10^{3}}$ -->
      <defs>
       <path d="M 31.703125 35.296875 
Q 40.09375 34.703125 44.640625 30.390625 
Q 49.203125 26.09375 49.203125 19.203125 
Q 49.203125 15 47.390625 11.296875 
Q 45.59375 7.59375 42.296875 4.84375 
Q 39 2.09375 34.34375 0.5 
Q 29.703125 -1.09375 23.90625 -1.09375 
Q 19.40625 -1.09375 15.75 -0.09375 
Q 12.09375 0.90625 9.5 2.5 
Q 6.90625 4.09375 5.5 6.046875 
Q 4.09375 8 4.09375 9.90625 
Q 4.09375 12.09375 5.6875 13.546875 
Q 7.296875 15 9.703125 15 
Q 11.296875 15 12.703125 14.5 
L 15.796875 6 
Q 19.796875 3.59375 24.296875 3.59375 
Q 27.703125 3.59375 30.59375 4.796875 
Q 33.5 6 35.59375 8.140625 
Q 37.703125 10.296875 38.84375 13.1875 
Q 40 16.09375 40 19.40625 
Q 40 25.40625 36.203125 28.65625 
Q 32.40625 31.90625 25.203125 31.90625 
Q 24 31.90625 22.640625 31.796875 
Q 21.296875 31.703125 19.90625 31.5 
L 19.90625 37.40625 
Q 20.40625 37.40625 20.953125 37.34375 
Q 21.5 37.296875 22 37.296875 
Q 29.59375 37.296875 33.546875 40.6875 
Q 37.5 44.09375 37.5 50.203125 
Q 37.5 56.203125 34.046875 59.703125 
Q 30.59375 63.203125 24.796875 63.203125 
Q 19.5 63.203125 15.296875 60.296875 
L 15.296875 50.90625 
Q 13.59375 49.59375 11.203125 49.59375 
Q 8.796875 49.59375 7.296875 51.09375 
Q 5.796875 52.59375 5.796875 55 
Q 5.796875 57.5 7.34375 59.84375 
Q 8.90625 62.203125 11.65625 64.09375 
Q 14.40625 66 18.296875 67.140625 
Q 22.203125 68.296875 26.90625 68.296875 
Q 31.40625 68.296875 35.046875 67.09375 
Q 38.703125 65.90625 41.25 63.703125 
Q 43.796875 61.5 45.1875 58.390625 
Q 46.59375 55.296875 46.59375 51.5 
Q 46.59375 45.703125 42.84375 41.546875 
Q 39.09375 37.40625 31.703125 35.296875 
z
" id="Charter-51"/>
      </defs>
      <g transform="translate(514.570909 240.47125)scale(0.12 -0.12)">
       <use transform="translate(0 0.526563)" xlink:href="#Charter-49"/>
       <use transform="translate(55.599991 0.526563)" xlink:href="#Charter-48"/>
       <use transform="translate(112.041622 34.192188)scale(0.7)" xlink:href="#Charter-51"/>
      </g>
     </g>
    </g>
    <g id="xtick_7">
     <g id="line2d_13">
      <path clip-path="url(#p785daf5c59)" d="M 608.356364 224.64 
L 608.356364 7.2 
" style="fill:none;stroke:#b0b0b0;stroke-linecap:square;stroke-opacity:0.3;stroke-width:0.8;"/>
     </g>
     <g id="line2d_14">
      <g>
       <use style="stroke:#000000;stroke-width:0.8;" x="608.356364" xlink:href="#m9fd0b8c5ac" y="224.64"/>
      </g>
     </g>
     <g id="text_7">
      <!-- $\mathdefault{10^{4}}$ -->
      <defs>
       <path d="M 42.59375 67.703125 
L 42.59375 25.90625 
L 53.90625 25.90625 
L 53.90625 19.40625 
L 42.59375 19.40625 
L 42.59375 -3.703125 
L 34.90625 -3.703125 
L 34.90625 19.40625 
L 2.703125 19.40625 
L 2.703125 25.90625 
L 36.796875 67.703125 
z
M 10.203125 25.90625 
L 34.90625 25.90625 
L 34.90625 56.796875 
z
" id="Charter-52"/>
      </defs>
      <g transform="translate(599.116364 240.47125)scale(0.12 -0.12)">
       <use transform="translate(0 0.942188)" xlink:href="#Charter-49"/>
       <use transform="translate(55.599991 0.942188)" xlink:href="#Charter-48"/>
       <use transform="translate(112.041622 34.607813)scale(0.7)" xlink:href="#Charter-52"/>
      </g>
     </g>
    </g>
    <g id="xtick_8">
     <g id="line2d_15">
      <defs>
       <path d="M 0 0 
L 0 2 
" id="m5b82374e6c" style="stroke:#000000;stroke-width:0.6;"/>
      </defs>
      <g>
       <use style="stroke:#000000;stroke-width:0.6;" x="82.327333" xlink:href="#m5b82374e6c" y="224.64"/>
      </g>
     </g>
    </g>
    <g id="xtick_9">
     <g id="line2d_16">
      <g>
       <use style="stroke:#000000;stroke-width:0.6;" x="87.98738" xlink:href="#m5b82374e6c" y="224.64"/>
      </g>
     </g>
    </g>
    <g id="xtick_10">
     <g id="line2d_17">
      <g>
       <use style="stroke:#000000;stroke-width:0.6;" x="92.890335" xlink:href="#m5b82374e6c" y="224.64"/>
      </g>
     </g>
    </g>
    <g id="xtick_11">
     <g id="line2d_18">
      <g>
       <use style="stroke:#000000;stroke-width:0.6;" x="97.215049" xlink:href="#m5b82374e6c" y="224.64"/>
      </g>
     </g>
    </g>
    <g id="xtick_12">
     <g id="line2d_19">
      <g>
       <use style="stroke:#000000;stroke-width:0.6;" x="126.534354" xlink:href="#m5b82374e6c" y="224.64"/>
      </g>
     </g>
    </g>
    <g id="xtick_13">
     <g id="line2d_20">
      <g>
       <use style="stroke:#000000;stroke-width:0.6;" x="141.42207" xlink:href="#m5b82374e6c" y="224.64"/>
      </g>
     </g>
    </g>
    <g id="xtick_14">
     <g id="line2d_21">
      <g>
       <use style="stroke:#000000;stroke-width:0.6;" x="151.985072" xlink:href="#m5b82374e6c" y="224.64"/>
      </g>
     </g>
    </g>
    <g id="xtick_15">
     <g id="line2d_22">
      <g>
       <use style="stroke:#000000;stroke-width:0.6;" x="160.178373" xlink:href="#m5b82374e6c" y="224.64"/>
      </g>
     </g>
    </g>
    <g id="xtick_16">
     <g id="line2d_23">
      <g>
       <use style="stroke:#000000;stroke-width:0.6;" x="166.872788" xlink:href="#m5b82374e6c" y="224.64"/>
      </g>
     </g>
    </g>
    <g id="xtick_17">
     <g id="line2d_24">
      <g>
       <use style="stroke:#000000;stroke-width:0.6;" x="172.532834" xlink:href="#m5b82374e6c" y="224.64"/>
      </g>
     </g>
    </g>
    <g id="xtick_18">
     <g id="line2d_25">
      <g>
       <use style="stroke:#000000;stroke-width:0.6;" x="177.43579" xlink:href="#m5b82374e6c" y="224.64"/>
      </g>
     </g>
    </g>
    <g id="xtick_19">
     <g id="line2d_26">
      <g>
       <use style="stroke:#000000;stroke-width:0.6;" x="181.760503" xlink:href="#m5b82374e6c" y="224.64"/>
      </g>
     </g>
    </g>
    <g id="xtick_20">
     <g id="line2d_27">
      <g>
       <use style="stroke:#000000;stroke-width:0.6;" x="211.079809" xlink:href="#m5b82374e6c" y="224.64"/>
      </g>
     </g>
    </g>
    <g id="xtick_21">
     <g id="line2d_28">
      <g>
       <use style="stroke:#000000;stroke-width:0.6;" x="225.967524" xlink:href="#m5b82374e6c" y="224.64"/>
      </g>
     </g>
    </g>
    <g id="xtick_22">
     <g id="line2d_29">
      <g>
       <use style="stroke:#000000;stroke-width:0.6;" x="236.530527" xlink:href="#m5b82374e6c" y="224.64"/>
      </g>
     </g>
    </g>
    <g id="xtick_23">
     <g id="line2d_30">
      <g>
       <use style="stroke:#000000;stroke-width:0.6;" x="244.723828" xlink:href="#m5b82374e6c" y="224.64"/>
      </g>
     </g>
    </g>
    <g id="xtick_24">
     <g id="line2d_31">
      <g>
       <use style="stroke:#000000;stroke-width:0.6;" x="251.418242" xlink:href="#m5b82374e6c" y="224.64"/>
      </g>
     </g>
    </g>
    <g id="xtick_25">
     <g id="line2d_32">
      <g>
       <use style="stroke:#000000;stroke-width:0.6;" x="257.078289" xlink:href="#m5b82374e6c" y="224.64"/>
      </g>
     </g>
    </g>
    <g id="xtick_26">
     <g id="line2d_33">
      <g>
       <use style="stroke:#000000;stroke-width:0.6;" x="261.981244" xlink:href="#m5b82374e6c" y="224.64"/>
      </g>
     </g>
    </g>
    <g id="xtick_27">
     <g id="line2d_34">
      <g>
       <use style="stroke:#000000;stroke-width:0.6;" x="266.305958" xlink:href="#m5b82374e6c" y="224.64"/>
      </g>
     </g>
    </g>
    <g id="xtick_28">
     <g id="line2d_35">
      <g>
       <use style="stroke:#000000;stroke-width:0.6;" x="295.625263" xlink:href="#m5b82374e6c" y="224.64"/>
      </g>
     </g>
    </g>
    <g id="xtick_29">
     <g id="line2d_36">
      <g>
       <use style="stroke:#000000;stroke-width:0.6;" x="310.512979" xlink:href="#m5b82374e6c" y="224.64"/>
      </g>
     </g>
    </g>
    <g id="xtick_30">
     <g id="line2d_37">
      <g>
       <use style="stroke:#000000;stroke-width:0.6;" x="321.075981" xlink:href="#m5b82374e6c" y="224.64"/>
      </g>
     </g>
    </g>
    <g id="xtick_31">
     <g id="line2d_38">
      <g>
       <use style="stroke:#000000;stroke-width:0.6;" x="329.269282" xlink:href="#m5b82374e6c" y="224.64"/>
      </g>
     </g>
    </g>
    <g id="xtick_32">
     <g id="line2d_39">
      <g>
       <use style="stroke:#000000;stroke-width:0.6;" x="335.963697" xlink:href="#m5b82374e6c" y="224.64"/>
      </g>
     </g>
    </g>
    <g id="xtick_33">
     <g id="line2d_40">
      <g>
       <use style="stroke:#000000;stroke-width:0.6;" x="341.623743" xlink:href="#m5b82374e6c" y="224.64"/>
      </g>
     </g>
    </g>
    <g id="xtick_34">
     <g id="line2d_41">
      <g>
       <use style="stroke:#000000;stroke-width:0.6;" x="346.526699" xlink:href="#m5b82374e6c" y="224.64"/>
      </g>
     </g>
    </g>
    <g id="xtick_35">
     <g id="line2d_42">
      <g>
       <use style="stroke:#000000;stroke-width:0.6;" x="350.851412" xlink:href="#m5b82374e6c" y="224.64"/>
      </g>
     </g>
    </g>
    <g id="xtick_36">
     <g id="line2d_43">
      <g>
       <use style="stroke:#000000;stroke-width:0.6;" x="380.170718" xlink:href="#m5b82374e6c" y="224.64"/>
      </g>
     </g>
    </g>
    <g id="xtick_37">
     <g id="line2d_44">
      <g>
       <use style="stroke:#000000;stroke-width:0.6;" x="395.058433" xlink:href="#m5b82374e6c" y="224.64"/>
      </g>
     </g>
    </g>
    <g id="xtick_38">
     <g id="line2d_45">
      <g>
       <use style="stroke:#000000;stroke-width:0.6;" x="405.621436" xlink:href="#m5b82374e6c" y="224.64"/>
      </g>
     </g>
    </g>
    <g id="xtick_39">
     <g id="line2d_46">
      <g>
       <use style="stroke:#000000;stroke-width:0.6;" x="413.814737" xlink:href="#m5b82374e6c" y="224.64"/>
      </g>
     </g>
    </g>
    <g id="xtick_40">
     <g id="line2d_47">
      <g>
       <use style="stroke:#000000;stroke-width:0.6;" x="420.509151" xlink:href="#m5b82374e6c" y="224.64"/>
      </g>
     </g>
    </g>
    <g id="xtick_41">
     <g id="line2d_48">
      <g>
       <use style="stroke:#000000;stroke-width:0.6;" x="426.169198" xlink:href="#m5b82374e6c" y="224.64"/>
      </g>
     </g>
    </g>
    <g id="xtick_42">
     <g id="line2d_49">
      <g>
       <use style="stroke:#000000;stroke-width:0.6;" x="431.072153" xlink:href="#m5b82374e6c" y="224.64"/>
      </g>
     </g>
    </g>
    <g id="xtick_43">
     <g id="line2d_50">
      <g>
       <use style="stroke:#000000;stroke-width:0.6;" x="435.396867" xlink:href="#m5b82374e6c" y="224.64"/>
      </g>
     </g>
    </g>
    <g id="xtick_44">
     <g id="line2d_51">
      <g>
       <use style="stroke:#000000;stroke-width:0.6;" x="464.716172" xlink:href="#m5b82374e6c" y="224.64"/>
      </g>
     </g>
    </g>
    <g id="xtick_45">
     <g id="line2d_52">
      <g>
       <use style="stroke:#000000;stroke-width:0.6;" x="479.603888" xlink:href="#m5b82374e6c" y="224.64"/>
      </g>
     </g>
    </g>
    <g id="xtick_46">
     <g id="line2d_53">
      <g>
       <use style="stroke:#000000;stroke-width:0.6;" x="490.16689" xlink:href="#m5b82374e6c" y="224.64"/>
      </g>
     </g>
    </g>
    <g id="xtick_47">
     <g id="line2d_54">
      <g>
       <use style="stroke:#000000;stroke-width:0.6;" x="498.360191" xlink:href="#m5b82374e6c" y="224.64"/>
      </g>
     </g>
    </g>
    <g id="xtick_48">
     <g id="line2d_55">
      <g>
       <use style="stroke:#000000;stroke-width:0.6;" x="505.054606" xlink:href="#m5b82374e6c" y="224.64"/>
      </g>
     </g>
    </g>
    <g id="xtick_49">
     <g id="line2d_56">
      <g>
       <use style="stroke:#000000;stroke-width:0.6;" x="510.714652" xlink:href="#m5b82374e6c" y="224.64"/>
      </g>
     </g>
    </g>
    <g id="xtick_50">
     <g id="line2d_57">
      <g>
       <use style="stroke:#000000;stroke-width:0.6;" x="515.617608" xlink:href="#m5b82374e6c" y="224.64"/>
      </g>
     </g>
    </g>
    <g id="xtick_51">
     <g id="line2d_58">
      <g>
       <use style="stroke:#000000;stroke-width:0.6;" x="519.942321" xlink:href="#m5b82374e6c" y="224.64"/>
      </g>
     </g>
    </g>
    <g id="xtick_52">
     <g id="line2d_59">
      <g>
       <use style="stroke:#000000;stroke-width:0.6;" x="549.261627" xlink:href="#m5b82374e6c" y="224.64"/>
      </g>
     </g>
    </g>
    <g id="xtick_53">
     <g id="line2d_60">
      <g>
       <use style="stroke:#000000;stroke-width:0.6;" x="564.149342" xlink:href="#m5b82374e6c" y="224.64"/>
      </g>
     </g>
    </g>
    <g id="xtick_54">
     <g id="line2d_61">
      <g>
       <use style="stroke:#000000;stroke-width:0.6;" x="574.712345" xlink:href="#m5b82374e6c" y="224.64"/>
      </g>
     </g>
    </g>
    <g id="xtick_55">
     <g id="line2d_62">
      <g>
       <use style="stroke:#000000;stroke-width:0.6;" x="582.905646" xlink:href="#m5b82374e6c" y="224.64"/>
      </g>
     </g>
    </g>
    <g id="xtick_56">
     <g id="line2d_63">
      <g>
       <use style="stroke:#000000;stroke-width:0.6;" x="589.60006" xlink:href="#m5b82374e6c" y="224.64"/>
      </g>
     </g>
    </g>
    <g id="xtick_57">
     <g id="line2d_64">
      <g>
       <use style="stroke:#000000;stroke-width:0.6;" x="595.260107" xlink:href="#m5b82374e6c" y="224.64"/>
      </g>
     </g>
    </g>
    <g id="xtick_58">
     <g id="line2d_65">
      <g>
       <use style="stroke:#000000;stroke-width:0.6;" x="600.163063" xlink:href="#m5b82374e6c" y="224.64"/>
      </g>
     </g>
    </g>
    <g id="xtick_59">
     <g id="line2d_66">
      <g>
       <use style="stroke:#000000;stroke-width:0.6;" x="604.487776" xlink:href="#m5b82374e6c" y="224.64"/>
      </g>
     </g>
    </g>
    <g id="text_8">
     <!-- $\gamma$ [$1/s$] -->
     <defs>
      <path d="M 29.5 -19.578125 
Q 29.5 -17.328125 30.5 -13.03125 
Q 31.5 -8.734375 32.9375 -3.875 
Q 34.375 0.984375 35.40625 4.109375 
Q 35.796875 9.078125 35.796875 11.625 
Q 35.796875 18.0625 34.515625 23.609375 
Q 33.25 29.15625 29.734375 32.890625 
Q 26.21875 36.625 19.921875 36.625 
Q 16.609375 36.625 13.3125 35.203125 
Q 10.015625 33.796875 7.640625 31.25 
Q 5.28125 28.71875 4.390625 25.484375 
Q 4.203125 24.90625 3.609375 24.90625 
L 2.390625 24.90625 
Q 1.609375 24.90625 1.609375 25.78125 
L 1.609375 26.125 
Q 2.734375 30.609375 5.59375 34.78125 
Q 8.453125 38.96875 12.578125 41.578125 
Q 16.703125 44.1875 21.296875 44.1875 
Q 25.984375 44.1875 29.390625 41.015625 
Q 32.8125 37.84375 34.859375 32.953125 
Q 36.921875 28.078125 37.8125 23.09375 
Q 38.71875 18.109375 38.71875 13.71875 
Q 43.75 27.390625 50 39.59375 
L 51.515625 42.828125 
Q 51.8125 43.109375 52.203125 43.109375 
L 53.421875 43.109375 
Q 54.203125 43.109375 54.203125 42.1875 
Q 54.203125 42 54 41.609375 
L 52.484375 38.484375 
Q 48.140625 29.828125 44.5 20.9375 
Q 40.875 12.0625 38.28125 3.8125 
Q 37.890625 0.4375 36.78125 -5.421875 
Q 35.6875 -11.28125 34.125 -16.328125 
Q 32.5625 -21.390625 31 -21.578125 
Q 29.5 -21.578125 29.5 -19.578125 
z
" id="Cmmi10-176"/>
      <path id="Charter-32"/>
      <path d="M 37.59375 70.796875 
L 37.59375 66.5 
L 21.796875 66.5 
L 21.796875 -9 
L 37.59375 -9 
L 37.59375 -13.203125 
L 13.90625 -13.203125 
L 13.90625 70.796875 
z
" id="Charter-91"/>
      <path d="M 46 67.09375 
L 3.203125 -9.296875 
L -2.796875 -9.296875 
L 39.90625 67.09375 
z
" id="Charter-47"/>
      <path d="M 26.59375 36.90625 
C 30.296875 37.09375 32.40625 39.203125 32.40625 42 
C 32.40625 45.5 28.796875 48.203125 23.09375 48.203125 
C 13.5 48.203125 5.90625 41.296875 5.90625 33.09375 
C 5.90625 27.5 9.703125 24.796875 15.40625 20.5 
C 19.59375 17.296875 22.296875 15 22.296875 11.203125 
C 22.296875 5.90625 18.90625 2.703125 13.203125 2.703125 
C 10.09375 2.703125 7.59375 3.90625 6 6.203125 
L 7.796875 11.203125 
C 6.203125 12.40625 4.90625 13 3.5 13 
C 0.40625 13 -1.703125 11 -1.703125 7.90625 
C -1.703125 2.703125 3.203125 -0.90625 11.59375 -0.90625 
C 22.5 -0.90625 29.90625 5.796875 29.90625 14.5 
C 29.90625 20.5 25.796875 23.09375 19.796875 27.703125 
C 15.09375 31.296875 12.296875 33.40625 12.296875 37 
C 12.296875 40.90625 15.296875 43.703125 19.296875 43.703125 
C 20.40625 43.703125 21.40625 43.40625 22.40625 42.703125 
z
" id="Charter-Italic-115"/>
      <path d="M 28.203125 70.796875 
L 28.203125 -13.296875 
L 4.59375 -13.296875 
L 4.59375 -9 
L 20.40625 -9 
L 20.40625 66.5 
L 4.59375 66.5 
L 4.59375 70.796875 
z
" id="Charter-93"/>
     </defs>
     <g transform="translate(324.22 261.765)scale(0.2 -0.2)">
      <use transform="translate(0 0.203125)" xlink:href="#Cmmi10-176"/>
      <use transform="translate(51.708984 0.203125)" xlink:href="#Charter-32"/>
      <use transform="translate(79.508972 0.203125)" xlink:href="#Charter-91"/>
      <use transform="translate(121.608963 0.203125)" xlink:href="#Charter-49"/>
      <use transform="translate(177.208954 0.203125)" xlink:href="#Charter-47"/>
      <use transform="translate(225.308945 0.203125)" xlink:href="#Charter-Italic-115"/>
      <use transform="translate(262.308929 0.203125)" xlink:href="#Charter-93"/>
     </g>
    </g>
   </g>
   <g id="matplotlib.axis_2">
    <g id="ytick_1">
     <g id="line2d_67">
      <path clip-path="url(#p785daf5c59)" d="M 75.72 204.764228 
L 633.72 204.764228 
" style="fill:none;stroke:#b0b0b0;stroke-linecap:square;stroke-opacity:0.3;stroke-width:0.8;"/>
     </g>
     <g id="line2d_68">
      <defs>
       <path d="M 0 0 
L -3.5 0 
" id="m05cd889a83" style="stroke:#000000;stroke-width:0.8;"/>
      </defs>
      <g>
       <use style="stroke:#000000;stroke-width:0.8;" x="75.72" xlink:href="#m05cd889a83" y="204.764228"/>
      </g>
     </g>
     <g id="text_9">
      <!-- $\mathdefault{10^{-14}}$ -->
      <g transform="translate(38.6 209.179853)scale(0.12 -0.12)">
       <use transform="translate(0 0.526563)" xlink:href="#Charter-49"/>
       <use transform="translate(55.599991 0.526563)" xlink:href="#Charter-48"/>
       <use transform="translate(112.041622 34.192188)scale(0.7)" xlink:href="#Charter-8722"/>
       <use transform="translate(170.351614 34.192188)scale(0.7)" xlink:href="#Charter-49"/>
       <use transform="translate(209.271607 34.192188)scale(0.7)" xlink:href="#Charter-52"/>
      </g>
     </g>
    </g>
    <g id="ytick_2">
     <g id="line2d_69">
      <path clip-path="url(#p785daf5c59)" d="M 75.72 178.789197 
L 633.72 178.789197 
" style="fill:none;stroke:#b0b0b0;stroke-linecap:square;stroke-opacity:0.3;stroke-width:0.8;"/>
     </g>
     <g id="line2d_70">
      <g>
       <use style="stroke:#000000;stroke-width:0.8;" x="75.72" xlink:href="#m05cd889a83" y="178.789197"/>
      </g>
     </g>
     <g id="text_10">
      <!-- $\mathdefault{10^{-12}}$ -->
      <g transform="translate(38.6 183.204822)scale(0.12 -0.12)">
       <use transform="translate(0 0.526563)" xlink:href="#Charter-49"/>
       <use transform="translate(55.599991 0.526563)" xlink:href="#Charter-48"/>
       <use transform="translate(112.041622 34.192188)scale(0.7)" xlink:href="#Charter-8722"/>
       <use transform="translate(170.351614 34.192188)scale(0.7)" xlink:href="#Charter-49"/>
       <use transform="translate(209.271607 34.192188)scale(0.7)" xlink:href="#Charter-50"/>
      </g>
     </g>
    </g>
    <g id="ytick_3">
     <g id="line2d_71">
      <path clip-path="url(#p785daf5c59)" d="M 75.72 152.814166 
L 633.72 152.814166 
" style="fill:none;stroke:#b0b0b0;stroke-linecap:square;stroke-opacity:0.3;stroke-width:0.8;"/>
     </g>
     <g id="line2d_72">
      <g>
       <use style="stroke:#000000;stroke-width:0.8;" x="75.72" xlink:href="#m05cd889a83" y="152.814166"/>
      </g>
     </g>
     <g id="text_11">
      <!-- $\mathdefault{10^{-10}}$ -->
      <g transform="translate(38.6 157.229791)scale(0.12 -0.12)">
       <use transform="translate(0 0.526563)" xlink:href="#Charter-49"/>
       <use transform="translate(55.599991 0.526563)" xlink:href="#Charter-48"/>
       <use transform="translate(112.041622 34.192188)scale(0.7)" xlink:href="#Charter-8722"/>
       <use transform="translate(170.351614 34.192188)scale(0.7)" xlink:href="#Charter-49"/>
       <use transform="translate(209.271607 34.192188)scale(0.7)" xlink:href="#Charter-48"/>
      </g>
     </g>
    </g>
    <g id="ytick_4">
     <g id="line2d_73">
      <path clip-path="url(#p785daf5c59)" d="M 75.72 126.839135 
L 633.72 126.839135 
" style="fill:none;stroke:#b0b0b0;stroke-linecap:square;stroke-opacity:0.3;stroke-width:0.8;"/>
     </g>
     <g id="line2d_74">
      <g>
       <use style="stroke:#000000;stroke-width:0.8;" x="75.72" xlink:href="#m05cd889a83" y="126.839135"/>
      </g>
     </g>
     <g id="text_12">
      <!-- $\mathdefault{10^{-8}}$ -->
      <defs>
       <path d="M 32.09375 36.90625 
Q 36 39.5 38.046875 43.09375 
Q 40.09375 46.703125 40.09375 50.703125 
Q 40.09375 56.703125 36.796875 60.203125 
Q 33.5 63.703125 28 63.703125 
Q 25.40625 63.703125 23.203125 62.796875 
Q 21 61.90625 19.34375 60.296875 
Q 17.703125 58.703125 16.796875 56.546875 
Q 15.90625 54.40625 15.90625 51.90625 
Q 15.90625 46.90625 19.90625 43.34375 
Q 23.90625 39.796875 32.09375 36.90625 
z
M 36.296875 35.09375 
Q 43.40625 32.59375 47 28.1875 
Q 50.59375 23.796875 50.59375 17.90625 
Q 50.59375 13.90625 48.9375 10.34375 
Q 47.296875 6.796875 44.25 4.140625 
Q 41.203125 1.5 36.953125 -0.046875 
Q 32.703125 -1.59375 27.5 -1.59375 
Q 22.09375 -1.59375 17.796875 -0.140625 
Q 13.5 1.296875 10.546875 3.84375 
Q 7.59375 6.40625 6 9.953125 
Q 4.40625 13.5 4.40625 17.703125 
Q 4.40625 29.703125 18.09375 35 
Q 7.59375 39.40625 7.59375 50.40625 
Q 7.59375 54.40625 9.09375 57.703125 
Q 10.59375 61 13.296875 63.390625 
Q 16 65.796875 19.796875 67.140625 
Q 23.59375 68.5 28.296875 68.5 
Q 32.796875 68.5 36.390625 67.25 
Q 40 66 42.546875 63.75 
Q 45.09375 61.5 46.4375 58.390625 
Q 47.796875 55.296875 47.796875 51.703125 
Q 47.796875 46.703125 44.84375 42.34375 
Q 41.90625 38 36.296875 35.09375 
z
M 21.90625 32.90625 
Q 16.796875 30.203125 14.4375 26.796875 
Q 12.09375 23.40625 12.09375 18.296875 
Q 12.09375 11.703125 16.34375 7.640625 
Q 20.59375 3.59375 27.796875 3.59375 
Q 34.296875 3.59375 38.140625 7.25 
Q 42 10.90625 42 16.90625 
Q 42 19.90625 40.75 22.046875 
Q 39.5 24.203125 37 26 
Q 34.5 27.796875 30.703125 29.390625 
Q 26.90625 31 21.90625 32.90625 
z
" id="Charter-56"/>
      </defs>
      <g transform="translate(43.28 131.25476)scale(0.12 -0.12)">
       <use transform="translate(0 0.384375)" xlink:href="#Charter-49"/>
       <use transform="translate(55.599991 0.384375)" xlink:href="#Charter-48"/>
       <use transform="translate(112.041622 34.05)scale(0.7)" xlink:href="#Charter-8722"/>
       <use transform="translate(170.351614 34.05)scale(0.7)" xlink:href="#Charter-56"/>
      </g>
     </g>
    </g>
    <g id="ytick_5">
     <g id="line2d_75">
      <path clip-path="url(#p785daf5c59)" d="M 75.72 100.864104 
L 633.72 100.864104 
" style="fill:none;stroke:#b0b0b0;stroke-linecap:square;stroke-opacity:0.3;stroke-width:0.8;"/>
     </g>
     <g id="line2d_76">
      <g>
       <use style="stroke:#000000;stroke-width:0.8;" x="75.72" xlink:href="#m05cd889a83" y="100.864104"/>
      </g>
     </g>
     <g id="text_13">
      <!-- $\mathdefault{10^{-6}}$ -->
      <defs>
       <path d="M 44.296875 65.59375 
L 44 65.59375 
Q 31.90625 65.59375 24.453125 58.6875 
Q 17 51.796875 14.703125 38.40625 
Q 22.59375 44.5 31.703125 44.5 
Q 36.203125 44.5 40 42.890625 
Q 43.796875 41.296875 46.546875 38.390625 
Q 49.296875 35.5 50.890625 31.5 
Q 52.5 27.5 52.5 22.703125 
Q 52.5 17.59375 50.640625 13.25 
Q 48.796875 8.90625 45.546875 5.703125 
Q 42.296875 2.5 37.84375 0.640625 
Q 33.40625 -1.203125 28.296875 -1.203125 
Q 23.203125 -1.203125 18.953125 0.796875 
Q 14.703125 2.796875 11.59375 6.5 
Q 8.5 10.203125 6.75 15.546875 
Q 5 20.90625 5 27.703125 
Q 5 37.296875 7.703125 45.09375 
Q 10.40625 52.90625 15.453125 58.546875 
Q 20.5 64.203125 27.796875 67.5 
Q 35.09375 70.796875 44.296875 71.40625 
z
M 14.5 34 
Q 14.296875 32.40625 14.296875 30.84375 
Q 14.296875 29.296875 14.296875 27.90625 
Q 14.296875 15.90625 18.140625 9.75 
Q 22 3.59375 29.09375 3.59375 
Q 32.203125 3.59375 34.84375 4.9375 
Q 37.5 6.296875 39.390625 8.6875 
Q 41.296875 11.09375 42.34375 14.4375 
Q 43.40625 17.796875 43.40625 21.796875 
Q 43.40625 29.59375 39.40625 34.046875 
Q 35.40625 38.5 29 38.5 
Q 20.59375 38.5 14.5 34 
z
" id="Charter-54"/>
      </defs>
      <g transform="translate(43.28 105.279729)scale(0.12 -0.12)">
       <use transform="translate(0 0.35)" xlink:href="#Charter-49"/>
       <use transform="translate(55.599991 0.35)" xlink:href="#Charter-48"/>
       <use transform="translate(112.041622 34.015625)scale(0.7)" xlink:href="#Charter-8722"/>
       <use transform="translate(170.351614 34.015625)scale(0.7)" xlink:href="#Charter-54"/>
      </g>
     </g>
    </g>
    <g id="ytick_6">
     <g id="line2d_77">
      <path clip-path="url(#p785daf5c59)" d="M 75.72 74.889072 
L 633.72 74.889072 
" style="fill:none;stroke:#b0b0b0;stroke-linecap:square;stroke-opacity:0.3;stroke-width:0.8;"/>
     </g>
     <g id="line2d_78">
      <g>
       <use style="stroke:#000000;stroke-width:0.8;" x="75.72" xlink:href="#m05cd889a83" y="74.889072"/>
      </g>
     </g>
     <g id="text_14">
      <!-- $\mathdefault{10^{-4}}$ -->
      <g transform="translate(43.28 79.304697)scale(0.12 -0.12)">
       <use transform="translate(0 0.942188)" xlink:href="#Charter-49"/>
       <use transform="translate(55.599991 0.942188)" xlink:href="#Charter-48"/>
       <use transform="translate(112.041622 34.607813)scale(0.7)" xlink:href="#Charter-8722"/>
       <use transform="translate(170.351614 34.607813)scale(0.7)" xlink:href="#Charter-52"/>
      </g>
     </g>
    </g>
    <g id="ytick_7">
     <g id="line2d_79">
      <path clip-path="url(#p785daf5c59)" d="M 75.72 48.914041 
L 633.72 48.914041 
" style="fill:none;stroke:#b0b0b0;stroke-linecap:square;stroke-opacity:0.3;stroke-width:0.8;"/>
     </g>
     <g id="line2d_80">
      <g>
       <use style="stroke:#000000;stroke-width:0.8;" x="75.72" xlink:href="#m05cd889a83" y="48.914041"/>
      </g>
     </g>
     <g id="text_15">
      <!-- $\mathdefault{10^{-2}}$ -->
      <g transform="translate(43.28 53.329666)scale(0.12 -0.12)">
       <use transform="translate(0 0.526563)" xlink:href="#Charter-49"/>
       <use transform="translate(55.599991 0.526563)" xlink:href="#Charter-48"/>
       <use transform="translate(112.041622 34.192188)scale(0.7)" xlink:href="#Charter-8722"/>
       <use transform="translate(170.351614 34.192188)scale(0.7)" xlink:href="#Charter-50"/>
      </g>
     </g>
    </g>
    <g id="ytick_8">
     <g id="line2d_81">
      <path clip-path="url(#p785daf5c59)" d="M 75.72 22.93901 
L 633.72 22.93901 
" style="fill:none;stroke:#b0b0b0;stroke-linecap:square;stroke-opacity:0.3;stroke-width:0.8;"/>
     </g>
     <g id="line2d_82">
      <g>
       <use style="stroke:#000000;stroke-width:0.8;" x="75.72" xlink:href="#m05cd889a83" y="22.93901"/>
      </g>
     </g>
     <g id="text_16">
      <!-- $\mathdefault{10^{0}}$ -->
      <g transform="translate(50.24 27.354635)scale(0.12 -0.12)">
       <use transform="translate(0 0.526563)" xlink:href="#Charter-49"/>
       <use transform="translate(55.599991 0.526563)" xlink:href="#Charter-48"/>
       <use transform="translate(112.041622 34.192188)scale(0.7)" xlink:href="#Charter-48"/>
      </g>
     </g>
    </g>
    <g id="text_17">
     <!-- $\frac{dT}{dt}$ [$K/s$] -->
     <defs>
      <path d="M 47.5 73.59375 
L 32.203125 70.703125 
L 32.203125 67.90625 
L 41 66.90625 
L 37.5 46.90625 
C 34.796875 48.09375 32.203125 48.59375 29.5 48.59375 
C 21.203125 48.59375 12.40625 43.59375 7 35.09375 
C 3.796875 30 2.09375 23.796875 2.09375 17 
C 2.09375 5.59375 7.203125 -0.90625 15.203125 -0.90625 
C 20.5 -0.90625 25.90625 2.203125 30.796875 8.40625 
C 30.703125 7.703125 30.703125 7 30.703125 6.40625 
C 30.703125 1.5 32.796875 -0.703125 37.40625 -0.703125 
C 40 -0.703125 44.203125 0.203125 49.703125 2.203125 
L 49.703125 5.203125 
C 46.703125 4.5 44.5 4.09375 43.203125 4.09375 
C 40.203125 4.09375 38.796875 5.5 38.796875 8.296875 
C 38.796875 9.59375 39 11.5 39.40625 13.703125 
L 50.09375 73.59375 
z
M 31.296875 44.40625 
L 36.09375 38.703125 
L 31.59375 13.296875 
C 27.09375 7.59375 22.5 4.796875 18.796875 4.796875 
C 13.59375 4.796875 10.203125 9.203125 10.203125 17.09375 
C 10.203125 33.796875 19.90625 44.703125 28.90625 44.703125 
C 29.59375 44.703125 30.40625 44.5 31.296875 44.40625 
z
" id="Charter-Italic-100"/>
      <path d="M 7.203125 67.09375 
L 4.296875 52.203125 
L 9.796875 52.203125 
L 13 61.5 
L 14.703125 63 
L 28.796875 63 
L 18.09375 5.796875 
L 16.5 4.40625 
L 10.09375 3.796875 
L 10.09375 0 
L 34.5 0 
L 34.5 3.796875 
L 28 4.40625 
L 26.703125 5.796875 
L 37.703125 63 
L 51.90625 63 
L 53 61.5 
L 52.59375 52.203125 
L 58 52.203125 
L 61 67.09375 
z
" id="Charter-Italic-84"/>
      <path d="M 16.703125 57.90625 
L 11.703125 47.90625 
L 4.40625 44.703125 
L 4.40625 41.703125 
L 10.59375 42.203125 
L 5.203125 15.09375 
C 4.59375 12.296875 4.40625 10 4.40625 8.40625 
C 4.40625 2.296875 7.09375 -0.703125 12.796875 -0.703125 
C 16.296875 -0.703125 21.5 0.796875 28.203125 3.703125 
L 28.203125 6.90625 
C 24.203125 5.59375 21 4.90625 18.703125 4.90625 
C 14.703125 4.90625 12.59375 7.09375 12.59375 11.09375 
C 12.59375 12.203125 12.90625 13.703125 13.203125 15.5 
L 18.40625 42.203125 
L 33.59375 42.203125 
L 33.59375 46.5 
L 19.203125 46.5 
L 21.296875 57.90625 
z
" id="Charter-Italic-116"/>
      <path d="M 8.203125 67.09375 
L 8.203125 63.296875 
L 14.59375 62.796875 
L 15.703125 61.296875 
L 5 5.796875 
L 3.40625 4.40625 
L -3 3.796875 
L -3 0 
L 21.40625 0 
L 21.40625 3.796875 
L 14.90625 4.40625 
L 13.59375 5.796875 
L 18.203125 29.796875 
L 25.203125 29.796875 
L 36.796875 6.90625 
C 39.796875 1 41.296875 -0.40625 48.40625 -0.40625 
C 49.703125 -0.40625 52.796875 -0.296875 57.40625 0 
L 57.40625 3.796875 
C 56.703125 3.796875 56 3.796875 55.40625 3.796875 
C 49.40625 3.796875 47.703125 5.09375 45.59375 9.203125 
L 31.40625 36.796875 
L 57.703125 62.5 
L 66 63.09375 
L 66 67.09375 
L 41.796875 67.09375 
L 41.796875 63.203125 
L 48.796875 62.703125 
L 49.40625 61.09375 
L 21.90625 34 
L 19 34 
L 24.40625 61.296875 
L 26 62.796875 
L 32.5 63.296875 
L 32.5 67.09375 
z
" id="Charter-Italic-75"/>
     </defs>
     <g transform="translate(26.2 150.82)rotate(-90)scale(0.2 -0.2)">
      <use transform="translate(0 43.484375)scale(0.7)" xlink:href="#Charter-Italic-100"/>
      <use transform="translate(36.609991 43.484375)scale(0.7)" xlink:href="#Charter-Italic-84"/>
      <use transform="translate(8 -39.915625)scale(0.7)" xlink:href="#Charter-Italic-100"/>
      <use transform="translate(44.609991 -39.915625)scale(0.7)" xlink:href="#Charter-Italic-116"/>
      <use transform="translate(88.659981 0.553125)" xlink:href="#Charter-32"/>
      <use transform="translate(116.459969 0.553125)" xlink:href="#Charter-91"/>
      <use transform="translate(158.559959 0.553125)" xlink:href="#Charter-Italic-75"/>
      <use transform="translate(221.059944 0.553125)" xlink:href="#Charter-47"/>
      <use transform="translate(269.159935 0.553125)" xlink:href="#Charter-Italic-115"/>
      <use transform="translate(306.15992 0.553125)" xlink:href="#Charter-93"/>
      <path d="M 0 17.85 
L 0 24.1 
L 76.159981 24.1 
L 76.159981 17.85 
L 0 17.85 
z
"/>
     </g>
    </g>
   </g>
   <g id="line2d_83">
    <path clip-path="url(#p785daf5c59)" d="M 101.083636 172.933823 
L 527.679791 41.870025 
L 553.130343 34.050812 
L 568.018004 29.476853 
L 578.580978 26.231574 
L 586.774263 23.714339 
L 593.468666 21.657607 
L 599.128705 19.918664 
L 604.031655 18.412323 
L 608.356364 17.083636 
" style="fill:none;stroke:#c7254e;stroke-linecap:square;stroke-width:2;"/>
   </g>
   <g id="line2d_84">
    <path clip-path="url(#p785daf5c59)" d="M 101.083636 214.756364 
L 527.679791 83.692565 
L 553.130343 75.873353 
L 568.018004 71.299394 
L 578.580978 68.054114 
L 586.774263 65.536879 
L 593.468666 63.480147 
L 599.128705 61.741204 
L 604.031655 60.234864 
L 608.356364 58.906177 
" style="fill:none;stroke:#bbbbbb;stroke-linecap:square;stroke-width:2;"/>
   </g>
   <g id="patch_3">
    <path d="M 75.72 224.64 
L 75.72 7.2 
" style="fill:none;stroke:#000000;stroke-linecap:square;stroke-linejoin:miter;stroke-width:0.8;"/>
   </g>
   <g id="patch_4">
    <path d="M 633.72 224.64 
L 633.72 7.2 
" style="fill:none;stroke:#000000;stroke-linecap:square;stroke-linejoin:miter;stroke-width:0.8;"/>
   </g>
   <g id="patch_5">
    <path d="M 75.72 224.64 
L 633.72 224.64 
" style="fill:none;stroke:#000000;stroke-linecap:square;stroke-linejoin:miter;stroke-width:0.8;"/>
   </g>
   <g id="patch_6">
    <path d="M 75.72 7.2 
L 633.72 7.2 
" style="fill:none;stroke:#000000;stroke-linecap:square;stroke-linejoin:miter;stroke-width:0.8;"/>
   </g>
   <g id="legend_1">
    <g id="patch_7">
     <path d="M 86.92 66.525 
L 222.7225 66.525 
Q 225.9225 66.525 225.9225 63.325 
L 225.9225 18.4 
Q 225.9225 15.2 222.7225 15.2 
L 86.92 15.2 
Q 83.72 15.2 83.72 18.4 
L 83.72 63.325 
Q 83.72 66.525 86.92 66.525 
z
" style="fill:#ffffff;opacity:0.8;stroke:#cccccc;stroke-linejoin:miter;"/>
    </g>
    <g id="line2d_85">
     <path d="M 90.12 27.775 
L 122.12 27.775 
" style="fill:none;stroke:#c7254e;stroke-linecap:square;stroke-width:2;"/>
    </g>
    <g id="line2d_86"/>
    <g id="text_18">
     <!-- Air 300K -->
     <defs>
      <path d="M 35 67.90625 
L 59 5.296875 
L 65 4.09375 
L 65 0 
L 42.296875 0 
L 42.296875 4.09375 
L 48.5 4.59375 
L 49.203125 6 
L 42 25.09375 
L 18.40625 25.09375 
L 11.296875 6 
L 12.296875 4.59375 
L 18.796875 4.09375 
L 18.796875 0 
L -0.796875 0 
L -0.796875 4.09375 
L 5 5.296875 
L 28.40625 67.90625 
z
M 20.09375 29.703125 
L 40.296875 29.703125 
L 30 57.40625 
z
" id="Charter-65"/>
      <path d="M 15.40625 70.796875 
Q 17.796875 70.796875 19.5 69.09375 
Q 21.203125 67.40625 21.203125 65 
Q 21.203125 62.59375 19.5 60.9375 
Q 17.796875 59.296875 15.40625 59.296875 
Q 13 59.296875 11.296875 60.9375 
Q 9.59375 62.59375 9.59375 65 
Q 9.59375 67.5 11.296875 69.140625 
Q 13 70.796875 15.40625 70.796875 
z
M 18.796875 48.59375 
L 18.796875 5.703125 
L 20.59375 4.09375 
L 26 3.59375 
L 26 0 
L 3.5 0 
L 3.5 3.59375 
L 8.796875 4.09375 
L 10.5 5.703125 
L 10.5 41.90625 
L 3.5 41.90625 
L 3.5 45 
L 15 48.59375 
z
" id="Charter-105"/>
      <path d="M 3 3.59375 
L 8.296875 4.09375 
L 10.09375 5.703125 
L 10.09375 41.90625 
L 3 41.90625 
L 3 45 
L 14.59375 48.59375 
L 18.40625 48.59375 
L 18.40625 39.203125 
Q 21 41.90625 23.703125 44.296875 
Q 26.40625 46.703125 29.09375 48.90625 
Q 29.703125 49.09375 30.34375 49.09375 
Q 31 49.09375 31.59375 49.09375 
Q 34.59375 49.09375 37.59375 47.796875 
L 37.59375 39.203125 
L 34.40625 39.203125 
Q 32.40625 41.59375 29.296875 41.59375 
Q 24.59375 41.59375 18.40625 34.296875 
L 18.40625 5.703125 
L 20.09375 4.09375 
L 27.09375 3.59375 
L 27.09375 0 
L 3 0 
z
" id="Charter-114"/>
      <path d="M 3.296875 4.09375 
L 9 4.59375 
L 10.703125 6 
L 10.703125 61.09375 
L 9 62.5 
L 3.296875 63.09375 
L 3.296875 67.09375 
L 27.59375 67.09375 
L 27.59375 63.09375 
L 21.40625 62.5 
L 19.703125 61.09375 
L 19.703125 34 
L 23.5 34 
L 45.703125 61.09375 
L 45.09375 62.5 
L 39.5 63.09375 
L 39.5 67.09375 
L 60.296875 67.09375 
L 60.296875 63.09375 
L 53.703125 62.203125 
L 32.703125 37.203125 
L 55.40625 4.59375 
L 62.703125 4.09375 
L 62.703125 0 
L 46.203125 0 
L 46.203125 3 
L 27.09375 29.90625 
L 19.703125 29.90625 
L 19.703125 6 
L 21.40625 4.59375 
L 27.59375 4.09375 
L 27.59375 0 
L 3.296875 0 
z
" id="Charter-75"/>
     </defs>
     <g transform="translate(134.92 33.375)scale(0.16 -0.16)">
      <use xlink:href="#Charter-65"/>
      <use x="63.899994" xlink:href="#Charter-105"/>
      <use x="91.899979" xlink:href="#Charter-114"/>
      <use x="130.099976" xlink:href="#Charter-32"/>
      <use x="157.899963" xlink:href="#Charter-51"/>
      <use x="213.499954" xlink:href="#Charter-48"/>
      <use x="269.099945" xlink:href="#Charter-48"/>
      <use x="324.699936" xlink:href="#Charter-75"/>
     </g>
    </g>
    <g id="line2d_87">
     <path d="M 90.12 51.0375 
L 122.12 51.0375 
" style="fill:none;stroke:#bbbbbb;stroke-linecap:square;stroke-width:2;"/>
    </g>
    <g id="line2d_88"/>
    <g id="text_19">
     <!-- Steam 600K -->
     <defs>
      <path d="M 6 19.59375 
L 11.90625 19.59375 
L 13.09375 8.09375 
L 14.40625 6.40625 
Q 18.796875 4.09375 25.59375 4.09375 
Q 32.90625 4.09375 36.796875 7.4375 
Q 40.703125 10.796875 40.703125 16.09375 
Q 40.703125 19.203125 39.59375 21.25 
Q 38.5 23.296875 36.390625 24.84375 
Q 34.296875 26.40625 31.1875 27.75 
Q 28.09375 29.09375 24 30.90625 
Q 19.796875 32.703125 16.640625 34.390625 
Q 13.5 36.09375 11.390625 38.140625 
Q 9.296875 40.203125 8.1875 42.84375 
Q 7.09375 45.5 7.09375 49.09375 
Q 7.09375 53.296875 8.6875 56.84375 
Q 10.296875 60.40625 13.296875 62.953125 
Q 16.296875 65.5 20.59375 66.890625 
Q 24.90625 68.296875 30.203125 68.296875 
Q 38.5 68.296875 47.203125 65.5 
L 47.203125 50 
L 42 50 
L 40.5 59.5 
L 39 61.203125 
Q 35.203125 63.296875 30 63.296875 
Q 23.59375 63.296875 20 60 
Q 16.40625 56.703125 16.40625 51.203125 
Q 16.40625 48.703125 17.296875 46.890625 
Q 18.203125 45.09375 19.953125 43.59375 
Q 21.703125 42.09375 24.296875 40.84375 
Q 26.90625 39.59375 30.40625 38.09375 
Q 34.203125 36.5 38.09375 34.890625 
Q 42 33.296875 45.5 29.90625 
Q 49.90625 25.5 49.90625 18.90625 
Q 49.90625 14.5 48.09375 10.796875 
Q 46.296875 7.09375 42.9375 4.4375 
Q 39.59375 1.796875 34.796875 0.296875 
Q 30 -1.203125 24 -1.203125 
Q 18.59375 -1.203125 14.046875 -0.34375 
Q 9.5 0.5 6 2 
z
" id="Charter-83"/>
      <path d="M 2.5 42.09375 
L 2.5 45.203125 
L 9.09375 48.09375 
L 13.40625 57.40625 
L 17.09375 57.40625 
L 17.09375 46.796875 
L 32.296875 46.796875 
L 32.296875 42.09375 
L 17.09375 42.09375 
L 17.09375 15.703125 
Q 17.09375 12.796875 17.390625 10.75 
Q 17.703125 8.703125 18.59375 7.390625 
Q 19.5 6.09375 21.140625 5.4375 
Q 22.796875 4.796875 25.40625 4.796875 
Q 28.59375 4.796875 32.296875 5.59375 
L 32.296875 1.90625 
Q 28.796875 0.796875 25.4375 0.25 
Q 22.09375 -0.296875 19.203125 -0.296875 
Q 13 -0.296875 10.890625 2.09375 
Q 8.796875 4.5 8.796875 9.796875 
L 8.796875 42.09375 
z
" id="Charter-116"/>
      <path d="M 44.796875 5.09375 
Q 40.296875 2.09375 35.546875 0.59375 
Q 30.796875 -0.90625 26 -0.90625 
Q 21 -0.90625 16.890625 0.890625 
Q 12.796875 2.703125 9.890625 5.890625 
Q 7 9.09375 5.34375 13.640625 
Q 3.703125 18.203125 3.703125 23.703125 
Q 3.703125 29.40625 5.390625 34.046875 
Q 7.09375 38.703125 10.1875 42.046875 
Q 13.296875 45.40625 17.546875 47.25 
Q 21.796875 49.09375 26.796875 49.09375 
Q 35 49.09375 39.890625 43.890625 
Q 44.796875 38.703125 44.796875 29.40625 
Q 44.796875 28.59375 44.796875 27.84375 
Q 44.796875 27.09375 44.703125 26.296875 
L 12.296875 26.296875 
L 12.296875 25.203125 
Q 12.296875 15.5 16.890625 10.140625 
Q 21.5 4.796875 29.09375 4.796875 
Q 32.90625 4.796875 36.703125 6.25 
Q 40.5 7.703125 44.796875 10.59375 
z
M 35.90625 32.09375 
Q 35.90625 38.203125 33.25 41.390625 
Q 30.59375 44.59375 25.5 44.59375 
Q 23.09375 44.59375 20.890625 43.59375 
Q 18.703125 42.59375 16.953125 40.75 
Q 15.203125 38.90625 14.09375 36.296875 
Q 13 33.703125 12.796875 30.5 
L 35.90625 30.5 
z
" id="Charter-101"/>
      <path d="M 33.40625 5.796875 
Q 28.59375 2.59375 24.59375 0.9375 
Q 20.59375 -0.703125 17 -0.703125 
Q 11 -0.703125 7.59375 2.84375 
Q 4.203125 6.40625 4.203125 12.09375 
Q 4.203125 16 5.953125 18.640625 
Q 7.703125 21.296875 11.296875 23.296875 
Q 14.90625 25.296875 20.40625 26.890625 
Q 25.90625 28.5 33.40625 30.296875 
L 33.40625 33.5 
Q 33.40625 39.5 31.5 42.09375 
Q 29.59375 44.703125 24.203125 44.703125 
Q 20.5 44.703125 16.59375 43.09375 
L 16.59375 34.703125 
L 9.703125 34.703125 
Q 8 34.703125 7.296875 35.34375 
Q 6.59375 36 6.59375 37.796875 
Q 6.59375 40.09375 8 42.140625 
Q 9.40625 44.203125 12 45.75 
Q 14.59375 47.296875 18.34375 48.1875 
Q 22.09375 49.09375 26.796875 49.09375 
Q 34.703125 49.09375 38.203125 45.6875 
Q 41.703125 42.296875 41.703125 34.703125 
L 41.703125 5.703125 
L 43.5 4.09375 
L 48.796875 3.59375 
L 48.796875 0 
L 34.703125 0 
z
M 33.40625 26.796875 
Q 28.09375 25.296875 24.25 24 
Q 20.40625 22.703125 17.90625 21.140625 
Q 15.40625 19.59375 14.203125 17.59375 
Q 13 15.59375 13 12.90625 
Q 13 9.203125 15.09375 6.953125 
Q 17.203125 4.703125 21 4.703125 
Q 23.5 4.703125 26.546875 5.84375 
Q 29.59375 7 33.40625 9.203125 
z
" id="Charter-97"/>
      <path d="M 45.40625 42.40625 
Q 56.796875 49.09375 62.59375 49.09375 
Q 68.59375 49.09375 72.046875 45.25 
Q 75.5 41.40625 75.5 33.90625 
L 75.5 5.703125 
L 77.203125 4.09375 
L 82.5 3.59375 
L 82.5 0 
L 60.703125 0 
L 60.703125 3.59375 
L 65.40625 4.09375 
L 67.203125 5.703125 
L 67.203125 32.203125 
Q 67.203125 37.5 65.046875 40 
Q 62.90625 42.5 58.203125 42.5 
Q 55.796875 42.5 52.9375 41.640625 
Q 50.09375 40.796875 46.90625 39.203125 
L 46.90625 5.703125 
L 48.703125 4.09375 
L 53.40625 3.59375 
L 53.40625 0 
L 32.09375 0 
L 32.09375 3.59375 
L 36.90625 4.09375 
L 38.59375 5.703125 
L 38.59375 32.203125 
Q 38.59375 42.5 29.796875 42.5 
Q 25 42.5 18.40625 39.203125 
L 18.40625 5.703125 
L 20.09375 4.09375 
L 24.90625 3.59375 
L 24.90625 0 
L 3 0 
L 3 3.59375 
L 8.40625 4.09375 
L 10.09375 5.703125 
L 10.09375 41.90625 
L 3 41.90625 
L 3 45 
L 14.59375 48.59375 
L 18.40625 48.59375 
L 18.40625 43.09375 
Q 23.40625 46 27.296875 47.546875 
Q 31.203125 49.09375 34.40625 49.09375 
Q 41.90625 49.09375 45.40625 42.40625 
z
" id="Charter-109"/>
     </defs>
     <g transform="translate(134.92 56.6375)scale(0.16 -0.16)">
      <use xlink:href="#Charter-83"/>
      <use x="55.599991" xlink:href="#Charter-116"/>
      <use x="88.999985" xlink:href="#Charter-101"/>
      <use x="138.099976" xlink:href="#Charter-97"/>
      <use x="188.799973" xlink:href="#Charter-109"/>
      <use x="273.09996" xlink:href="#Charter-32"/>
      <use x="300.899948" xlink:href="#Charter-54"/>
      <use x="356.499939" xlink:href="#Charter-48"/>
      <use x="412.09993" xlink:href="#Charter-48"/>
      <use x="467.699921" xlink:href="#Charter-75"/>
     </g>
    </g>
   </g>
  </g>
 </g>
 <defs>
  <clipPath id="p785daf5c59">
   <rect height="217.44" width="558" x="75.72" y="7.2"/>
  </clipPath>
 </defs>
</svg>
